<svg width="182" height="23" viewBox="0 0 182 23" fill="none" xmlns="http://www.w3.org/2000/svg">
<path d="M0.814 9.322C0.814 7.826 1.15867 6.484 1.848 5.296C2.552 4.108 3.498 3.184 4.686 2.524C5.88867 1.84933 7.20133 1.512 8.624 1.512C10.252 1.512 11.6967 1.91533 12.958 2.722C14.234 3.514 15.158 4.64333 15.73 6.11H12.716C12.32 5.30333 11.77 4.702 11.066 4.306C10.362 3.91 9.548 3.712 8.624 3.712C7.612 3.712 6.71 3.93933 5.918 4.394C5.126 4.84867 4.50267 5.50133 4.048 6.352C3.608 7.20267 3.388 8.19267 3.388 9.322C3.388 10.4513 3.608 11.4413 4.048 12.292C4.50267 13.1427 5.126 13.8027 5.918 14.272C6.71 14.7267 7.612 14.954 8.624 14.954C9.548 14.954 10.362 14.756 11.066 14.36C11.77 13.964 12.32 13.3627 12.716 12.556H15.73C15.158 14.0227 14.234 15.152 12.958 15.944C11.6967 16.736 10.252 17.132 8.624 17.132C7.18667 17.132 5.874 16.802 4.686 16.142C3.498 15.4673 2.552 14.536 1.848 13.348C1.15867 12.16 0.814 10.818 0.814 9.322ZM24.9356 4.68C25.8596 4.68 26.681 4.878 27.3996 5.274C28.133 5.67 28.705 6.25667 29.1156 7.034C29.541 7.81133 29.7536 8.75 29.7536 9.85V17H27.2676V10.224C27.2676 9.13867 26.9963 8.31 26.4536 7.738C25.911 7.15133 25.1703 6.858 24.2316 6.858C23.293 6.858 22.545 7.15133 21.9876 7.738C21.445 8.31 21.1736 9.13867 21.1736 10.224V17H18.6656V0.72H21.1736V6.286C21.599 5.77267 22.1343 5.37667 22.7796 5.098C23.4396 4.81933 24.1583 4.68 24.9356 4.68ZM44.0627 10.642C44.0627 11.0967 44.0334 11.5073 43.9747 11.874H34.7127C34.7861 12.842 35.1454 13.6193 35.7907 14.206C36.4361 14.7927 37.2281 15.086 38.1667 15.086C39.5161 15.086 40.4694 14.5213 41.0267 13.392H43.7327C43.3661 14.5067 42.6987 15.4233 41.7307 16.142C40.7774 16.846 39.5894 17.198 38.1667 17.198C37.0081 17.198 35.9667 16.9413 35.0427 16.428C34.1334 15.9 33.4147 15.1667 32.8867 14.228C32.3734 13.2747 32.1167 12.1747 32.1167 10.928C32.1167 9.68133 32.3661 8.58867 32.8647 7.65C33.3781 6.69667 34.0894 5.96333 34.9987 5.45C35.9227 4.93667 36.9787 4.68 38.1667 4.68C39.3107 4.68 40.3301 4.92933 41.2247 5.428C42.1194 5.92667 42.8161 6.63067 43.3147 7.54C43.8134 8.43467 44.0627 9.46867 44.0627 10.642ZM41.4447 9.85C41.4301 8.926 41.1001 8.18533 40.4547 7.628C39.8094 7.07067 39.0101 6.792 38.0567 6.792C37.1914 6.792 36.4507 7.07067 35.8347 7.628C35.2187 8.17067 34.8521 8.91133 34.7347 9.85H41.4447ZM45.6949 10.928C45.6949 9.68133 45.9442 8.58867 46.4429 7.65C46.9562 6.69667 47.6602 5.96333 48.5549 5.45C49.4495 4.93667 50.4762 4.68 51.6349 4.68C53.1015 4.68 54.3115 5.032 55.2649 5.736C56.2329 6.42533 56.8855 7.41533 57.2229 8.706H54.5169C54.2969 8.10467 53.9449 7.63533 53.4609 7.298C52.9769 6.96067 52.3682 6.792 51.6349 6.792C50.6082 6.792 49.7869 7.15867 49.1709 7.892C48.5695 8.61067 48.2689 9.62267 48.2689 10.928C48.2689 12.2333 48.5695 13.2527 49.1709 13.986C49.7869 14.7193 50.6082 15.086 51.6349 15.086C53.0869 15.086 54.0475 14.448 54.5169 13.172H57.2229C56.8709 14.404 56.2109 15.3867 55.2429 16.12C54.2749 16.8387 53.0722 17.198 51.6349 17.198C50.4762 17.198 49.4495 16.9413 48.5549 16.428C47.6602 15.9 46.9562 15.1667 46.4429 14.228C45.9442 13.2747 45.6949 12.1747 45.6949 10.928ZM64.5183 10.95L70.1063 17H66.7183L62.2303 11.786V17H59.7223V0.72H62.2303V10.18L66.6303 4.878H70.1063L64.5183 10.95ZM76.9419 17.154C75.9152 17.154 74.9912 16.978 74.1699 16.626C73.3486 16.2593 72.7032 15.746 72.2339 15.086C71.7646 14.426 71.5299 13.656 71.5299 12.776H74.2139C74.2726 13.436 74.5292 13.9787 74.9839 14.404C75.4532 14.8293 76.1059 15.042 76.9419 15.042C77.8072 15.042 78.4819 14.8367 78.9659 14.426C79.4499 14.0007 79.6919 13.458 79.6919 12.798C79.6919 12.2847 79.5379 11.8667 79.2299 11.544C78.9366 11.2213 78.5626 10.972 78.1079 10.796C77.6679 10.62 77.0519 10.4293 76.2599 10.224C75.2626 9.96 74.4486 9.696 73.8179 9.432C73.2019 9.15333 72.6739 8.728 72.2339 8.156C71.7939 7.584 71.5739 6.82133 71.5739 5.868C71.5739 4.988 71.7939 4.218 72.2339 3.558C72.6739 2.898 73.2899 2.392 74.0819 2.04C74.8739 1.688 75.7906 1.512 76.8319 1.512C78.3132 1.512 79.5232 1.886 80.4619 2.634C81.4152 3.36733 81.9432 4.37933 82.0459 5.67H79.2739C79.2299 5.11267 78.9659 4.636 78.4819 4.24C77.9979 3.844 77.3599 3.646 76.5679 3.646C75.8492 3.646 75.2626 3.82933 74.8079 4.196C74.3532 4.56267 74.1259 5.09067 74.1259 5.78C74.1259 6.24933 74.2652 6.638 74.5439 6.946C74.8372 7.23933 75.2039 7.474 75.6439 7.65C76.0839 7.826 76.6852 8.01667 77.4479 8.222C78.4599 8.50067 79.2812 8.77933 79.9119 9.058C80.5572 9.33667 81.0999 9.76933 81.5399 10.356C81.9946 10.928 82.2219 11.698 82.2219 12.666C82.2219 13.4433 82.0092 14.1767 81.5839 14.866C81.1732 15.5553 80.5646 16.1127 79.7579 16.538C78.9659 16.9487 78.0272 17.154 76.9419 17.154ZM87.6893 6.66C88.1146 6.10267 88.6939 5.63333 89.4273 5.252C90.1606 4.87067 90.9893 4.68 91.9133 4.68C92.9693 4.68 93.9299 4.944 94.7953 5.472C95.6753 5.98533 96.3646 6.71133 96.8633 7.65C97.3619 8.58867 97.6113 9.66667 97.6113 10.884C97.6113 12.1013 97.3619 13.194 96.8633 14.162C96.3646 15.1153 95.6753 15.8633 94.7953 16.406C93.9299 16.934 92.9693 17.198 91.9133 17.198C90.9893 17.198 90.1679 17.0147 89.4493 16.648C88.7306 16.2667 88.1439 15.7973 87.6893 15.24V22.764H85.1813V4.878H87.6893V6.66ZM95.0593 10.884C95.0593 10.048 94.8833 9.32933 94.5312 8.728C94.1939 8.112 93.7393 7.65 93.1673 7.342C92.6099 7.01933 92.0086 6.858 91.3633 6.858C90.7326 6.858 90.1313 7.01933 89.5593 7.342C89.0019 7.66467 88.5473 8.134 88.1953 8.75C87.8579 9.366 87.6893 10.092 87.6893 10.928C87.6893 11.764 87.8579 12.4973 88.1953 13.128C88.5473 13.744 89.0019 14.2133 89.5593 14.536C90.1313 14.8587 90.7326 15.02 91.3633 15.02C92.0086 15.02 92.6099 14.8587 93.1673 14.536C93.7393 14.1987 94.1939 13.7147 94.5312 13.084C94.8833 12.4533 95.0593 11.72 95.0593 10.884ZM111.201 10.642C111.201 11.0967 111.172 11.5073 111.113 11.874H101.851C101.925 12.842 102.284 13.6193 102.929 14.206C103.575 14.7927 104.367 15.086 105.305 15.086C106.655 15.086 107.608 14.5213 108.165 13.392H110.871C110.505 14.5067 109.837 15.4233 108.869 16.142C107.916 16.846 106.728 17.198 105.305 17.198C104.147 17.198 103.105 16.9413 102.181 16.428C101.272 15.9 100.553 15.1667 100.025 14.228C99.5121 13.2747 99.2554 12.1747 99.2554 10.928C99.2554 9.68133 99.5047 8.58867 100.003 7.65C100.517 6.69667 101.228 5.96333 102.137 5.45C103.061 4.93667 104.117 4.68 105.305 4.68C106.449 4.68 107.469 4.92933 108.363 5.428C109.258 5.92667 109.955 6.63067 110.453 7.54C110.952 8.43467 111.201 9.46867 111.201 10.642ZM108.583 9.85C108.569 8.926 108.239 8.18533 107.593 7.628C106.948 7.07067 106.149 6.792 105.195 6.792C104.33 6.792 103.589 7.07067 102.973 7.628C102.357 8.17067 101.991 8.91133 101.873 9.85H108.583ZM124.78 10.642C124.78 11.0967 124.75 11.5073 124.692 11.874H115.43C115.503 12.842 115.862 13.6193 116.508 14.206C117.153 14.7927 117.945 15.086 118.884 15.086C120.233 15.086 121.186 14.5213 121.744 13.392H124.45C124.083 14.5067 123.416 15.4233 122.448 16.142C121.494 16.846 120.306 17.198 118.884 17.198C117.725 17.198 116.684 16.9413 115.76 16.428C114.85 15.9 114.132 15.1667 113.604 14.228C113.09 13.2747 112.834 12.1747 112.834 10.928C112.834 9.68133 113.083 8.58867 113.582 7.65C114.095 6.69667 114.806 5.96333 115.716 5.45C116.64 4.93667 117.696 4.68 118.884 4.68C120.028 4.68 121.047 4.92933 121.942 5.428C122.836 5.92667 123.533 6.63067 124.032 7.54C124.53 8.43467 124.78 9.46867 124.78 10.642ZM122.162 9.85C122.147 8.926 121.817 8.18533 121.172 7.628C120.526 7.07067 119.727 6.792 118.774 6.792C117.908 6.792 117.168 7.07067 116.552 7.628C115.936 8.17067 115.569 8.91133 115.452 9.85H122.162ZM126.412 10.928C126.412 9.68133 126.661 8.58867 127.16 7.65C127.673 6.69667 128.377 5.96333 129.272 5.45C130.166 4.93667 131.193 4.68 132.352 4.68C133.818 4.68 135.028 5.032 135.982 5.736C136.95 6.42533 137.602 7.41533 137.94 8.706H135.234C135.014 8.10467 134.662 7.63533 134.178 7.298C133.694 6.96067 133.085 6.792 132.352 6.792C131.325 6.792 130.504 7.15867 129.888 7.892C129.286 8.61067 128.986 9.62267 128.986 10.928C128.986 12.2333 129.286 13.2527 129.888 13.986C130.504 14.7193 131.325 15.086 132.352 15.086C133.804 15.086 134.764 14.448 135.234 13.172H137.94C137.588 14.404 136.928 15.3867 135.96 16.12C134.992 16.8387 133.789 17.198 132.352 17.198C131.193 17.198 130.166 16.9413 129.272 16.428C128.377 15.9 127.673 15.1667 127.16 14.228C126.661 13.2747 126.412 12.1747 126.412 10.928ZM146.709 4.68C147.633 4.68 148.454 4.878 149.173 5.274C149.906 5.67 150.478 6.25667 150.889 7.034C151.314 7.81133 151.527 8.75 151.527 9.85V17H149.041V10.224C149.041 9.13867 148.77 8.31 148.227 7.738C147.684 7.15133 146.944 6.858 146.005 6.858C145.066 6.858 144.318 7.15133 143.761 7.738C143.218 8.31 142.947 9.13867 142.947 10.224V17H140.439V0.72H142.947V6.286C143.372 5.77267 143.908 5.37667 144.553 5.098C145.213 4.81933 145.932 4.68 146.709 4.68ZM169.879 14.646H164.687L163.917 17H158.791L164.489 1.424H170.121L175.797 17H170.649L169.879 14.646ZM168.691 10.972L167.283 6.638L165.875 10.972H168.691ZM181.791 1.424V17H176.907V1.424H181.791Z" fill="white"/>
</svg>
