<svg width="1440" height="2367" viewBox="0 0 1440 2367" fill="none" xmlns="http://www.w3.org/2000/svg">
<path opacity="0.0144928" d="M1172.86 2271.26C1179.57 2278.52 1189.35 2281.25 1197.59 2278.17L1520.99 2157.45C1526.59 2155.36 1530.84 2150.82 1532.75 2144.9L1677.53 1695.31C1679.11 1690.4 1678.97 1684.86 1677.13 1679.64L1525.45 1249.14C1522.56 1240.95 1515.87 1234.52 1507.92 1232.3L1185.86 1142.3C1177.91 1140.08 1169.92 1142.41 1164.92 1148.4L902.445 1463.16C899.257 1466.99 897.546 1472 897.6 1477.37L902.484 1968.78C902.549 1975.25 905.167 1981.72 909.719 1986.64L1172.86 2271.26Z" stroke="url(#paint0_linear_37001_411)" stroke-opacity="0.5" stroke-width="4"/>
<path opacity="0.0289855" d="M1118.33 2246.2C1124.6 2253.61 1134.1 2256.74 1142.45 2254.16L1472.95 2152.14C1478.73 2150.36 1483.31 2146.02 1485.59 2140.18L1655.01 1706.71C1656.92 1701.83 1657.09 1696.22 1655.49 1690.86L1527.28 1260.84C1524.83 1252.61 1518.52 1245.96 1510.73 1243.39L1192.97 1138.55C1185.18 1135.98 1177.08 1137.88 1171.72 1143.54L891.853 1438.92C888.362 1442.61 886.317 1447.59 886.069 1453.03L864.064 1935.13C863.767 1941.63 866.062 1948.23 870.397 1953.35L1118.33 2246.2Z" stroke="url(#paint1_linear_37001_411)" stroke-opacity="0.5" stroke-width="4"/>
<path opacity="0.0434783" d="M1064.69 2219.82C1070.52 2227.36 1079.74 2230.87 1088.19 2228.78L1424.68 2145.53C1430.63 2144.06 1435.52 2139.96 1438.18 2134.23L1631.27 1717.82C1633.51 1712.99 1634 1707.34 1632.66 1701.86L1527.85 1273.48C1525.83 1265.23 1519.91 1258.38 1512.3 1255.47L1199.7 1136.24C1192.08 1133.34 1183.9 1134.81 1178.2 1140.12L882.066 1415.57C878.279 1419.09 875.896 1424.02 875.336 1429.49L827.033 1901.13C826.369 1907.62 828.325 1914.33 832.428 1919.63L1064.69 2219.82Z" stroke="url(#paint2_linear_37001_411)" stroke-opacity="0.5" stroke-width="4"/>
<path opacity="0.057971" d="M1012.02 2192.19C1017.42 2199.84 1026.35 2203.72 1034.87 2202.11L1376.26 2137.64C1382.36 2136.49 1387.55 2132.65 1390.58 2127.05L1606.32 1728.57C1608.89 1723.83 1609.71 1718.16 1608.65 1712.59L1527.09 1286.96C1525.51 1278.72 1519.98 1271.69 1512.55 1268.46L1205.97 1135.32C1198.54 1132.1 1190.29 1133.15 1184.26 1138.09L873.034 1393.14C868.96 1396.48 866.238 1401.32 865.357 1406.8L791.413 1866.86C790.375 1873.32 791.981 1880.11 795.839 1885.58L1012.02 2192.19Z" stroke="url(#paint3_linear_37001_411)" stroke-opacity="0.5" stroke-width="4"/>
<path opacity="0.0724638" d="M960.39 2163.37C965.354 2171.12 974.011 2175.36 982.59 2174.22L1327.77 2128.48C1333.99 2127.65 1339.47 2124.09 1342.86 2118.66L1580.19 1738.91C1583.08 1734.27 1584.25 1728.61 1583.46 1722.97L1524.95 1301.21C1523.81 1292.99 1518.69 1285.8 1511.45 1282.26L1211.72 1135.75C1204.47 1132.21 1196.17 1132.84 1189.83 1137.41L864.701 1371.64C860.353 1374.78 857.296 1379.5 856.089 1384.97L757.219 1832.4C755.805 1838.79 757.051 1845.65 760.65 1851.27L960.39 2163.37Z" stroke="url(#paint4_linear_37001_411)" stroke-opacity="0.5" stroke-width="4"/>
<path opacity="0.0869565" d="M909.867 2133.44C914.404 2141.29 922.782 2145.86 931.406 2145.19L1279.26 2118.07C1285.59 2117.57 1291.34 2114.3 1295.09 2109.06L1552.9 1748.77C1556.11 1744.27 1557.62 1738.66 1557.13 1732.97L1521.4 1316.14C1520.7 1307.97 1515.97 1300.63 1508.93 1296.79L1216.85 1137.48C1209.81 1133.64 1201.46 1133.84 1194.83 1138.02L857.016 1351.11C852.409 1354.01 849.022 1358.6 847.487 1364.01L724.462 1797.82C722.672 1804.13 723.55 1811.02 726.879 1816.78L909.867 2133.44Z" stroke="url(#paint5_linear_37001_411)" stroke-opacity="0.5" stroke-width="4"/>
<path opacity="0.101449" d="M860.519 2102.48C864.631 2110.42 872.734 2115.32 881.391 2115.1L1230.82 2106.43C1237.24 2106.27 1243.24 2103.31 1247.33 2098.29L1524.47 1758.1C1528 1753.77 1529.85 1748.23 1529.66 1742.53L1516.39 1331.66C1516.13 1323.55 1511.8 1316.08 1504.96 1311.95L1221.31 1140.45C1214.46 1136.31 1206.09 1136.1 1199.19 1139.88L849.919 1331.55C845.072 1334.21 841.368 1338.62 839.505 1343.96L693.147 1763.22C690.985 1769.41 691.49 1776.3 694.537 1782.18L860.519 2102.48Z" stroke="url(#paint6_linear_37001_411)" stroke-opacity="0.5" stroke-width="4"/>
<path opacity="0.115942" d="M812.406 2070.57C816.096 2078.59 823.926 2083.81 832.605 2084.04L1182.51 2093.59C1188.99 2093.77 1195.22 2091.13 1199.64 2086.35L1494.95 1766.86C1498.78 1762.72 1500.96 1757.29 1501.08 1751.6L1509.89 1347.69C1510.06 1339.66 1506.13 1332.07 1499.5 1327.65L1225.01 1144.6C1218.37 1140.18 1209.99 1139.54 1202.84 1142.93L843.357 1312.98C838.291 1315.38 834.283 1319.59 832.097 1324.82L663.275 1728.66C660.747 1734.71 660.877 1741.58 663.632 1747.56L812.406 2070.57Z" stroke="url(#paint7_linear_37001_411)" stroke-opacity="0.5" stroke-width="4"/>
<path opacity="0.130435" d="M765.587 2037.8C768.856 2045.88 776.414 2051.42 785.104 2052.1L1134.41 2079.58C1140.93 2080.09 1147.36 2077.8 1152.1 2073.28L1464.37 1774.99C1468.47 1771.07 1470.98 1765.78 1471.41 1760.12L1501.86 1364.12C1502.47 1356.19 1498.94 1348.51 1492.52 1343.81L1227.89 1149.88C1221.47 1145.18 1213.08 1144.13 1205.7 1147.1L837.271 1295.41C832.009 1297.53 827.716 1301.52 825.216 1306.61L634.843 1694.23C631.958 1700.1 631.712 1706.93 634.167 1713L765.587 2037.8Z" stroke="url(#paint8_linear_37001_411)" stroke-opacity="0.5" stroke-width="4"/>
<path opacity="0.144928" d="M720.112 2004.23C722.962 2012.38 730.247 2018.23 738.939 2019.36L1086.56 2064.42C1093.11 2065.27 1099.72 2063.34 1104.75 2059.1L1432.75 1782.45C1437.11 1778.77 1439.94 1773.64 1440.68 1768.05L1492.29 1380.89C1493.33 1373.08 1490.2 1365.3 1484 1360.33L1229.88 1156.23C1223.69 1151.25 1215.31 1149.78 1207.72 1152.33L831.605 1278.85C826.173 1280.68 821.616 1284.42 818.812 1289.34L607.842 1660C604.612 1665.67 603.992 1672.42 606.139 1678.56L720.112 2004.23Z" stroke="url(#paint9_linear_37001_411)" stroke-opacity="0.5" stroke-width="4"/>
<path opacity="0.15942" d="M676.03 1969.97C678.46 1978.17 685.471 1984.33 694.155 1985.9L1039.05 2048.16C1045.6 2049.35 1052.36 2047.77 1057.66 2043.84L1400.15 1789.2C1404.75 1785.78 1407.87 1780.85 1408.93 1775.35L1481.14 1397.89C1482.61 1390.21 1479.88 1382.36 1473.92 1377.12L1230.94 1163.57C1224.97 1158.33 1216.62 1156.44 1208.84 1158.57L826.301 1263.3C820.726 1264.82 815.929 1268.29 812.835 1273.03L582.261 1626.03C578.699 1631.49 577.711 1638.14 579.543 1644.32L676.03 1969.97Z" stroke="url(#paint10_linear_37001_411)" stroke-opacity="0.5" stroke-width="4"/>
<path opacity="0.173913" d="M633.383 1935.1C635.39 1943.35 642.126 1949.82 650.791 1951.83L991.921 2030.83C998.45 2032.35 1005.35 2031.14 1010.88 2027.53L1366.61 1795.2C1371.41 1792.06 1374.82 1787.34 1376.17 1781.96L1468.42 1415.03C1470.31 1407.51 1467.98 1399.59 1462.25 1394.09L1230.98 1171.85C1225.26 1166.35 1216.94 1164.04 1209 1165.74L821.302 1248.75C815.613 1249.97 810.602 1253.15 807.237 1257.67L558.082 1592.41C554.206 1597.62 552.855 1604.15 554.367 1610.36L633.383 1935.1Z" stroke="url(#paint11_linear_37001_411)" stroke-opacity="0.5" stroke-width="4"/>
<path opacity="0.188406" d="M592.206 1899.7C593.788 1907.99 600.243 1914.78 608.88 1917.22L945.245 2012.47C951.734 2014.31 958.731 2013.48 964.483 2010.2L1332.16 1800.41C1337.14 1797.57 1340.81 1793.09 1342.46 1787.85L1454.11 1432.24C1456.42 1424.89 1454.49 1416.92 1449 1411.15L1229.97 1180.99C1224.49 1175.23 1216.24 1172.5 1208.14 1173.77L816.552 1235.21C810.776 1236.12 805.58 1238.99 801.963 1243.28L535.286 1559.19C531.114 1564.14 529.408 1570.52 530.597 1576.75L592.206 1899.7Z" stroke="url(#paint12_linear_37001_411)" stroke-opacity="0.5" stroke-width="4"/>
<path opacity="0.202899" d="M552.534 1863.87C553.686 1872.2 559.854 1879.29 568.45 1882.17L899.078 1993.12C905.504 1995.28 912.572 1994.83 918.516 1991.89L1296.84 1804.81C1301.99 1802.27 1305.89 1798.05 1307.82 1792.97L1438.2 1449.42C1440.92 1442.26 1439.4 1434.24 1434.17 1428.22L1227.86 1190.93C1222.63 1184.92 1214.45 1181.77 1206.23 1182.6L811.996 1222.67C806.163 1223.27 800.811 1225.82 796.963 1229.85L513.848 1526.45C509.4 1531.11 507.351 1537.33 508.213 1543.56L552.534 1863.87Z" stroke="url(#paint13_linear_37001_411)" stroke-opacity="0.5" stroke-width="4"/>
<path opacity="0.217391" d="M514.392 1827.69C515.109 1836.04 520.981 1843.45 529.524 1846.77L853.471 1972.83C859.815 1975.3 866.927 1975.23 873.034 1972.64L1260.72 1808.36C1265.99 1806.13 1270.11 1802.19 1272.31 1797.28L1420.71 1466.48C1423.83 1459.53 1422.71 1451.47 1417.74 1445.21L1224.59 1201.59C1219.62 1195.33 1211.53 1191.76 1203.21 1192.16L807.578 1211.13C801.715 1211.41 796.237 1213.64 792.182 1217.4L493.74 1494.25C489.039 1498.61 486.658 1504.64 487.19 1510.85L514.392 1827.69Z" stroke="url(#paint14_linear_37001_411)" stroke-opacity="0.5" stroke-width="4"/>
<path opacity="0.231884" d="M477.8 1791.25C478.076 1799.63 483.641 1807.35 492.116 1811.11L808.479 1951.64C814.721 1954.41 821.847 1954.72 828.092 1952.49L1223.83 1811.04C1229.19 1809.12 1233.51 1805.47 1235.96 1800.76L1401.63 1483.36C1405.14 1476.62 1404.43 1468.54 1399.74 1462.04L1220.12 1212.89C1215.43 1206.39 1207.45 1202.4 1199.05 1202.37L803.245 1200.56C797.379 1200.53 791.805 1202.44 787.566 1205.92L474.933 1462.64C469.999 1466.69 467.3 1472.52 467.503 1478.69L477.8 1791.25Z" stroke="url(#paint15_linear_37001_411)" stroke-opacity="0.5" stroke-width="4"/>
<path opacity="0.246377" d="M442.776 1754.65C442.603 1763.03 447.847 1771.06 456.24 1775.27L764.151 1929.6C770.271 1932.67 777.385 1933.35 783.739 1931.47L1186.21 1812.81C1191.65 1811.21 1196.13 1807.86 1198.82 1803.37L1380.97 1499.95C1384.88 1493.44 1384.58 1485.36 1380.18 1478.62L1214.42 1224.77C1210.02 1218.04 1202.17 1213.63 1193.71 1213.16L798.943 1190.96C793.101 1190.63 787.46 1192.21 783.061 1195.4L457.391 1431.68C452.249 1435.41 449.245 1441.02 449.119 1447.14L442.776 1754.65Z" stroke="url(#paint16_linear_37001_411)" stroke-opacity="0.5" stroke-width="4"/>
<path opacity="0.26087" d="M409.329 1717.97C408.699 1726.35 413.606 1734.69 421.899 1739.34L720.534 1906.76C726.513 1910.11 733.588 1911.15 740.024 1909.64L1147.93 1813.67C1153.41 1812.39 1158.03 1809.33 1160.95 1805.07L1358.77 1516.18C1363.05 1509.93 1363.16 1501.84 1359.07 1494.88L1207.46 1237.14C1203.36 1230.18 1195.66 1225.36 1187.16 1224.45L794.62 1182.31C788.827 1181.69 783.146 1182.94 778.611 1185.84L441.077 1401.43C435.751 1404.83 432.457 1410.22 432.003 1416.26L409.329 1717.97Z" stroke="url(#paint17_linear_37001_411)" stroke-opacity="0.5" stroke-width="4"/>
<path opacity="0.275362" d="M377.463 1681.3C376.368 1689.66 380.92 1698.31 389.093 1703.4L677.671 1883.17C683.491 1886.79 690.501 1888.2 696.995 1887.04L1109.03 1813.6C1114.53 1812.62 1119.26 1809.87 1122.39 1805.84L1335.03 1531.98C1339.68 1525.99 1340.21 1517.92 1336.43 1510.74L1199.2 1249.94C1195.42 1242.76 1187.89 1237.53 1179.38 1236.18L790.225 1174.59C784.503 1173.69 778.81 1174.62 774.162 1177.22L425.951 1371.94C420.463 1375.01 416.895 1380.15 416.116 1386.1L377.463 1681.3Z" stroke="url(#paint18_linear_37001_411)" stroke-opacity="0.5" stroke-width="4"/>
<path opacity="0.289855" d="M347.177 1644.72C345.608 1653.05 349.785 1662 357.816 1667.54L635.604 1858.88C641.247 1862.76 648.167 1864.52 654.693 1863.71L1069.55 1812.57C1075.05 1811.89 1079.88 1809.45 1083.2 1805.66L1309.78 1547.27C1314.79 1541.56 1315.74 1533.51 1312.3 1526.12L1189.62 1263.07C1186.17 1255.68 1178.84 1250.05 1170.34 1248.27L785.708 1167.79C780.078 1166.62 774.396 1167.23 769.658 1169.53L411.97 1343.27C406.343 1346 402.516 1350.88 401.415 1356.73L347.177 1644.72Z" stroke="url(#paint19_linear_37001_411)" stroke-opacity="0.5" stroke-width="4"/>
<path opacity="0.304348" d="M318.465 1608.33C316.415 1616.61 320.192 1625.86 328.06 1631.83L594.371 1833.95C599.819 1838.08 606.627 1840.17 613.163 1839.72L1029.56 1810.57C1035.03 1810.19 1039.93 1808.05 1043.42 1804.51L1283.06 1561.97C1288.41 1556.55 1289.8 1548.55 1286.7 1540.96L1178.7 1276.47C1175.6 1268.88 1168.49 1262.86 1160.02 1260.65L781.021 1161.89C775.501 1160.45 769.852 1160.76 765.045 1162.76L399.087 1315.45C393.344 1317.84 389.274 1322.46 387.855 1328.19L318.465 1608.33Z" stroke="url(#paint20_linear_37001_411)" stroke-opacity="0.5" stroke-width="4"/>
<path opacity="0.318841" d="M291.313 1572.2C288.774 1580.41 292.128 1589.95 299.806 1596.35L554.005 1808.43C559.244 1812.8 565.917 1815.21 572.44 1815.1L989.108 1807.59C994.533 1807.5 999.486 1805.65 1003.13 1802.37L1254.9 1576.02C1260.59 1570.91 1262.4 1562.97 1259.67 1555.19L1166.43 1290.06C1163.69 1282.29 1156.83 1275.87 1148.42 1273.24L776.114 1156.85C770.721 1155.16 765.126 1155.18 760.269 1156.89L387.254 1288.52C381.415 1290.58 377.119 1294.93 375.386 1300.53L291.313 1572.2Z" stroke="url(#paint21_linear_37001_411)" stroke-opacity="0.5" stroke-width="4"/>
<path opacity="0.333333" d="M265.706 1536.43C262.67 1544.54 265.575 1554.35 273.036 1561.19L514.539 1782.38C519.553 1786.97 526.072 1789.7 532.561 1789.91L948.241 1803.63C953.605 1803.81 958.591 1802.26 962.378 1799.23L1225.35 1589.35C1231.35 1584.56 1233.6 1576.69 1231.25 1568.75L1152.79 1303.76C1150.44 1295.81 1143.85 1289.02 1135.53 1285.98L770.942 1152.65C765.692 1150.73 760.166 1150.46 755.278 1151.89L376.42 1262.54C370.505 1264.27 365.998 1268.34 363.958 1273.79L265.706 1536.43Z" stroke="url(#paint22_linear_37001_411)" stroke-opacity="0.5" stroke-width="4"/>
<path opacity="0.347826" d="M241.618 1501.08C238.08 1509.08 240.508 1519.14 247.725 1526.4L476 1755.85C480.775 1760.65 487.121 1763.67 493.558 1764.21L907.018 1798.67C912.305 1799.12 917.308 1797.85 921.221 1795.08L1194.44 1601.9C1200.74 1597.44 1203.44 1589.66 1201.48 1581.57L1137.79 1317.49C1135.84 1309.39 1129.54 1302.24 1121.34 1298.79L765.459 1149.28C760.363 1147.13 754.924 1146.59 750.021 1147.74L366.53 1237.53C360.559 1238.93 355.855 1242.72 353.514 1248.01L241.618 1501.08Z" stroke="url(#paint23_linear_37001_411)" stroke-opacity="0.5" stroke-width="4"/>
<path opacity="0.362319" d="M219.021 1466.23C214.978 1474.09 216.901 1484.4 223.842 1492.06L438.414 1728.91C442.936 1733.9 449.093 1737.2 455.461 1738.05L865.491 1792.72C870.689 1793.42 875.696 1792.43 879.72 1789.92L1162.23 1613.6C1168.82 1609.49 1171.95 1601.83 1170.42 1593.6L1121.42 1331.18C1119.88 1322.95 1113.92 1315.45 1105.84 1311.6L759.622 1146.69C754.691 1144.34 749.351 1143.54 744.446 1144.41L357.529 1213.53C351.52 1214.61 346.633 1218.11 343.999 1223.23L219.021 1466.23Z" stroke="url(#paint24_linear_37001_411)" stroke-opacity="0.5" stroke-width="4"/>
<path opacity="0.376812" d="M197.881 1431.97C193.331 1439.66 194.722 1450.17 201.356 1458.23L401.801 1701.6C406.058 1706.76 412.011 1710.33 418.294 1711.48L823.719 1785.77C828.817 1786.71 833.814 1785.99 837.935 1783.73L1128.76 1624.42C1135.62 1620.66 1139.2 1613.13 1138.1 1604.78L1103.68 1344.76C1102.58 1336.41 1096.97 1328.58 1089.05 1324.35L753.387 1144.86C748.63 1142.31 743.4 1141.27 738.506 1141.88L349.358 1190.58C343.326 1191.33 338.272 1194.54 335.352 1199.48L197.881 1431.97Z" stroke="url(#paint25_linear_37001_411)" stroke-opacity="0.5" stroke-width="4"/>
<path opacity="0.391304" d="M178.159 1398.35C173.103 1405.85 173.934 1416.54 180.229 1424.97L366.181 1673.98C370.162 1679.31 375.896 1683.13 382.081 1684.57L781.756 1777.83C786.745 1779 791.722 1778.54 795.93 1776.53L1094.1 1634.28C1101.21 1630.89 1105.24 1623.51 1104.58 1615.08L1084.6 1358.14C1083.94 1349.71 1078.71 1341.57 1070.98 1336.97L746.715 1143.75C742.139 1141.02 737.027 1139.74 732.155 1140.1L341.957 1168.69C335.919 1169.13 330.709 1172.05 327.512 1176.8L178.159 1398.35Z" stroke="url(#paint26_linear_37001_411)" stroke-opacity="0.5" stroke-width="4"/>
<path opacity="0.405797" d="M159.811 1365.45C154.252 1372.73 154.498 1383.56 160.422 1392.34L331.567 1646.11C335.262 1651.59 340.766 1655.65 346.84 1657.37L739.658 1768.9C744.532 1770.28 749.479 1770.08 753.763 1768.32L1058.3 1643.15C1065.64 1640.13 1070.11 1632.93 1069.92 1624.44L1064.17 1371.26C1063.97 1362.77 1059.15 1354.35 1051.62 1349.38L739.565 1143.34C735.175 1140.44 730.189 1138.93 725.349 1139.04L335.266 1147.89C329.233 1148.02 323.882 1150.66 320.415 1155.19L159.811 1365.45Z" stroke="url(#paint27_linear_37001_411)" stroke-opacity="0.5" stroke-width="4"/>
<path opacity="0.42029" d="M142.787 1333.33C136.734 1340.35 136.371 1351.29 141.89 1360.4L297.972 1618.05C301.37 1623.66 306.633 1627.94 312.586 1629.94L697.482 1758.98C702.235 1760.58 707.145 1760.62 711.494 1759.1L1021.42 1650.98C1028.98 1648.34 1033.89 1641.35 1034.17 1632.82L1042.42 1384.05C1042.7 1375.52 1038.31 1366.86 1031.01 1361.54L731.898 1143.59C727.701 1140.53 722.846 1138.81 718.045 1138.68L329.218 1128.2C323.205 1128.03 317.723 1130.38 313.995 1134.7L142.787 1333.33Z" stroke="url(#paint28_linear_37001_411)" stroke-opacity="0.5" stroke-width="4"/>
<path opacity="0.434783" d="M127.035 1302.05C120.497 1308.79 119.506 1319.78 124.588 1329.19L265.404 1589.86C268.497 1595.58 273.509 1600.07 279.33 1602.33L655.283 1748.1C659.91 1749.89 664.778 1750.17 669.185 1748.89L983.526 1657.73C991.283 1655.48 996.628 1648.72 997.397 1640.19L1019.37 1396.45C1020.14 1387.92 1016.21 1379.03 1009.16 1373.38L723.681 1144.45C719.678 1141.24 714.959 1139.32 710.203 1138.96L323.751 1109.63C317.768 1109.18 312.166 1111.23 308.187 1115.33L127.035 1302.05Z" stroke="url(#paint29_linear_37001_411)" stroke-opacity="0.5" stroke-width="4"/>
<path opacity="0.449275" d="M112.498 1271.66C105.49 1278.08 103.853 1289.09 108.468 1298.76L233.867 1561.58C236.647 1567.4 241.4 1572.09 247.081 1574.6L613.118 1736.26C617.616 1738.24 622.436 1738.75 626.895 1737.71L944.688 1663.37C952.62 1661.51 958.393 1655.01 959.657 1646.51L995.059 1408.38C996.323 1399.88 992.866 1390.8 986.097 1384.84L714.878 1145.91C711.073 1142.55 706.492 1140.44 701.786 1139.85L318.798 1092.21C312.854 1091.47 307.143 1093.23 302.922 1097.1L112.498 1271.66Z" stroke="url(#paint30_linear_37001_411)" stroke-opacity="0.5" stroke-width="4"/>
<path opacity="0.463768" d="M99.1134 1242.21C91.6537 1248.29 89.3615 1259.26 93.4802 1269.16L203.364 1533.27C205.823 1539.18 210.311 1544.05 215.844 1546.8L571.042 1723.47C575.409 1725.64 580.178 1726.37 584.682 1725.56L904.974 1667.87C913.059 1666.41 919.25 1660.19 921.013 1651.75L969.511 1419.79C971.275 1411.36 968.315 1402.12 961.844 1395.86L705.456 1147.91C701.852 1144.42 697.412 1142.11 692.759 1141.31L314.291 1075.93C308.395 1074.91 302.585 1076.38 298.131 1080.01L99.1134 1242.21Z" stroke="url(#paint31_linear_37001_411)" stroke-opacity="0.5" stroke-width="4"/>
<path opacity="0.478261" d="M86.8175 1213.75C78.929 1219.46 75.9757 1230.32 79.5715 1240.41L173.893 1504.99C176.025 1510.97 180.24 1516 185.618 1518.99L529.109 1709.76C533.343 1712.11 538.059 1713.06 542.603 1712.48L864.453 1671.19C872.67 1670.14 879.265 1664.23 881.531 1655.9L942.766 1430.62C945.031 1422.29 942.585 1412.93 936.431 1406.4L695.387 1150.41L696.704 1149.02L695.387 1150.41C691.984 1146.8 687.686 1144.31 683.089 1143.29L310.163 1060.81C304.323 1059.52 298.422 1060.69 293.745 1064.07L86.8175 1213.75Z" stroke="url(#paint32_linear_37001_411)" stroke-opacity="0.5" stroke-width="4"/>
<path opacity="0.492754" d="M75.5431 1186.32C67.2526 1191.62 63.6395 1202.33 66.6886 1212.56L145.45 1476.79C147.249 1482.82 151.184 1488.01 156.402 1491.23L487.374 1695.15C491.474 1697.68 496.135 1698.84 500.715 1698.48L823.199 1673.33C831.524 1672.69 838.508 1667.12 841.274 1658.92L914.864 1440.82C917.63 1432.62 915.709 1423.18 909.894 1416.39L684.64 1153.38C681.441 1149.65 677.286 1146.98 672.747 1145.76L306.345 1046.84C300.569 1045.28 294.585 1046.16 289.695 1049.29L75.5431 1186.32Z" stroke="url(#paint33_linear_37001_411)" stroke-opacity="0.5" stroke-width="4"/>
<path opacity="0.507246" d="M65.2204 1159.94C56.5588 1164.82 52.2943 1175.31 54.7768 1185.64L118.027 1448.72C119.487 1454.79 123.139 1460.12 128.19 1463.56L445.89 1679.66C449.854 1682.36 454.459 1683.73 459.073 1683.6L781.285 1674.27C789.697 1674.02 797.049 1668.82 800.309 1660.8L885.851 1450.33C889.111 1442.31 887.726 1432.83 882.268 1425.81L673.191 1156.78C670.197 1152.93 666.186 1150.09 661.706 1148.66L302.768 1034.02C297.061 1032.2 291.004 1032.79 285.909 1035.66L65.2204 1159.94Z" stroke="url(#paint34_linear_37001_411)" stroke-opacity="0.5" stroke-width="4"/>
<path opacity="0.521739" d="M55.778 1134.66C46.78 1139.09 41.8801 1149.3 43.78 1159.68L91.6136 1420.82C92.7304 1426.92 96.0923 1432.39 100.971 1436.04L404.708 1663.32C408.536 1666.18 413.085 1667.77 417.729 1667.86L738.786 1673.98C747.261 1674.14 754.958 1669.33 758.703 1661.52L855.774 1459.11C859.519 1451.3 858.676 1441.82 853.593 1434.59L661.015 1160.56C658.229 1156.6 654.361 1153.59 649.942 1151.96L299.363 1022.35C293.731 1020.27 287.608 1020.56 282.319 1023.17L55.778 1134.66Z" stroke="url(#paint35_linear_37001_411)" stroke-opacity="0.5" stroke-width="4"/>
<path opacity="0.536232" d="M47.1428 1110.49C37.8468 1114.45 32.3349 1124.33 33.641 1134.7L66.1963 1393.16C66.9654 1399.26 70.0329 1404.85 74.7337 1408.71L363.879 1646.15C367.57 1649.18 372.061 1650.98 376.735 1651.29L695.779 1672.47C704.292 1673.04 712.308 1668.63 716.524 1661.07L824.685 1467.11C828.9 1459.55 828.601 1450.12 823.909 1442.7L648.09 1164.68C645.514 1160.61 641.791 1157.44 637.434 1155.6L296.059 1011.82C290.509 1009.48 284.327 1009.48 278.854 1011.81L47.1428 1110.49Z" stroke="url(#paint36_linear_37001_411)" stroke-opacity="0.5" stroke-width="4"/>
<path opacity="0.550725" d="M39.2416 1087.45C29.6889 1090.92 23.596 1100.42 24.302 1110.73L41.7594 1365.76C42.1769 1371.86 44.945 1377.56 49.462 1381.63L323.453 1628.19C327.005 1631.39 331.439 1633.39 336.141 1633.92L652.338 1669.73C660.866 1670.69 669.172 1666.72 673.841 1659.45L792.636 1474.31C797.305 1467.03 797.546 1457.68 793.262 1450.1L634.397 1169.1C632.034 1164.92 628.458 1161.58 624.162 1159.55L292.79 1002.41C287.327 999.819 281.094 999.518 275.446 1001.57L39.2416 1087.45Z" stroke="url(#paint37_linear_37001_411)" stroke-opacity="0.5" stroke-width="4"/>
<path opacity="0.565217" d="M32.0002 1065.55C22.2348 1068.53 15.5987 1077.58 15.7037 1087.79L18.2836 1338.69C18.3461 1344.77 20.8098 1350.57 25.1369 1354.84L283.478 1609.47C286.889 1612.83 291.265 1615.05 295.994 1615.8L608.541 1665.75C617.059 1667.12 625.623 1663.6 630.723 1656.64L759.684 1480.66C764.783 1473.7 765.56 1464.47 761.696 1456.76L619.918 1173.77C617.773 1169.49 614.344 1165.99 610.111 1163.75L289.485 994.106C284.115 991.265 277.838 990.664 272.027 992.434L32.0002 1065.55Z" stroke="url(#paint38_linear_37001_411)" stroke-opacity="0.5" stroke-width="4"/>
<path opacity="0.57971" d="M25.3449 1044.81C15.4126 1047.28 8.27762 1055.85 7.78595 1065.9L-4.25244 1311.98C-4.54773 1318.02 -2.39355 1323.92 1.73692 1328.38L244 1590.02C247.267 1593.55 251.583 1595.98 256.338 1596.96L564.464 1660.56C572.949 1662.31 581.735 1659.25 587.24 1652.64L725.885 1486.13C731.389 1479.52 732.691 1470.46 729.26 1462.64L604.639 1178.66C602.715 1174.28 599.437 1170.6 595.268 1168.16L286.077 986.889C280.806 983.798 274.494 982.895 268.529 984.377L25.3449 1044.81Z" stroke="url(#paint39_linear_37001_411)" stroke-opacity="0.5" stroke-width="4"/>
<path opacity="0.594203" d="M19.2024 1025.23C9.15049 1027.18 1.56606 1035.23 0.48756 1045.07L-25.8729 1285.68C-26.5281 1291.66 -24.6889 1297.64 -20.7623 1302.29L205.063 1569.89C208.183 1573.59 212.438 1576.23 217.218 1577.44L520.183 1654.14C528.61 1656.28 537.582 1653.7 543.463 1647.47L691.298 1490.71C697.179 1484.48 698.992 1475.61 696.003 1467.72L588.546 1183.71C586.85 1179.23 583.726 1175.39 579.622 1172.74L282.499 980.734C277.333 977.395 270.995 976.187 264.888 977.377L19.2024 1025.23Z" stroke="url(#paint40_linear_37001_411)" stroke-opacity="0.5" stroke-width="4"/>
<path opacity="0.608696" d="M13.5004 1006.8C3.37655 1008.25 -4.60354 1015.73 -6.25379 1025.32L-46.6042 1259.82C-47.6208 1265.72 -46.1022 1271.77 -42.3875 1276.62L166.711 1549.11C169.678 1552.97 173.869 1555.84 178.673 1557.28L475.774 1646.53C484.119 1649.03 493.238 1646.95 499.463 1641.11L655.982 1494.38C662.207 1488.54 664.514 1479.91 661.976 1471.96L571.629 1188.89C570.169 1184.31 567.203 1180.3 563.167 1177.43L278.684 975.613C273.63 972.028 267.275 970.512 261.039 971.404L13.5004 1006.8Z" stroke="url(#paint41_linear_37001_411)" stroke-opacity="0.5" stroke-width="4"/>
<path opacity="0.623188" d="M8.16734 989.529C-1.98098 990.472 -10.2998 997.366 -12.5018 1006.66L-66.4753 1234.44C-67.854 1240.25 -66.6618 1246.36 -63.1678 1251.39L128.984 1527.71C131.791 1531.75 135.916 1534.84 140.741 1536.52L431.311 1637.72C439.551 1640.59 448.777 1639 455.312 1633.59L619.996 1497.11C626.531 1491.69 629.313 1483.33 627.233 1475.36L553.881 1194.14C552.663 1189.47 549.862 1185.28 545.897 1182.21L274.568 971.497C269.635 967.665 263.273 965.839 256.919 966.429L8.16734 989.529Z" stroke="url(#paint42_linear_37001_411)" stroke-opacity="0.5" stroke-width="4"/>
<path opacity="0.637681" d="M3.13358 973.403C-6.99266 973.849 -15.5918 980.137 -18.3208 989.092L-85.5171 1209.57C-87.2576 1215.28 -86.398 1221.44 -83.1344 1226.64L91.9195 1505.76C94.5611 1509.97 98.6146 1513.29 103.458 1515.21L386.869 1627.76C394.981 1630.98 404.274 1629.88 411.083 1624.9L583.401 1498.9C590.21 1493.92 593.443 1485.85 591.825 1477.88L535.295 1199.43L537.34 1199.11L535.295 1199.43C534.329 1194.67 531.7 1190.31 527.811 1187.01L270.089 968.35C265.284 964.273 258.927 962.133 252.468 962.418L3.13358 973.403Z" stroke="url(#paint43_linear_37001_411)" stroke-opacity="0.5" stroke-width="4"/>
<path opacity="0.652174" d="M-1.66986 958.411C-11.7292 958.374 -20.5495 964.045 -23.777 972.625L-103.763 1185.25C-105.864 1190.84 -105.343 1197.03 -102.32 1202.41L55.5553 1483.28C58.0218 1487.66 61.9981 1491.23 66.8559 1493.4L342.519 1616.65C350.48 1620.21 359.799 1619.61 366.846 1615.08L546.256 1499.73C553.303 1495.2 556.962 1487.46 555.809 1479.52L515.869 1204.72C515.165 1199.87 512.716 1195.33 508.909 1191.8L265.183 966.135C260.516 961.815 254.176 959.358 247.628 959.334L-1.66986 958.411Z" stroke="url(#paint44_linear_37001_411)" stroke-opacity="0.5" stroke-width="4"/>
<path opacity="0.666667" d="M-6.31005 944.54C-16.2598 944.036 -25.2433 949.085 -28.9372 957.259L-121.248 1161.51C-123.707 1166.95 -123.531 1173.17 -120.761 1178.72L19.9246 1460.32C22.2057 1464.88 26.0972 1468.69 30.9652 1471.12L298.333 1604.44C306.121 1608.32 315.427 1608.2 322.674 1604.13L508.62 1499.61C515.866 1495.54 519.926 1488.14 519.237 1480.27L495.602 1209.95C495.171 1205.03 492.913 1200.3 489.193 1196.55L259.792 964.813C255.275 960.25 248.965 957.475 242.341 957.14L-6.31005 944.54Z" stroke="url(#paint45_linear_37001_411)" stroke-opacity="0.5" stroke-width="4"/>
<path opacity="0.681159" d="M-10.8527 931.771C-20.6531 930.82 -29.7436 935.251 -33.8688 942.991L-138.009 1138.38C-140.823 1143.66 -140.998 1149.89 -138.492 1155.59L-14.9408 1436.93C-12.8573 1441.68 -9.05944 1445.74 -4.18714 1448.43L254.378 1591.14C261.973 1595.34 271.227 1595.69 278.637 1592.08L470.552 1498.53C477.961 1494.92 482.392 1487.89 482.167 1480.11L474.495 1215.09C474.35 1210.09 472.293 1205.19 468.671 1201.19L253.859 964.339C249.502 959.536 243.238 956.442 236.554 955.793L-10.8527 931.771Z" stroke="url(#paint46_linear_37001_411)" stroke-opacity="0.5" stroke-width="4"/>
<path opacity="0.695652" d="M-15.3619 920.085C-24.9764 918.708 -34.1206 922.53 -38.6403 929.814L-154.085 1115.87C-157.248 1120.97 -157.779 1127.2 -155.551 1133.05L-49.0123 1413.16C-47.1395 1418.09 -43.4463 1422.41 -38.5768 1425.36L210.724 1576.81C218.105 1581.29 227.271 1582.11 234.806 1578.96L432.11 1496.5C439.646 1493.35 444.42 1486.7 444.654 1479.03L452.552 1220.09C452.707 1215.04 450.865 1209.94 447.349 1205.71L247.329 964.668C243.146 959.627 236.943 956.214 230.215 955.251L-15.3619 920.085Z" stroke="url(#paint47_linear_37001_411)" stroke-opacity="0.5" stroke-width="4"/>
<path opacity="0.710145" d="M-19.9002 909.458C-29.2959 907.68 -38.444 910.907 -43.3199 917.719L-169.515 1094.02C-173.021 1098.92 -173.914 1105.12 -171.978 1111.12L-82.2633 1389.07C-80.6164 1394.17 -77.0404 1398.75 -72.1825 1401.98L167.434 1561.46C174.582 1566.22 183.625 1567.49 191.251 1564.8L393.353 1493.51C400.979 1490.82 406.067 1484.57 406.754 1477.05L429.781 1224.92C430.248 1219.81 428.637 1214.53 425.239 1210.05L240.15 965.751C236.154 960.477 230.029 956.745 223.275 955.467L-19.9002 909.458Z" stroke="url(#paint48_linear_37001_411)" stroke-opacity="0.5" stroke-width="4"/>
<path opacity="0.724638" d="M-24.5291 899.865C-33.6769 897.712 -42.7836 900.363 -47.9766 906.69L-184.342 1072.84C-188.181 1077.52 -189.442 1083.69 -187.811 1089.82L-114.671 1364.68C-113.267 1369.96 -109.822 1374.82 -104.986 1378.33L124.57 1545.16C131.468 1550.17 140.355 1551.86 148.037 1549.63L354.336 1489.58C362.019 1487.34 367.391 1481.5 368.523 1474.15L406.191 1229.53C406.985 1224.38 405.62 1218.92 402.354 1214.18L232.273 967.537C228.479 962.035 222.451 957.986 215.687 956.394L-24.5291 899.865Z" stroke="url(#paint49_linear_37001_411)" stroke-opacity="0.5" stroke-width="4"/>
<path opacity="0.73913" d="M-29.308 891.278C-38.1829 888.777 -47.2073 890.875 -52.6784 896.71L-198.606 1052.34C-202.771 1056.79 -204.403 1062.9 -203.091 1069.15L-146.215 1340.07C-145.071 1345.52 -141.775 1350.65 -136.972 1354.45L82.1923 1527.93C88.8239 1533.18 97.5261 1535.28 105.232 1533.49L315.117 1484.71C322.823 1482.92 328.451 1477.49 330.017 1470.34L381.793 1233.89C382.928 1228.7 381.828 1223.07 378.709 1218.08L223.652 969.973C220.075 964.25 214.163 959.886 207.408 957.983L-29.308 891.278Z" stroke="url(#paint50_linear_37001_411)" stroke-opacity="0.5" stroke-width="4"/>
<path opacity="0.753623" d="M-34.295 883.667C-42.876 880.845 -51.782 882.415 -57.4928 887.754L-212.353 1032.55C-216.831 1036.74 -218.837 1042.78 -217.859 1049.14L-176.878 1315.28C-176.013 1320.9 -172.884 1326.3 -168.128 1330.4L40.3577 1509.84C46.708 1515.3 55.1981 1517.79 62.8979 1516.43L275.749 1478.93C283.448 1477.57 289.303 1472.56 291.292 1465.63L356.602 1237.94C358.091 1232.75 357.275 1226.94 354.319 1221.69L214.244 973.004C210.9 967.068 205.125 962.395 198.397 960.182L-34.295 883.667Z" stroke="url(#paint51_linear_37001_411)" stroke-opacity="0.5" stroke-width="4"/>
<path opacity="0.768116" d="M-39.5464 876.999C-47.8163 873.884 -56.5729 874.952 -62.486 879.797L-225.625 1013.47C-230.403 1017.39 -232.786 1023.34 -232.156 1029.78L-206.646 1290.37C-206.081 1296.14 -203.139 1301.82 -198.445 1306.21L-0.879703 1490.92C5.17599 1496.58 13.4301 1499.42 21.0956 1498.49L236.286 1472.24C243.952 1471.3 250.005 1466.71 252.403 1460.02L330.634 1241.67C332.492 1236.48 331.98 1230.5 329.206 1225L204.011 976.572C200.916 970.432 195.298 965.457 188.616 962.94L-39.5464 876.999Z" stroke="url(#paint52_linear_37001_411)" stroke-opacity="0.5" stroke-width="4"/>
<path opacity="0.782609" d="M-45.1173 871.238C-53.0627 867.857 -61.6435 868.452 -67.7231 872.807L-238.467 995.115C-243.531 998.743 -246.292 1004.58 -246.023 1011.09L-235.508 1265.38C-235.263 1271.3 -232.531 1277.26 -227.916 1281.95L-41.4695 1471.23C-35.7202 1477.06 -27.7229 1480.24 -20.1171 1479.72L196.782 1464.66C204.388 1464.13 210.613 1459.96 213.404 1453.53L303.909 1245.03C306.149 1239.87 305.962 1233.73 303.39 1227.97L192.916 980.62C190.088 974.288 184.648 969.019 178.03 966.203L-45.1173 871.238Z" stroke="url(#paint53_linear_37001_411)" stroke-opacity="0.5" stroke-width="4"/>
<path opacity="0.797101" d="M-51.06 866.348C-58.6713 862.726 -67.0545 862.878 -73.2667 866.75L-250.923 977.483C-256.257 980.808 -259.396 986.511 -259.501 993.07L-263.457 1240.37C-263.554 1246.42 -261.055 1252.66 -256.536 1257.64L-81.3639 1450.82C-75.931 1456.81 -68.2082 1460.3 -60.6853 1460.16L157.288 1456.21C164.811 1456.07 171.183 1452.33 174.349 1446.18L276.448 1247.98C279.081 1242.87 279.242 1236.58 276.892 1230.57L180.929 985.087C178.384 978.576 173.144 973.025 166.608 969.915L-51.06 866.348Z" stroke="url(#paint54_linear_37001_411)" stroke-opacity="0.5" stroke-width="4"/>
<path opacity="0.811594" d="M-57.4258 862.289C-64.6966 858.452 -72.8648 858.189 -79.178 861.588L-263.039 960.58C-268.626 963.588 -272.14 969.135 -272.631 975.72L-290.489 1215.39C-290.949 1221.56 -288.708 1228.07 -284.306 1233.35L-120.519 1429.74C-115.411 1435.87 -107.978 1439.64 -100.558 1439.88L117.854 1446.92C125.274 1447.16 131.767 1443.83 135.291 1437.98L248.276 1250.5C251.313 1245.46 251.843 1239.04 249.738 1232.79L168.021 989.912C165.775 983.239 160.757 977.417 154.322 974.022L-57.4258 862.289Z" stroke="url(#paint55_linear_37001_411)" stroke-opacity="0.5" stroke-width="4"/>
<path opacity="0.826087" d="M-64.2636 859.019C-71.1904 854.991 -79.1299 854.341 -85.5149 857.279L-274.859 944.405C-280.681 947.084 -284.567 952.453 -285.453 959.042L-316.604 1190.5C-317.448 1196.77 -315.492 1203.53 -311.227 1209.11L-158.894 1408.06C-154.118 1414.3 -146.986 1418.34 -139.688 1418.93L78.5299 1436.8C85.8278 1437.4 92.4192 1434.48 96.2803 1428.95L219.419 1252.55C222.867 1247.61 223.788 1241.08 221.952 1234.59L154.169 995.036C152.239 988.216 147.463 982.138 141.147 978.466L-64.2636 859.019Z" stroke="url(#paint56_linear_37001_411)" stroke-opacity="0.5" stroke-width="4"/>
<path opacity="0.84058" d="M-71.6198 856.495C-78.2019 852.298 -85.9027 851.288 -92.3329 853.779L-286.428 928.958C-292.464 931.296 -296.717 936.464 -298.008 943.031L-341.805 1165.74C-343.054 1172.09 -341.41 1179.1 -337.303 1184.96L-196.452 1385.83C-192.013 1392.16 -185.191 1396.44 -178.031 1397.37L39.3623 1425.89C46.5228 1426.83 53.1904 1424.32 57.3681 1419.12L189.906 1254.11C193.771 1249.3 195.105 1242.67 193.56 1235.96L139.352 1000.39C137.754 993.448 133.24 987.131 127.061 983.19L-71.6198 856.495Z" stroke="url(#paint57_linear_37001_411)" stroke-opacity="0.5" stroke-width="4"/>
<path opacity="0.855072" d="M-79.5385 854.672C-85.7774 850.325 -93.2326 848.981 -99.6838 851.039L-297.788 914.232C-304.019 916.219 -308.631 921.164 -310.334 927.684L-366.101 1141.18C-367.771 1147.57 -366.467 1154.82 -362.54 1160.95L-233.16 1363.1C-229.061 1369.51 -222.556 1374 -215.547 1375.26L0.397918 1414.21C7.40729 1415.47 14.1306 1413.36 18.6036 1408.5L159.769 1255.14C164.054 1250.49 165.82 1243.8 164.59 1236.88L123.557 1005.93C122.304 998.876 118.072 992.336 112.046 988.138L-79.5385 854.672Z" stroke="url(#paint58_linear_37001_411)" stroke-opacity="0.5" stroke-width="4"/>
<path opacity="0.869565" d="M-88.0615 853.502C-93.9605 849.025 -101.166 847.37 -107.617 849.01L-308.983 900.22C-315.388 901.849 -320.35 906.549 -322.469 912.992L-389.501 1116.85C-391.611 1123.27 -390.673 1130.72 -386.949 1137.12L-268.988 1339.95C-265.23 1346.41 -259.047 1351.09 -252.2 1352.66L-38.3196 1401.78C-31.4727 1403.36 -24.7131 1401.65 -19.9667 1397.14L129.039 1255.63C133.743 1251.16 135.96 1244.43 135.069 1237.32L106.77 1011.57C105.876 1004.44 101.945 997.696 96.0884 993.251L-88.0615 853.502Z" stroke="url(#paint59_linear_37001_411)" stroke-opacity="0.5" stroke-width="4"/>
<path opacity="0.884058" d="M-97.2276 852.936C-102.792 848.345 -109.746 846.402 -116.177 847.641L-320.057 886.914C-326.613 888.177 -331.914 892.609 -334.451 898.948L-412.021 1092.81C-414.585 1099.22 -414.038 1106.86 -410.54 1113.52L-303.909 1316.42C-300.494 1322.91 -294.635 1327.77 -287.961 1329.64L-76.7476 1388.66C-70.0729 1390.52 -63.2946 1389.2 -58.2971 1385.05L97.7514 1255.55C102.871 1251.3 105.556 1244.56 105.025 1237.29L88.9866 1017.27C88.4621 1010.08 84.849 1003.15 79.1763 998.473L-97.2276 852.936Z" stroke="url(#paint60_linear_37001_411)" stroke-opacity="0.5" stroke-width="4"/>
<path opacity="0.898551" d="M-107.073 852.925C-112.309 848.235 -119.011 846.023 -125.406 846.876L-331.049 874.301C-337.735 875.193 -343.362 879.336 -346.316 885.542L-433.679 1069.1C-436.707 1075.47 -436.577 1083.27 -433.327 1090.16L-337.903 1292.57C-334.83 1299.09 -329.295 1304.1 -322.8 1306.25L-114.845 1374.85C-108.351 1377 -101.57 1376.05 -96.3441 1372.27L65.9428 1254.88C71.4705 1250.88 74.6354 1244.17 74.4868 1236.76L70.2024 1022.96C70.0575 1015.73 66.7771 1008.65 61.3028 1003.75L-107.073 852.925Z" stroke="url(#paint61_linear_37001_411)" stroke-opacity="0.5" stroke-width="4"/>
<path opacity="0.913043" d="M-117.631 853.416C-122.545 848.64 -128.998 846.178 -135.341 846.661L-342.001 862.369C-348.794 862.885 -354.733 866.719 -358.1 872.762L-454.497 1045.78C-457.998 1052.06 -458.306 1059.99 -455.326 1067.1L-370.949 1268.48C-368.216 1275 -363.005 1280.15 -356.697 1282.56L-152.575 1360.41C-146.267 1362.82 -139.499 1362.24 -134.066 1358.83L33.6506 1253.61C39.5751 1249.89 43.23 1243.24 43.4819 1235.72L50.419 1028.58C50.6613 1021.34 47.7271 1014.13 42.4644 1009.01L-117.631 853.416Z" stroke="url(#paint62_linear_37001_411)" stroke-opacity="0.5" stroke-width="4"/>
<path opacity="0.927536" d="M-128.931 854.357C-133.531 849.506 -139.736 846.811 -146.016 846.938L-352.951 851.101C-359.83 851.239 -366.062 854.744 -369.836 860.596L-474.501 1022.88C-478.478 1029.04 -479.243 1037.06 -476.553 1044.37L-403.035 1244.19C-400.639 1250.71 -395.749 1255.97 -389.632 1258.63L-189.899 1345.37C-183.782 1348.02 -177.042 1347.81 -171.424 1344.77L0.91341 1251.72C7.21974 1248.31 11.3702 1241.76 12.039 1234.16L29.6416 1034.07C30.2763 1026.86 27.6998 1019.53 22.6611 1014.22L-128.931 854.357Z" stroke="url(#paint63_linear_37001_411)" stroke-opacity="0.5" stroke-width="4"/>
<path opacity="0.942029" d="M-141 855.696C-145.294 850.778 -151.255 847.865 -157.46 847.649L-363.939 840.482C-370.879 840.241 -377.387 843.398 -381.559 849.029L-493.72 1000.44C-498.171 1006.44 -499.41 1014.52 -497.029 1022.01L-434.149 1219.77C-432.085 1226.26 -427.513 1231.64 -421.593 1234.53L-226.783 1329.75C-220.863 1332.65 -214.162 1332.78 -208.382 1330.13L-32.2291 1249.2C-25.5599 1246.14 -20.9127 1239.73 -19.8137 1232.08L7.87946 1039.39C8.90949 1032.22 6.69984 1024.8 1.89653 1019.3L-141 855.696Z" stroke="url(#paint64_linear_37001_411)" stroke-opacity="0.5" stroke-width="4"/>
<path opacity="0.956522" d="M-153.861 857.377C-157.857 852.402 -163.577 849.282 -169.699 848.738L-375 830.492C-381.981 829.872 -388.742 832.663 -393.299 838.046L-512.185 978.495C-517.105 984.307 -518.828 992.395 -516.775 1000.03L-464.283 1195.28C-462.548 1201.74 -458.291 1207.2 -452.57 1210.32L-263.196 1313.61C-257.475 1316.74 -250.827 1317.22 -244.904 1314.94L-65.737 1246.04C-58.7274 1243.35 -53.5872 1237.13 -52.048 1229.47L-14.8546 1044.46C-13.429 1037.37 -15.2645 1029.89 -19.822 1024.22L-153.861 857.377Z" stroke="url(#paint65_linear_37001_411)" stroke-opacity="0.5" stroke-width="4"/>
<path opacity="0.971014" d="M-167.534 859.345C-171.241 854.32 -176.724 851.005 -182.753 850.144L-386.171 821.112C-393.169 820.113 -400.163 822.523 -405.09 827.632L-529.93 957.088C-535.308 962.665 -537.524 970.725 -535.813 978.489L-493.436 1170.78C-492.024 1177.18 -488.077 1182.73 -482.558 1186.07L-299.107 1296.99C-293.588 1300.32 -287.004 1301.14 -280.96 1299.24L-99.5702 1242.25C-92.2462 1239.95 -86.6217 1233.95 -84.6362 1226.32L-38.5444 1049.25C-36.7254 1042.26 -38.1817 1034.74 -42.484 1028.91L-167.534 859.345Z" stroke="url(#paint66_linear_37001_411)" stroke-opacity="0.5" stroke-width="4"/>
<path opacity="0.985507" d="M-182.036 861.548C-185.46 856.477 -190.71 852.976 -196.638 851.81L-397.484 812.32C-404.478 810.944 -411.68 812.96 -416.959 817.769L-546.992 936.245C-552.812 941.548 -555.522 949.538 -554.167 957.401L-521.607 1146.32C-520.512 1152.67 -516.872 1158.29 -511.558 1161.83L-334.49 1279.91C-329.176 1283.46 -322.666 1284.61 -316.52 1283.08L-133.688 1237.81C-126.079 1235.92 -119.984 1230.19 -117.55 1222.63L-63.1696 1053.7C-60.962 1046.84 -62.0362 1039.31 -66.0744 1033.33L-182.036 861.548Z" stroke="url(#paint67_linear_37001_411)" stroke-opacity="0.5" stroke-width="4"/>
<path d="M-197.38 863.928C-200.527 858.816 -205.547 855.138 -211.369 853.677L-408.973 804.093C-415.942 802.344 -423.327 803.952 -428.937 808.44L-563.407 915.993C-569.651 920.987 -572.853 928.864 -571.865 936.798L-548.801 1121.96C-548.018 1128.24 -544.679 1133.93 -539.572 1137.67L-369.319 1262.43C-364.212 1266.17 -357.787 1267.65 -351.56 1266.5L-168.051 1232.72C-160.188 1231.27 -153.641 1225.84 -150.76 1218.39L-88.7078 1057.76C-86.1187 1051.06 -86.8099 1043.54 -90.5763 1037.42L-197.38 863.928Z" stroke="url(#paint68_linear_37001_411)" stroke-opacity="0.5" stroke-width="4"/>
<defs>
<linearGradient id="paint0_linear_37001_411" x1="1183.6" y1="2285.65" x2="1507.84" y2="1125.3" gradientUnits="userSpaceOnUse">
<stop stop-color="#FF1CF7"/>
<stop offset="1" stop-color="#00F0FF"/>
</linearGradient>
<linearGradient id="paint1_linear_37001_411" x1="1128.18" y1="2260.76" x2="1500.26" y2="1132.96" gradientUnits="userSpaceOnUse">
<stop stop-color="#FF1CF7"/>
<stop offset="1" stop-color="#00F0FF"/>
</linearGradient>
<linearGradient id="paint2_linear_37001_411" x1="1073.66" y1="2234.53" x2="1491.09" y2="1140.11" gradientUnits="userSpaceOnUse">
<stop stop-color="#FF1CF7"/>
<stop offset="1" stop-color="#00F0FF"/>
</linearGradient>
<linearGradient id="paint3_linear_37001_411" x1="1020.12" y1="2207.01" x2="1480.57" y2="1146.7" gradientUnits="userSpaceOnUse">
<stop stop-color="#FF1CF7"/>
<stop offset="1" stop-color="#00F0FF"/>
</linearGradient>
<linearGradient id="paint4_linear_37001_411" x1="967.635" y1="2178.28" x2="1468.94" y2="1152.7" gradientUnits="userSpaceOnUse">
<stop stop-color="#FF1CF7"/>
<stop offset="1" stop-color="#00F0FF"/>
</linearGradient>
<linearGradient id="paint5_linear_37001_411" x1="916.27" y1="2148.42" x2="1456.42" y2="1158.1" gradientUnits="userSpaceOnUse">
<stop stop-color="#FF1CF7"/>
<stop offset="1" stop-color="#00F0FF"/>
</linearGradient>
<linearGradient id="paint6_linear_37001_411" x1="866.091" y1="2117.51" x2="1443.23" y2="1162.96" gradientUnits="userSpaceOnUse">
<stop stop-color="#FF1CF7"/>
<stop offset="1" stop-color="#00F0FF"/>
</linearGradient>
<linearGradient id="paint7_linear_37001_411" x1="817.161" y1="2085.64" x2="1429.55" y2="1167.33" gradientUnits="userSpaceOnUse">
<stop stop-color="#FF1CF7"/>
<stop offset="1" stop-color="#00F0FF"/>
</linearGradient>
<linearGradient id="paint8_linear_37001_411" x1="769.532" y1="2052.88" x2="1415.57" y2="1171.29" gradientUnits="userSpaceOnUse">
<stop stop-color="#FF1CF7"/>
<stop offset="1" stop-color="#00F0FF"/>
</linearGradient>
<linearGradient id="paint9_linear_37001_411" x1="723.257" y1="2019.32" x2="1401.44" y2="1174.95" gradientUnits="userSpaceOnUse">
<stop stop-color="#FF1CF7"/>
<stop offset="1" stop-color="#00F0FF"/>
</linearGradient>
<linearGradient id="paint10_linear_37001_411" x1="678.381" y1="1985.05" x2="1387.3" y2="1178.43" gradientUnits="userSpaceOnUse">
<stop stop-color="#FF1CF7"/>
<stop offset="1" stop-color="#00F0FF"/>
</linearGradient>
<linearGradient id="paint11_linear_37001_411" x1="634.943" y1="1950.16" x2="1373.25" y2="1181.85" gradientUnits="userSpaceOnUse">
<stop stop-color="#FF1CF7"/>
<stop offset="1" stop-color="#00F0FF"/>
</linearGradient>
<linearGradient id="paint12_linear_37001_411" x1="592.977" y1="1914.73" x2="1359.39" y2="1185.38" gradientUnits="userSpaceOnUse">
<stop stop-color="#FF1CF7"/>
<stop offset="1" stop-color="#00F0FF"/>
</linearGradient>
<linearGradient id="paint13_linear_37001_411" x1="552.515" y1="1878.85" x2="1345.79" y2="1189.16" gradientUnits="userSpaceOnUse">
<stop stop-color="#FF1CF7"/>
<stop offset="1" stop-color="#00F0FF"/>
</linearGradient>
<linearGradient id="paint14_linear_37001_411" x1="513.581" y1="1842.62" x2="1332.46" y2="1193.37" gradientUnits="userSpaceOnUse">
<stop stop-color="#FF1CF7"/>
<stop offset="1" stop-color="#00F0FF"/>
</linearGradient>
<linearGradient id="paint15_linear_37001_411" x1="476.192" y1="1806.11" x2="1319.44" y2="1198.17" gradientUnits="userSpaceOnUse">
<stop stop-color="#FF1CF7"/>
<stop offset="1" stop-color="#00F0FF"/>
</linearGradient>
<linearGradient id="paint16_linear_37001_411" x1="440.364" y1="1769.42" x2="1306.69" y2="1203.73" gradientUnits="userSpaceOnUse">
<stop stop-color="#FF1CF7"/>
<stop offset="1" stop-color="#00F0FF"/>
</linearGradient>
<linearGradient id="paint17_linear_37001_411" x1="406.105" y1="1732.63" x2="1294.18" y2="1210.23" gradientUnits="userSpaceOnUse">
<stop stop-color="#FF1CF7"/>
<stop offset="1" stop-color="#00F0FF"/>
</linearGradient>
<linearGradient id="paint18_linear_37001_411" x1="373.418" y1="1695.83" x2="1281.82" y2="1217.82" gradientUnits="userSpaceOnUse">
<stop stop-color="#FF1CF7"/>
<stop offset="1" stop-color="#00F0FF"/>
</linearGradient>
<linearGradient id="paint19_linear_37001_411" x1="342.301" y1="1659.1" x2="1269.5" y2="1226.67" gradientUnits="userSpaceOnUse">
<stop stop-color="#FF1CF7"/>
<stop offset="1" stop-color="#00F0FF"/>
</linearGradient>
<linearGradient id="paint20_linear_37001_411" x1="312.748" y1="1622.52" x2="1257.09" y2="1236.92" gradientUnits="userSpaceOnUse">
<stop stop-color="#FF1CF7"/>
<stop offset="1" stop-color="#00F0FF"/>
</linearGradient>
<linearGradient id="paint21_linear_37001_411" x1="284.746" y1="1586.18" x2="1244.41" y2="1248.69" gradientUnits="userSpaceOnUse">
<stop stop-color="#FF1CF7"/>
<stop offset="1" stop-color="#00F0FF"/>
</linearGradient>
<linearGradient id="paint22_linear_37001_411" x1="258.279" y1="1550.16" x2="1231.27" y2="1262.08" gradientUnits="userSpaceOnUse">
<stop stop-color="#FF1CF7"/>
<stop offset="1" stop-color="#00F0FF"/>
</linearGradient>
<linearGradient id="paint23_linear_37001_411" x1="233.325" y1="1514.53" x2="1217.43" y2="1277.17" gradientUnits="userSpaceOnUse">
<stop stop-color="#FF1CF7"/>
<stop offset="1" stop-color="#00F0FF"/>
</linearGradient>
<linearGradient id="paint24_linear_37001_411" x1="209.859" y1="1479.35" x2="1202.65" y2="1293.99" gradientUnits="userSpaceOnUse">
<stop stop-color="#FF1CF7"/>
<stop offset="1" stop-color="#00F0FF"/>
</linearGradient>
<linearGradient id="paint25_linear_37001_411" x1="187.849" y1="1444.72" x2="1186.65" y2="1312.54" gradientUnits="userSpaceOnUse">
<stop stop-color="#FF1CF7"/>
<stop offset="1" stop-color="#00F0FF"/>
</linearGradient>
<linearGradient id="paint26_linear_37001_411" x1="167.262" y1="1410.68" x2="1169.14" y2="1332.76" gradientUnits="userSpaceOnUse">
<stop stop-color="#FF1CF7"/>
<stop offset="1" stop-color="#00F0FF"/>
</linearGradient>
<linearGradient id="paint27_linear_37001_411" x1="148.058" y1="1377.32" x2="1149.83" y2="1354.56" gradientUnits="userSpaceOnUse">
<stop stop-color="#FF1CF7"/>
<stop offset="1" stop-color="#00F0FF"/>
</linearGradient>
<linearGradient id="paint28_linear_37001_411" x1="130.195" y1="1344.68" x2="1128.42" y2="1377.77" gradientUnits="userSpaceOnUse">
<stop stop-color="#FF1CF7"/>
<stop offset="1" stop-color="#00F0FF"/>
</linearGradient>
<linearGradient id="paint29_linear_37001_411" x1="113.625" y1="1312.82" x2="1104.64" y2="1402.17" gradientUnits="userSpaceOnUse">
<stop stop-color="#FF1CF7"/>
<stop offset="1" stop-color="#00F0FF"/>
</linearGradient>
<linearGradient id="paint30_linear_37001_411" x1="98.2998" y1="1281.81" x2="1078.23" y2="1427.49" gradientUnits="userSpaceOnUse">
<stop stop-color="#FF1CF7"/>
<stop offset="1" stop-color="#00F0FF"/>
</linearGradient>
<linearGradient id="paint31_linear_37001_411" x1="84.1652" y1="1251.68" x2="1048.97" y2="1453.4" gradientUnits="userSpaceOnUse">
<stop stop-color="#FF1CF7"/>
<stop offset="1" stop-color="#00F0FF"/>
</linearGradient>
<linearGradient id="paint32_linear_37001_411" x1="71.1649" y1="1222.49" x2="1016.7" y2="1479.51" gradientUnits="userSpaceOnUse">
<stop stop-color="#FF1CF7"/>
<stop offset="1" stop-color="#00F0FF"/>
</linearGradient>
<linearGradient id="paint33_linear_37001_411" x1="59.24" y1="1194.28" x2="981.315" y2="1505.4" gradientUnits="userSpaceOnUse">
<stop stop-color="#FF1CF7"/>
<stop offset="1" stop-color="#00F0FF"/>
</linearGradient>
<linearGradient id="paint34_linear_37001_411" x1="48.3288" y1="1167.09" x2="942.78" y2="1530.62" gradientUnits="userSpaceOnUse">
<stop stop-color="#FF1CF7"/>
<stop offset="1" stop-color="#00F0FF"/>
</linearGradient>
<linearGradient id="paint35_linear_37001_411" x1="38.3672" y1="1140.94" x2="901.145" y2="1554.71" gradientUnits="userSpaceOnUse">
<stop stop-color="#FF1CF7"/>
<stop offset="1" stop-color="#00F0FF"/>
</linearGradient>
<linearGradient id="paint36_linear_37001_411" x1="29.2892" y1="1115.88" x2="856.543" y2="1577.2" gradientUnits="userSpaceOnUse">
<stop stop-color="#FF1CF7"/>
<stop offset="1" stop-color="#00F0FF"/>
</linearGradient>
<linearGradient id="paint37_linear_37001_411" x1="21.0271" y1="1091.92" x2="809.187" y2="1597.65" gradientUnits="userSpaceOnUse">
<stop stop-color="#FF1CF7"/>
<stop offset="1" stop-color="#00F0FF"/>
</linearGradient>
<linearGradient id="paint38_linear_37001_411" x1="13.5113" y1="1069.09" x2="759.372" y2="1615.67" gradientUnits="userSpaceOnUse">
<stop stop-color="#FF1CF7"/>
<stop offset="1" stop-color="#00F0FF"/>
</linearGradient>
<linearGradient id="paint39_linear_37001_411" x1="6.67129" y1="1047.41" x2="707.457" y2="1630.92" gradientUnits="userSpaceOnUse">
<stop stop-color="#FF1CF7"/>
<stop offset="1" stop-color="#00F0FF"/>
</linearGradient>
<linearGradient id="paint40_linear_37001_411" x1="0.435305" y1="1026.88" x2="653.855" y2="1643.12" gradientUnits="userSpaceOnUse">
<stop stop-color="#FF1CF7"/>
<stop offset="1" stop-color="#00F0FF"/>
</linearGradient>
<linearGradient id="paint41_linear_37001_411" x1="-5.26895" y1="1007.52" x2="599.018" y2="1652.09" gradientUnits="userSpaceOnUse">
<stop stop-color="#FF1CF7"/>
<stop offset="1" stop-color="#00F0FF"/>
</linearGradient>
<linearGradient id="paint42_linear_37001_411" x1="-10.5145" y1="989.322" x2="543.414" y2="1657.73" gradientUnits="userSpaceOnUse">
<stop stop-color="#FF1CF7"/>
<stop offset="1" stop-color="#00F0FF"/>
</linearGradient>
<linearGradient id="paint43_linear_37001_411" x1="-15.3741" y1="972.298" x2="487.512" y2="1660.01" gradientUnits="userSpaceOnUse">
<stop stop-color="#FF1CF7"/>
<stop offset="1" stop-color="#00F0FF"/>
</linearGradient>
<linearGradient id="paint44_linear_37001_411" x1="-19.9209" y1="956.44" x2="431.764" y2="1658.99" gradientUnits="userSpaceOnUse">
<stop stop-color="#FF1CF7"/>
<stop offset="1" stop-color="#00F0FF"/>
</linearGradient>
<linearGradient id="paint45_linear_37001_411" x1="-24.2279" y1="941.739" x2="376.585" y2="1654.81" gradientUnits="userSpaceOnUse">
<stop stop-color="#FF1CF7"/>
<stop offset="1" stop-color="#00F0FF"/>
</linearGradient>
<linearGradient id="paint46_linear_37001_411" x1="-28.3669" y1="928.183" x2="322.349" y2="1647.66" gradientUnits="userSpaceOnUse">
<stop stop-color="#FF1CF7"/>
<stop offset="1" stop-color="#00F0FF"/>
</linearGradient>
<linearGradient id="paint47_linear_37001_411" x1="-32.4092" y1="915.756" x2="269.373" y2="1637.8" gradientUnits="userSpaceOnUse">
<stop stop-color="#FF1CF7"/>
<stop offset="1" stop-color="#00F0FF"/>
</linearGradient>
<linearGradient id="paint48_linear_37001_411" x1="-36.425" y1="904.438" x2="217.918" y2="1625.49" gradientUnits="userSpaceOnUse">
<stop stop-color="#FF1CF7"/>
<stop offset="1" stop-color="#00F0FF"/>
</linearGradient>
<linearGradient id="paint49_linear_37001_411" x1="-40.4835" y1="894.206" x2="168.178" y2="1611.04" gradientUnits="userSpaceOnUse">
<stop stop-color="#FF1CF7"/>
<stop offset="1" stop-color="#00F0FF"/>
</linearGradient>
<linearGradient id="paint50_linear_37001_411" x1="-44.6518" y1="885.034" x2="120.295" y2="1594.76" gradientUnits="userSpaceOnUse">
<stop stop-color="#FF1CF7"/>
<stop offset="1" stop-color="#00F0FF"/>
</linearGradient>
<linearGradient id="paint51_linear_37001_411" x1="-48.9958" y1="876.891" x2="74.3487" y2="1576.95" gradientUnits="userSpaceOnUse">
<stop stop-color="#FF1CF7"/>
<stop offset="1" stop-color="#00F0FF"/>
</linearGradient>
<linearGradient id="paint52_linear_37001_411" x1="-53.5789" y1="869.742" x2="30.3719" y2="1557.92" gradientUnits="userSpaceOnUse">
<stop stop-color="#FF1CF7"/>
<stop offset="1" stop-color="#00F0FF"/>
</linearGradient>
<linearGradient id="paint53_linear_37001_411" x1="-58.4628" y1="863.554" x2="-11.6485" y2="1537.94" gradientUnits="userSpaceOnUse">
<stop stop-color="#FF1CF7"/>
<stop offset="1" stop-color="#00F0FF"/>
</linearGradient>
<linearGradient id="paint54_linear_37001_411" x1="-63.7063" y1="858.285" x2="-51.7623" y2="1517.26" gradientUnits="userSpaceOnUse">
<stop stop-color="#FF1CF7"/>
<stop offset="1" stop-color="#00F0FF"/>
</linearGradient>
<linearGradient id="paint55_linear_37001_411" x1="-69.3664" y1="853.895" x2="-90.0503" y2="1496.11" gradientUnits="userSpaceOnUse">
<stop stop-color="#FF1CF7"/>
<stop offset="1" stop-color="#00F0FF"/>
</linearGradient>
<linearGradient id="paint56_linear_37001_411" x1="-75.4967" y1="850.338" x2="-126.616" y2="1474.7" gradientUnits="userSpaceOnUse">
<stop stop-color="#FF1CF7"/>
<stop offset="1" stop-color="#00F0FF"/>
</linearGradient>
<linearGradient id="paint57_linear_37001_411" x1="-82.1483" y1="847.57" x2="-161.581" y2="1453.19" gradientUnits="userSpaceOnUse">
<stop stop-color="#FF1CF7"/>
<stop offset="1" stop-color="#00F0FF"/>
</linearGradient>
<linearGradient id="paint58_linear_37001_411" x1="-89.3686" y1="845.54" x2="-195.077" y2="1431.73" gradientUnits="userSpaceOnUse">
<stop stop-color="#FF1CF7"/>
<stop offset="1" stop-color="#00F0FF"/>
</linearGradient>
<linearGradient id="paint59_linear_37001_411" x1="-97.2029" y1="844.199" x2="-227.245" y2="1410.42" gradientUnits="userSpaceOnUse">
<stop stop-color="#FF1CF7"/>
<stop offset="1" stop-color="#00F0FF"/>
</linearGradient>
<linearGradient id="paint60_linear_37001_411" x1="-105.692" y1="843.495" x2="-258.226" y2="1389.36" gradientUnits="userSpaceOnUse">
<stop stop-color="#FF1CF7"/>
<stop offset="1" stop-color="#00F0FF"/>
</linearGradient>
<linearGradient id="paint61_linear_37001_411" x1="-114.875" y1="843.375" x2="-288.161" y2="1368.61" gradientUnits="userSpaceOnUse">
<stop stop-color="#FF1CF7"/>
<stop offset="1" stop-color="#00F0FF"/>
</linearGradient>
<linearGradient id="paint62_linear_37001_411" x1="-124.786" y1="843.784" x2="-317.187" y2="1348.22" gradientUnits="userSpaceOnUse">
<stop stop-color="#FF1CF7"/>
<stop offset="1" stop-color="#00F0FF"/>
</linearGradient>
<linearGradient id="paint63_linear_37001_411" x1="-135.456" y1="844.667" x2="-345.435" y2="1328.2" gradientUnits="userSpaceOnUse">
<stop stop-color="#FF1CF7"/>
<stop offset="1" stop-color="#00F0FF"/>
</linearGradient>
<linearGradient id="paint64_linear_37001_411" x1="-146.911" y1="845.967" x2="-373.026" y2="1308.56" gradientUnits="userSpaceOnUse">
<stop stop-color="#FF1CF7"/>
<stop offset="1" stop-color="#00F0FF"/>
</linearGradient>
<linearGradient id="paint65_linear_37001_411" x1="-159.177" y1="847.629" x2="-400.076" y2="1289.29" gradientUnits="userSpaceOnUse">
<stop stop-color="#FF1CF7"/>
<stop offset="1" stop-color="#00F0FF"/>
</linearGradient>
<linearGradient id="paint66_linear_37001_411" x1="-172.272" y1="849.595" x2="-426.685" y2="1270.38" gradientUnits="userSpaceOnUse">
<stop stop-color="#FF1CF7"/>
<stop offset="1" stop-color="#00F0FF"/>
</linearGradient>
<linearGradient id="paint67_linear_37001_411" x1="-186.213" y1="851.809" x2="-452.946" y2="1251.79" gradientUnits="userSpaceOnUse">
<stop stop-color="#FF1CF7"/>
<stop offset="1" stop-color="#00F0FF"/>
</linearGradient>
<linearGradient id="paint68_linear_37001_411" x1="-201.012" y1="854.214" x2="-478.938" y2="1233.47" gradientUnits="userSpaceOnUse">
<stop stop-color="#FF1CF7"/>
<stop offset="1" stop-color="#00F0FF"/>
</linearGradient>
</defs>
</svg>
