<svg width="1097" height="193" fill="none" xmlns="http://www.w3.org/2000/svg"><g opacity=".13"><path d="M1.033 123.202c27.622 8.342 55.2-3.69 79.584-15.208 13.63-6.417 27.475-12.899 42.483-15.85 14.133-2.7 28.767-1.838 42.438 2.502 24.711 7.626 45.484 23.262 67.815 35.294 22.33 12.032 46.59 19.08 72.543 18.941 24.993-.139 50.347-6.267 71.64-18.845 18.618-10.994 33.038-26.93 45.97-43.475 13.54-17.262 25.625-35.647 41.253-51.337 16.214-16.256 35.916-27.636 59.239-31.903C537.832.797 552.602.572 566.165 4.54c10.156 2.972 17.964 8.833 26.28 14.801 15.132 10.866 30.534 21.39 46.263 31.476 36.244 23.176 75.511 46.46 118.118 57.315 15.707 4 31.47 5.347 47.516 2.46 13.969-2.546 27.306-7.605 39.921-13.765 26.167-12.834 49.355-30.235 74.473-44.62 23.91-13.668 50.844-24.802 79.392-20.952 40.222 5.412 72.042 36.043 96.482 64.449 9.87 11.454 19.01 23.422 27.74 35.647.51.716 1.74 0 1.22-.674-15.71-21.968-32.72-43.369-52.85-61.925-13.68-12.63-29.05-24.17-46.58-31.593-25.865-10.973-53.274-9.743-79.102.567-26.991 10.77-50.393 28.107-74.845 43.058-24.452 14.952-52.537 29.882-82.642 30.225-19.543.224-38.985-5.851-56.858-12.834-21.518-8.385-42.021-19.08-61.857-30.567-18.697-10.813-36.842-22.46-54.591-34.61A1094.604 1094.604 0 0 1 593.1 18.167c-7.448-5.348-14.568-10.824-23.448-13.904-22.398-7.818-49.377-4.16-70.659 5.134-19.69 8.556-35.08 23.336-48.271 39.315-13.834 16.77-25.693 34.951-40.159 51.272-16.384 18.481-36.108 32.994-60.503 40.695-26.457 8.328-54.917 9.072-81.818 2.139-26.077-6.866-47.764-22.46-70.738-35.294-21.078-11.764-44.198-20.994-69.18-17.69-29.338 3.883-53.372 21.968-81.118 30.31-14.94 4.492-30.692 6.268-45.846 1.679-.869-.256-1.241 1.07-.384 1.295l.057.085Z" fill="url(#a)"/><path d="M5.546 128.389c23.504 7.048 47.82-2.588 68.549-12.834 23.064-11.379 46.522-24.46 73.468-23.144 23.368 1.155 44.243 12.267 64.012 23.176 19.769 10.909 39.82 22.107 62.591 26.834 45.315 9.497 94.783-1.294 128.848-31.679 27.544-24.598 44.955-58.106 74.902-80.448 18.738-13.875 41.676-21.69 65.445-22.3 13.732-.374 27.927 1.947 39.786 8.813 7.245 4.204 14.049 9.22 21.044 13.776 38.816 25.23 79.088 49.571 122.282 67.54 21.552 8.951 45.642 17.56 69.586 16.106 23.944-1.455 46.331-11.037 66.902-22.192 26.561-14.417 51.16-32.086 78.545-45.198 22.872-10.92 48.204-17.53 73.724-11.85 35.51 7.893 63.46 34.673 85.62 60.61 8.59 10.042 16.59 20.534 24.24 31.229.51.716 1.73 0 1.22-.674-22.89-31.99-50.11-65.882-87.14-84.053-22.37-11.162-48.498-13.469-72.659-6.417-67.623 19.251-120.736 90.641-197.307 74.866-26.11-5.348-50.776-16.706-74.28-28.535-21.767-10.951-42.878-23.101-63.528-35.828-16.011-9.861-31.244-21.176-47.538-30.556-20.502-11.765-46.782-10.695-69.101-4.706-38.365 10.289-61.383 39.978-84.628 68.449-12.141 14.866-24.993 29.507-41.05 40.737-20.807 14.567-46.432 22.257-72.103 23.893-26.783 1.708-53.553-3.524-77.44-15.134-19.915-9.55-38.274-21.957-58.912-30.138-20.638-8.182-42.167-10.107-63.674-3.615-24.892 7.486-46.037 23.037-70.94 30.513-13.078 3.925-26.777 5.422-40.035 1.444-.869-.257-1.241 1.069-.372 1.294l-.057.021Z" fill="url(#b)"/><path d="M10.049 133.566c22.567 6.727 45.778-3.733 65.22-13.904 22.442-11.765 45.269-25.39 71.786-25.604 23.087-.182 44.153 9.561 64.069 19.615 19.916 10.053 39.989 20.673 62.433 25.358 44.582 9.283 94.162.385 129.367-27.807 28.39-22.76 46.726-55.037 77.023-75.829 18.936-12.837 41.435-20.115 64.701-20.93 13.145-.502 26.584 1.316 38.432 6.952 7.786 3.7 15.019 8.76 22.387 13.176 38.364 22.995 77.699 45.187 119.156 62.909 21.439 9.187 44.751 18.181 68.638 18.855 23.504.642 46.264-7.818 66.811-17.882 28.796-14.128 55.155-32.235 83.838-46.513 23.177-11.593 48.994-20.15 75.45-15.871 34.75 5.679 62.39 30.48 84.07 55.261 8.64 9.872 16.61 20.246 24.2 30.855.51.706 1.73 0 1.22-.673-22.07-30.824-48.85-63.668-85.51-79.657-23.69-10.321-49.195-10.3-73.579-2.3-25.264 8.278-47.798 22.61-70.422 35.786-19.182 11.166-38.601 22.46-59.521 30.47a133.662 133.662 0 0 1-36.932 8.834c-12.288.995-24.463-.78-36.322-3.796-25.14-6.417-48.982-17.465-72.024-28.77-21.439-10.535-42.415-21.957-63.064-33.84a1667.42 1667.42 0 0 1-25.332-14.887c-7.12-4.278-14.094-9.102-21.563-12.834-21.202-10.46-47.076-8.973-69.44-2.963-37.394 10.15-60.639 37.765-84.73 64.727-12.412 13.904-25.557 27.251-41.648 37.315-21.326 13.348-46.929 20.054-72.306 21.294-26.601 1.286-53.114-3.805-77.09-14.802-19.758-8.941-38.297-20.427-58.946-27.508-21.213-7.283-42.878-7.636-64.136-.15-23.786 8.396-44.075 23.722-68.041 31.679-12.254 4.065-25.22 5.904-37.823 2.14-.858-.257-1.23 1.069-.372 1.283v.011Z" fill="url(#c)"/><path d="M14.562 138.763c21.53 6.417 43.702-4.812 61.835-14.887 21.597-12 43.431-25.936 69.09-27.893 23.075-1.797 44.661 6.599 65.016 15.904 20.356 9.304 40.261 19.251 62.456 23.807 43.6 8.92 92.752 1.925 128.95-23.625 28.897-20.396 48.147-50.61 77.79-70.139 18.43-11.971 39.853-19.148 62.128-20.813 13.179-1.069 26.652-.096 39.12 4.332 8.745 3.123 16.7 8.203 24.757 12.63 38.691 21.252 77.925 41.893 118.67 59.38 20.92 8.984 42.878 17.925 65.92 20.321 22.398 2.363 44.536-3.851 64.768-12.482 31.865-13.604 60.627-32.491 91.263-48.234 23.064-11.861 48.621-22.086 75.435-19.893 35.25 2.888 63.65 26.62 85.46 51.208a359.53 359.53 0 0 1 23.07 29.23c.51.705 1.73 0 1.22-.674-21.19-29.583-47.39-61.016-83.34-74.973-24.52-9.508-50.55-7.347-74.866 1.551-25.952 9.497-49.276 24.428-73.22 37.636-20.435 11.273-41.445 22.738-63.967 29.796-11.735 3.68-24.068 6.097-36.469 6.033-11.792-.054-23.47-2.557-34.686-5.84-24.644-7.198-48.159-18.128-71.167-29.059-20.581-9.775-40.847-20.16-60.932-30.855a1968.297 1968.297 0 0 1-25.839-13.957c-7.267-3.99-14.443-8.556-22.161-11.765-21.879-9.026-47.392-7.144-69.801-1.069-17.567 4.915-33.814 13.351-47.64 24.738-13.541 10.994-25.106 23.989-37.236 36.31-13.135 13.304-27.296 25.807-44.176 34.716-21.574 11.379-46.466 16.791-71.02 17.55-26.114.747-52.061-4.188-75.849-14.427-19.87-8.407-38.827-19.155-59.803-25.037-21.439-6.032-42.878-4.663-63.55 3.593-22.737 9.091-42.145 24.321-65.197 32.716-11.453 4.182-23.696 6.353-35.634 2.802-.869-.256-1.241 1.07-.373 1.295l-.022.074Z" fill="url(#d)"/><path d="M19.064 143.94c21.168 6.214 42.878-6.417 60.176-16.727 20.187-12 40.621-25.39 64.644-29.016 23.188-3.497 45.519 3.647 66.574 12.246 20.604 8.428 40.791 17.796 62.929 22.096 42.574 8.256 90.552 2.695 127.405-19.968 29.687-18.246 50.099-46.834 79.775-65.026 18.573-11.164 39.685-17.973 61.587-19.86 12.897-1.199 26.009-.642 38.454 2.951 9.321 2.695 17.738 7.487 26.314 11.765 38.037 19.005 76.334 37.646 115.534 54.427 21.439 9.187 43.758 19.187 67.217 22.641 21.54 3.209 43.555-1.957 63.561-9.358 33.501-12.395 63.685-31.016 94.975-47.432 23.695-12.482 49.783-24.46 77.571-23.904 34.4.695 62.56 21.893 84.12 45.529a313.037 313.037 0 0 1 23.01 28.791c.51.706 1.74 0 1.22-.674-20.51-28.62-46.48-59.069-82.29-70.587-25.18-8.128-51.29-3.647-75.23 5.957-26.912 10.76-51.262 26.374-76.854 39.561-21.529 11.102-43.848 22.043-67.702 27.807-11.43 2.781-23.47 4.546-35.284 3.679-11.814-.866-23.335-4.064-34.426-7.807-23.628-7.957-46.433-18.353-69.011-28.641-20.311-9.252-40.441-18.877-60.447-28.706a3164.788 3164.788 0 0 1-25.298-12.535c-7.256-3.625-14.421-7.668-22.116-10.395-22.003-7.786-46.771-5.7-69.011.085-17.488 4.627-33.819 12.533-48.024 23.251-13.54 10.118-25.309 22.16-37.721 33.487-13.902 12.684-28.864 24.267-46.308 32.203-21.71 9.871-46.027 14.385-69.959 14.855-24.992.466-49.821-3.9-72.972-12.834-20.638-7.861-40.463-18.256-62.218-23.187-19.955-4.556-40.939-2.724-59.68 5.209-22.567 9.283-41.558 24.759-63.944 34.374-11.408 4.844-23.9 8.053-36.198 4.449-.87-.257-1.242 1.069-.373 1.294Z" fill="url(#e)"/><path d="M23.566 149.116c20.48 5.968 41.48-7.807 57.671-18.032 19.013-12.01 38.15-25.144 60.774-30.224 45.959-10.3 87.268 20.267 130.756 28.406 41.851 7.84 88.825 3.551 126.377-16.342 30.161-15.946 51.77-42.363 81.141-59.272 18.223-10.492 38.895-16.684 60.029-19.155 12.604-1.476 25.479-1.519 37.925 1.07 9.873 2.085 18.799 6.203 27.871 10.288C644 62.967 681.97 79.941 720.346 96.122c20.863 8.781 41.964 18.385 64.215 23.529 20.796 4.824 41.75 2.364 62.004-3.583 35.894-10.534 68.526-29.186 101.023-46.62 24.745-13.272 51.42-27.293 80.422-29.004 34.36-2.022 63.01 16.77 84.95 40.192a273.132 273.132 0 0 1 22.57 27.807c.51.706 1.73 0 1.22-.674-19.94-27.807-45.88-57.304-81.71-66.224-26.14-6.524-52.58.492-76.444 10.973-27.871 12.235-53.474 28.599-80.972 41.561-22.375 10.556-45.53 20.92-70.32 25.123-11.983 2.043-24.045 2.588-36.051.439-11.51-2.054-22.624-5.765-33.479-9.829-42.946-16.043-84.729-35.38-126.456-54.085-15.572-6.984-31.369-15.914-48.013-20.32-21.867-5.808-45.597-3.338-67.228 2.277-17.471 4.581-33.892 12.197-48.43 22.46-13.156 9.208-24.88 20.053-37.292 30.107-14.793 11.957-30.85 22.459-48.994 29.272-21.687 8.203-45.259 11.765-68.537 11.925-24.73.026-49.257-4.229-72.374-12.556-20.231-7.112-40-16.278-61.383-19.946-20.83-3.572-40.994-.257-59.928 8.47-21.28 9.818-39.233 24.845-60.322 34.909-10.788 5.155-22.873 9.005-34.856 5.508-.869-.257-1.241 1.069-.383 1.283h-.012Z" fill="url(#f)"/><path d="M28.08 154.303c18.821 5.455 38.105-7.935 52.638-17.582 18.81-12.471 37.327-26.246 59.556-32.834 45.383-13.465 87.527 14.032 130.981 22.042 41.174 7.551 87.065 4.46 125.339-12.524 30.466-13.54 53.282-37.293 82.202-53.09 17.873-9.754 37.71-15.722 58.066-18.652 13.168-1.883 26.652-2.546 39.831-.524 10.539 1.604 20.153 5.197 29.902 9.144 37.868 15.28 75.702 30.63 113.503 46.053 20.423 8.31 40.756 17.412 62.139 23.337a120.401 120.401 0 0 0 60.65 1.444c21.98-5.113 42.878-14.492 63.188-23.786 14.398-6.695 28.3-14.182 42.201-21.615 25.716-13.797 52.704-29.198 82.474-33.155 34.09-4.524 63.19 11.465 85.62 34.738a239.365 239.365 0 0 1 21.79 26.588c.51.706 1.72 0 1.22-.674-19.32-26.909-45.01-55.005-80.46-61.454-27.26-4.973-54.24 4.45-78.327 15.807-29.631 13.979-57.547 30.91-87.618 44.043-22.567 9.829-46.083 19.647-71.087 21.39-22.906 1.551-44.785-5.53-65.739-13.562-41.75-16.042-82.8-33.582-124.177-50.341-16.158-6.546-32.644-14.866-49.908-18.364-21.868-4.438-45.135-1.657-66.483 3.797-17.477 4.497-34.027 11.761-48.949 21.486-13.281 8.556-25.388 18.685-38.365 27.7-15.391 10.696-32.057 19.551-50.246 25.209-21.823 6.791-44.999 9.626-67.928 9.326-24.35-.278-47.786-4.684-70.794-12.064-19.904-6.417-39.628-14.289-60.65-16.716-21.439-2.482-41.851 2.46-60.661 12.224-20.276 10.471-37.428 25.497-57.829 35.775-9.726 4.899-20.728 8.727-31.707 5.54a.745.745 0 0 0-.502.096.676.676 0 0 0-.304.391.641.641 0 0 0 .052.483c.08.149.217.265.382.324Z" fill="url(#g)"/><path d="M32.582 159.491c17.885 5.144 36.21-8.835 49.547-18.182 18.189-12.834 35.995-26.738 57.434-34.363 44.412-15.872 86.884 8.021 130.146 15.657 41.75 7.369 88.013 4.931 127.506-10.567 30.138-11.818 54.015-32.887 82.799-46.865 18.201-8.845 38.015-14.193 58.202-17.048 12.536-1.776 25.366-2.556 37.992-1.123 10.742 1.208 20.773 4.278 30.85 7.85 37.766 13.518 75.454 27.23 112.837 41.796 21.36 8.332 42.415 17.882 64.508 24.385 19.442 5.722 38.839 7.144 58.856 3.283 21.936-4.278 42.743-12.994 63.099-21.561 15.221-6.417 29.856-13.99 44.378-21.71 26.72-14.204 54.164-30.642 84.624-36.364 13.78-2.588 28.03-2.396 41.47 1.679 16.71 5.08 30.93 15.497 42.88 27.465a207.701 207.701 0 0 1 21.22 25.508c.51.706 1.73 0 1.22-.674-18.52-25.775-43.51-51.882-77.85-56.363-28.32-3.69-55.9 7.807-80.401 19.925-30.816 15.24-60.243 32.256-92.3 45.197-21.552 8.685-44.12 16.984-67.793 17.882-22.816.856-44.537-6.695-65.321-14.78-40.904-15.915-81.683-31.947-122.993-46.909-17.207-6.235-34.731-14.053-52.954-17.112-21.981-3.669-45.078-.695-66.574 4.492-17.033 4.102-33.334 10.567-48.373 19.187-13.54 7.722-25.952 16.866-39.312 24.866-35.77 21.508-76.729 30.673-118.93 29.946-24.339-.438-47.776-4.674-71.02-11.315-20.085-5.743-40.26-12.642-61.406-13.615-21.146-.973-41.073 5.294-59.127 15.583-19.588 11.112-36.198 26.427-56.08 37.026-8.733 4.652-18.73 8.428-28.75 5.54a.75.75 0 0 0-.514.084.682.682 0 0 0-.314.394.643.643 0 0 0 .052.491.7.7 0 0 0 .392.325v-.01Z" fill="url(#h)"/><path d="M37.096 164.667c16.124 4.62 32.52-8.428 44.277-17.112 17.715-13.038 34.686-27.262 55.154-36.364 21.439-9.561 44.312-10.491 67.353-6.278 21.653 3.958 42.596 10.813 64.317 14.439 41.501 6.93 86.647 5.176 126.693-7.808a256.025 256.025 0 0 0 44.751-19.903c13.259-7.326 26.246-15.112 40.238-21.176 39.042-16.899 86.106-23.904 127.348-10.963 37.958 11.882 75.883 24.043 113.119 37.818 39.493 14.631 79.099 36.673 122.992 30.053 22.5-3.39 43.905-11.818 64.825-20.032a456.673 456.673 0 0 0 44.706-20.983c27.86-14.589 55.681-32.086 86.881-39.572 13.7-3.316 28.08-4.182 41.85-.77 15.96 3.978 29.75 13.25 41.19 24.299a179.566 179.566 0 0 1 20.63 24.374c.5.706 1.73 0 1.22-.674-17.86-24.834-42.25-48.876-75.67-51.336-28.75-2.086-56.42 11.016-80.975 23.582-14.894 7.68-29.484 15.819-44.401 23.412a498.37 498.37 0 0 1-53.778 23.23c-21.044 7.764-43.104 14.748-65.953 14.609-23.076-.15-45.022-8.684-65.987-17.005-40.136-15.936-80.826-30.203-122.068-43.39-17.354-5.55-34.923-12.31-53.134-14.706-22.162-2.909-44.989.118-66.574 5.006-16.935 3.814-33.283 9.673-48.644 17.433-13.541 6.812-26.28 14.812-39.775 21.647-37.304 18.898-78.986 26.352-121.063 25.154-23.955-.684-47.064-4.834-70.173-10.599-19.995-4.983-40.328-10.577-61.203-10.064-20.875.514-40.148 8.011-57.547 18.781-18.607 11.529-34.46 26.738-53.473 37.689-7.978 4.578-17.321 8.621-26.743 5.925a.74.74 0 0 0-.533.064.671.671 0 0 0-.33.402.634.634 0 0 0 .067.505.697.697 0 0 0 .424.313h-.011Z" fill="url(#i)"/><path d="M41.598 169.854c14.996 4.278 30.161-8.738 40.756-16.984 17.31-13.465 33.784-28.096 53.722-38.117 20.22-10.171 42.077-13.176 64.667-10.631 22.59 2.545 44.559 8.973 66.957 12.267 41.581 6.203 85.892 4.899 126.479-6.117a296.62 296.62 0 0 0 46.331-17.23c13.8-6.364 27.352-13.176 41.75-18.385 40.068-14.524 85.903-20.952 127.562-9.626 37.518 10.182 75.003 20.6 111.709 33.358 39.391 13.722 78.771 36.749 122.225 31.883 21.337-2.396 41.749-9.508 61.733-16.717a421.248 421.248 0 0 0 48.779-21.326c29.011-14.834 57.172-33.08 88.772-42.705 13.61-4.15 28.13-6.343 42.32-3.904 15.72 2.695 29.46 10.855 40.76 21.315a153.1 153.1 0 0 1 20.03 23.198c.51.706 1.74 0 1.22-.674-17.49-24.3-41.75-46.31-74.66-46.203-29.53.097-57.34 15.038-82.368 28.3-15.233 8.064-30.285 16.427-45.778 24.031a452.309 452.309 0 0 1-57.005 22.802c-20.311 6.738-41.671 12.332-63.414 11.198-23.696-1.23-46.185-10.898-67.77-19.54-38.297-15.337-77.858-27.433-117.723-38.502-17.264-4.802-34.72-10.578-52.616-12.76-22.624-2.77-45.688.215-67.871 4.653a250.814 250.814 0 0 0-49.096 15.059c-13.54 5.775-26.641 12.566-40.215 18.342-38.703 16.438-80.588 22.844-122.868 21.593-23.628-.706-46.579-4.47-69.609-9.283-20.311-4.278-41.016-8.717-61.925-6.866-20.909 1.85-39.73 10.363-56.746 21.753-17.681 11.85-32.745 27.07-50.9 38.257-7.29 4.481-15.978 8.791-24.825 6.278-.869-.257-1.24 1.069-.372 1.283h-.011Z" fill="url(#j)"/><path d="M46.111 175.041c14.139 3.979 28.548-9.54 38.128-17.422 16.846-13.904 32.88-28.823 52.3-39.572 19.622-10.888 41.061-15.294 63.696-14.043 22.207 1.23 43.95 6.417 65.931 9.369 41.75 5.54 85.361 4.653 126.49-4.406 30.838-6.781 58.957-20 88.916-29.176a352.014 352.014 0 0 1 56.915-11.904c24.609-3.273 48.339-3.208 72.588 2.364 37.36 8.63 74.743 17.39 111.167 29.187 20.75 6.716 40.621 15.294 61.056 22.812 19.283 7.102 38.816 12.15 59.668 10.813 21.202-1.369 41.682-7.647 61.609-14.278a396.379 396.379 0 0 0 51.815-21.262c30.206-15.058 58.82-34.053 90.89-45.497 13.22-4.716 27.41-7.968 41.63-6.684 15.42 1.39 29.23 8.417 40.47 18.331a129.7 129.7 0 0 1 19.29 21.861c.51.706 1.73 0 1.22-.674-17.01-23.604-40.82-43.112-72.65-40.951-30.31 2.064-58.33 18.62-84.032 32.566-15.718 8.556-31.402 17.166-47.64 24.791a417.282 417.282 0 0 1-58.957 21.808c-20.31 6.021-41.671 10.545-63.087 8.321-23.165-2.407-44.954-12.278-66.179-20.749-38.06-15.198-78.027-25.668-118.016-35.198-18.223-4.331-36.593-9.465-55.369-10.962-22.421-1.797-45.361 1.455-67.352 5.476a317.4 317.4 0 0 0-49.13 13.09c-13.619 4.846-26.956 10.375-40.621 14.974-39.493 13.23-80.87 18.417-122.643 17.112-23.808-.759-47.03-4.353-70.432-8.246-19.42-3.208-39.256-6.064-58.946-3.315-20.932 2.919-39.493 12.363-56.182 24.342-17.072 12.245-31.594 27.636-49.118 39.261-6.6 4.375-14.669 8.941-22.996 6.599a.746.746 0 0 0-.502.096.677.677 0 0 0-.304.391.642.642 0 0 0 .052.483c.08.149.216.265.382.324l-.057-.032Z" fill="url(#k)"/><path d="M50.613 180.218c13.721 3.818 27.882-10.963 36.672-18.738 16.633-14.717 32.655-30.203 52.199-41.486 18.713-10.811 40.296-16.329 62.207-15.904 21.495.214 42.72 4.171 64.012 6.513 43.081 4.76 87.438 3.99 130.045-4.032 30.624-5.754 59.803-16.15 90.055-23.155a513.766 513.766 0 0 1 60.774-9.893 231.514 231.514 0 0 1 69.745 2.845c38.624 7.39 77.327 14.973 114.777 26.738 39.629 12.481 77.237 35.7 120.476 32.085 21.067-1.754 41.479-7.861 61.44-14.171a350.393 350.393 0 0 0 51.228-20.93c30.218-15.102 58.607-34.224 90.267-46.524 12.71-4.94 26.36-8.716 40.22-8.181 14.67.567 27.94 6.502 38.76 15.71A111.458 111.458 0 0 1 1151.33 81c.5.706 1.72 0 1.2-.673-16.2-22.46-38.99-39.24-69.01-35.83-30.01 3.413-57.39 20.364-82.81 34.45-15.558 8.61-31.141 17.24-47.311 24.823-18.832 8.845-38.432 15.54-58.539 21.283-20.413 5.84-41.682 10.503-63.189 8.899-23.12-1.722-44.751-11.305-65.919-19.786-38.365-15.38-78.614-25.198-119.303-33.358-18.054-3.626-36.412-7.893-54.839-9.626-23.086-2.192-46.353.706-69.169 4.075a452.319 452.319 0 0 0-51.126 10.417c-13.992 3.743-27.792 8.096-41.806 11.765-40.323 10.682-82.111 15.556-123.963 14.459-22.974-.577-45.575-3.347-68.323-6.224-19.679-2.481-39.764-4.546-59.487-1.209-20.311 3.444-38.365 12.76-54.625 24.663-17.399 12.845-31.888 28.674-49.095 41.615-6.274 4.706-14.579 10.534-23.03 8.192a.736.736 0 0 0-.533.063.675.675 0 0 0-.33.402.636.636 0 0 0 .066.506.7.7 0 0 0 .424.313Z" fill="url(#l)"/><path d="M55.115 185.405c5.349 1.465 10.45-.61 14.94-3.316 7.684-4.631 14.206-11.016 20.615-17.112 16.068-15.187 31.775-30.834 50.924-42.609 18.375-11.295 39.662-17.605 61.552-18.246 21.733-.781 43.397 2.257 64.994 4.021 42.991 3.54 86.614 2.813 129.289-3.604 30.94-4.684 61.327-12.032 92.188-17.112 20.31-3.315 40.768-5.904 61.259-7.84 24.023-2.267 46.906-1.016 70.692 2.632 39.29 6.01 78.783 12.192 116.73 23.839 21.304 6.545 41.332 16.042 62.32 23.337 19.521 6.78 39.098 9.903 59.804 7.818 21.54-2.139 42.686-8.193 63.188-14.567a318.822 318.822 0 0 0 48.96-20.385c29.81-15.08 57.65-33.925 88.48-47.112 12.41-5.347 25.95-9.786 39.73-9.914 13.64-.06 26.81 4.685 36.97 13.315a94.05 94.05 0 0 1 16.17 17.808c.51.706 1.74 0 1.22-.685-7.97-11.026-17.81-21.39-30.8-27.08-10.42-4.588-21.93-5.55-33.2-3.925-29.58 4.278-56.42 21.732-81.58 35.946-15.607 8.824-31.258 17.604-47.506 25.316a350.861 350.861 0 0 1-57.344 20.855c-21.01 5.818-42.878 10.813-64.904 9.69-23.617-1.209-45.462-10.599-66.901-19.251-38.714-15.626-79.11-24.706-120.465-31.519-18.313-3.016-36.784-6.417-55.29-8.096-24.113-2.203-48.192.588-72.114 3.497-31.47 3.83-62.252 10.075-93.316 16.043-40.948 7.871-81.897 12.321-123.737 11.625-23.109-.385-45.981-2.566-68.977-4.556-19.995-1.722-40.339-2.738-60.074 1.498-20.311 4.363-38.184 14.385-54.162 26.737-17.129 13.337-31.222 29.636-48.046 43.198-5.574 4.492-13.349 10.631-21.225 8.47a.735.735 0 0 0-.535.06.673.673 0 0 0-.334.4.636.636 0 0 0 .063.507.7.7 0 0 0 .422.317Z" fill="url(#m)"/><path d="M59.63 190.592c5.032 1.369 9.827-.931 13.89-3.626 7.04-4.684 13.02-10.877 18.9-16.78 15.876-15.936 31.447-32.246 50.517-44.845 17.982-11.926 38.947-19.18 60.807-21.037 21.552-1.893 43.273.096 64.803 1.283 44.424 2.46 89.005 1.776 133.147-3.433 30.963-3.658 61.88-7.486 92.91-10.599 20.582-2.064 41.163-4.278 61.779-5.914 23.21-1.872 45.665-.61 68.729 2.064 40.621 4.717 81.739 9.455 120.87 21.39 21.586 6.599 41.75 16.631 63.11 23.775 19.064 6.511 39.462 8.74 59.589 6.514 39.144-4.278 77.655-17.177 112.194-34.866 29.725-15.23 57.285-34.225 87.665-48.267 23.33-10.791 50.88-17.904 72.92-.685a78.53 78.53 0 0 1 15.06 16.171c.51.696 1.73 0 1.22-.684-7.23-9.99-16.28-19.251-28.21-23.99-10.28-4.106-21.54-4.277-32.35-2.138-29.14 5.754-55.29 23.625-80.22 38.085-32.722 18.994-65.716 35.935-102.873 45.818-21.337 5.679-43.408 10.695-65.716 10.128-23.572-.631-45.135-9.251-66.473-17.946-20.118-8.193-40.248-15.23-61.563-20.086-20.221-4.599-40.757-7.818-61.35-10.502-19.024-2.492-38.195-5.102-57.344-6.588-23.898-1.85-47.538.577-71.29 2.855-32.339 3.112-64.656 6.417-96.904 10.246-41.366 4.952-82.292 9.059-124.121 8.62-23.233-.235-46.342-1.893-69.53-2.93-19.984-.899-40.294-.813-59.713 4.278-20.503 5.411-38.365 16.31-54.343 29.486-16.53 13.69-30.093 30.117-46.263 44.128-4.908 4.278-12.186 10.695-19.52 8.717a.74.74 0 0 0-.503.095.68.68 0 0 0-.304.391.642.642 0 0 0 .052.483.7.7 0 0 0 .382.325l.045.064Z" fill="url(#n)"/><path d="M64.131 195.768c4.706 1.273 9.118-1.208 12.762-3.829 6.883-4.973 12.604-11.465 18.336-17.529 15.515-16.588 30.929-33.39 49.863-46.63 17.503-12.273 37.934-20.256 59.476-23.241 21.62-3.037 43.646-2.021 65.446-1.412 44.928 1.415 89.905.426 134.716-2.962 31.244-2.46 62.489-2.631 93.79-4.022 21.439-.951 42.765-2.92 64.159-4.374 23.143-1.583 45.834-.203 68.898 1.647 41.569 3.316 83.951 6.631 123.749 19.251 21.845 6.931 42.144 17.605 64.08 24.321 19.329 5.925 39.098 7.027 59.194 4.588 39.391-4.78 77.192-17.112 111.844-35.294 29.126-15.272 56.046-34.149 85.486-48.865 20.93-10.46 47.39-20.15 68.71-5.166 5.69 4.197 10.62 9.256 14.57 14.973.51.706 1.73 0 1.22-.674-6.58-9.09-14.96-17.294-26.1-21.155-9.9-3.422-20.66-2.791-30.71-.288-28.4 7.069-53.63 25.058-78.11 39.678-31.433 18.77-63.806 36.556-99.913 45.872-21.902 5.636-44.436 10.855-67.263 10.909-23.695.053-45.134-7.487-66.652-16.3-20.221-8.278-40.114-15.946-61.643-20.684-20.683-4.545-41.75-7.316-62.862-9.422-19.588-1.958-39.267-3.647-58.923-4.92-24.328-1.583-48.261.46-72.498 2.289-32.723 2.47-65.389 2.684-98.168 4.181-18.483.845-36.909 2.567-55.369 3.722a1036.018 1036.018 0 0 1-70.444 2.032c-23.696-.075-47.392-1.219-71.088-1.283-20.006-.054-40.215 1.166-59.341 7.123-20.085 6.246-37.608 17.583-53.101 31.016-16.339 14.181-29.642 31.015-45.315 45.753-4.412 4.118-11.397 11.294-18.415 9.412a.74.74 0 0 0-.535.059.672.672 0 0 0-.334.401.637.637 0 0 0 .063.507.699.699 0 0 0 .422.316Z" fill="url(#o)"/><path d="M68.645 200.955c4.265 1.134 8.192-1.347 11.374-3.807 6.838-5.273 12.412-12.107 18.054-18.492 14.759-16.834 29.642-33.689 47.797-47.379 17.533-13.341 38.158-22.545 60.176-26.855 21.778-4.279 44.199-4.279 66.326-3.861 24.339.427 48.802.438 73.129-.471 20.424-.76 40.983-2.824 61.44-1.893 31.358 1.422 62.534 4.278 93.96 3.444 22.07-.578 44.006-2.321 66.066-3.658 23.041-1.39 45.868-.332 68.887.706 42.483 1.904 86.354 3.561 126.896 16.877 22.105 7.251 42.585 18.406 65.028 24.812 19.814 5.658 40.294 6.011 60.695 3.369 38.914-5.007 76.453-17.046 110.58-35.465 28.797-15.443 55.287-34.416 84.007-49.946 19.05-10.288 45.03-22.46 65.66-8.823a51.975 51.975 0 0 1 13.07 13.101c.5.706 1.72 0 1.2-.673-5.94-8.225-13.71-15.476-24.02-18.407-9.57-2.716-19.77-1.315-29.11 1.53-27.65 8.449-51.97 26.556-76.04 41.39-30.76 18.962-62.852 37.112-98.452 46.523-22.409 5.915-45.936 10.835-69.271 11.113-23.695.278-45.202-6.578-66.72-15.433-20.491-8.45-40.463-16.685-62.388-21.262-20.739-4.342-41.93-6.567-63.098-8.032-20.311-1.401-40.791-2.246-61.18-3.112-24.678-1.07-49.005.727-73.604 2.256a812.528 812.528 0 0 1-100.007.214c-18.246-1.07-36.424-2.46-54.726-1.775-23.414.877-46.726 2.139-70.173 2.342-23.911.171-47.9-.78-71.787 0-20.074.674-40.215 3.134-59.082 9.936-19.938 7.176-37.326 18.951-52.65 32.898-16.271 14.823-29.45 32.245-44.841 47.871-3.814 3.882-10.358 11.379-16.824 9.732a.74.74 0 0 0-.533.064.67.67 0 0 0-.33.402.634.634 0 0 0 .067.505.697.697 0 0 0 .424.313v-.054Z" fill="url(#p)"/><path d="M73.147 206.142c4.141 1.07 7.898-1.85 10.765-4.278 6.42-5.55 11.656-12.449 16.982-18.908 14.431-17.476 29.157-34.834 47.154-49.198 17.217-13.857 37.561-23.781 59.465-29.005 21.631-5.123 44.086-6.15 66.269-6.716 25.084-.631 50.19-.396 75.263-1.177 20.863-.642 41.873-2.139 62.692-.214 31.786 3.016 63.189 9.198 95.167 9.786 22.567.417 44.942-1.187 67.408-2.353 12.412-.641 24.824-.321 37.237-.203 10.279.096 20.536-.791 30.804-1.069 42.63-1.123 87.471 1.443 127.777 15.636 22.567 7.946 43.634 19.582 66.968 25.529 19.431 4.952 39.606 4.813 59.42 2.321 20.92-2.642 42.043-6.877 61.914-13.711a314.273 314.273 0 0 0 49.138-22.235c28.64-15.744 54.84-35.005 83.03-51.412 17.1-9.968 42.41-24.331 62.17-12.235 4.63 3.003 8.58 6.845 11.63 11.305.52.706 1.74 0 1.22-.674-5.37-7.412-12.54-13.711-22.02-15.743s-19.18.224-28 3.497c-26.89 10.01-50.37 28.257-74.15 43.4-30.58 19.466-62.73 37.829-98.432 47.434-22.183 5.957-45.778 10.299-68.83 10.748-23.481.46-44.819-5.454-66.19-14.246-20.683-8.556-40.757-17.497-62.794-22.459-21.044-4.749-42.664-7.113-64.249-8.129-20.525-.962-40.836 0-61.339.631-12.412.396-24.733-.588-37.1-.107-11.939.471-23.843 1.359-35.77 1.947-19.735.962-39.493 1.347-59.25-.086-15.233-1.069-30.308-3.422-45.429-5.433-17.771-2.363-35.6-4.534-53.575-4.417-23.594.15-47.154 1.476-70.748 1.658-24.497.182-49.118.171-73.547 2.032-20.097 1.54-40.148 4.802-58.822 12.214-19.882 7.903-37.09 20.32-52.21 34.705-16.113 15.358-28.999 33.155-43.848 49.497-3.386 3.669-9.704 11.957-15.798 10.385a.745.745 0 0 0-.502.096.676.676 0 0 0-.304.391.642.642 0 0 0 .053.483c.08.149.216.265.38.324v-.011Z" fill="url(#q)"/><path d="M77.66 211.319c3.837.973 7.278-2.139 9.76-4.492 6.038-5.711 10.923-12.61 15.945-19.091 14.578-18.791 29.653-37.326 48.294-52.705 17.255-14.32 37.633-24.852 59.679-30.845 21.97-5.957 44.921-7.829 67.703-8.898 25.298-1.187 50.63-1.273 75.95-1.39 20.491-.086 41.073-.321 61.53 1.005 31.752 2.064 61.609 12.834 93.158 15.861 22.681 2.139 45.35.759 68.041-.364 12.785-.631 25.524-.321 38.308-.62 10.562-.246 21.089-1.465 31.595-2.032 43.227-2.289 89.66-1.54 130.417 13.903 22.217 8.407 43.329 19.957 66.686 25.476 19.589 4.631 39.956 4.278 59.804 1.893 20.954-2.556 41.93-6.61 61.767-13.572a309.649 309.649 0 0 0 48.693-22.46c28.68-16.042 54.72-35.743 82.42-53.197 15.25-9.626 39.76-26.214 58.77-16.267 4.37 2.457 8.07 5.844 10.82 9.893.51.706 1.74 0 1.22-.674-4.84-6.663-11.43-11.957-20.1-13.166-8.92-1.24-17.96 1.637-25.95 5.102-26.62 11.465-49.74 30.406-73.62 46.117-30.27 19.914-62.371 38.395-98.028 48.128a288.399 288.399 0 0 1-68.447 10.406c-23.199.546-44.548-4.535-65.75-13.208-20.965-8.556-41.129-18.364-63.471-23.358-21.585-4.824-43.859-6.685-65.987-7.113-21.044-.406-41.885.942-62.85 2.396-12.683.888-25.411.096-38.116.61-12.254.492-24.486 1.358-36.751 1.754-20.108.631-40.227-.225-60.007-3.904-14.308-2.663-28.299-6.63-42.618-9.262-17.738-3.273-35.702-4.278-53.733-4.567-23.504-.406-47.031-.16-70.524.065-44.096.438-91.894.096-132.91 17.55-20.57 8.759-38.308 22.043-53.767 37.433-15.899 15.882-28.593 34-42.878 51.133-2.855 3.423-9.027 12.513-14.669 11.091a.736.736 0 0 0-.533.063.672.672 0 0 0-.33.402.637.637 0 0 0 .067.506.695.695 0 0 0 .424.312l-.012.086Z" fill="url(#r)"/><path d="M82.163 216.506c3.712.909 6.984-2.706 9.15-5.016 5.812-6.203 10.54-13.347 15.504-20.15 14.004-19.251 28.785-37.999 46.986-53.86 16.977-14.887 37.063-26.23 58.957-33.294 21.789-6.984 44.774-9.914 67.635-11.54 25.647-1.829 51.386-2 77.09-1.85 20.672.118 41.535.32 62.06 2.727 32.667 3.85 62.252 18.385 94.783 22.567 22.568 2.898 45.135 1.679 67.759.599 23.391-1.07 46.782-1.711 70.162-2.995 45.135-2.47 92.741-5.347 135.269 11.84 21.337 8.609 41.896 19.657 64.644 24.662 20.593 4.546 41.953 3.947 62.794 1.359 20.469-2.546 40.621-6.535 59.973-13.54a304.367 304.367 0 0 0 48.361-22.898c28.21-16.257 53.78-36.021 80.52-54.289 9.87-6.738 20.06-13.561 31.26-18.181 7.74-3.209 17.05-5.669 25.1-2.022 3.88 1.906 7.15 4.742 9.5 8.225.51.706 1.73 0 1.22-.674-10.99-15.09-28.29-11.166-43.13-3.604-25.55 13.005-47.78 31.903-71.22 47.903-29.84 20.321-61.718 39.069-97.149 49.197a280.909 280.909 0 0 1-69.451 10.524c-23.244.567-44.898-3.967-66.213-12.63-21.315-8.663-41.4-19.305-64.068-24-21.541-4.46-43.793-5.209-65.773-4.877-47.121.695-94.163 4.984-141.283 5.893-20.401.396-40.791-1.07-60.571-6.064-14.545-3.658-28.548-9.006-43.059-12.834-39.933-10.428-83.217-8.642-124.233-8.16-44.718.534-92.685 2.374-133.475 21.635-20.401 9.626-37.947 23.53-53.192 39.476-15.56 16.289-28.051 34.62-41.591 52.406-2.257 3.016-8.745 13.465-13.958 12.203a.737.737 0 0 0-.534.063.671.671 0 0 0-.33.402.637.637 0 0 0 .067.506.695.695 0 0 0 .424.312l.012-.021Z" fill="url(#s)"/><path d="M86.665 221.693c3.577.824 6.657-3.315 8.519-5.54 5.382-6.417 9.851-13.626 14.578-20.513 13.958-20.321 28.977-40.182 47.595-56.973 16.794-15.242 36.627-27.157 58.337-35.048 21.766-7.84 44.875-11.679 67.984-13.786 26.088-2.385 52.368-2.588 78.557-2.085 20.954.396 42.28 1.123 62.884 5.037 31.595 6 58.912 23.701 90.721 28.984 22.003 3.658 44.402 2.278 66.574 1.369 24.486-1.005 48.904-2.492 73.344-4.61 45.62-3.946 93.655-8.492 136.86 9.23 21.574 8.856 42.28 20.128 65.355 25.219 20.424 4.492 41.626 4.182 62.343 1.883 20.908-2.321 41.422-6.278 61.101-13.455a297.455 297.455 0 0 0 48.863-23.433c27.98-16.46 53.22-36.427 79.12-55.614 9.82-7.273 19.82-14.685 30.82-20.32 6.85-3.487 15.71-7.274 23.56-4.578 3.52 1.34 6.51 3.698 8.53 6.737.52.706 1.74 0 1.22-.673-10.28-14.096-27.48-6.695-39.88.599-24.94 14.695-46.79 34.074-70.3 50.673-29.85 21.069-62.06 40.16-97.967 50.384a270.68 270.68 0 0 1-70.072 9.947c-22.381.258-44.563-4.016-65.062-12.535-21.811-8.877-42.585-20.481-66.055-25.08-21.89-4.278-44.525-4.395-66.765-3.358-22.24 1.037-44.278 3.455-66.439 5.048a1525.915 1525.915 0 0 1-77.857 3.572c-20.074.407-40.08-1.593-59.149-7.775-14.229-4.62-27.612-11.251-41.682-16.246-38.749-13.775-82.123-12.909-122.891-12.492-45.834.46-94.478 4.225-135.495 25.358-20.491 10.556-38.093 25.177-53.293 41.85-15.199 16.674-27.656 35.551-40.621 53.989-1.952 2.77-8.17 14.01-12.886 12.909-.88-.203-1.264 1.069-.383 1.294l-.068.032Z" fill="url(#t)"/><path d="M91.178 226.87c3.08.684 5.642-3.209 7.143-5.091 5.36-6.888 9.704-14.535 14.409-21.829 13.541-21.005 28.379-41.369 46.76-58.823 16.379-15.702 35.719-28.355 57.016-37.304 22.24-9.241 46.263-14.171 70.241-16.824 26.156-2.877 52.627-3.09 78.918-2.214 21.045.696 42.495 2.14 62.918 7.23 31.775 7.979 57.953 28.417 90.214 34.984 22.33 4.545 45.394 3.465 68.063 2.492 24.914-1.07 49.648-3.455 74.371-6.353 23.458-2.759 47.041-5.433 70.715-5.348a203.164 203.164 0 0 1 35.306 2.792c11.927 2.139 22.985 6.171 34.009 10.93 21.372 9.198 42.032 20.214 65.209 24.866 21.349 4.278 43.397 3.754 64.949 1.252 20.028-2.321 39.493-6.418 58.224-13.466a293.245 293.245 0 0 0 48.347-23.839c27.98-16.898 53.04-37.433 78.41-57.572 9.37-7.486 18.78-15.069 29.09-21.39 6.04-3.679 14.21-8.556 21.78-7.005 3.17.746 5.92 2.628 7.66 5.251.52.706 1.74 0 1.22-.674-9.65-13.165-27.27-1.71-37.24 5.049-23.51 16.042-44.5 35.293-67.37 52.074-29.91 22-62.56 41.711-99.003 52.352-22.038 6.417-45.564 9.38-68.572 9.765-21.896.487-43.663-3.307-63.944-11.144-22.805-8.877-44.176-21.904-68.447-26.995-22.274-4.663-45.496-4.214-68.109-2.588-22.917 1.658-45.653 4.909-68.492 7.251a822.495 822.495 0 0 1-78.523 4.204c-20.502.117-40.835-2.524-59.894-9.893-14.668-5.69-28.209-13.722-42.675-19.893-37.902-16.16-81.242-16.503-122.078-16.043-46.669.47-95.381 6.332-136.138 29.369-41.58 23.529-67.555 61.368-92.312 99.55-1.613 2.47-7.718 14.513-11.836 13.615-.88-.193-1.264 1.069-.373 1.283l.034-.021Z" fill="url(#u)"/><path d="M95.68 232.057c2.957.599 5.405-3.925 6.647-5.744 4.806-7.016 8.846-14.524 13.235-21.775 12.931-21.39 27.352-42.031 45.135-60.085 33.118-33.625 76.312-52.898 123.997-59.743 27.08-3.882 54.647-4.278 81.942-3.037 21.27.941 42.878 2.973 63.279 9.016 31.82 9.422 57.028 31.69 89.141 40.299 22.161 5.936 45.315 6 68.131 4.973 25.377-1.144 50.393-4.16 75.477-7.871 24.113-3.562 48.35-7.187 72.802-7.776a187.04 187.04 0 0 1 36.785 2.3c11.938 2.139 22.951 6.299 33.941 11.133 21.541 9.476 42.325 20.663 65.739 25.487 21.597 4.449 43.916 4.171 65.773 1.818 38.951-4.171 74.316-17.615 107.056-37.85 28.01-17.294 53.04-38.31 77.76-59.518 9.22-7.904 18.37-15.99 28.29-23.101 5.38-3.85 12.87-9.626 20.09-9.241 1.34.072 2.64.442 3.8 1.082 1.16.64 2.14 1.53 2.86 2.597.52.695 1.74 0 1.22-.674-8.62-11.7-26.18 3.027-33.61 8.749-23.16 17.829-44.19 38-67.48 55.7-29.55 22.46-62.15 42.374-98.575 53.058-22.184 6.514-45.801 9.337-68.989 9.508-22.358.313-44.549-3.709-65.208-11.818-22.714-9.005-44.007-22.46-68.323-27.497-22.567-4.684-46.06-3.572-68.831-1.273-50.889 5.155-101.045 16.481-152.611 14.139-20.537-.93-40.498-5.091-58.958-13.786-14.183-6.673-27.194-15.347-41.309-22.16-37.868-18.267-82.078-19.743-123.715-19.112-47.335.716-95.742 9.283-135.664 34.588-40.294 25.529-65.818 63.946-89.321 103.09-1.129 1.968-6.884 13.903-10.156 13.24-.891-.182-1.264 1.07-.383 1.284h.033Z" fill="url(#v)"/><path d="M100.194 237.244c2.674.46 4.818-4.278 5.8-5.883 4.626-7.582 8.62-15.507 13.021-23.208 12.559-22 26.867-43.208 44.469-61.924 32.982-35.07 76.537-56.92 125.317-64.588 27.081-4.278 54.94-4.578 82.371-2.845 21.224 1.348 42.709 4.278 62.658 11.53 31.775 11.582 55.855 36.234 88.498 46.042 21.721 6.534 44.706 6.973 67.274 5.978 26.167-1.144 51.769-5.133 77.473-9.689 24.825-4.407 49.886-8.942 75.206-9.915a166.973 166.973 0 0 1 35.262 1.893c12.502 2.139 24.012 6.952 35.431 12.15 21.506 9.797 42.325 20.834 65.863 25.668 22.093 4.524 44.931 4.278 67.296 1.914 38.454-4.053 73.687-18.181 105.707-38.416 28.07-17.776 53.03-39.39 77.19-61.647 8.88-8.192 17.63-16.566 26.91-24.363 5.02-4.203 11.65-10.61 18.63-11.604a5.691 5.691 0 0 1 3.17.247 5.3 5.3 0 0 1 2.47 1.892c.52.695 1.74 0 1.22-.674-7.57-10.192-25.88 8.556-31.04 13.101-22.07 19.37-42.88 39.968-66.01 58.214-29.2 22.983-61.77 43.197-98.168 54.106-21.958 6.578-45.134 9.326-68.176 9.476-22.274.139-44.13-3.283-64.813-11.208-23.696-9.081-45.586-23.776-70.704-29.241-22.658-4.93-46.557-3.208-69.372-.299-51.567 6.524-101.948 20.106-154.485 17.112-20.886-1.187-41.005-5.968-59.33-15.647-14.071-7.433-26.708-17.005-40.486-24.877-36.751-20.962-80.035-24.278-122.044-23.957-49.062.375-98.338 10.749-138.711 38.214-39.752 27.026-65.739 66.245-88.013 106.683-.835 1.519-6.849 14.973-9.421 14.471-.892-.15-1.264 1.133-.373 1.294h-.09Z" fill="url(#w)"/><path d="M104.888 242.506c2.415.299 4.705-5.84 5.416-7.187 4.367-8.3 8.44-16.727 12.931-24.973 12.311-22.653 26.664-44.417 44.277-63.732 33.118-36.364 77.282-60.363 127.281-68.449 27.284-4.396 55.572-4.492 83.081-1.936 21.744 2.022 43.476 6.321 63.189 15.55 30.647 14.364 53.349 40.353 86.354 50.664 22.173 6.941 45.891 7.347 68.989 6.096 25.309-1.359 49.987-6.225 74.698-11.326 25.298-5.22 50.776-10.695 76.729-12.107a151.896 151.896 0 0 1 34.979 1.551c12.412 2.203 23.786 7.165 34.98 12.406 21.202 9.882 41.75 20.898 64.915 26.064 23.165 5.166 47.222 5.155 70.76 2.727 38.365-3.968 73.873-18.77 105.533-39.369 27.77-18.053 52.39-40 75.6-62.983 8.88-8.78 17.53-17.775 26.51-26.47 4.82-4.653 10.4-11.123 16.93-13.658 1.64-.641 3.49-1.07 4.68.514.53.695 1.75 0 1.22-.674-6.18-8.203-25.39 14.342-28.64 17.582-21.08 20.941-41.75 42.171-64.98 61.037-29.21 23.722-62.18 44.363-99.143 55.305-43.826 12.973-94.275 13.09-136.69-4.407-22.658-9.347-44.007-23.732-68.447-28.802-22.252-4.609-45.688-2.299-67.94 1.07-52.142 7.893-102.681 23.903-156.211 20.267-21.01-1.433-41.163-6.738-59.206-17.112-14.206-8.203-26.652-18.749-40.271-27.732-36.108-23.818-79.144-29.177-122.248-29.027-50.212.182-99.533 12.47-139.76 41.711-39.876 29.005-66.269 70.053-87.753 112.501-.699 1.391-5.732 13.765-7.763 13.508-.903-.117-.891 1.22 0 1.337v.054Z" fill="url(#x)"/><path d="M109.39 247.629c2.257.085 4.141-6.353 4.762-7.701 4.039-8.738 8.056-17.486 12.412-26.064 12.107-23.529 26.539-46.202 44.255-66.373 32.722-37.283 76.526-63.7 127.167-72.47 27.972-4.845 57.377-4.76 85.53-1.252 21.27 2.653 42.167 8.064 60.876 18.182 30.285 16.428 51.973 44.181 85.395 55.764 47.166 16.342 99.612 4.642 146.473-6.353 25.4-5.968 51.082-12.203 77.26-14.064 11.397-.802 22.996-.78 34.257 1.252 12.943 2.331 24.903 7.935 36.559 13.561 21.124 10.192 41.75 21.112 64.972 26.321 23.628 5.283 48.26 5.401 72.283 2.844 37.925-4.032 73.239-19.432 104.229-40.095 27.85-18.578 52.42-41.198 75.08-65.24 8.62-9.123 16.93-18.503 25.32-27.808 4.81-5.347 9.66-11.764 15.73-15.903.67-.46 2.65-2.01 3.39-.995.53.685 1.76 0 1.21-.674-4.32-5.604-24.04 19.604-26.09 21.904-19.95 22.288-40.48 44.128-63.59 63.561-28.86 24.267-61.79 45.251-98.787 56.448-43.882 13.273-94.479 13.059-136.984-4.427-23.29-9.572-45.135-24.888-70.117-30.235-22.432-4.792-46.263-1.765-68.56 2.203-52.683 9.401-103.584 27.807-158.073 23.315-21.439-1.754-41.84-7.946-59.736-19.422-14.421-9.23-26.81-20.92-40.554-31.016-14.918-11.083-31.891-19.425-50.043-24.599-22.77-6.417-46.816-8.213-70.467-8.256-51.442-.107-100.797 14.17-140.865 45.272-39.753 30.994-66.585 73.721-86.964 117.881-.586 1.252-5.168 13.145-6.33 13.102-.903 0-.903 1.305 0 1.337Z" fill="url(#y)"/><path d="M114.084 252.794c1.817-.363 3.385-6.941 3.871-8.117 3.78-9.337 7.808-18.578 12.242-27.658 11.859-24.342 26.303-47.721 44.018-68.63 32.723-38.759 76.944-67.796 129.007-76.823 27.983-4.855 57.772-4.524 85.812 0 20.999 3.37 41.242 10 59.104 21.123 29.947 18.631 50.844 48.128 85.034 60.812 47.989 17.765 100.651 4.567 148.042-7.861 25.512-6.695 51.33-13.721 77.79-16.042 11.735-1.016 23.696-1.07 35.329 1.262 12.897 2.556 24.96 8.652 36.593 14.449 21.055 10.502 41.75 21.326 65.039 26.609 23.628 5.348 48.385 5.701 72.43 3.07 38.265-4.171 73.855-20.032 104.805-41.283 28.03-19.252 52.59-42.717 74.66-67.893 8.17-9.315 15.99-18.887 23.63-28.598 4.71-5.99 9.14-12.31 14.31-17.968.62-.685 2.45-2.353 2.4-2.417.57.674 1.56-.278.99-.941-1.67-2-6.29 4.63-6.91 5.347-5.64 6.941-11.06 14.118-16.66 21.123-19.18 24-39.95 46.92-63.47 67.197-28.86 24.93-62.17 46.171-99.71 57.208-44.392 13.07-94.785 11.765-137.336-6.331-23.695-10.075-46.071-26.385-71.854-31.198-22.726-4.278-46.715-.299-69.011 4.406-53.237 11.23-105.074 32.086-160.691 25.53-21.062-2.361-41.082-9.987-58.01-22.096-14.217-10.182-26.313-22.695-39.899-33.572-14.827-11.893-31.402-21.326-49.885-27.155-22.41-7.08-46.263-9.316-69.812-9.444-28.018-.16-55.787 3.936-81.841 13.904-22.558 8.8-43.337 21.237-61.417 36.759-38.218 32.534-64.87 75.881-83.635 120.779-.745 1.765-4.276 12.941-5.337 13.155-1.061.214-.508 1.466.372 1.294Z" fill="url(#z)"/><path d="M119.083 257.479c4.908-16.824 12.31-33.155 20.31-48.898 17.095-33.797 39.493-65.775 68.504-91.432 35.859-31.743 81.603-51.112 131.06-52.096 27.385-.546 55.561 1.978 81.243 11.647 18.053 6.834 33.851 17.411 48.068 30.032 12.074 10.77 22.996 22.684 35.578 32.94 13.179 10.76 28.209 19.038 44.976 23.53 53.18 14.224 105.616-4.931 156.234-19.006 27.397-7.614 57.164-15.914 86.016-12.834 23.109 2.514 43.6 16.043 63.708 26.086 22.059 11.058 45.135 19.037 70.072 21.604 29.674 3.176 59.721.228 88.078-8.642 47.01-15.059 87.01-45.668 119.86-80.213 21.66-22.658 40.67-47.465 56.72-73.989.81-1.358 1.63-2.727 2.4-4.106.42-.76-.8-1.444-1.21-.674-11.11 19.946-25.19 38.737-39.89 56.406-30.06 36.138-66.44 69.175-110.1 90.074-51.586 24.695-114.786 28.876-168.124 6.417-20.311-8.556-38.85-20.396-59.341-28.546-24.023-9.561-50.179-6.47-74.969-1.251-30.117 6.374-59.206 16.332-89.017 23.979-26.235 6.737-53.034 10.213-80.205 7.122-19.724-2.246-38.432-8.62-54.59-19.646-13.609-9.284-24.937-21.08-36.718-32.3-12.412-11.893-25.749-23.048-41.32-31.154-20.311-10.6-43.037-15.818-65.965-17.818-27.171-2.364-54.839-1.145-81.152 6.053-22.094 6.137-42.876 15.912-61.395 28.877-33.23 23.08-59.149 54.609-78.986 88.544-12.381 20.816-22.477 42.781-30.127 65.551-.373 1.133-.745 2.267-1.129 3.422a.636.636 0 0 0 .067.505.698.698 0 0 0 .424.313c.18.047.372.024.533-.063a.67.67 0 0 0 .33-.402l.057-.032Z" fill="url(#A)"/></g><defs><linearGradient id="n" x1="949.856" y1="105.752" x2="265.391" y2="91.584" gradientUnits="userSpaceOnUse"><stop stop-color="#fff"/><stop offset="1" stop-color="#fff" stop-opacity="0"/></linearGradient><linearGradient id="a" x1="911.057" y1="62.795" x2="211.357" y2="48.133" gradientUnits="userSpaceOnUse"><stop stop-color="#fff"/><stop offset="1" stop-color="#fff" stop-opacity="0"/></linearGradient><linearGradient id="c" x1="917.053" y1="67.573" x2="219.811" y2="50.858" gradientUnits="userSpaceOnUse"><stop stop-color="#fff"/><stop offset="1" stop-color="#fff" stop-opacity="0"/></linearGradient><linearGradient id="d" x1="920.069" y1="70.481" x2="224.044" y2="52.677" gradientUnits="userSpaceOnUse"><stop stop-color="#fff"/><stop offset="1" stop-color="#fff" stop-opacity="0"/></linearGradient><linearGradient id="e" x1="923.042" y1="76.251" x2="228.184" y2="58.294" gradientUnits="userSpaceOnUse"><stop stop-color="#fff"/><stop offset="1" stop-color="#fff" stop-opacity="0"/></linearGradient><linearGradient id="f" x1="926.017" y1="82.054" x2="232.357" y2="63.943" gradientUnits="userSpaceOnUse"><stop stop-color="#fff"/><stop offset="1" stop-color="#fff" stop-opacity="0"/></linearGradient><linearGradient id="g" x1="929.006" y1="87.893" x2="236.539" y2="69.621" gradientUnits="userSpaceOnUse"><stop stop-color="#fff"/><stop offset="1" stop-color="#fff" stop-opacity="0"/></linearGradient><linearGradient id="h" x1="932.106" y1="91.785" x2="240.69" y2="73.869" gradientUnits="userSpaceOnUse"><stop stop-color="#fff"/><stop offset="1" stop-color="#fff" stop-opacity="0"/></linearGradient><linearGradient id="i" x1="934.97" y1="94.409" x2="244.763" y2="77.161" gradientUnits="userSpaceOnUse"><stop stop-color="#fff"/><stop offset="1" stop-color="#fff" stop-opacity="0"/></linearGradient><linearGradient id="j" x1="938.04" y1="97.006" x2="248.92" y2="80.389" gradientUnits="userSpaceOnUse"><stop stop-color="#fff"/><stop offset="1" stop-color="#fff" stop-opacity="0"/></linearGradient><linearGradient id="k" x1="940.956" y1="99.424" x2="253.097" y2="83.443" gradientUnits="userSpaceOnUse"><stop stop-color="#fff"/><stop offset="1" stop-color="#fff" stop-opacity="0"/></linearGradient><linearGradient id="l" x1="943.931" y1="101.746" x2="257.132" y2="86.369" gradientUnits="userSpaceOnUse"><stop stop-color="#fff"/><stop offset="1" stop-color="#fff" stop-opacity="0"/></linearGradient><linearGradient id="m" x1="946.896" y1="103.805" x2="261.256" y2="89.04" gradientUnits="userSpaceOnUse"><stop stop-color="#fff"/><stop offset="1" stop-color="#fff" stop-opacity="0"/></linearGradient><linearGradient id="b" x1="914.151" y1="65.266" x2="215.665" y2="49.64" gradientUnits="userSpaceOnUse"><stop stop-color="#fff"/><stop offset="1" stop-color="#fff" stop-opacity="0"/></linearGradient><linearGradient id="o" x1="952.89" y1="107.594" x2="269.525" y2="93.994" gradientUnits="userSpaceOnUse"><stop stop-color="#fff"/><stop offset="1" stop-color="#fff" stop-opacity="0"/></linearGradient><linearGradient id="p" x1="955.824" y1="109.205" x2="273.649" y2="96.17" gradientUnits="userSpaceOnUse"><stop stop-color="#fff"/><stop offset="1" stop-color="#fff" stop-opacity="0"/></linearGradient><linearGradient id="q" x1="958.819" y1="110.641" x2="277.826" y2="98.153" gradientUnits="userSpaceOnUse"><stop stop-color="#fff"/><stop offset="1" stop-color="#fff" stop-opacity="0"/></linearGradient><linearGradient id="r" x1="961.768" y1="111.92" x2="281.924" y2="99.956" gradientUnits="userSpaceOnUse"><stop stop-color="#fff"/><stop offset="1" stop-color="#fff" stop-opacity="0"/></linearGradient><linearGradient id="s" x1="964.781" y1="113.279" x2="286.048" y2="101.792" gradientUnits="userSpaceOnUse"><stop stop-color="#fff"/><stop offset="1" stop-color="#fff" stop-opacity="0"/></linearGradient><linearGradient id="t" x1="967.796" y1="114.097" x2="290.264" y2="103.111" gradientUnits="userSpaceOnUse"><stop stop-color="#fff"/><stop offset="1" stop-color="#fff" stop-opacity="0"/></linearGradient><linearGradient id="u" x1="970.751" y1="114.739" x2="294.318" y2="104.229" gradientUnits="userSpaceOnUse"><stop stop-color="#fff"/><stop offset="1" stop-color="#fff" stop-opacity="0"/></linearGradient><linearGradient id="v" x1="973.736" y1="115.217" x2="298.46" y2="105.162" gradientUnits="userSpaceOnUse"><stop stop-color="#fff"/><stop offset="1" stop-color="#fff" stop-opacity="0"/></linearGradient><linearGradient id="w" x1="976.762" y1="115.578" x2="302.706" y2="105.955" gradientUnits="userSpaceOnUse"><stop stop-color="#fff"/><stop offset="1" stop-color="#fff" stop-opacity="0"/></linearGradient><linearGradient id="x" x1="979.638" y1="115.834" x2="306.774" y2="106.622" gradientUnits="userSpaceOnUse"><stop stop-color="#fff"/><stop offset="1" stop-color="#fff" stop-opacity="0"/></linearGradient><linearGradient id="y" x1="982.615" y1="115.864" x2="310.91" y2="107.038" gradientUnits="userSpaceOnUse"><stop stop-color="#fff"/><stop offset="1" stop-color="#fff" stop-opacity="0"/></linearGradient><linearGradient id="z" x1="985.618" y1="115.599" x2="314.991" y2="107.151" gradientUnits="userSpaceOnUse"><stop stop-color="#fff"/><stop offset="1" stop-color="#fff" stop-opacity="0"/></linearGradient><linearGradient id="A" x1="988.611" y1="115.23" x2="319.147" y2="107.139" gradientUnits="userSpaceOnUse"><stop stop-color="#fff"/><stop offset="1" stop-color="#fff" stop-opacity="0"/></linearGradient></defs></svg>