<svg width="1440" height="2367" fill="none" xmlns="http://www.w3.org/2000/svg"><path opacity=".014" d="M1172.86 2271.26c6.71 7.26 16.49 9.99 24.73 6.91l323.4-120.72c5.6-2.09 9.85-6.63 11.76-12.55l144.78-449.59c1.58-4.91 1.44-10.45-.4-15.67l-151.68-430.5c-2.89-8.19-9.58-14.62-17.53-16.84l-322.06-90c-7.95-2.22-15.94.11-20.94 6.1l-262.475 314.76c-3.188 3.83-4.899 8.84-4.845 14.21l4.884 491.41c.065 6.47 2.683 12.94 7.235 17.86l263.141 284.62Z" stroke="url(#a)" stroke-opacity=".5" stroke-width="4"/><path opacity=".029" d="M1118.33 2246.2c6.27 7.41 15.77 10.54 24.12 7.96l330.5-102.02c5.78-1.78 10.36-6.12 12.64-11.96l169.42-433.47c1.91-4.88 2.08-10.49.48-15.85l-128.21-430.02c-2.45-8.23-8.76-14.88-16.55-17.45l-317.76-104.84c-7.79-2.57-15.89-.67-21.25 4.99l-279.867 295.38c-3.491 3.69-5.536 8.67-5.784 14.11l-22.005 482.1c-.297 6.5 1.998 13.1 6.333 18.22l247.933 292.85Z" stroke="url(#b)" stroke-opacity=".5" stroke-width="4"/><path opacity=".043" d="M1064.69 2219.82c5.83 7.54 15.05 11.05 23.5 8.96l336.49-83.25c5.95-1.47 10.84-5.57 13.5-11.3l193.09-416.41c2.24-4.83 2.73-10.48 1.39-15.96l-104.81-428.38c-2.02-8.25-7.94-15.1-15.55-18.01l-312.6-119.23c-7.62-2.9-15.8-1.43-21.5 3.88l-296.134 275.45c-3.787 3.52-6.17 8.45-6.73 13.92l-48.303 471.64c-.664 6.49 1.292 13.2 5.395 18.5l232.262 300.19Z" stroke="url(#c)" stroke-opacity=".5" stroke-width="4"/><path opacity=".058" d="M1012.02 2192.19c5.4 7.65 14.33 11.53 22.85 9.92l341.39-64.47c6.1-1.15 11.29-4.99 14.32-10.59l215.74-398.48c2.57-4.74 3.39-10.41 2.33-15.98l-81.56-425.63c-1.58-8.24-7.11-15.27-14.54-18.5l-306.58-133.14c-7.43-3.22-15.68-2.17-21.71 2.77l-311.226 255.05c-4.074 3.34-6.796 8.18-7.677 13.66l-73.944 460.06c-1.038 6.46.568 13.25 4.426 18.72l216.181 306.61Z" stroke="url(#d)" stroke-opacity=".5" stroke-width="4"/><path opacity=".072" d="M960.39 2163.37c4.964 7.75 13.621 11.99 22.2 10.85l345.18-45.74c6.22-.83 11.7-4.39 15.09-9.82l237.33-379.75c2.89-4.64 4.06-10.3 3.27-15.94l-58.51-421.76c-1.14-8.22-6.26-15.41-13.5-18.95l-299.73-146.51c-7.25-3.54-15.55-2.91-21.89 1.66l-325.129 234.23c-4.348 3.14-7.405 7.86-8.612 13.33l-98.87 447.43c-1.414 6.39-.168 13.25 3.431 18.87l199.74 312.1Z" stroke="url(#e)" stroke-opacity=".5" stroke-width="4"/><path opacity=".087" d="M909.867 2133.44c4.537 7.85 12.915 12.42 21.539 11.75l347.854-27.12c6.33-.5 12.08-3.77 15.83-9.01l257.81-360.29c3.21-4.5 4.72-10.11 4.23-15.8l-35.73-416.83c-.7-8.17-5.43-15.51-12.47-19.35l-292.08-159.31c-7.04-3.84-15.39-3.64-22.02.54l-337.814 213.09c-4.607 2.9-7.994 7.49-9.529 12.9l-123.025 433.81c-1.79 6.31-.912 13.2 2.417 18.96l182.988 316.66Z" stroke="url(#f)" stroke-opacity=".5" stroke-width="4"/><path opacity=".101" d="M860.519 2102.48c4.112 7.94 12.215 12.84 20.872 12.62l349.429-8.67c6.42-.16 12.42-3.12 16.51-8.14l277.14-340.19c3.53-4.33 5.38-9.87 5.19-15.57l-13.27-410.87c-.26-8.11-4.59-15.58-11.43-19.71l-283.65-171.5c-6.85-4.14-15.22-4.35-22.12-.57l-349.271 191.67c-4.847 2.66-8.551 7.07-10.414 12.41l-146.358 419.26c-2.162 6.19-1.657 13.08 1.39 18.96l165.982 320.3Z" stroke="url(#g)" stroke-opacity=".5" stroke-width="4"/><path opacity=".116" d="M812.406 2070.57c3.69 8.02 11.52 13.24 20.199 13.47l349.905 9.55c6.48.18 12.71-2.46 17.13-7.24l295.31-319.49c3.83-4.14 6.01-9.57 6.13-15.26l8.81-403.91c.17-8.03-3.76-15.62-10.39-20.04l-274.49-183.05c-6.64-4.42-15.02-5.06-22.17-1.67l-359.483 170.05c-5.066 2.4-9.074 6.61-11.26 11.84l-168.822 403.84a23.535 23.535 0 0 0 .357 18.9l148.774 323.01Z" stroke="url(#h)" stroke-opacity=".5" stroke-width="4"/><path opacity=".13" d="M765.587 2037.8a22.992 22.992 0 0 0 19.517 14.3l349.306 27.48a23.03 23.03 0 0 0 17.69-6.3l312.27-298.29c4.1-3.92 6.61-9.21 7.04-14.87l30.45-396c.61-7.93-2.92-15.61-9.34-20.31l-264.63-193.93a23.016 23.016 0 0 0-22.19-2.78l-368.429 148.31a23.014 23.014 0 0 0-12.055 11.2l-190.373 387.62a23.007 23.007 0 0 0-.676 18.77l131.42 324.8Z" stroke="url(#i)" stroke-opacity=".5" stroke-width="4"/><path opacity=".145" d="M720.112 2004.23c2.85 8.15 10.135 14 18.827 15.13l347.621 45.06c6.55.85 13.16-1.08 18.19-5.32l328-276.65c4.36-3.68 7.19-8.81 7.93-14.4l51.61-387.16c1.04-7.81-2.09-15.59-8.29-20.56l-254.12-204.1c-6.19-4.98-14.57-6.45-22.16-3.9l-376.115 126.52c-5.432 1.83-9.989 5.57-12.793 10.49L607.842 1660a22.465 22.465 0 0 0-1.703 18.56l113.973 325.67Z" stroke="url(#j)" stroke-opacity=".5" stroke-width="4"/><path opacity=".159" d="M676.03 1969.97c2.43 8.2 9.441 14.36 18.125 15.93l344.895 62.26c6.55 1.19 13.31-.39 18.61-4.32l342.49-254.64c4.6-3.42 7.72-8.35 8.78-13.85l72.21-377.46c1.47-7.68-1.26-15.53-7.22-20.77l-242.98-213.55c-5.97-5.24-14.32-7.13-22.1-5L826.301 1263.3c-5.575 1.52-10.372 4.99-13.466 9.73l-230.574 353c-3.562 5.46-4.55 12.11-2.718 18.29l96.487 325.65Z" stroke="url(#k)" stroke-opacity=".5" stroke-width="4"/><path opacity=".174" d="M633.383 1935.1c2.007 8.25 8.743 14.72 17.408 16.73l341.13 79c6.529 1.52 13.429.31 18.959-3.3l355.73-232.33c4.8-3.14 8.21-7.86 9.56-13.24l92.25-366.93c1.89-7.52-.44-15.44-6.17-20.94l-231.27-222.24c-5.72-5.5-14.04-7.81-21.98-6.11l-387.698 83.01c-5.689 1.22-10.7 4.4-14.065 8.92l-249.155 334.74c-3.876 5.21-5.227 11.74-3.715 17.95l79.016 324.74Z" stroke="url(#l)" stroke-opacity=".5" stroke-width="4"/><path opacity=".188" d="M592.206 1899.7c1.582 8.29 8.037 15.08 16.674 17.52l336.365 95.25c6.489 1.84 13.486 1.01 19.238-2.27l367.677-209.79c4.98-2.84 8.65-7.32 10.3-12.56l111.65-355.61c2.31-7.35.38-15.32-5.11-21.09l-219.03-230.16c-5.48-5.76-13.73-8.49-21.83-7.22l-391.588 61.44c-5.776.91-10.972 3.78-14.589 8.07l-266.677 315.91c-4.172 4.95-5.878 11.33-4.689 17.56l61.609 322.95Z" stroke="url(#m)" stroke-opacity=".5" stroke-width="4"/><path opacity=".203" d="M552.534 1863.87c1.152 8.33 7.32 15.42 15.916 18.3l330.628 110.95c6.426 2.16 13.494 1.71 19.438-1.23l378.324-187.08c5.15-2.54 9.05-6.76 10.98-11.84l130.38-343.55c2.72-7.16 1.2-15.18-4.03-21.2l-206.31-237.29c-5.23-6.01-13.41-9.16-21.63-8.33l-394.234 40.07c-5.833.6-11.185 3.15-15.033 7.18l-283.115 296.6c-4.448 4.66-6.497 10.88-5.635 17.11l44.321 320.31Z" stroke="url(#n)" stroke-opacity=".5" stroke-width="4"/><path opacity=".217" d="M514.392 1827.69c.717 8.35 6.589 15.76 15.132 19.08l323.947 126.06c6.344 2.47 13.456 2.4 19.563-.19l387.686-164.28c5.27-2.23 9.39-6.17 11.59-11.08l148.4-330.8c3.12-6.95 2-15.01-2.97-21.27l-193.15-243.62c-4.97-6.26-13.06-9.83-21.38-9.43l-395.632 18.97c-5.863.28-11.341 2.51-15.396 6.27L493.74 1494.25c-4.701 4.36-7.082 10.39-6.55 16.6l27.202 316.84Z" stroke="url(#o)" stroke-opacity=".5" stroke-width="4"/><path opacity=".232" d="M477.8 1791.25c.276 8.38 5.841 16.1 14.316 19.86l316.363 140.53c6.242 2.77 13.368 3.08 19.613.85l395.738-141.45c5.36-1.92 9.68-5.57 12.13-10.28l165.67-317.4c3.51-6.74 2.8-14.82-1.89-21.32l-179.62-249.15c-4.69-6.5-12.67-10.49-21.07-10.52l-395.805-1.81c-5.866-.03-11.44 1.88-15.679 5.36l-312.633 256.72c-4.934 4.05-7.633 9.88-7.43 16.05l10.297 312.56Z" stroke="url(#p)" stroke-opacity=".5" stroke-width="4"/><path opacity=".246" d="M442.776 1754.65c-.173 8.38 5.071 16.41 13.464 20.62l307.911 154.33c6.12 3.07 13.234 3.75 19.588 1.87l402.471-118.66c5.44-1.6 9.92-4.95 12.61-9.44l182.15-303.42c3.91-6.51 3.61-14.59-.79-21.33l-165.76-253.85c-4.4-6.73-12.25-11.14-20.71-11.61l-394.767-22.2c-5.842-.33-11.483 1.25-15.882 4.44l-325.67 236.28c-5.142 3.73-8.146 9.34-8.272 15.46l-6.343 307.51Z" stroke="url(#q)" stroke-opacity=".5" stroke-width="4"/><path opacity=".261" d="M409.329 1717.97c-.63 8.38 4.277 16.72 12.57 21.37l298.635 167.42c5.979 3.35 13.054 4.39 19.49 2.88l407.906-95.97c5.48-1.28 10.1-4.34 13.02-8.6l197.82-288.89c4.28-6.25 4.39-14.34.3-21.3l-151.61-257.74c-4.1-6.96-11.8-11.78-20.3-12.69l-392.54-42.14c-5.793-.62-11.474.63-16.009 3.53l-337.534 215.59c-5.326 3.4-8.62 8.79-9.074 14.83l-22.674 301.71Z" stroke="url(#r)" stroke-opacity=".5" stroke-width="4"/><path opacity=".275" d="M377.463 1681.3c-1.095 8.36 3.457 17.01 11.63 22.1l288.578 179.77c5.82 3.62 12.83 5.03 19.324 3.87l412.035-73.44c5.5-.98 10.23-3.73 13.36-7.76l212.64-273.86c4.65-5.99 5.18-14.06 1.4-21.24l-137.23-260.8c-3.78-7.18-11.31-12.41-19.82-13.76l-389.155-61.59c-5.722-.9-11.415.03-16.063 2.63l-348.211 194.72c-5.488 3.07-9.056 8.21-9.835 14.16l-38.653 295.2Z" stroke="url(#s)" stroke-opacity=".5" stroke-width="4"/><path opacity=".29" d="M347.177 1644.72c-1.569 8.33 2.608 17.28 10.639 22.82l277.788 191.34c5.643 3.88 12.563 5.64 19.089 4.83l414.857-51.14c5.5-.68 10.33-3.12 13.65-6.91l226.58-258.39c5.01-5.71 5.96-13.76 2.52-21.15l-122.68-263.05c-3.45-7.39-10.78-13.02-19.28-14.8l-384.632-80.48c-5.63-1.17-11.312-.56-16.05 1.74L411.97 1343.27c-5.627 2.73-9.454 7.61-10.555 13.46l-54.238 287.99Z" stroke="url(#t)" stroke-opacity=".5" stroke-width="4"/><path opacity=".304" d="M318.465 1608.33c-2.05 8.28 1.727 17.53 9.595 23.5l266.311 202.12c5.448 4.13 12.256 6.22 18.792 5.77l416.397-29.15c5.47-.38 10.37-2.52 13.86-6.06l239.64-242.54c5.35-5.42 6.74-13.42 3.64-21.01l-108-264.49c-3.1-7.59-10.21-13.61-18.68-15.82l-378.999-98.76c-5.52-1.44-11.169-1.13-15.976.87l-365.958 152.69c-5.743 2.39-9.813 7.01-11.232 12.74l-69.39 280.14Z" stroke="url(#u)" stroke-opacity=".5" stroke-width="4"/><path opacity=".319" d="M291.313 1572.2c-2.539 8.21.815 17.75 8.493 24.15l254.199 212.08c5.239 4.37 11.912 6.78 18.435 6.67l416.668-7.51c5.425-.09 10.378-1.94 14.022-5.22l251.77-226.35c5.69-5.11 7.5-13.05 4.77-20.83l-93.24-265.13c-2.74-7.77-9.6-14.19-18.01-16.82l-372.306-116.39c-5.393-1.69-10.988-1.67-15.845.04l-373.015 131.63c-5.839 2.06-10.135 6.41-11.868 12.01l-84.073 271.67Z" stroke="url(#v)" stroke-opacity=".5" stroke-width="4"/><path opacity=".333" d="M265.706 1536.43c-3.036 8.11-.131 17.92 7.33 24.76l241.503 221.19c5.014 4.59 11.533 7.32 18.022 7.53l415.68 13.72c5.364.18 10.35-1.37 14.137-4.4l262.972-209.88c6-4.79 8.25-12.66 5.9-20.6l-78.46-264.99c-2.35-7.95-8.94-14.74-17.26-17.78l-364.588-133.33c-5.25-1.92-10.776-2.19-15.664-.76L376.42 1262.54c-5.915 1.73-10.422 5.8-12.462 11.25l-98.252 262.64Z" stroke="url(#w)" stroke-opacity=".5" stroke-width="4"/><path opacity=".348" d="M241.618 1501.08c-3.538 8-1.11 18.06 6.107 25.32L476 1755.85c4.775 4.8 11.121 7.82 17.558 8.36l413.46 34.46c5.287.45 10.29-.82 14.203-3.59l273.219-193.18c6.3-4.46 9-12.24 7.04-20.33l-63.69-264.08c-1.95-8.1-8.25-15.25-16.45-18.7l-355.881-149.51c-5.096-2.15-10.535-2.69-15.438-1.54l-383.491 89.79c-5.971 1.4-10.675 5.19-13.016 10.48l-111.896 253.07Z" stroke="url(#x)" stroke-opacity=".5" stroke-width="4"/><path opacity=".362" d="M219.021 1466.23c-4.043 7.86-2.12 18.17 4.821 25.83l214.572 236.85c4.522 4.99 10.679 8.29 17.047 9.14l410.03 54.67c5.198.7 10.205-.29 14.229-2.8l282.51-176.32c6.59-4.11 9.72-11.77 8.19-20l-49-262.42c-1.54-8.23-7.5-15.73-15.58-19.58l-346.218-164.91c-4.931-2.35-10.271-3.15-15.176-2.28l-386.917 69.12c-6.009 1.08-10.896 4.58-13.53 9.7l-124.978 243Z" stroke="url(#y)" stroke-opacity=".5" stroke-width="4"/><path opacity=".377" d="M197.881 1431.97c-4.55 7.69-3.159 18.2 3.475 26.26l200.445 243.37c4.257 5.16 10.21 8.73 16.493 9.88l405.425 74.29c5.098.94 10.095.22 14.216-2.04l290.825-159.31c6.86-3.76 10.44-11.29 9.34-19.64l-34.42-260.02c-1.1-8.35-6.71-16.18-14.63-20.41l-335.663-179.49c-4.757-2.55-9.987-3.59-14.881-2.98l-389.148 48.7c-6.032.75-11.086 3.96-14.006 8.9l-137.471 232.49Z" stroke="url(#z)" stroke-opacity=".5" stroke-width="4"/><path opacity=".391" d="M178.159 1398.35c-5.056 7.5-4.225 18.19 2.07 26.62l185.952 249.01c3.981 5.33 9.715 9.15 15.9 10.59l399.675 93.26c4.989 1.17 9.966.71 14.174-1.3l298.17-142.25c7.11-3.39 11.14-10.77 10.48-19.2l-19.98-256.94c-.66-8.43-5.89-16.57-13.62-21.17l-324.265-193.22c-4.576-2.73-9.688-4.01-14.56-3.65l-390.198 28.59c-6.038.44-11.248 3.36-14.445 8.11l-149.353 221.55Z" stroke="url(#A)" stroke-opacity=".5" stroke-width="4"/><path opacity=".406" d="M159.811 1365.45c-5.559 7.28-5.313 18.11.611 26.89l171.145 253.77c3.695 5.48 9.199 9.54 15.273 11.26l392.818 111.53c4.874 1.38 9.821 1.18 14.105-.58l304.537-125.17c7.34-3.02 11.81-10.22 11.62-18.71l-5.75-253.18c-.2-8.49-5.02-16.91-12.55-21.88l-312.055-206.04c-4.39-2.9-9.376-4.41-14.216-4.3l-390.083 8.85c-6.033.13-11.384 2.77-14.851 7.3l-160.604 210.26Z" stroke="url(#B)" stroke-opacity=".5" stroke-width="4"/><path opacity=".42" d="M142.787 1333.33c-6.053 7.02-6.416 17.96-.897 27.07l156.082 257.65c3.398 5.61 8.661 9.89 14.614 11.89l384.896 129.04c4.753 1.6 9.663 1.64 14.012.12l309.926-108.12c7.56-2.64 12.47-9.63 12.75-18.16l8.25-248.77c.28-8.53-4.11-17.19-11.41-22.51l-299.112-217.95c-4.197-3.06-9.052-4.78-13.853-4.91l-388.827-10.48c-6.013-.17-11.495 2.18-15.223 6.5l-171.208 198.63Z" stroke="url(#C)" stroke-opacity=".5" stroke-width="4"/><path opacity=".435" d="M127.035 1302.05c-6.538 6.74-7.529 17.73-2.447 27.14l140.816 260.67c3.093 5.72 8.105 10.21 13.926 12.47l375.953 145.77c4.627 1.79 9.495 2.07 13.902.79l314.341-91.16c7.757-2.25 13.102-9.01 13.871-17.54l21.973-243.74c.77-8.53-3.16-17.42-10.21-23.07l-285.479-228.93c-4.003-3.21-8.722-5.13-13.478-5.49l-386.452-29.33c-5.983-.45-11.585 1.6-15.564 5.7l-181.152 186.72Z" stroke="url(#D)" stroke-opacity=".5" stroke-width="4"/><path opacity=".449" d="M112.498 1271.66c-7.008 6.42-8.645 17.43-4.03 27.1l125.399 262.82c2.78 5.82 7.533 10.51 13.214 13.02l366.037 161.66c4.498 1.98 9.318 2.49 13.777 1.45l317.793-74.34c7.932-1.86 13.705-8.36 14.969-16.86l35.402-238.13c1.264-8.5-2.193-17.58-8.962-23.54l-271.219-238.93c-3.805-3.36-8.386-5.47-13.092-6.06l-382.988-47.64c-5.944-.74-11.655 1.02-15.876 4.89l-190.424 174.56Z" stroke="url(#E)" stroke-opacity=".5" stroke-width="4"/><path opacity=".464" d="M99.113 1242.21c-7.46 6.08-9.751 17.05-5.633 26.95l109.884 264.11c2.459 5.91 6.947 10.78 12.48 13.53l355.198 176.67c4.367 2.17 9.136 2.9 13.64 2.09l320.292-57.69c8.085-1.46 14.276-7.68 16.039-16.12l48.498-231.96c1.764-8.43-1.196-17.67-7.667-23.93l-256.388-247.95c-3.604-3.49-8.044-5.8-12.697-6.6l-378.468-65.38c-5.896-1.02-11.706.45-16.16 4.08l-199.018 162.2Z" stroke="url(#F)" stroke-opacity=".5" stroke-width="4"/><path opacity=".478" d="M86.817 1213.75c-7.888 5.71-10.841 16.57-7.245 26.66l94.321 264.58c2.132 5.98 6.347 11.01 11.725 14l343.491 190.77c4.234 2.35 8.95 3.3 13.494 2.72l321.85-41.29c8.217-1.05 14.812-6.96 17.078-15.29l61.235-225.28c2.265-8.33-.181-17.69-6.335-24.22l-241.044-255.99 1.317-1.39-1.317 1.39c-3.403-3.61-7.701-6.1-12.298-7.12l-372.926-82.48c-5.84-1.29-11.741-.12-16.418 3.26L86.817 1213.75Z" stroke="url(#G)" stroke-opacity=".5" stroke-width="4"/><path opacity=".493" d="M75.543 1186.32c-8.29 5.3-11.904 16.01-8.854 26.24l78.761 264.23c1.799 6.03 5.734 11.22 10.952 14.44l330.972 203.92c4.1 2.53 8.761 3.69 13.341 3.33l322.484-25.15c8.325-.64 15.309-6.21 18.075-14.41l73.59-218.1c2.766-8.2.845-17.64-4.97-24.43L684.64 1153.38c-3.199-3.73-7.354-6.4-11.893-7.62l-366.402-98.92c-5.776-1.56-11.76-.68-16.65 2.45L75.543 1186.32Z" stroke="url(#H)" stroke-opacity=".5" stroke-width="4"/><path opacity=".507" d="M65.22 1159.94c-8.661 4.88-12.926 15.37-10.443 25.7l63.25 263.08c1.46 6.07 5.112 11.4 10.163 14.84l317.7 216.1c3.964 2.7 8.569 4.07 13.183 3.94l322.212-9.33c8.412-.25 15.764-5.45 19.024-13.47l85.542-210.47c3.26-8.02 1.875-17.5-3.583-24.52l-209.077-269.03c-2.994-3.85-7.005-6.69-11.485-8.12l-358.938-114.64c-5.707-1.82-11.764-1.23-16.859 1.64L65.22 1159.94Z" stroke="url(#I)" stroke-opacity=".5" stroke-width="4"/><path opacity=".522" d="M55.778 1134.66c-8.998 4.43-13.898 14.64-11.998 25.02l47.834 261.14c1.116 6.1 4.478 11.57 9.357 15.22l303.737 227.28c3.828 2.86 8.377 4.45 13.021 4.54l321.057 6.12c8.475.16 16.172-4.65 19.917-12.46l97.071-202.41c3.745-7.81 2.902-17.29-2.181-24.52l-192.578-274.03c-2.786-3.96-6.654-6.97-11.073-8.6l-350.579-129.61c-5.632-2.08-11.755-1.79-17.044.82L55.778 1134.66Z" stroke="url(#J)" stroke-opacity=".5" stroke-width="4"/><path opacity=".536" d="M47.143 1110.49c-9.296 3.96-14.808 13.84-13.502 24.21l32.555 258.46c.77 6.1 3.837 11.69 8.538 15.55l289.145 237.44c3.691 3.03 8.182 4.83 12.856 5.14l319.044 21.18c8.513.57 16.529-3.84 20.745-11.4l108.161-193.96c4.215-7.56 3.916-16.99-.776-24.41L648.09 1164.68c-2.576-4.07-6.299-7.24-10.656-9.08l-341.375-143.78c-5.55-2.34-11.732-2.34-17.205-.01l-231.711 98.68Z" stroke="url(#K)" stroke-opacity=".5" stroke-width="4"/><path opacity=".551" d="M39.242 1087.45c-9.553 3.47-15.646 12.97-14.94 23.28l17.457 255.03c.418 6.1 3.186 11.8 7.703 15.87l273.991 246.56c3.552 3.2 7.986 5.2 12.688 5.73l316.197 35.81c8.528.96 16.834-3.01 21.503-10.28l118.795-185.14c4.669-7.28 4.91-16.63.626-24.21l-158.865-281c-2.363-4.18-5.939-7.52-10.235-9.55L292.79 1002.41a22.502 22.502 0 0 0-17.344-.84l-236.204 85.88Z" stroke="url(#L)" stroke-opacity=".5" stroke-width="4"/><path opacity=".565" d="M32 1065.55a23.005 23.005 0 0 0-16.296 22.24l2.58 250.9a23.014 23.014 0 0 0 6.853 16.15l258.341 254.63a22.975 22.975 0 0 0 12.516 6.33l312.547 49.95a22.976 22.976 0 0 0 22.182-9.11l128.961-175.98a23.006 23.006 0 0 0 2.012-23.9l-141.778-282.99a22.994 22.994 0 0 0-9.807-10.02L289.485 994.106a23.003 23.003 0 0 0-17.458-1.672L32 1065.55Z" stroke="url(#M)" stroke-opacity=".5" stroke-width="4"/><path opacity=".58" d="M25.345 1044.81c-9.932 2.47-17.067 11.04-17.56 21.09l-12.037 246.08a22.504 22.504 0 0 0 5.989 16.4L244 1590.02a23.18 23.18 0 0 0 12.338 6.94l308.126 63.6c8.485 1.75 17.271-1.31 22.776-7.92l138.645-166.51c5.504-6.61 6.806-15.67 3.375-23.49l-124.621-283.98a22.81 22.81 0 0 0-9.371-10.5L286.077 986.889c-5.271-3.091-11.583-3.994-17.548-2.512L25.345 1044.81Z" stroke="url(#N)" stroke-opacity=".5" stroke-width="4"/><path opacity=".594" d="M19.202 1025.23c-10.052 1.95-17.636 10-18.714 19.84l-26.36 240.61c-.656 5.98 1.183 11.96 5.11 16.61l225.825 267.6c3.12 3.7 7.375 6.34 12.155 7.55l302.965 76.7c8.427 2.14 17.399-.44 23.28-6.67l147.835-156.76c5.881-6.23 7.694-15.1 4.705-22.99l-107.457-284.01c-1.696-4.48-4.82-8.32-8.924-10.97L282.499 980.734c-5.166-3.339-11.504-4.547-17.611-3.357L19.202 1025.23Z" stroke="url(#O)" stroke-opacity=".5" stroke-width="4"/><path opacity=".609" d="M13.5 1006.8c-10.123 1.45-18.104 8.93-19.754 18.52l-40.35 234.5c-1.017 5.9.502 11.95 4.216 16.8l209.099 272.49c2.967 3.86 7.158 6.73 11.962 8.17l297.101 89.25c8.345 2.5 17.464.42 23.689-5.42l156.519-146.73c6.225-5.84 8.532-14.47 5.994-22.42l-90.347-283.07c-1.46-4.58-4.426-8.59-8.462-11.46L278.684 975.613c-5.054-3.585-11.409-5.101-17.645-4.209L13.5 1006.8Z" stroke="url(#P)" stroke-opacity=".5" stroke-width="4"/><path opacity=".623" d="M8.167 989.529c-10.148.943-18.467 7.837-20.669 17.131l-53.973 227.78c-1.379 5.81-.187 11.92 3.307 16.95l192.152 276.32c2.807 4.04 6.932 7.13 11.757 8.81l290.57 101.2c8.24 2.87 17.466 1.28 24.001-4.13l164.684-136.48c6.535-5.42 9.317-13.78 7.237-21.75l-73.352-281.22c-1.218-4.67-4.019-8.86-7.984-11.93L274.568 971.497c-4.933-3.832-11.295-5.658-17.649-5.068l-248.752 23.1Z" stroke="url(#Q)" stroke-opacity=".5" stroke-width="4"/><path opacity=".638" d="M3.134 973.403c-10.127.446-18.726 6.734-21.455 15.689l-67.196 220.478c-1.74 5.71-.881 11.87 2.383 17.07l175.053 279.12c2.642 4.21 6.696 7.53 11.539 9.45l283.411 112.55c8.112 3.22 17.405 2.12 24.214-2.86l172.318-126c6.809-4.98 10.042-13.05 8.424-21.02l-56.53-278.45 2.045-.32-2.045.32c-.966-4.76-3.595-9.12-7.484-12.42L270.089 968.35c-4.805-4.077-11.162-6.217-17.621-5.932L3.134 973.403Z" stroke="url(#R)" stroke-opacity=".5" stroke-width="4"/><path opacity=".652" d="M-1.67 958.411c-10.06-.037-18.88 5.634-22.107 14.214l-79.986 212.625c-2.101 5.59-1.58 11.78 1.443 17.16l157.875 280.87c2.467 4.38 6.443 7.95 11.3 10.12l275.664 123.25c7.961 3.56 17.28 2.96 24.327-1.57l179.41-115.35c7.047-4.53 10.706-12.27 9.553-20.21l-39.94-274.8c-.704-4.85-3.153-9.39-6.96-12.92L265.183 966.135c-4.667-4.32-11.007-6.777-17.555-6.801l-249.298-.923Z" stroke="url(#S)" stroke-opacity=".5" stroke-width="4"/><path opacity=".667" d="M-6.31 944.54c-9.95-.504-18.933 4.545-22.627 12.719l-92.311 204.251c-2.459 5.44-2.283 11.66.487 17.21l140.686 281.6c2.28 4.56 6.172 8.37 11.04 10.8l267.368 133.32c7.788 3.88 17.094 3.76 24.341-.31l185.946-104.52c7.246-4.07 11.306-11.47 10.617-19.34l-23.635-270.32c-.431-4.92-2.689-9.65-6.409-13.4L259.792 964.813c-4.517-4.563-10.827-7.338-17.451-7.673L-6.31 944.54Z" stroke="url(#T)" stroke-opacity=".5" stroke-width="4"/><path opacity=".681" d="M-10.853 931.771c-9.8-.951-18.89 3.48-23.016 11.22l-104.14 195.389c-2.814 5.28-2.989 11.51-.483 17.21l123.551 281.34c2.084 4.75 5.882 8.81 10.754 11.5l258.565 142.71c7.595 4.2 16.849 4.55 24.259.94l191.915-93.55c7.409-3.61 11.84-10.64 11.615-18.42l-7.672-265.02c-.145-5-2.202-9.9-5.824-13.9L253.859 964.339c-4.357-4.803-10.621-7.897-17.305-8.546l-247.407-24.022Z" stroke="url(#U)" stroke-opacity=".5" stroke-width="4"/><path opacity=".696" d="M-15.362 920.085c-9.614-1.377-18.759 2.445-23.278 9.729l-115.445 186.056c-3.163 5.1-3.694 11.33-1.466 17.18l106.539 280.11c1.873 4.93 5.566 9.25 10.435 12.2l249.301 151.45c7.381 4.48 16.547 5.3 24.082 2.15l197.304-82.46c7.536-3.15 12.31-9.8 12.544-17.47l7.898-258.94c.155-5.05-1.687-10.15-5.203-14.38l-200.02-241.042c-4.183-5.041-10.386-8.454-17.114-9.417l-245.577-35.166Z" stroke="url(#V)" stroke-opacity=".5" stroke-width="4"/><path opacity=".71" d="M-19.9 909.458c-9.396-1.778-18.544 1.449-23.42 8.261l-126.195 176.301c-3.506 4.9-4.399 11.1-2.463 17.1l89.715 277.95c1.647 5.1 5.223 9.68 10.08 12.91l239.617 159.48c7.148 4.76 16.191 6.03 23.817 3.34l202.102-71.29c7.626-2.69 12.714-8.94 13.401-16.46l23.027-252.13c.467-5.11-1.144-10.39-4.542-14.87L240.15 965.751c-3.996-5.274-10.121-9.006-16.875-10.284L-19.9 909.458Z" stroke="url(#W)" stroke-opacity=".5" stroke-width="4"/><path opacity=".725" d="M-24.53 899.865c-9.147-2.153-18.254.498-23.447 6.825l-136.365 166.15c-3.839 4.68-5.1 10.85-3.469 16.98l73.14 274.86c1.404 5.28 4.849 10.14 9.685 13.65l229.556 166.83c6.898 5.01 15.785 6.7 23.467 4.47l206.299-60.05c7.683-2.24 13.055-8.08 14.187-15.43l37.668-244.62c.794-5.15-.571-10.61-3.837-15.35L232.273 967.537c-3.794-5.502-9.822-9.551-16.586-11.143l-240.216-56.529Z" stroke="url(#X)" stroke-opacity=".5" stroke-width="4"/><path opacity=".739" d="M-29.308 891.278c-8.875-2.501-17.9-.403-23.37 5.432l-145.928 155.63c-4.165 4.45-5.797 10.56-4.485 16.81l56.876 270.92c1.144 5.45 4.44 10.58 9.243 14.38l219.164 173.48c6.632 5.25 15.334 7.35 23.04 5.56l209.885-48.78c7.706-1.79 13.334-7.22 14.9-14.37l51.776-236.45c1.135-5.19.035-10.82-3.084-15.81L223.652 969.973c-3.577-5.723-9.489-10.087-16.244-11.99l-236.716-66.705Z" stroke="url(#Y)" stroke-opacity=".5" stroke-width="4"/><path opacity=".754" d="M-34.295 883.667c-8.581-2.822-17.487-1.252-23.198 4.087l-154.86 144.796c-4.478 4.19-6.484 10.23-5.506 16.59l40.981 266.14c.865 5.62 3.994 11.02 8.75 15.12l208.486 179.44c6.35 5.46 14.84 7.95 22.54 6.59l212.851-37.5c7.699-1.36 13.554-6.37 15.543-13.3l65.31-227.69c1.489-5.19.673-11-2.283-16.25L214.244 973.004c-3.344-5.936-9.119-10.609-15.847-12.822l-232.692-76.515Z" stroke="url(#Z)" stroke-opacity=".5" stroke-width="4"/><path opacity=".768" d="M-39.546 876.999c-8.27-3.115-17.027-2.047-22.94 2.798l-163.139 133.673c-4.778 3.92-7.161 9.87-6.531 16.31l25.51 260.59c.565 5.77 3.507 11.45 8.201 15.84L-.88 1490.92c6.056 5.66 14.31 8.5 21.976 7.57l215.19-26.25c7.666-.94 13.719-5.53 16.117-12.22l78.231-218.35c1.858-5.19 1.346-11.17-1.428-16.67L204.011 976.572c-3.095-6.14-8.713-11.115-15.395-13.632l-228.162-85.941Z" stroke="url(#aa)" stroke-opacity=".5" stroke-width="4"/><path opacity=".783" d="M-45.117 871.238c-7.946-3.381-16.527-2.786-22.606 1.569l-170.744 122.308c-5.064 3.628-7.825 9.465-7.556 15.975l10.515 254.29c.245 5.92 2.977 11.88 7.592 16.57l186.447 189.28c5.749 5.83 13.746 9.01 21.352 8.49l216.899-15.06c7.606-.53 13.831-4.7 16.622-11.13l90.505-208.5c2.24-5.16 2.053-11.3-.519-17.06L192.916 980.62c-2.828-6.332-8.268-11.601-14.886-14.417l-223.147-94.965Z" stroke="url(#ab)" stroke-opacity=".5" stroke-width="4"/><path opacity=".797" d="M-51.06 866.348c-7.611-3.622-15.995-3.47-22.207.402l-177.656 110.733c-5.334 3.325-8.473 9.028-8.578 15.587l-3.956 247.3c-.097 6.05 2.402 12.29 6.921 17.27l175.172 193.18c5.433 5.99 13.156 9.48 20.679 9.34l217.973-3.95c7.523-.14 13.895-3.88 17.061-10.03l102.099-198.2c2.633-5.11 2.794-11.4.444-17.41l-95.963-245.483c-2.545-6.511-7.785-12.062-14.321-15.172L-51.06 866.348Z" stroke="url(#ac)" stroke-opacity=".5" stroke-width="4"/><path opacity=".812" d="M-57.426 862.289c-7.27-3.837-15.439-4.1-21.752-.701l-183.861 98.992c-5.587 3.008-9.101 8.555-9.592 15.14l-17.858 239.67c-.46 6.17 1.781 12.68 6.183 17.96l163.787 196.39c5.108 6.13 12.541 9.9 19.961 10.14l218.412 7.04c7.42.24 13.913-3.09 17.437-8.94l112.985-187.48c3.037-5.04 3.567-11.46 1.462-17.71l-81.717-242.878c-2.246-6.673-7.264-12.495-13.699-15.89L-57.426 862.289Z" stroke="url(#ad)" stroke-opacity=".5" stroke-width="4"/><path opacity=".826" d="M-64.264 859.019c-6.926-4.028-14.866-4.678-21.25-1.74l-189.345 87.126c-5.822 2.679-9.708 8.048-10.594 14.637l-31.151 231.458c-.844 6.27 1.112 13.03 5.377 18.61l152.333 198.95c4.776 6.24 11.908 10.28 19.206 10.87L78.53 1436.8c7.298.6 13.89-2.32 17.75-7.85l123.139-176.4c3.448-4.94 4.369-11.47 2.533-17.96l-67.783-239.554c-1.93-6.82-6.706-12.898-13.022-16.57l-205.41-119.447Z" stroke="url(#ae)" stroke-opacity=".5" stroke-width="4"/><path opacity=".841" d="M-71.62 856.495c-6.582-4.197-14.283-5.207-20.713-2.716l-194.095 75.179c-6.036 2.338-10.289 7.506-11.58 14.073l-43.797 222.709c-1.249 6.35.395 13.36 4.502 19.22l140.851 200.87c4.439 6.33 11.261 10.61 18.421 11.54l217.393 28.52c7.16.94 13.828-1.57 18.006-6.77l132.538-165.01c3.865-4.81 5.199-11.44 3.654-18.15l-54.208-235.57c-1.598-6.942-6.112-13.259-12.291-17.2l-198.68-126.695Z" stroke="url(#af)" stroke-opacity=".5" stroke-width="4"/><path opacity=".855" d="M-79.538 854.672c-6.24-4.347-13.695-5.691-20.146-3.633l-198.104 63.193c-6.231 1.987-10.843 6.932-12.546 13.452l-55.767 213.496c-1.67 6.39-.366 13.64 3.561 19.77l129.38 202.15c4.099 6.41 10.604 10.9 17.613 12.16L.398 1414.21c7.01 1.26 13.733-.85 18.206-5.71l141.165-153.36c4.285-4.65 6.051-11.34 4.821-18.26l-41.033-230.95c-1.253-7.054-5.485-13.594-11.511-17.792L-79.538 854.672Z" stroke="url(#ag)" stroke-opacity=".5" stroke-width="4"/><path opacity=".87" d="M-88.061 853.502c-5.9-4.477-13.105-6.132-19.556-4.492l-201.366 51.21c-6.405 1.629-11.367 6.329-13.486 12.772l-67.032 203.858c-2.11 6.42-1.172 13.87 2.552 20.27l117.961 202.83c3.758 6.46 9.941 11.14 16.788 12.71l213.88 49.12c6.847 1.58 13.607-.13 18.353-4.64l149.006-141.51c4.704-4.47 6.921-11.2 6.03-18.31l-28.299-225.75c-.894-7.13-4.825-13.874-10.682-18.319l-184.15-139.749Z" stroke="url(#ah)" stroke-opacity=".5" stroke-width="4"/><path opacity=".884" d="M-97.228 852.936c-5.564-4.591-12.518-6.534-18.949-5.295l-203.88 39.273c-6.556 1.263-11.857 5.695-14.394 12.034l-77.57 193.862c-2.564 6.41-2.017 14.05 1.481 20.71l106.631 202.9c3.415 6.49 9.274 11.35 15.948 13.22l211.213 59.02c6.675 1.86 13.453.54 18.45-3.61l156.05-129.5c5.119-4.25 7.804-10.99 7.273-18.26l-16.038-220.02c-.525-7.19-4.138-14.12-9.81-18.797L-97.229 852.936Z" stroke="url(#ai)" stroke-opacity=".5" stroke-width="4"/><path opacity=".899" d="M-107.073 852.925c-5.236-4.69-11.938-6.902-18.333-6.049l-205.643 27.425c-6.686.892-12.313 5.035-15.267 11.241l-87.363 183.558c-3.028 6.37-2.898 14.17.352 21.06l95.424 202.41c3.073 6.52 8.608 11.53 15.103 13.68l207.955 68.6c6.494 2.15 13.275 1.2 18.5-2.58l162.288-117.39c5.528-4 8.692-10.71 8.544-18.12l-4.285-213.8c-.144-7.23-3.425-14.31-8.9-19.21l-168.375-150.825Z" stroke="url(#aj)" stroke-opacity=".5" stroke-width="4"/><path opacity=".913" d="M-117.631 853.416c-4.914-4.776-11.367-7.238-17.71-6.755l-206.66 15.708c-6.793.516-12.732 4.35-16.099 10.393l-96.397 173.018c-3.501 6.28-3.809 14.21-.829 21.32l84.377 201.38c2.733 6.52 7.944 11.67 14.252 14.08l204.122 77.85c6.308 2.41 13.076 1.83 18.509-1.58l167.717-105.22c5.924-3.72 9.579-10.37 9.83-17.89l6.938-207.14c.242-7.24-2.692-14.45-7.955-19.57L-117.63 853.416Z" stroke="url(#ak)" stroke-opacity=".5" stroke-width="4"/><path opacity=".928" d="M-128.931 854.357c-4.6-4.851-10.805-7.546-17.085-7.419l-206.935 4.163c-6.879.138-13.111 3.643-16.885 9.495l-104.665 162.284c-3.977 6.16-4.742 14.18-2.052 21.49l73.518 199.82c2.396 6.52 7.286 11.78 13.403 14.44l199.733 86.74c6.117 2.65 12.857 2.44 18.475-.6L.913 1251.72c6.307-3.41 10.457-9.96 11.126-17.56l17.603-200.09c.634-7.21-1.942-14.54-6.98-19.85l-151.593-159.863Z" stroke="url(#al)" stroke-opacity=".5" stroke-width="4"/><path opacity=".942" d="M-141 855.696c-4.294-4.918-10.255-7.831-16.46-8.047l-206.479-7.167c-6.94-.241-13.448 2.916-17.62 8.547L-493.72 1000.44c-4.451 6-5.69 14.08-3.309 21.57l62.88 197.76c2.064 6.49 6.636 11.87 12.556 14.76l194.81 95.22c5.92 2.9 12.621 3.03 18.401.38l176.153-80.93c6.67-3.06 11.316-9.47 12.415-17.12L7.88 1039.39c1.03-7.17-1.18-14.59-5.982-20.09L-141 855.696Z" stroke="url(#am)" stroke-opacity=".5" stroke-width="4"/><path opacity=".957" d="M-153.861 857.377c-3.996-4.975-9.716-8.095-15.838-8.639L-375 830.492c-6.981-.62-13.742 2.171-18.299 7.554l-118.886 140.449c-4.92 5.812-6.643 13.9-4.59 21.535l52.492 195.25c1.735 6.46 5.992 11.92 11.713 15.04l189.374 103.29c5.721 3.13 12.369 3.61 18.292 1.33l179.167-68.9c7.01-2.69 12.15-8.91 13.689-16.57l37.193-185.01c1.426-7.09-.41-14.57-4.967-20.24l-134.039-166.843Z" stroke="url(#an)" stroke-opacity=".5" stroke-width="4"/><path opacity=".971" d="M-167.534 859.345c-3.707-5.025-9.19-8.34-15.219-9.201l-203.418-29.032c-6.998-.999-13.992 1.411-18.919 6.52l-124.84 129.456c-5.378 5.577-7.594 13.637-5.883 21.401l42.377 192.291c1.412 6.4 5.359 11.95 10.878 15.29l183.451 110.92c5.519 3.33 12.103 4.15 18.147 2.25l181.39-56.99c7.324-2.3 12.948-8.3 14.934-15.93l46.092-177.07c1.819-6.99.362-14.51-3.94-20.34l-125.05-169.565Z" stroke="url(#ao)" stroke-opacity=".5" stroke-width="4"/><path opacity=".986" d="M-182.036 861.548c-3.424-5.071-8.674-8.572-14.602-9.738l-200.846-39.49a22.443 22.443 0 0 0-19.475 5.449l-130.033 118.476c-5.82 5.303-8.53 13.293-7.175 21.156l32.56 188.919c1.095 6.35 4.735 11.97 10.049 15.51l177.068 118.08c5.314 3.55 11.824 4.7 17.97 3.17l182.832-45.27c7.609-1.89 13.704-7.62 16.138-15.18l54.38-168.93a23.557 23.557 0 0 0-2.904-20.37l-115.962-171.782Z" stroke="url(#ap)" stroke-opacity=".5" stroke-width="4"/><path d="M-197.38 863.928a23 23 0 0 0-13.989-10.251l-197.604-49.584a22.996 22.996 0 0 0-19.964 4.347l-134.47 107.553a23 23 0 0 0-8.458 20.805l23.064 185.162a23.007 23.007 0 0 0 9.229 15.71l170.253 124.76a22.997 22.997 0 0 0 17.759 4.07l183.509-33.78a23.018 23.018 0 0 0 17.291-14.33l62.052-160.63a22.988 22.988 0 0 0-1.868-20.34L-197.38 863.928Z" stroke="url(#aq)" stroke-opacity=".5" stroke-width="4"/><defs><linearGradient id="I" x1="48.329" y1="1167.09" x2="942.78" y2="1530.62" gradientUnits="userSpaceOnUse"><stop stop-color="#FF1CF7"/><stop offset="1" stop-color="#00F0FF"/></linearGradient><linearGradient id="a" x1="1183.6" y1="2285.65" x2="1507.84" y2="1125.3" gradientUnits="userSpaceOnUse"><stop stop-color="#FF1CF7"/><stop offset="1" stop-color="#00F0FF"/></linearGradient><linearGradient id="c" x1="1073.66" y1="2234.53" x2="1491.09" y2="1140.11" gradientUnits="userSpaceOnUse"><stop stop-color="#FF1CF7"/><stop offset="1" stop-color="#00F0FF"/></linearGradient><linearGradient id="d" x1="1020.12" y1="2207.01" x2="1480.57" y2="1146.7" gradientUnits="userSpaceOnUse"><stop stop-color="#FF1CF7"/><stop offset="1" stop-color="#00F0FF"/></linearGradient><linearGradient id="e" x1="967.635" y1="2178.28" x2="1468.94" y2="1152.7" gradientUnits="userSpaceOnUse"><stop stop-color="#FF1CF7"/><stop offset="1" stop-color="#00F0FF"/></linearGradient><linearGradient id="f" x1="916.27" y1="2148.42" x2="1456.42" y2="1158.1" gradientUnits="userSpaceOnUse"><stop stop-color="#FF1CF7"/><stop offset="1" stop-color="#00F0FF"/></linearGradient><linearGradient id="g" x1="866.091" y1="2117.51" x2="1443.23" y2="1162.96" gradientUnits="userSpaceOnUse"><stop stop-color="#FF1CF7"/><stop offset="1" stop-color="#00F0FF"/></linearGradient><linearGradient id="h" x1="817.161" y1="2085.64" x2="1429.55" y2="1167.33" gradientUnits="userSpaceOnUse"><stop stop-color="#FF1CF7"/><stop offset="1" stop-color="#00F0FF"/></linearGradient><linearGradient id="i" x1="769.532" y1="2052.88" x2="1415.57" y2="1171.29" gradientUnits="userSpaceOnUse"><stop stop-color="#FF1CF7"/><stop offset="1" stop-color="#00F0FF"/></linearGradient><linearGradient id="j" x1="723.257" y1="2019.32" x2="1401.44" y2="1174.95" gradientUnits="userSpaceOnUse"><stop stop-color="#FF1CF7"/><stop offset="1" stop-color="#00F0FF"/></linearGradient><linearGradient id="k" x1="678.381" y1="1985.05" x2="1387.3" y2="1178.43" gradientUnits="userSpaceOnUse"><stop stop-color="#FF1CF7"/><stop offset="1" stop-color="#00F0FF"/></linearGradient><linearGradient id="l" x1="634.943" y1="1950.16" x2="1373.25" y2="1181.85" gradientUnits="userSpaceOnUse"><stop stop-color="#FF1CF7"/><stop offset="1" stop-color="#00F0FF"/></linearGradient><linearGradient id="m" x1="592.977" y1="1914.73" x2="1359.39" y2="1185.38" gradientUnits="userSpaceOnUse"><stop stop-color="#FF1CF7"/><stop offset="1" stop-color="#00F0FF"/></linearGradient><linearGradient id="n" x1="552.515" y1="1878.85" x2="1345.79" y2="1189.16" gradientUnits="userSpaceOnUse"><stop stop-color="#FF1CF7"/><stop offset="1" stop-color="#00F0FF"/></linearGradient><linearGradient id="o" x1="513.581" y1="1842.62" x2="1332.46" y2="1193.37" gradientUnits="userSpaceOnUse"><stop stop-color="#FF1CF7"/><stop offset="1" stop-color="#00F0FF"/></linearGradient><linearGradient id="p" x1="476.192" y1="1806.11" x2="1319.44" y2="1198.17" gradientUnits="userSpaceOnUse"><stop stop-color="#FF1CF7"/><stop offset="1" stop-color="#00F0FF"/></linearGradient><linearGradient id="q" x1="440.364" y1="1769.42" x2="1306.69" y2="1203.73" gradientUnits="userSpaceOnUse"><stop stop-color="#FF1CF7"/><stop offset="1" stop-color="#00F0FF"/></linearGradient><linearGradient id="r" x1="406.105" y1="1732.63" x2="1294.18" y2="1210.23" gradientUnits="userSpaceOnUse"><stop stop-color="#FF1CF7"/><stop offset="1" stop-color="#00F0FF"/></linearGradient><linearGradient id="s" x1="373.418" y1="1695.83" x2="1281.82" y2="1217.82" gradientUnits="userSpaceOnUse"><stop stop-color="#FF1CF7"/><stop offset="1" stop-color="#00F0FF"/></linearGradient><linearGradient id="t" x1="342.301" y1="1659.1" x2="1269.5" y2="1226.67" gradientUnits="userSpaceOnUse"><stop stop-color="#FF1CF7"/><stop offset="1" stop-color="#00F0FF"/></linearGradient><linearGradient id="u" x1="312.748" y1="1622.52" x2="1257.09" y2="1236.92" gradientUnits="userSpaceOnUse"><stop stop-color="#FF1CF7"/><stop offset="1" stop-color="#00F0FF"/></linearGradient><linearGradient id="v" x1="284.746" y1="1586.18" x2="1244.41" y2="1248.69" gradientUnits="userSpaceOnUse"><stop stop-color="#FF1CF7"/><stop offset="1" stop-color="#00F0FF"/></linearGradient><linearGradient id="w" x1="258.279" y1="1550.16" x2="1231.27" y2="1262.08" gradientUnits="userSpaceOnUse"><stop stop-color="#FF1CF7"/><stop offset="1" stop-color="#00F0FF"/></linearGradient><linearGradient id="x" x1="233.325" y1="1514.53" x2="1217.43" y2="1277.17" gradientUnits="userSpaceOnUse"><stop stop-color="#FF1CF7"/><stop offset="1" stop-color="#00F0FF"/></linearGradient><linearGradient id="y" x1="209.859" y1="1479.35" x2="1202.65" y2="1293.99" gradientUnits="userSpaceOnUse"><stop stop-color="#FF1CF7"/><stop offset="1" stop-color="#00F0FF"/></linearGradient><linearGradient id="z" x1="187.849" y1="1444.72" x2="1186.65" y2="1312.54" gradientUnits="userSpaceOnUse"><stop stop-color="#FF1CF7"/><stop offset="1" stop-color="#00F0FF"/></linearGradient><linearGradient id="A" x1="167.262" y1="1410.68" x2="1169.14" y2="1332.76" gradientUnits="userSpaceOnUse"><stop stop-color="#FF1CF7"/><stop offset="1" stop-color="#00F0FF"/></linearGradient><linearGradient id="B" x1="148.058" y1="1377.32" x2="1149.83" y2="1354.56" gradientUnits="userSpaceOnUse"><stop stop-color="#FF1CF7"/><stop offset="1" stop-color="#00F0FF"/></linearGradient><linearGradient id="C" x1="130.195" y1="1344.68" x2="1128.42" y2="1377.77" gradientUnits="userSpaceOnUse"><stop stop-color="#FF1CF7"/><stop offset="1" stop-color="#00F0FF"/></linearGradient><linearGradient id="D" x1="113.625" y1="1312.82" x2="1104.64" y2="1402.17" gradientUnits="userSpaceOnUse"><stop stop-color="#FF1CF7"/><stop offset="1" stop-color="#00F0FF"/></linearGradient><linearGradient id="E" x1="98.3" y1="1281.81" x2="1078.23" y2="1427.49" gradientUnits="userSpaceOnUse"><stop stop-color="#FF1CF7"/><stop offset="1" stop-color="#00F0FF"/></linearGradient><linearGradient id="F" x1="84.165" y1="1251.68" x2="1048.97" y2="1453.4" gradientUnits="userSpaceOnUse"><stop stop-color="#FF1CF7"/><stop offset="1" stop-color="#00F0FF"/></linearGradient><linearGradient id="G" x1="71.165" y1="1222.49" x2="1016.7" y2="1479.51" gradientUnits="userSpaceOnUse"><stop stop-color="#FF1CF7"/><stop offset="1" stop-color="#00F0FF"/></linearGradient><linearGradient id="H" x1="59.24" y1="1194.28" x2="981.315" y2="1505.4" gradientUnits="userSpaceOnUse"><stop stop-color="#FF1CF7"/><stop offset="1" stop-color="#00F0FF"/></linearGradient><linearGradient id="b" x1="1128.18" y1="2260.76" x2="1500.26" y2="1132.96" gradientUnits="userSpaceOnUse"><stop stop-color="#FF1CF7"/><stop offset="1" stop-color="#00F0FF"/></linearGradient><linearGradient id="J" x1="38.367" y1="1140.94" x2="901.145" y2="1554.71" gradientUnits="userSpaceOnUse"><stop stop-color="#FF1CF7"/><stop offset="1" stop-color="#00F0FF"/></linearGradient><linearGradient id="K" x1="29.289" y1="1115.88" x2="856.543" y2="1577.2" gradientUnits="userSpaceOnUse"><stop stop-color="#FF1CF7"/><stop offset="1" stop-color="#00F0FF"/></linearGradient><linearGradient id="L" x1="21.027" y1="1091.92" x2="809.187" y2="1597.65" gradientUnits="userSpaceOnUse"><stop stop-color="#FF1CF7"/><stop offset="1" stop-color="#00F0FF"/></linearGradient><linearGradient id="M" x1="13.511" y1="1069.09" x2="759.372" y2="1615.67" gradientUnits="userSpaceOnUse"><stop stop-color="#FF1CF7"/><stop offset="1" stop-color="#00F0FF"/></linearGradient><linearGradient id="N" x1="6.671" y1="1047.41" x2="707.457" y2="1630.92" gradientUnits="userSpaceOnUse"><stop stop-color="#FF1CF7"/><stop offset="1" stop-color="#00F0FF"/></linearGradient><linearGradient id="O" x1=".435" y1="1026.88" x2="653.855" y2="1643.12" gradientUnits="userSpaceOnUse"><stop stop-color="#FF1CF7"/><stop offset="1" stop-color="#00F0FF"/></linearGradient><linearGradient id="P" x1="-5.269" y1="1007.52" x2="599.018" y2="1652.09" gradientUnits="userSpaceOnUse"><stop stop-color="#FF1CF7"/><stop offset="1" stop-color="#00F0FF"/></linearGradient><linearGradient id="Q" x1="-10.514" y1="989.322" x2="543.414" y2="1657.73" gradientUnits="userSpaceOnUse"><stop stop-color="#FF1CF7"/><stop offset="1" stop-color="#00F0FF"/></linearGradient><linearGradient id="R" x1="-15.374" y1="972.298" x2="487.512" y2="1660.01" gradientUnits="userSpaceOnUse"><stop stop-color="#FF1CF7"/><stop offset="1" stop-color="#00F0FF"/></linearGradient><linearGradient id="S" x1="-19.921" y1="956.44" x2="431.764" y2="1658.99" gradientUnits="userSpaceOnUse"><stop stop-color="#FF1CF7"/><stop offset="1" stop-color="#00F0FF"/></linearGradient><linearGradient id="T" x1="-24.228" y1="941.739" x2="376.585" y2="1654.81" gradientUnits="userSpaceOnUse"><stop stop-color="#FF1CF7"/><stop offset="1" stop-color="#00F0FF"/></linearGradient><linearGradient id="U" x1="-28.367" y1="928.183" x2="322.349" y2="1647.66" gradientUnits="userSpaceOnUse"><stop stop-color="#FF1CF7"/><stop offset="1" stop-color="#00F0FF"/></linearGradient><linearGradient id="V" x1="-32.409" y1="915.756" x2="269.373" y2="1637.8" gradientUnits="userSpaceOnUse"><stop stop-color="#FF1CF7"/><stop offset="1" stop-color="#00F0FF"/></linearGradient><linearGradient id="W" x1="-36.425" y1="904.438" x2="217.918" y2="1625.49" gradientUnits="userSpaceOnUse"><stop stop-color="#FF1CF7"/><stop offset="1" stop-color="#00F0FF"/></linearGradient><linearGradient id="X" x1="-40.483" y1="894.206" x2="168.178" y2="1611.04" gradientUnits="userSpaceOnUse"><stop stop-color="#FF1CF7"/><stop offset="1" stop-color="#00F0FF"/></linearGradient><linearGradient id="Y" x1="-44.652" y1="885.034" x2="120.295" y2="1594.76" gradientUnits="userSpaceOnUse"><stop stop-color="#FF1CF7"/><stop offset="1" stop-color="#00F0FF"/></linearGradient><linearGradient id="Z" x1="-48.996" y1="876.891" x2="74.349" y2="1576.95" gradientUnits="userSpaceOnUse"><stop stop-color="#FF1CF7"/><stop offset="1" stop-color="#00F0FF"/></linearGradient><linearGradient id="aa" x1="-53.579" y1="869.742" x2="30.372" y2="1557.92" gradientUnits="userSpaceOnUse"><stop stop-color="#FF1CF7"/><stop offset="1" stop-color="#00F0FF"/></linearGradient><linearGradient id="ab" x1="-58.463" y1="863.554" x2="-11.649" y2="1537.94" gradientUnits="userSpaceOnUse"><stop stop-color="#FF1CF7"/><stop offset="1" stop-color="#00F0FF"/></linearGradient><linearGradient id="ac" x1="-63.706" y1="858.285" x2="-51.762" y2="1517.26" gradientUnits="userSpaceOnUse"><stop stop-color="#FF1CF7"/><stop offset="1" stop-color="#00F0FF"/></linearGradient><linearGradient id="ad" x1="-69.366" y1="853.895" x2="-90.05" y2="1496.11" gradientUnits="userSpaceOnUse"><stop stop-color="#FF1CF7"/><stop offset="1" stop-color="#00F0FF"/></linearGradient><linearGradient id="ae" x1="-75.497" y1="850.338" x2="-126.616" y2="1474.7" gradientUnits="userSpaceOnUse"><stop stop-color="#FF1CF7"/><stop offset="1" stop-color="#00F0FF"/></linearGradient><linearGradient id="af" x1="-82.148" y1="847.57" x2="-161.581" y2="1453.19" gradientUnits="userSpaceOnUse"><stop stop-color="#FF1CF7"/><stop offset="1" stop-color="#00F0FF"/></linearGradient><linearGradient id="ag" x1="-89.369" y1="845.54" x2="-195.077" y2="1431.73" gradientUnits="userSpaceOnUse"><stop stop-color="#FF1CF7"/><stop offset="1" stop-color="#00F0FF"/></linearGradient><linearGradient id="ah" x1="-97.203" y1="844.199" x2="-227.245" y2="1410.42" gradientUnits="userSpaceOnUse"><stop stop-color="#FF1CF7"/><stop offset="1" stop-color="#00F0FF"/></linearGradient><linearGradient id="ai" x1="-105.692" y1="843.495" x2="-258.226" y2="1389.36" gradientUnits="userSpaceOnUse"><stop stop-color="#FF1CF7"/><stop offset="1" stop-color="#00F0FF"/></linearGradient><linearGradient id="aj" x1="-114.875" y1="843.375" x2="-288.161" y2="1368.61" gradientUnits="userSpaceOnUse"><stop stop-color="#FF1CF7"/><stop offset="1" stop-color="#00F0FF"/></linearGradient><linearGradient id="ak" x1="-124.786" y1="843.784" x2="-317.187" y2="1348.22" gradientUnits="userSpaceOnUse"><stop stop-color="#FF1CF7"/><stop offset="1" stop-color="#00F0FF"/></linearGradient><linearGradient id="al" x1="-135.456" y1="844.667" x2="-345.435" y2="1328.2" gradientUnits="userSpaceOnUse"><stop stop-color="#FF1CF7"/><stop offset="1" stop-color="#00F0FF"/></linearGradient><linearGradient id="am" x1="-146.911" y1="845.967" x2="-373.026" y2="1308.56" gradientUnits="userSpaceOnUse"><stop stop-color="#FF1CF7"/><stop offset="1" stop-color="#00F0FF"/></linearGradient><linearGradient id="an" x1="-159.177" y1="847.629" x2="-400.076" y2="1289.29" gradientUnits="userSpaceOnUse"><stop stop-color="#FF1CF7"/><stop offset="1" stop-color="#00F0FF"/></linearGradient><linearGradient id="ao" x1="-172.272" y1="849.595" x2="-426.685" y2="1270.38" gradientUnits="userSpaceOnUse"><stop stop-color="#FF1CF7"/><stop offset="1" stop-color="#00F0FF"/></linearGradient><linearGradient id="ap" x1="-186.213" y1="851.809" x2="-452.946" y2="1251.79" gradientUnits="userSpaceOnUse"><stop stop-color="#FF1CF7"/><stop offset="1" stop-color="#00F0FF"/></linearGradient><linearGradient id="aq" x1="-201.012" y1="854.214" x2="-478.938" y2="1233.47" gradientUnits="userSpaceOnUse"><stop stop-color="#FF1CF7"/><stop offset="1" stop-color="#00F0FF"/></linearGradient></defs></svg>