<svg width="1097" height="193" viewBox="0 0 1097 193" fill="none" xmlns="http://www.w3.org/2000/svg">
<g opacity="0.13">
<path d="M1.0327 123.202C28.6552 131.544 56.2325 119.512 80.6166 107.994C94.2473 101.577 108.092 95.0954 123.1 92.1435C137.233 89.4431 151.867 90.3061 165.538 94.6462C190.249 102.272 211.022 117.908 233.353 129.94C255.683 141.972 279.943 149.02 305.896 148.881C330.889 148.742 356.243 142.614 377.536 130.036C396.154 119.042 410.574 103.106 423.506 86.5607C437.046 69.2988 449.131 50.914 464.759 35.2243C480.973 18.9678 500.675 7.58819 523.998 3.32086C537.832 0.796816 552.602 0.572234 566.165 4.54011C576.321 7.51334 584.129 13.3742 592.445 19.3421C607.577 30.2083 622.979 40.7323 638.708 50.8177C674.952 73.994 714.219 97.2772 756.826 108.133C772.533 112.133 788.296 113.48 804.342 110.593C818.311 108.047 831.648 102.988 844.263 96.828C870.43 83.9939 893.618 66.593 918.736 52.2081C942.646 38.5398 969.58 27.4062 998.128 31.2564C1038.35 36.6682 1070.17 67.2989 1094.61 95.705C1104.48 107.159 1113.62 119.127 1122.35 131.352C1122.86 132.068 1124.09 131.352 1123.57 130.678C1107.86 108.71 1090.85 87.3094 1070.72 68.7534C1057.04 56.1225 1041.67 44.5825 1024.14 37.1601C998.275 26.187 970.866 27.4169 945.038 37.727C918.047 48.4969 894.645 65.8336 870.193 80.7854C845.741 95.7371 817.656 110.667 787.551 111.01C768.008 111.234 748.566 105.159 730.693 98.1756C709.175 89.7906 688.672 79.0955 668.836 67.609C650.139 56.7963 631.994 45.1493 614.245 32.9997C607.137 28.137 600.088 23.1923 593.1 18.1656C585.652 12.8181 578.532 7.34221 569.652 4.26203C547.254 -3.55608 520.275 0.10166 498.993 9.39569C479.303 17.9518 463.913 32.7323 450.722 48.7108C436.888 65.4807 425.029 83.6623 410.563 99.983C394.179 118.464 374.455 132.977 350.06 140.678C323.603 149.006 295.143 149.75 268.242 142.817C242.165 135.951 220.478 120.357 197.504 107.523C176.426 95.7585 153.306 86.5286 128.324 89.8334C98.9865 93.7157 74.9522 111.801 47.2056 120.143C32.266 124.635 16.5139 126.411 1.35993 121.822C0.491087 121.566 0.118725 122.892 0.976285 123.117L1.0327 123.202Z" fill="url(#paint0_linear_37001_519)"/>
<path d="M5.54628 128.389C29.0502 135.437 53.3666 125.801 74.0947 115.555C97.1586 104.176 120.617 91.0954 147.563 92.4109C170.931 93.566 191.806 104.678 211.575 115.587C231.344 126.496 251.395 137.694 274.166 142.421C319.481 151.918 368.949 141.127 403.014 110.742C430.558 86.1436 447.969 52.6359 477.916 30.2939C496.654 16.4192 519.592 8.60371 543.361 7.99466C557.093 7.62033 571.288 9.94115 583.147 16.8074C590.392 21.0106 597.196 26.0266 604.191 30.5827C643.007 55.8124 683.279 80.1544 726.473 98.1221C748.025 107.074 772.115 115.683 796.059 114.229C820.003 112.774 842.39 103.192 862.961 92.0366C889.522 77.6196 914.121 59.9513 941.506 46.8392C964.378 35.9195 989.71 29.3099 1015.23 34.989C1050.74 42.882 1078.69 69.6625 1100.85 95.5981C1109.44 105.641 1117.44 116.133 1125.09 126.828C1125.6 127.544 1126.82 126.828 1126.31 126.154C1103.42 94.1649 1076.2 60.2722 1039.17 42.1013C1016.8 30.9394 990.672 28.6321 966.511 35.6842C898.888 54.9354 845.775 126.325 769.204 110.55C743.094 105.202 718.428 93.8441 694.924 82.0153C673.157 71.0636 652.046 58.9139 631.396 46.1868C615.385 36.3259 600.152 25.0105 583.858 15.6309C563.356 3.86634 537.076 4.93585 514.757 10.9251C476.392 21.2138 453.374 50.9033 430.129 79.3736C417.988 94.2398 405.136 108.881 389.079 120.111C368.272 134.678 342.647 142.368 316.976 144.004C290.193 145.712 263.423 140.48 239.536 128.87C219.621 119.32 201.262 106.913 180.624 98.7317C159.986 90.55 138.457 88.6249 116.95 95.1168C92.0584 102.603 70.9127 118.154 46.0096 125.63C32.9318 129.555 19.2334 131.052 5.97506 127.074C5.10622 126.817 4.73386 128.143 5.6027 128.368L5.54628 128.389Z" fill="url(#paint1_linear_37001_519)"/>
<path d="M10.0485 133.566C32.6159 140.293 55.8265 129.833 75.2683 119.662C97.7115 107.897 120.538 94.2719 147.055 94.058C170.142 93.8762 191.208 103.619 211.124 113.673C231.04 123.726 251.113 134.346 273.557 139.031C318.139 148.314 367.719 139.416 402.924 111.224C431.314 88.4645 449.65 56.1867 479.947 35.3955C498.883 22.558 521.382 15.2796 544.648 14.4652C557.793 13.9625 571.232 15.7807 583.08 21.417C590.866 25.1175 598.099 30.1762 605.467 34.5933C643.831 57.5877 683.166 79.7801 724.623 97.5018C746.062 106.689 769.374 115.683 793.261 116.357C816.765 116.999 839.525 108.539 860.072 98.475C888.868 84.3468 915.227 66.2401 943.91 51.9621C967.087 40.3687 992.904 31.8126 1019.36 36.0906C1054.11 41.7697 1081.75 66.5716 1103.43 91.3521C1112.07 101.224 1120.04 111.598 1127.63 122.207C1128.14 122.913 1129.36 122.207 1128.85 121.534C1106.78 90.7104 1080 57.8658 1043.34 41.8767C1019.65 31.5559 994.145 31.5773 969.761 39.5772C944.497 47.8552 921.963 62.1866 899.339 75.363C880.157 86.5286 860.738 97.8226 839.818 105.833C828.041 110.508 815.593 113.486 802.886 114.667C790.598 115.662 778.423 113.887 766.564 110.871C741.424 104.454 717.582 93.4056 694.54 82.1009C673.101 71.5662 652.125 60.1439 631.476 48.2616C622.983 43.3704 614.539 38.4079 606.144 33.3741C599.024 29.096 592.05 24.2725 584.581 20.54C563.379 10.0802 537.505 11.5668 515.141 17.5774C477.747 27.7271 454.502 55.3418 430.411 82.3041C417.999 96.2077 404.854 109.555 388.763 119.619C367.437 132.967 341.834 139.673 316.457 140.913C289.856 142.199 263.343 137.108 239.367 126.111C219.609 117.17 201.07 105.684 180.421 98.6034C159.208 91.3201 137.543 90.9671 116.285 98.4537C92.4985 106.849 72.2104 122.175 48.2438 130.132C35.9897 134.197 23.0247 136.036 10.4209 132.272C9.56329 132.015 9.19093 133.341 10.0485 133.555V133.566Z" fill="url(#paint2_linear_37001_519)"/>
<path d="M14.5619 138.763C36.0912 145.18 58.2637 133.951 76.3966 123.876C97.9936 111.876 119.828 97.9403 145.487 95.9831C168.562 94.1863 190.148 102.582 210.503 111.887C230.859 121.191 250.764 131.138 272.959 135.694C316.559 144.614 365.711 137.619 401.909 112.069C430.806 91.673 450.056 61.4593 479.699 41.9301C498.129 29.9586 519.552 22.7819 541.827 21.1175C555.006 20.048 568.479 21.0212 580.947 25.449C589.692 28.572 597.647 33.6521 605.704 38.0799C644.395 59.331 683.629 79.9725 724.374 97.459C745.294 106.443 767.252 115.384 790.294 117.78C812.692 120.143 834.83 113.929 855.062 105.298C886.927 91.6943 915.689 72.8068 946.325 57.0637C969.389 45.2028 994.946 34.9783 1021.76 37.1708C1057.01 40.0585 1085.41 63.7909 1107.22 88.3789C1115.43 97.7428 1123.13 107.499 1130.29 117.609C1130.8 118.314 1132.02 117.609 1131.51 116.935C1110.32 87.3521 1084.12 55.9193 1048.17 41.9622C1023.65 32.4543 997.62 34.6147 973.304 43.513C947.352 53.0102 924.028 67.9406 900.084 81.149C879.649 92.4216 858.639 103.887 836.117 110.945C824.382 114.625 812.049 117.042 799.648 116.978C787.856 116.924 776.178 114.421 764.962 111.138C740.318 103.94 716.803 93.0098 693.795 82.0795C673.214 72.3042 652.948 61.9192 632.863 51.2241C624.235 46.6467 615.622 41.9943 607.024 37.2671C599.757 33.2778 592.581 28.711 584.863 25.5025C562.984 16.4758 537.471 18.3582 515.062 24.433C497.495 29.3475 481.248 37.784 467.422 49.1707C453.881 60.1653 442.316 73.1598 430.186 85.4805C417.051 98.7852 402.89 111.288 386.01 120.197C364.436 131.576 339.544 136.988 314.99 137.747C288.876 138.494 262.929 133.559 239.141 123.32C219.271 114.913 200.314 104.165 179.338 98.2825C157.899 92.2505 136.46 93.6195 115.788 101.876C93.0513 110.967 73.6434 126.197 50.5908 134.592C39.1378 138.774 26.895 140.945 14.9568 137.394C14.088 137.138 13.7156 138.464 14.5845 138.689L14.5619 138.763Z" fill="url(#paint3_linear_37001_519)"/>
<path d="M19.0641 143.94C40.2323 150.154 61.9422 137.523 79.2401 127.213C99.4266 115.213 119.861 101.823 143.884 98.197C167.072 94.6997 189.403 101.844 210.458 110.443C231.062 118.871 251.249 128.239 273.387 132.539C315.961 140.795 363.939 135.234 400.792 112.571C430.479 94.3254 450.891 65.7374 480.567 47.545C499.14 36.3807 520.252 29.5724 542.154 27.6843C555.051 26.4864 568.163 27.0426 580.608 30.6361C589.929 33.3313 598.346 38.1227 606.922 42.4007C644.959 61.4059 683.256 80.0474 722.456 96.828C743.895 106.015 766.214 116.015 789.673 119.469C811.213 122.678 833.228 117.512 853.234 110.111C886.735 97.7157 916.919 79.0955 948.209 62.6786C971.904 50.1974 997.992 38.219 1025.78 38.7751C1060.18 39.4703 1088.34 60.6679 1109.9 84.304C1118.15 93.4716 1125.84 103.085 1132.91 113.095C1133.42 113.801 1134.65 113.095 1134.13 112.421C1113.62 83.8014 1087.65 53.3525 1051.84 41.8339C1026.66 33.7056 1000.55 38.1869 976.61 47.791C949.698 58.5503 925.348 74.1651 899.756 87.3521C878.227 98.4536 855.908 109.395 832.054 115.159C820.624 117.94 808.584 119.705 796.77 118.838C784.956 117.972 773.435 114.774 762.344 111.031C738.716 103.074 715.911 92.6783 693.333 82.3896C673.022 73.1384 652.892 63.5128 632.886 53.684C624.431 49.5415 615.998 45.3633 607.588 41.1494C600.332 37.5238 593.167 33.481 585.472 30.7538C563.469 22.9678 538.701 25.0533 516.461 30.8393C498.973 35.4659 482.642 43.3724 468.437 54.0904C454.897 64.208 443.128 76.2507 430.716 87.5768C416.814 100.261 401.852 111.844 384.408 119.78C362.698 129.651 338.381 134.165 314.449 134.635C289.457 135.101 264.628 130.735 241.477 121.801C220.839 113.94 201.014 103.545 179.259 98.6141C159.304 94.0583 138.32 95.8897 119.579 103.823C97.0119 113.106 78.0214 128.582 55.6346 138.197C44.2268 143.041 31.7357 146.25 19.4365 142.646C18.5676 142.389 18.1953 143.715 19.0641 143.94Z" fill="url(#paint4_linear_37001_519)"/>
<path d="M23.5663 149.116C44.0462 155.084 65.0452 141.309 81.2373 131.084C100.25 119.074 119.387 105.94 142.011 100.86C187.97 90.5607 229.279 121.127 272.767 129.266C314.618 137.106 361.592 132.817 399.144 112.924C429.305 96.9777 450.914 70.5609 480.285 53.652C498.508 43.1601 519.18 36.9676 540.314 34.4971C552.918 33.0211 565.793 32.9784 578.239 35.5666C588.112 37.6521 597.038 41.7697 606.11 45.8552C644 62.9674 681.97 79.9405 720.346 96.1221C741.209 104.903 762.31 114.507 784.561 119.651C805.357 124.475 826.311 122.015 846.565 116.068C882.459 105.534 915.091 86.8816 947.588 69.4486C972.333 56.176 999.008 42.1547 1028.01 40.4435C1062.37 38.4221 1091.02 57.2134 1112.96 80.6356C1121.11 89.4341 1128.65 98.7226 1135.53 108.443C1136.04 109.149 1137.26 108.443 1136.75 107.769C1116.81 79.9618 1090.87 50.4648 1055.04 41.5451C1028.9 35.0211 1002.46 42.0371 978.596 52.5182C950.725 64.7534 925.122 81.1169 897.624 94.0794C875.249 104.635 852.094 114.999 827.304 119.202C815.321 121.245 803.259 121.79 791.253 119.641C779.743 117.587 768.629 113.876 757.774 109.812C714.828 93.7692 673.045 74.4325 631.318 55.7268C615.746 48.7429 599.949 39.8125 583.305 35.4061C561.438 29.5987 537.708 32.0693 516.077 37.6842C498.606 42.2652 482.185 49.8808 467.647 60.1438C454.491 69.3523 442.767 80.1972 430.355 90.2505C415.562 102.208 399.505 112.71 381.361 119.523C359.674 127.726 336.102 131.288 312.824 131.448C288.094 131.474 263.567 127.219 240.45 118.892C220.219 111.78 200.45 102.614 179.067 98.9456C158.237 95.3735 138.073 98.6889 119.139 107.416C97.8582 117.234 79.9058 132.261 58.8166 142.325C48.0294 147.48 35.9445 151.33 23.9612 147.833C23.0924 147.576 22.72 148.902 23.5776 149.116H23.5663Z" fill="url(#paint5_linear_37001_519)"/>
<path d="M28.0798 154.303C46.901 159.758 66.1849 146.368 80.7183 136.721C99.5282 124.25 118.045 110.475 140.274 103.887C185.657 90.4217 227.801 117.919 271.255 125.929C312.429 133.48 358.32 130.389 396.594 113.405C427.06 99.8654 449.876 76.1116 478.796 60.315C496.669 50.5611 516.506 44.5932 536.862 41.6627C550.03 39.7804 563.514 39.1173 576.693 41.1387C587.232 42.743 596.846 46.3365 606.595 50.283C644.463 65.5627 682.297 80.9137 720.098 96.336C740.521 104.646 760.854 113.748 782.237 119.673C801.947 125.322 822.902 125.821 842.887 121.117C864.867 116.004 885.765 106.625 906.075 97.3307C920.473 90.6356 934.375 83.149 948.276 75.7159C973.992 61.9192 1000.98 46.5183 1030.75 42.5611C1064.84 38.0371 1093.94 54.0263 1116.37 77.2988C1124.29 85.6621 1131.57 94.547 1138.16 103.887C1138.67 104.593 1139.88 103.887 1139.38 103.213C1120.06 76.3041 1094.37 48.2081 1058.92 41.759C1031.66 36.7858 1004.68 46.2082 980.593 57.5663C950.962 71.5448 923.046 88.4752 892.975 101.609C870.408 111.438 846.892 121.256 821.888 122.999C798.982 124.55 777.103 117.469 756.149 109.437C714.399 93.3949 673.349 75.8549 631.972 59.0958C615.814 52.5504 599.328 44.2296 582.064 40.7323C560.196 36.2938 536.929 39.0746 515.581 44.5291C498.104 49.0261 481.554 56.2905 466.632 66.0155C453.351 74.5715 441.244 84.6998 428.267 93.7157C412.876 104.411 396.21 113.266 378.021 118.924C356.198 125.715 333.022 128.55 310.093 128.25C285.743 127.972 262.307 123.566 239.299 116.186C219.395 109.769 199.671 101.897 178.649 99.4697C157.21 96.9884 136.798 101.93 117.988 111.694C97.7115 122.165 80.5603 137.191 60.1594 147.469C50.4328 152.368 39.4312 156.196 28.4522 153.009C28.278 152.981 28.0989 153.015 27.9499 153.105C27.8008 153.195 27.6925 153.334 27.646 153.496C27.5995 153.658 27.6181 153.83 27.6984 153.979C27.7786 154.128 27.9146 154.244 28.0798 154.303Z" fill="url(#paint6_linear_37001_519)"/>
<path d="M32.582 159.491C50.4667 164.635 68.7914 150.656 82.1287 141.309C100.318 128.475 118.124 114.571 139.563 106.946C183.975 91.0741 226.447 114.967 269.709 122.603C311.459 129.972 357.722 127.534 397.215 112.036C427.353 100.218 451.23 79.149 480.014 65.1706C498.215 56.3257 518.029 50.9782 538.216 48.1226C550.752 46.3472 563.582 45.5665 576.208 46.9996C586.95 48.2082 596.981 51.2777 607.058 54.8498C644.824 68.3684 682.512 82.0795 719.895 96.6462C741.255 104.978 762.31 114.528 784.403 121.031C803.845 126.753 823.242 128.175 843.259 124.314C865.195 120.036 886.002 111.32 906.358 102.753C921.579 96.336 936.214 88.7639 950.736 81.0421C977.456 66.839 1004.9 50.4006 1035.36 44.6788C1049.14 42.0906 1063.39 42.2831 1076.83 46.3579C1093.54 51.4381 1107.76 61.8551 1119.71 73.8229C1127.48 81.7821 1134.58 90.3113 1140.93 99.3307C1141.44 100.037 1142.66 99.3307 1142.15 98.6569C1123.63 72.8817 1098.64 46.775 1064.3 42.2938C1035.98 38.604 1008.4 50.1012 983.899 62.2187C953.083 77.4592 923.656 94.4751 891.599 107.416C870.047 116.101 847.479 124.4 823.806 125.298C800.99 126.154 779.269 118.603 758.485 110.518C717.581 94.6034 676.802 78.5715 635.492 63.6091C618.285 57.3739 600.761 49.5557 582.538 46.497C560.557 42.8285 537.46 45.8018 515.964 50.9889C498.931 55.0908 482.63 61.5564 467.591 70.1758C454.051 77.8977 441.639 87.042 428.279 95.0419C392.509 116.55 351.55 125.715 309.349 124.988C285.01 124.55 261.573 120.314 238.329 113.673C218.244 107.93 198.069 101.031 176.923 100.058C155.777 99.0847 135.85 105.352 117.796 115.641C98.208 126.753 81.5984 142.068 61.7165 152.667C52.9829 157.319 42.9856 161.095 32.9657 158.207C32.7895 158.173 32.6061 158.203 32.4525 158.291C32.2989 158.38 32.1864 158.521 32.1377 158.685C32.0891 158.849 32.1079 159.024 32.1903 159.176C32.2728 159.327 32.4127 159.444 32.582 159.501V159.491Z" fill="url(#paint7_linear_37001_519)"/>
<path d="M37.0955 164.667C53.2199 169.287 69.6151 156.239 81.3727 147.555C99.0882 134.517 116.059 120.293 136.527 111.191C157.966 101.63 180.839 100.7 203.88 104.913C225.533 108.871 246.476 115.726 268.197 119.352C309.698 126.282 354.844 124.528 394.89 111.544C410.465 106.33 425.456 99.6626 439.641 91.6409C452.9 84.3147 465.887 76.5287 479.879 70.4646C518.921 53.5664 565.985 46.5611 607.227 59.5022C645.185 71.3844 683.11 83.5447 720.346 97.32C759.839 111.951 799.445 133.993 843.338 127.373C865.838 123.983 887.243 115.555 908.163 107.341C923.466 101.142 938.392 94.1368 952.869 86.3575C980.729 71.7694 1008.55 54.2723 1039.75 46.7857C1053.45 43.4702 1067.83 42.6039 1081.6 46.0156C1097.56 49.9942 1111.35 59.2669 1122.79 70.3149C1130.41 77.8479 1137.31 86.0043 1143.42 94.689C1143.92 95.3949 1145.15 94.689 1144.64 94.0152C1126.78 69.1812 1102.39 45.1387 1068.97 42.6788C1040.22 40.5932 1012.55 53.6947 987.995 66.2614C973.101 73.9405 958.511 82.0795 943.594 89.673C926.183 98.4452 908.223 106.203 889.816 112.903C868.772 120.667 846.712 127.651 823.863 127.512C800.787 127.362 778.841 118.828 757.876 110.507C717.74 94.5713 677.05 80.3041 635.808 67.1171C618.454 61.5663 600.885 54.807 582.674 52.4113C560.512 49.5023 537.685 52.529 516.1 57.4166C499.165 61.2314 482.817 67.0902 467.456 74.8496C453.915 81.6623 441.176 89.6623 427.681 96.4965C390.377 115.395 348.695 122.849 306.618 121.651C282.663 120.967 259.554 116.817 236.445 111.052C216.45 106.069 196.117 100.475 175.242 100.988C154.367 101.502 135.094 108.999 117.695 119.769C99.0881 131.298 83.2346 146.507 64.2215 157.458C56.2439 162.036 46.901 166.079 37.4792 163.383C37.3902 163.36 37.2974 163.354 37.2059 163.365C37.1144 163.376 37.0261 163.403 36.9459 163.447C36.784 163.534 36.6653 163.679 36.616 163.849C36.5666 164.019 36.5905 164.201 36.6826 164.354C36.7747 164.508 36.9272 164.62 37.1068 164.667H37.0955Z" fill="url(#paint8_linear_37001_519)"/>
<path d="M41.5977 169.854C56.5937 174.132 71.759 161.116 82.3544 152.87C99.6636 139.405 116.138 124.774 136.076 114.753C156.296 104.582 178.153 101.577 200.743 104.122C223.333 106.667 245.302 113.095 267.7 116.389C309.281 122.592 353.592 121.288 394.179 110.272C410.12 105.811 425.622 100.046 440.51 93.0419C454.31 86.6784 467.862 79.8656 482.26 74.6571C522.328 60.1332 568.163 53.7054 609.822 65.0315C647.34 75.2132 684.825 85.6302 721.531 98.3895C760.922 112.111 800.302 135.138 843.756 130.272C865.093 127.876 885.505 120.764 905.489 113.555C922.223 107.464 938.518 100.34 954.268 92.2291C983.279 77.395 1011.44 59.1492 1043.04 49.5236C1056.65 45.3739 1071.17 43.1815 1085.36 45.6199C1101.08 48.3151 1114.82 56.4754 1126.12 66.9352C1133.59 74.0181 1140.3 81.789 1146.15 90.1329C1146.66 90.8387 1147.89 90.1329 1147.37 89.4591C1129.88 65.1598 1105.62 43.1494 1072.71 43.2563C1043.18 43.3526 1015.37 58.2936 990.342 71.5555C975.109 79.6196 960.057 87.9832 944.564 95.5874C926.152 104.45 907.103 112.069 887.559 118.389C867.248 125.127 845.888 130.721 824.145 129.587C800.449 128.357 777.96 118.689 756.375 110.047C718.078 94.7104 678.517 82.6142 638.652 71.5448C621.388 66.7427 603.932 60.9674 586.036 58.7856C563.412 56.0156 540.348 58.9995 518.165 63.438C501.279 66.7795 484.819 71.8279 469.069 78.4966C455.529 84.272 442.428 91.0633 428.854 96.8387C390.151 113.277 348.266 119.683 305.986 118.432C282.358 117.726 259.407 113.962 236.377 109.149C216.066 104.871 195.361 100.432 174.452 102.283C153.543 104.133 134.722 112.646 117.706 124.036C100.025 135.886 84.9609 151.106 66.8055 162.293C59.5162 166.774 50.8277 171.084 41.9813 168.571C41.1125 168.314 40.7401 169.64 41.609 169.854H41.5977Z" fill="url(#paint9_linear_37001_519)"/>
<path d="M46.1112 175.041C60.2497 179.02 74.6589 165.501 84.2388 157.619C101.085 143.715 117.119 128.796 136.539 118.047C156.161 107.159 177.6 102.753 200.235 104.004C222.442 105.234 244.185 110.421 266.166 113.373C307.916 118.913 351.527 118.026 392.656 108.967C423.494 102.186 451.613 88.9671 481.572 79.7907C500.144 74.2682 519.187 70.2854 538.487 67.8871C563.096 64.6144 586.826 64.6786 611.075 70.2507C648.435 78.8817 685.818 87.6409 722.242 99.4376C742.992 106.154 762.863 114.732 783.298 122.25C802.581 129.352 822.114 134.4 842.966 133.063C864.168 131.694 884.648 125.416 904.575 118.785C922.372 112.91 939.69 105.803 956.39 97.5232C986.596 82.4645 1015.21 63.47 1047.28 52.0263C1060.5 47.3098 1074.69 44.0585 1088.91 45.3419C1104.33 46.7322 1118.14 53.7589 1129.38 63.6733C1136.65 70.256 1143.12 77.5884 1148.67 85.534C1149.18 86.2399 1150.4 85.534 1149.89 84.8602C1132.88 61.2562 1109.07 41.7483 1077.24 43.9087C1046.93 45.9729 1018.91 62.5289 993.208 76.4753C977.49 85.0313 961.806 93.6409 945.568 101.266C926.548 109.987 906.835 117.278 886.611 123.074C866.301 129.095 844.94 133.619 823.524 131.395C800.359 128.988 778.57 119.117 757.345 110.646C719.285 95.4483 679.318 84.9778 639.329 75.4485C621.106 71.117 602.736 65.9834 583.96 64.4861C561.539 62.6893 538.599 65.9406 516.608 69.962C499.873 73.0139 483.439 77.3929 467.478 83.0527C453.859 87.8976 440.522 93.427 426.857 98.0259C387.364 111.256 345.987 116.443 304.214 115.138C280.406 114.379 257.184 110.785 233.782 106.892C214.362 103.684 194.526 100.828 174.836 103.577C153.904 106.496 135.343 115.94 118.654 127.919C101.582 140.164 87.0597 155.555 69.5361 167.18C62.9352 171.555 54.8673 176.121 46.54 173.779C46.3658 173.751 46.1867 173.785 46.0376 173.875C45.8886 173.965 45.7802 174.104 45.7337 174.266C45.6872 174.428 45.7059 174.6 45.7861 174.749C45.8663 174.898 46.0023 175.014 46.1676 175.073L46.1112 175.041Z" fill="url(#paint10_linear_37001_519)"/>
<path d="M50.6134 180.218C64.3344 184.036 78.4954 169.255 87.2854 161.48C103.918 146.763 119.94 131.277 139.484 119.994C158.197 109.183 179.78 103.665 201.691 104.09C223.186 104.304 244.411 108.261 265.703 110.603C308.784 115.363 353.141 114.593 395.748 106.571C426.372 100.817 455.551 90.4217 485.803 83.4164C505.821 78.9105 526.12 75.6063 546.577 73.5234C569.837 70.9414 593.382 71.9018 616.322 76.3683C654.946 83.7586 693.649 91.3414 731.099 103.106C770.728 115.587 808.336 138.806 851.575 135.191C872.642 133.437 893.054 127.33 913.015 121.02C930.667 115.384 947.8 108.384 964.243 100.09C994.461 84.9885 1022.85 65.8657 1054.51 53.5664C1067.22 48.6253 1080.87 44.8499 1094.73 45.3847C1109.4 45.9515 1122.67 51.8873 1133.49 61.0957C1140.25 67.0317 1146.24 73.7138 1151.33 80.9993C1151.83 81.7052 1153.05 80.9993 1152.53 80.3255C1136.33 57.8658 1113.54 41.0852 1083.52 44.4969C1053.51 47.9087 1026.13 64.8604 1000.71 78.9458C985.152 87.5554 969.569 96.1863 953.399 103.769C934.567 112.614 914.967 119.309 894.86 125.052C874.447 130.892 853.178 135.555 831.671 133.951C808.551 132.229 786.92 122.646 765.752 114.165C727.387 98.7852 687.138 88.9671 646.449 80.8068C628.395 77.1811 610.037 72.9138 591.61 71.1812C568.524 68.9887 545.257 71.8871 522.441 75.256C505.193 77.7458 488.119 81.2245 471.315 85.673C457.323 89.4163 443.523 93.7692 429.509 97.4376C389.186 108.12 347.398 112.994 305.546 111.897C282.572 111.32 259.971 108.55 237.223 105.673C217.544 103.192 197.459 101.127 177.736 104.464C157.425 107.908 139.371 117.224 123.111 129.127C105.712 141.972 91.2234 157.801 74.0158 170.742C67.742 175.448 59.4372 181.276 50.9858 178.934C50.8968 178.911 50.804 178.905 50.7125 178.915C50.621 178.926 50.5326 178.954 50.4525 178.997C50.2906 179.085 50.1719 179.229 50.1225 179.399C50.0732 179.57 50.0971 179.751 50.1892 179.905C50.2812 180.058 50.4338 180.171 50.6134 180.218Z" fill="url(#paint11_linear_37001_519)"/>
<path d="M55.1155 185.405C60.464 186.87 65.5642 184.795 70.0552 182.089C77.7394 177.458 84.2613 171.073 90.6705 164.977C106.738 149.79 122.445 134.143 141.594 122.368C159.969 111.073 181.256 104.763 203.146 104.122C224.879 103.341 246.543 106.379 268.14 108.143C311.131 111.683 354.754 110.956 397.429 104.539C428.369 99.8547 458.756 92.5072 489.617 87.427C509.927 84.1116 530.385 81.5234 550.876 79.5875C574.899 77.3202 597.782 78.5715 621.568 82.2185C660.858 88.2292 700.351 94.4109 738.298 106.058C759.602 112.603 779.63 122.1 800.618 129.395C820.139 136.175 839.716 139.298 860.422 137.213C881.962 135.074 903.108 129.02 923.61 122.646C940.519 117.201 956.9 110.381 972.57 102.261C1002.38 87.181 1030.22 68.3363 1061.05 55.1493C1073.46 49.8017 1087 45.3632 1100.78 45.2349C1114.42 45.1742 1127.59 49.9197 1137.75 58.5503C1143.92 63.8116 1149.35 69.7955 1153.92 76.3576C1154.43 77.0635 1155.66 76.3576 1155.14 75.6731C1147.17 64.6465 1137.33 54.283 1124.34 48.5932C1113.92 44.005 1102.41 43.0424 1091.14 44.6681C1061.56 48.9461 1034.72 66.4005 1009.56 80.6143C993.953 89.4377 978.302 98.2184 962.054 105.93C943.644 114.511 924.451 121.491 904.71 126.785C883.7 132.603 861.832 137.598 839.806 136.475C816.189 135.266 794.344 125.876 772.905 117.224C734.191 101.598 693.795 92.5179 652.44 85.7051C634.127 82.6891 615.656 79.2881 597.15 77.6089C573.037 75.4058 548.958 78.1972 525.036 81.1062C493.566 84.9351 462.784 91.181 431.72 97.1489C390.772 105.02 349.823 109.47 307.983 108.774C284.874 108.389 262.002 106.208 239.006 104.218C219.011 102.496 198.667 101.48 178.932 105.716C158.621 110.079 140.748 120.101 124.77 132.453C107.641 145.79 93.5478 162.089 76.7238 175.651C71.1497 180.143 63.3752 186.282 55.4992 184.121C55.3196 184.073 55.1272 184.094 54.9643 184.181C54.8013 184.267 54.6812 184.411 54.6304 184.581C54.5795 184.751 54.602 184.934 54.693 185.088C54.784 185.243 54.936 185.356 55.1155 185.405Z" fill="url(#paint12_linear_37001_519)"/>
<path d="M59.6291 190.592C64.6616 191.961 69.4572 189.661 73.5193 186.966C80.5603 182.282 86.5407 176.089 92.4195 170.186C108.296 154.25 123.867 137.94 142.937 125.341C160.919 113.415 181.884 106.161 203.744 104.304C225.296 102.411 247.017 104.4 268.547 105.587C312.971 108.047 357.552 107.363 401.694 102.154C432.657 98.4964 463.574 94.6676 494.604 91.5553C515.186 89.4912 535.767 87.2773 556.383 85.6409C579.593 83.7693 602.048 85.0313 625.112 87.7051C665.733 92.4216 706.851 97.1596 745.982 109.095C767.568 115.694 787.732 125.726 809.092 132.87C828.156 139.381 848.554 141.61 868.681 139.384C907.825 135.106 946.336 122.207 980.875 104.518C1010.6 89.288 1038.16 70.2935 1068.54 56.2509C1091.87 45.4595 1119.42 38.3473 1141.46 55.5664C1147.26 60.2608 1152.32 65.7045 1156.52 71.7373C1157.03 72.4325 1158.25 71.7373 1157.74 71.0529C1150.51 61.0636 1141.46 51.8017 1129.53 47.0638C1119.25 42.9569 1107.99 42.7858 1097.18 44.9248C1068.04 50.6787 1041.89 68.5502 1016.96 83.0099C984.238 102.004 951.244 118.945 914.087 128.828C892.75 134.507 870.679 139.523 848.371 138.956C824.799 138.325 803.236 129.705 781.898 121.01C761.78 112.817 741.65 105.78 720.335 100.924C700.114 96.3253 679.578 93.1061 658.985 90.4216C639.961 87.9297 620.79 85.3201 601.641 83.8335C577.743 81.9832 554.103 84.411 530.351 86.6891C498.012 89.8013 465.695 93.1061 433.447 96.935C392.081 101.887 351.155 105.994 309.326 105.555C286.093 105.32 262.984 103.662 239.796 102.625C219.812 101.726 199.502 101.812 180.083 106.903C159.58 112.314 141.718 123.213 125.74 136.389C109.21 150.079 95.6466 166.506 79.4771 180.517C74.5687 184.795 67.2907 191.212 59.9563 189.234C59.7821 189.205 59.603 189.239 59.454 189.329C59.3049 189.419 59.1966 189.559 59.15 189.72C59.1035 189.882 59.1222 190.054 59.2024 190.203C59.2827 190.353 59.4187 190.468 59.5839 190.528L59.6291 190.592Z" fill="url(#paint13_linear_37001_519)"/>
<path d="M64.1312 195.768C68.8365 197.041 73.2485 194.56 76.8931 191.939C83.7762 186.966 89.497 180.474 95.2291 174.41C110.744 157.822 126.158 141.02 145.092 127.78C162.595 115.507 183.026 107.524 204.568 104.539C226.188 101.502 248.214 102.518 270.014 103.127C314.942 104.542 359.919 103.553 404.73 100.165C435.974 97.705 467.219 97.5339 498.52 96.1435C519.959 95.1916 541.285 93.2238 562.679 91.7692C585.822 90.1864 608.513 91.566 631.577 93.4163C673.146 96.7318 715.528 100.047 755.326 112.667C777.171 119.598 797.47 130.272 819.406 136.988C838.735 142.913 858.504 144.015 878.6 141.576C917.991 136.796 955.792 124.464 990.444 106.282C1019.57 91.0099 1046.49 72.1331 1075.93 57.4166C1096.86 46.9568 1123.32 37.2671 1144.64 52.2509C1150.33 56.4475 1155.26 61.5065 1159.21 67.224C1159.72 67.9299 1160.94 67.224 1160.43 66.5502C1153.85 57.4594 1145.47 49.2563 1134.33 45.3954C1124.43 41.9729 1113.67 42.6039 1103.62 45.1066C1075.22 52.176 1049.99 70.1652 1025.51 84.7853C994.077 103.555 961.704 121.341 925.597 130.657C903.695 136.293 881.161 141.512 858.334 141.566C834.639 141.619 813.2 134.079 791.682 125.266C771.461 116.988 751.568 109.32 730.039 104.582C709.356 100.037 688.289 97.2665 667.177 95.1596C647.589 93.2024 627.91 91.5126 608.254 90.2398C583.926 88.657 559.993 90.6997 535.756 92.5286C503.033 94.9991 470.367 95.213 437.588 96.7103C419.105 97.5553 400.679 99.2772 382.219 100.432C358.756 101.908 335.275 102.586 311.775 102.464C288.079 102.389 264.383 101.245 240.687 101.181C220.681 101.127 200.472 102.347 181.346 108.304C161.261 114.55 143.738 125.887 128.245 139.32C111.906 153.501 98.6029 170.335 82.9299 185.073C78.518 189.191 71.5333 196.367 64.5149 194.485C64.3353 194.437 64.1429 194.458 63.98 194.544C63.817 194.63 63.6969 194.774 63.646 194.945C63.5952 195.115 63.6177 195.297 63.7087 195.452C63.7997 195.606 63.9517 195.72 64.1312 195.768Z" fill="url(#paint14_linear_37001_519)"/>
<path d="M68.6447 200.955C72.9099 202.089 76.8366 199.608 80.0186 197.148C86.8566 191.875 92.4307 185.041 98.0726 178.656C112.832 161.822 127.715 144.967 145.87 131.277C163.403 117.936 184.028 108.732 206.046 104.422C227.824 100.143 250.245 100.143 272.372 100.561C296.711 100.988 321.174 100.999 345.501 100.09C365.925 99.3306 386.484 97.2665 406.941 98.197C438.299 99.6194 469.475 102.475 500.901 101.641C522.971 101.063 544.907 99.32 566.967 97.9831C590.008 96.5927 612.835 97.6515 635.854 98.6889C678.337 100.593 722.208 102.25 762.75 115.566C784.855 122.817 805.335 133.972 827.778 140.378C847.592 146.036 868.072 146.389 888.473 143.747C927.387 138.74 964.926 126.701 999.053 108.282C1027.85 92.8387 1054.34 73.8656 1083.06 58.3364C1102.11 48.0477 1128.09 35.8767 1148.72 49.5129C1153.87 53.1045 1158.29 57.5419 1161.79 62.6144C1162.29 63.3203 1163.51 62.6144 1162.99 61.9407C1157.05 53.7161 1149.28 46.4648 1138.97 43.5344C1129.4 40.8178 1119.2 42.2189 1109.86 45.0638C1082.21 53.5129 1057.89 71.6197 1033.82 86.4538C1003.06 105.416 970.968 123.566 935.368 132.977C912.959 138.892 889.432 143.812 866.097 144.09C842.402 144.368 820.895 137.512 799.377 128.657C778.886 120.207 758.914 111.972 736.989 107.395C716.25 103.053 695.059 100.828 673.891 99.3627C653.58 97.9617 633.1 97.1168 612.711 96.2505C588.033 95.181 563.706 96.9777 539.107 98.5071C505.811 100.632 472.405 100.703 439.1 98.721C420.854 97.6515 402.676 96.2612 384.374 96.9456C360.96 97.8226 337.648 99.0847 314.201 99.2879C290.29 99.459 266.301 98.5071 242.414 99.2879C222.34 99.9617 202.199 102.422 183.332 109.224C163.394 116.4 146.006 128.175 130.682 142.122C114.411 156.945 101.232 174.367 85.841 189.993C82.0271 193.875 75.4826 201.372 69.017 199.725C68.9281 199.702 68.8353 199.696 68.7438 199.707C68.6523 199.718 68.5639 199.745 68.4838 199.789C68.3219 199.876 68.2032 200.02 68.1538 200.191C68.1044 200.361 68.1284 200.543 68.2205 200.696C68.3125 200.85 68.4651 200.962 68.6447 201.009V200.955Z" fill="url(#paint15_linear_37001_519)"/>
<path d="M73.1469 206.142C77.2881 207.212 81.0455 204.292 83.9116 201.864C90.332 196.314 95.5676 189.415 100.894 182.956C115.325 165.48 130.051 148.122 148.048 133.758C165.265 119.901 185.609 109.977 207.513 104.753C229.144 99.6301 251.599 98.6034 273.782 98.0366C298.866 97.4056 323.972 97.6408 349.045 96.8601C369.908 96.2184 390.918 94.7211 411.737 96.6462C443.523 99.6622 474.926 105.844 506.904 106.432C529.471 106.849 551.846 105.245 574.312 104.079C586.724 103.438 599.136 103.758 611.549 103.876C621.828 103.972 632.085 103.085 642.353 102.807C684.983 101.684 729.824 104.25 770.13 118.443C792.697 126.389 813.764 138.025 837.098 143.972C856.529 148.924 876.704 148.785 896.518 146.293C917.438 143.651 938.561 139.416 958.432 132.582C975.475 126.566 991.921 119.125 1007.57 110.347C1036.21 94.6034 1062.41 75.3416 1090.6 58.9353C1107.7 48.9675 1133.01 34.604 1152.77 46.7002C1157.4 49.7026 1161.35 53.5449 1164.4 58.0048C1164.92 58.7107 1166.14 58.0048 1165.62 57.331C1160.25 49.9194 1153.08 43.62 1143.6 41.5879C1134.12 39.5558 1124.42 41.8125 1115.6 45.0852C1088.71 55.0958 1065.23 73.3416 1041.45 88.4858C1010.87 107.951 978.72 126.314 943.018 135.919C920.835 141.876 897.24 146.218 874.188 146.667C850.707 147.127 829.369 141.213 807.998 132.421C787.315 123.865 767.241 114.924 745.204 109.962C724.16 105.213 702.54 102.849 680.955 101.833C660.43 100.871 640.119 101.833 619.616 102.464C607.204 102.86 594.883 101.876 582.516 102.357C570.577 102.828 558.673 103.716 546.746 104.304C527.011 105.266 507.253 105.651 487.496 104.218C472.263 103.149 457.188 100.796 442.067 98.7852C424.296 96.4216 406.467 94.2505 388.492 94.3681C364.898 94.5179 341.338 95.8441 317.744 96.0259C293.247 96.2077 268.626 96.197 244.197 98.0579C224.1 99.598 204.049 102.86 185.375 110.272C165.493 118.175 148.285 130.592 133.165 144.977C117.052 160.335 104.166 178.132 89.3165 194.474C85.9314 198.143 79.6125 206.431 73.5193 204.859C73.3451 204.831 73.166 204.865 73.017 204.955C72.8679 205.045 72.7596 205.184 72.7131 205.346C72.6666 205.507 72.6852 205.68 72.7655 205.829C72.8457 205.978 72.9817 206.094 73.1469 206.153V206.142Z" fill="url(#paint16_linear_37001_519)"/>
<path d="M77.6604 211.319C81.4969 212.292 84.9384 209.18 87.4208 206.827C93.4576 201.116 98.3434 194.217 103.365 187.736C117.943 168.945 133.018 150.41 151.659 135.031C168.914 120.711 189.292 110.179 211.338 104.186C233.308 98.2291 256.259 96.3574 279.041 95.2879C304.339 94.1008 329.671 94.0152 354.991 93.8976C375.482 93.812 396.064 93.5767 416.521 94.9029C448.273 96.967 478.13 107.737 509.679 110.764C532.36 112.903 555.029 111.523 577.72 110.4C590.505 109.769 603.244 110.079 616.028 109.78C626.59 109.534 637.117 108.315 647.623 107.748C690.85 105.459 737.283 106.208 778.04 121.651C800.257 130.058 821.369 141.608 844.726 147.127C864.315 151.758 884.682 151.405 904.53 149.02C925.484 146.464 946.46 142.41 966.297 135.448C983.203 129.358 999.498 121.841 1014.99 112.988C1043.67 96.9457 1069.71 77.2453 1097.41 59.7909C1112.66 50.1654 1137.17 33.5773 1156.18 43.5237C1160.55 45.9806 1164.25 49.3677 1167 53.4167C1167.51 54.1226 1168.74 53.4167 1168.22 52.7429C1163.38 46.0799 1156.79 40.7858 1148.12 39.5772C1139.2 38.3366 1130.16 41.2136 1122.17 44.6788C1095.55 56.1439 1072.43 75.0849 1048.55 90.796C1018.28 110.71 986.179 129.191 950.522 138.924C928.262 145.12 905.263 148.617 882.075 149.33C858.876 149.876 837.527 144.795 816.325 136.122C795.36 127.566 775.196 117.758 752.854 112.764C731.269 107.94 708.995 106.079 686.867 105.651C665.823 105.245 644.982 106.593 624.017 108.047C611.334 108.935 598.606 108.143 585.901 108.657C573.647 109.149 561.415 110.015 549.15 110.411C529.042 111.042 508.923 110.186 489.143 106.507C474.835 103.844 460.844 99.8761 446.525 97.2451C428.787 93.9724 410.823 92.9671 392.792 92.6783C369.288 92.2719 345.761 92.5179 322.268 92.7425C278.172 93.181 230.374 92.8388 189.358 110.293C168.788 119.052 151.05 132.336 135.591 147.726C119.692 163.608 106.998 181.726 92.7128 198.859C89.8581 202.282 83.6859 211.372 78.044 209.95C77.8645 209.903 77.6727 209.926 77.5108 210.013C77.3489 210.1 77.2302 210.245 77.1808 210.415C77.1315 210.585 77.1554 210.767 77.2475 210.921C77.3395 211.074 77.4921 211.187 77.6717 211.233L77.6604 211.319Z" fill="url(#paint17_linear_37001_519)"/>
<path d="M82.1626 216.506C85.8749 217.415 89.1472 213.8 91.3137 211.49C97.1248 205.287 101.853 198.143 106.817 191.34C120.821 172.089 135.602 153.341 153.803 137.48C170.78 122.593 190.866 111.25 212.76 104.186C234.549 97.2023 257.534 94.2719 280.395 92.6462C306.042 90.8174 331.781 90.6462 357.485 90.796C378.157 90.9136 399.02 91.1168 419.545 93.5232C452.212 97.3735 481.797 111.908 514.328 116.09C536.896 118.988 559.463 117.769 582.087 116.689C605.478 115.619 628.869 114.978 652.249 113.694C697.384 111.224 744.99 108.347 787.518 125.534C808.855 134.143 829.414 145.191 852.162 150.196C872.755 154.742 894.115 154.143 914.956 151.555C935.425 149.009 955.577 145.02 974.929 138.015C991.749 131.788 1007.94 124.124 1023.29 115.117C1051.5 98.8601 1077.07 79.0956 1103.81 60.8283C1113.68 54.0904 1123.87 47.267 1135.07 42.6467C1142.81 39.4382 1152.12 36.9783 1160.17 40.6253C1164.05 42.531 1167.32 45.3671 1169.67 48.8498C1170.18 49.5557 1171.4 48.8498 1170.89 48.176C1159.9 33.0853 1142.6 37.0104 1127.76 44.5718C1102.21 57.577 1079.98 76.4753 1056.54 92.4751C1026.7 112.796 994.822 131.544 959.391 141.672C936.831 148.063 913.478 151.602 889.94 152.196C866.696 152.763 845.042 148.229 823.727 139.566C802.412 130.903 782.327 120.261 759.659 115.566C738.118 111.106 715.866 110.357 693.886 110.689C646.765 111.384 599.723 115.673 552.603 116.582C532.202 116.978 511.812 115.512 492.032 110.518C477.487 106.86 463.484 101.512 448.973 97.6836C409.04 87.2559 365.756 89.042 324.74 89.5232C280.022 90.058 232.055 91.8976 191.265 111.159C170.864 120.785 153.318 134.689 138.073 150.635C122.513 166.924 110.022 185.255 96.4816 203.041C94.2248 206.057 87.7367 216.506 82.5237 215.244C82.3441 215.197 82.1523 215.22 81.9904 215.307C81.8285 215.394 81.7098 215.539 81.6605 215.709C81.6111 215.879 81.635 216.061 81.7271 216.215C81.8191 216.368 81.9717 216.481 82.1513 216.527L82.1626 216.506Z" fill="url(#paint18_linear_37001_519)"/>
<path d="M86.6648 221.693C90.2417 222.517 93.3221 218.378 95.184 216.153C100.566 209.736 105.035 202.527 109.762 195.64C123.72 175.319 138.739 155.458 157.357 138.667C174.151 123.425 193.984 111.51 215.694 103.619C237.46 95.7799 260.569 91.9403 283.678 89.8334C309.766 87.4484 336.046 87.2452 362.235 87.7478C383.189 88.1436 404.515 88.8709 425.119 92.7853C456.714 98.7852 484.031 116.486 515.84 121.769C537.843 125.427 560.242 124.047 582.414 123.138C606.9 122.133 631.318 120.646 655.758 118.528C701.378 114.582 749.413 110.036 792.618 127.758C814.192 136.614 834.898 147.886 857.973 152.977C878.397 157.469 899.599 157.159 920.316 154.86C941.224 152.539 961.738 148.582 981.417 141.405C998.445 135.069 1014.8 127.223 1030.28 117.972C1058.26 101.512 1083.5 81.5447 1109.4 62.3577C1119.22 55.0851 1129.22 47.6734 1140.22 42.0371C1147.07 38.5505 1155.93 34.7644 1163.78 37.4596C1167.3 38.8003 1170.29 41.1578 1172.31 44.1975C1172.83 44.9033 1174.05 44.1975 1173.53 43.5237C1163.25 29.4276 1146.05 36.8286 1133.65 44.1226C1108.71 58.8177 1086.86 78.1972 1063.35 94.7959C1033.5 115.865 1001.29 134.956 965.383 145.18C942.62 151.54 919.04 154.887 895.311 155.127C872.93 155.385 850.748 151.111 830.249 142.592C808.438 133.715 787.664 122.111 764.194 117.512C742.304 113.234 719.669 113.117 697.429 114.154C675.189 115.191 653.151 117.609 630.99 119.202C605.094 121.052 579.085 122.25 553.133 122.774C533.059 123.181 513.053 121.181 493.984 114.999C479.755 110.379 466.372 103.748 452.302 98.7531C413.553 84.9778 370.179 85.8441 329.411 86.2612C283.577 86.7211 234.933 90.4858 193.916 111.619C173.425 122.175 155.823 136.796 140.623 153.469C125.424 170.143 112.967 189.02 100.002 207.458C98.05 210.228 91.8327 221.468 87.1161 220.367C86.236 220.164 85.8523 221.436 86.7325 221.661L86.6648 221.693Z" fill="url(#paint19_linear_37001_519)"/>
<path d="M91.1783 226.87C94.2587 227.554 96.8201 223.661 98.3208 221.779C103.681 214.891 108.025 207.244 112.73 199.95C126.271 178.945 141.109 158.581 159.49 141.127C175.869 125.425 195.209 112.772 216.506 103.823C238.746 94.582 262.769 89.6516 286.747 86.9992C312.903 84.1222 339.374 83.9083 365.665 84.7853C386.71 85.4805 408.16 86.9244 428.583 92.0152C460.358 99.9938 486.536 120.432 518.797 126.999C541.127 131.544 564.191 130.464 586.86 129.491C611.774 128.421 636.508 126.036 661.231 123.138C684.689 120.379 708.272 117.705 731.946 117.79C743.78 117.692 755.599 118.626 767.252 120.582C779.179 122.721 790.237 126.753 801.261 131.512C822.633 140.71 843.293 151.726 866.47 156.378C887.819 160.656 909.867 160.132 931.419 157.63C951.447 155.309 970.912 151.212 989.643 144.164C1006.52 137.687 1022.71 129.705 1037.99 120.325C1065.97 103.427 1091.03 82.8923 1116.4 62.7535C1125.77 55.2669 1135.18 47.6841 1145.49 41.3633C1151.53 37.6842 1159.7 32.8072 1167.27 34.358C1170.44 35.1039 1173.19 36.986 1174.93 39.6093C1175.45 40.3152 1176.67 39.6093 1176.15 38.9355C1166.5 25.7699 1148.88 37.2243 1138.91 43.9836C1115.4 60.0262 1094.41 79.2774 1071.54 96.058C1041.63 118.058 1008.98 137.769 972.537 148.41C950.499 154.827 926.973 157.79 903.965 158.175C882.069 158.662 860.302 154.868 840.021 147.031C817.216 138.154 795.845 125.127 771.574 120.036C749.3 115.373 726.078 115.822 703.465 117.448C680.548 119.106 657.812 122.357 634.973 124.699C608.89 127.351 582.683 128.754 556.45 128.903C535.948 129.02 515.615 126.379 496.556 119.01C481.888 113.32 468.347 105.288 453.881 99.1167C415.979 82.9565 372.639 82.6142 331.803 83.0741C285.134 83.5447 236.422 89.4056 195.665 112.443C154.085 135.972 128.11 173.811 103.353 211.993C101.74 214.463 95.6353 226.506 91.5168 225.608C90.6366 225.415 90.253 226.677 91.1444 226.891L91.1783 226.87Z" fill="url(#paint20_linear_37001_519)"/>
<path d="M95.6804 232.057C98.6367 232.656 101.085 228.132 102.327 226.313C107.133 219.297 111.173 211.789 115.562 204.538C128.493 183.148 142.914 162.507 160.697 144.453C193.815 110.828 237.009 91.5553 284.694 84.7105C311.774 80.8281 339.341 80.4324 366.636 81.6731C387.906 82.6142 409.514 84.6463 429.915 90.689C461.735 100.111 486.943 122.379 519.056 130.988C541.217 136.924 564.371 136.988 587.187 135.961C612.564 134.817 637.58 131.801 662.664 128.09C686.777 124.528 711.014 120.903 735.466 120.314C747.779 119.868 760.107 120.639 772.251 122.614C784.189 124.753 795.202 128.913 806.192 133.747C827.733 143.223 848.517 154.41 871.931 159.234C893.528 163.683 915.847 163.405 937.704 161.052C976.655 156.881 1012.02 143.437 1044.76 123.202C1072.77 105.908 1097.8 84.8923 1122.52 63.6839C1131.74 55.7803 1140.89 47.6948 1150.81 40.5826C1156.19 36.7323 1163.68 30.957 1170.9 31.342C1172.24 31.4137 1173.54 31.7844 1174.7 32.4239C1175.86 33.0634 1176.84 33.9534 1177.56 35.0211C1178.08 35.7163 1179.3 35.0211 1178.78 34.3473C1170.16 22.6469 1152.6 37.374 1145.17 43.0959C1122.01 60.9246 1100.98 81.0955 1077.69 98.7959C1048.14 121.256 1015.54 141.17 979.115 151.854C956.931 158.368 933.314 161.191 910.126 161.362C887.768 161.675 865.577 157.653 844.918 149.544C822.204 140.539 800.911 127.084 776.595 122.047C754.028 117.363 730.535 118.475 707.764 120.774C656.875 125.929 606.719 137.255 555.153 134.913C534.616 133.983 514.655 129.822 496.195 121.127C482.012 114.454 469.001 105.78 454.886 98.967C417.018 80.6998 372.808 79.2239 331.171 79.8549C283.836 80.5715 235.429 89.1382 195.507 114.443C155.213 139.972 129.689 178.389 106.186 217.533C105.057 219.501 99.3025 231.436 96.0302 230.773C95.1388 230.591 94.7664 231.843 95.6466 232.057H95.6804Z" fill="url(#paint21_linear_37001_519)"/>
<path d="M100.194 237.244C102.868 237.704 105.012 232.966 105.994 231.361C110.62 223.779 114.614 215.854 119.015 208.153C131.574 186.153 145.882 164.945 163.484 146.229C196.466 111.159 240.021 89.3093 288.801 81.641C315.882 77.3629 343.741 77.0635 371.172 78.7961C392.396 80.1437 413.881 83.0741 433.83 90.3254C465.605 101.908 489.685 126.56 522.328 136.368C544.049 142.902 567.034 143.341 589.602 142.346C615.769 141.202 641.371 137.213 667.075 132.657C691.9 128.25 716.961 123.715 742.281 122.742C754.073 122.125 765.9 122.76 777.543 124.635C790.045 126.774 801.555 131.587 812.974 136.785C834.48 146.582 855.299 157.619 878.837 162.453C900.93 166.977 923.768 166.731 946.133 164.367C984.587 160.314 1019.82 146.186 1051.84 125.951C1079.91 108.175 1104.87 86.5607 1129.03 64.3042C1137.91 56.1118 1146.66 47.7376 1155.94 39.9409C1160.96 35.7377 1167.59 29.3313 1174.57 28.3367C1175.63 28.1161 1176.73 28.2021 1177.74 28.5836C1178.75 28.965 1179.61 29.6242 1180.21 30.4757C1180.73 31.1709 1181.95 30.4757 1181.43 29.8019C1173.86 19.6095 1155.55 38.358 1150.39 42.9034C1128.32 62.2722 1107.51 82.8709 1084.38 101.117C1055.18 124.1 1022.61 144.314 986.212 155.223C964.254 161.801 941.078 164.549 918.036 164.699C895.762 164.838 873.906 161.416 853.223 153.491C829.527 144.41 807.637 129.715 782.519 124.25C759.861 119.32 735.962 121.042 713.147 123.951C661.58 130.475 611.199 144.057 558.662 141.063C537.776 139.876 517.657 135.095 499.332 125.416C485.261 117.983 472.624 108.411 458.846 100.539C422.095 79.5768 378.811 76.2613 336.802 76.5822C287.74 76.9565 238.464 87.3308 198.091 114.796C158.339 141.822 132.352 181.041 110.078 221.479C109.243 222.998 103.229 236.452 100.657 235.95C99.7651 235.8 99.3927 237.083 100.284 237.244H100.194Z" fill="url(#paint22_linear_37001_519)"/>
<path d="M104.888 242.506C107.303 242.805 109.593 236.666 110.304 235.319C114.671 227.019 118.744 218.592 123.235 210.346C135.546 187.693 149.899 165.929 167.512 146.614C200.63 110.25 244.794 86.2506 294.793 78.1651C322.077 73.7694 350.365 73.6731 377.874 76.2293C399.618 78.2506 421.35 82.5501 441.063 91.7799C471.71 106.143 494.412 132.132 527.417 142.443C549.59 149.384 573.308 149.79 596.406 148.539C621.715 147.18 646.393 142.314 671.104 137.213C696.402 131.993 721.88 126.518 747.833 125.106C759.516 124.273 771.263 124.794 782.812 126.657C795.224 128.86 806.598 133.822 817.792 139.063C838.994 148.945 859.542 159.961 882.707 165.127C905.872 170.293 929.929 170.282 953.467 167.854C991.832 163.886 1027.34 149.084 1059 128.485C1086.77 110.432 1111.39 88.4858 1134.6 65.5021C1143.48 56.7214 1152.13 47.7269 1161.11 39.0318C1165.93 34.3794 1171.51 27.9089 1178.04 25.3742C1179.68 24.7325 1181.53 24.3046 1182.72 25.8875C1183.25 26.5827 1184.47 25.8875 1183.94 25.2137C1177.76 17.0106 1158.55 39.5558 1155.3 42.7964C1134.22 63.7374 1113.55 84.9672 1090.32 103.833C1061.11 127.555 1028.14 148.196 991.177 159.138C947.351 172.111 896.902 172.228 854.487 154.731C831.829 145.384 810.48 130.999 786.04 125.929C763.788 121.32 740.352 123.63 718.1 126.999C665.958 134.892 615.419 150.902 561.889 147.266C540.879 145.833 520.726 140.528 502.683 130.154C488.477 121.951 476.031 111.405 462.412 102.422C426.304 78.6036 383.268 73.2453 340.164 73.3951C289.952 73.5769 240.631 85.8656 200.404 115.106C160.528 144.111 134.135 185.159 112.651 227.607C111.952 228.998 106.919 241.372 104.888 241.115C103.985 240.998 103.997 242.335 104.888 242.452V242.506Z" fill="url(#paint23_linear_37001_519)"/>
<path d="M109.39 247.629C111.647 247.714 113.531 241.276 114.152 239.928C118.191 231.19 122.208 222.442 126.564 213.864C138.671 190.335 153.103 167.662 170.819 147.491C203.541 110.208 247.345 83.7907 297.986 75.0207C325.958 70.1758 355.363 70.2614 383.516 73.7694C404.786 76.4218 425.683 81.8335 444.392 91.9511C474.677 108.379 496.365 136.132 529.787 147.715C576.953 164.057 629.399 152.357 676.26 141.362C701.66 135.394 727.342 129.159 753.52 127.298C764.917 126.496 776.516 126.518 787.777 128.55C800.72 130.881 812.68 136.485 824.336 142.111C845.46 152.303 866.086 163.223 889.308 168.432C912.936 173.715 937.568 173.833 961.591 171.276C999.516 167.244 1034.83 151.844 1065.82 131.181C1093.67 112.603 1118.24 89.9832 1140.9 65.9406C1149.52 56.8177 1157.83 47.4381 1166.22 38.1334C1171.03 32.7858 1175.88 26.3688 1181.95 22.2298C1182.62 21.7699 1184.6 20.2191 1185.34 21.2351C1185.87 21.9196 1187.1 21.2352 1186.55 20.5614C1182.23 14.9571 1162.51 40.1654 1160.46 42.4649C1140.51 64.7534 1119.98 86.5928 1096.87 106.026C1068.01 130.293 1035.08 151.277 998.083 162.474C954.201 175.747 903.604 175.533 861.099 158.047C837.809 148.475 815.964 133.159 790.982 127.812C768.55 123.02 744.719 126.047 722.422 130.015C669.739 139.416 618.838 157.822 564.349 153.33C542.91 151.576 522.509 145.384 504.613 133.908C490.192 124.678 477.803 112.988 464.059 102.892C449.141 91.8093 432.168 83.4666 414.016 78.2934C391.246 71.8764 367.2 70.0796 343.549 70.0368C292.107 69.9299 242.752 84.2078 202.684 115.309C162.931 146.303 136.099 189.03 115.72 233.19C115.134 234.442 110.552 246.335 109.39 246.292C108.487 246.292 108.487 247.597 109.39 247.629Z" fill="url(#paint24_linear_37001_519)"/>
<path d="M114.084 252.794C115.901 252.431 117.469 245.853 117.955 244.677C121.735 235.34 125.763 226.099 130.197 217.019C142.056 192.677 156.5 169.298 174.215 148.389C206.938 109.63 251.159 80.5929 303.222 71.5662C331.205 66.7107 360.994 67.0422 389.034 71.5662C410.033 74.9352 430.276 81.5661 448.138 92.689C478.085 111.32 498.982 140.817 533.172 153.501C581.161 171.266 633.823 158.068 681.214 145.64C706.726 138.945 732.544 131.919 759.004 129.598C770.739 128.582 782.7 128.528 794.333 130.86C807.23 133.416 819.293 139.512 830.926 145.309C851.981 155.811 872.676 166.635 895.965 171.918C919.593 177.266 944.35 177.619 968.395 174.988C1006.66 170.817 1042.25 154.956 1073.2 133.705C1101.23 114.453 1125.79 90.9885 1147.86 65.8123C1156.03 56.4968 1163.85 46.9247 1171.49 37.2136C1176.2 31.2243 1180.63 24.9036 1185.8 19.2459C1186.42 18.5614 1188.25 16.8929 1188.2 16.8288C1188.77 17.5025 1189.76 16.5507 1189.19 15.8876C1187.52 13.8876 1182.9 20.5186 1182.28 21.2351C1176.64 28.1762 1171.22 35.3526 1165.62 42.3579C1146.44 66.3577 1125.67 89.2773 1102.15 109.555C1073.29 134.485 1039.98 155.726 1002.44 166.763C958.048 179.833 907.655 178.528 865.104 160.432C841.409 150.357 819.033 134.047 793.25 129.234C770.524 124.956 746.535 128.935 724.239 133.64C671.002 144.87 619.165 165.726 563.548 159.17C542.486 156.809 522.466 149.183 505.538 137.074C491.321 126.892 479.225 114.379 465.639 103.502C450.812 91.6088 434.237 82.1757 415.754 76.3469C393.344 69.2668 369.491 67.0315 345.942 66.9031C317.924 66.7427 290.155 70.8389 264.101 80.8068C241.543 89.607 220.764 102.044 202.684 117.566C164.466 150.1 137.814 193.447 119.049 238.345C118.304 240.11 114.773 251.286 113.712 251.5C112.651 251.714 113.204 252.966 114.084 252.794Z" fill="url(#paint25_linear_37001_519)"/>
<path d="M119.083 257.479C123.991 240.655 131.393 224.324 139.393 208.581C156.488 174.784 178.886 142.806 207.897 117.149C243.756 85.4056 289.5 66.0368 338.957 65.0529C366.342 64.5074 394.518 67.0315 420.2 76.6998C438.253 83.534 454.051 94.1114 468.268 106.732C480.342 117.502 491.264 129.416 503.846 139.672C517.025 150.432 532.055 158.71 548.822 163.202C602.002 177.426 654.438 158.271 705.056 144.196C732.453 136.582 762.22 128.282 791.072 131.362C814.181 133.876 834.672 147.405 854.78 157.448C876.839 168.506 899.915 176.485 924.852 179.052C954.526 182.228 984.573 179.28 1012.93 170.41C1059.94 155.351 1099.94 124.742 1132.79 90.197C1154.45 67.5387 1173.46 42.7324 1189.51 16.2084C1190.32 14.8502 1191.14 13.4812 1191.91 12.1015C1192.33 11.3422 1191.11 10.6577 1190.7 11.4277C1179.59 31.3741 1165.51 50.1653 1150.81 67.8336C1120.75 103.972 1084.37 137.009 1040.71 157.908C989.124 182.603 925.924 186.784 872.586 164.325C852.275 155.769 833.736 143.929 813.245 135.779C789.222 126.218 763.066 129.309 738.276 134.528C708.159 140.902 679.07 150.86 649.259 158.507C623.024 165.244 596.225 168.72 569.054 165.629C549.33 163.383 530.622 157.009 514.464 145.983C500.855 136.699 489.527 124.903 477.746 113.683C465.334 101.79 451.997 90.6355 436.426 82.5287C416.115 71.9298 393.389 66.7106 370.461 64.7107C343.29 62.347 315.622 63.5663 289.309 70.7641C267.215 76.9013 246.433 86.6759 227.914 99.6408C194.684 122.721 168.765 154.25 148.928 188.185C136.547 209.001 126.451 230.966 118.801 253.736C118.428 254.869 118.056 256.003 117.672 257.158C117.623 257.328 117.647 257.51 117.739 257.663C117.831 257.817 117.984 257.929 118.163 257.976C118.343 258.023 118.535 258 118.696 257.913C118.858 257.826 118.977 257.681 119.026 257.511L119.083 257.479Z" fill="url(#paint26_linear_37001_519)"/>
</g>
<defs>
<linearGradient id="paint0_linear_37001_519" x1="911.057" y1="62.7947" x2="211.357" y2="48.1332" gradientUnits="userSpaceOnUse">
<stop stop-color="white"/>
<stop offset="1" stop-color="white" stop-opacity="0"/>
</linearGradient>
<linearGradient id="paint1_linear_37001_519" x1="914.151" y1="65.2664" x2="215.665" y2="49.6401" gradientUnits="userSpaceOnUse">
<stop stop-color="white"/>
<stop offset="1" stop-color="white" stop-opacity="0"/>
</linearGradient>
<linearGradient id="paint2_linear_37001_519" x1="917.053" y1="67.5727" x2="219.811" y2="50.8581" gradientUnits="userSpaceOnUse">
<stop stop-color="white"/>
<stop offset="1" stop-color="white" stop-opacity="0"/>
</linearGradient>
<linearGradient id="paint3_linear_37001_519" x1="920.069" y1="70.4812" x2="224.044" y2="52.6772" gradientUnits="userSpaceOnUse">
<stop stop-color="white"/>
<stop offset="1" stop-color="white" stop-opacity="0"/>
</linearGradient>
<linearGradient id="paint4_linear_37001_519" x1="923.042" y1="76.2508" x2="228.184" y2="58.2941" gradientUnits="userSpaceOnUse">
<stop stop-color="white"/>
<stop offset="1" stop-color="white" stop-opacity="0"/>
</linearGradient>
<linearGradient id="paint5_linear_37001_519" x1="926.017" y1="82.054" x2="232.357" y2="63.9426" gradientUnits="userSpaceOnUse">
<stop stop-color="white"/>
<stop offset="1" stop-color="white" stop-opacity="0"/>
</linearGradient>
<linearGradient id="paint6_linear_37001_519" x1="929.006" y1="87.8926" x2="236.539" y2="69.6206" gradientUnits="userSpaceOnUse">
<stop stop-color="white"/>
<stop offset="1" stop-color="white" stop-opacity="0"/>
</linearGradient>
<linearGradient id="paint7_linear_37001_519" x1="932.106" y1="91.7846" x2="240.69" y2="73.8692" gradientUnits="userSpaceOnUse">
<stop stop-color="white"/>
<stop offset="1" stop-color="white" stop-opacity="0"/>
</linearGradient>
<linearGradient id="paint8_linear_37001_519" x1="934.97" y1="94.4087" x2="244.763" y2="77.161" gradientUnits="userSpaceOnUse">
<stop stop-color="white"/>
<stop offset="1" stop-color="white" stop-opacity="0"/>
</linearGradient>
<linearGradient id="paint9_linear_37001_519" x1="938.04" y1="97.0064" x2="248.92" y2="80.3895" gradientUnits="userSpaceOnUse">
<stop stop-color="white"/>
<stop offset="1" stop-color="white" stop-opacity="0"/>
</linearGradient>
<linearGradient id="paint10_linear_37001_519" x1="940.956" y1="99.4245" x2="253.097" y2="83.4427" gradientUnits="userSpaceOnUse">
<stop stop-color="white"/>
<stop offset="1" stop-color="white" stop-opacity="0"/>
</linearGradient>
<linearGradient id="paint11_linear_37001_519" x1="943.931" y1="101.746" x2="257.132" y2="86.3693" gradientUnits="userSpaceOnUse">
<stop stop-color="white"/>
<stop offset="1" stop-color="white" stop-opacity="0"/>
</linearGradient>
<linearGradient id="paint12_linear_37001_519" x1="946.896" y1="103.805" x2="261.256" y2="89.04" gradientUnits="userSpaceOnUse">
<stop stop-color="white"/>
<stop offset="1" stop-color="white" stop-opacity="0"/>
</linearGradient>
<linearGradient id="paint13_linear_37001_519" x1="949.856" y1="105.752" x2="265.391" y2="91.5837" gradientUnits="userSpaceOnUse">
<stop stop-color="white"/>
<stop offset="1" stop-color="white" stop-opacity="0"/>
</linearGradient>
<linearGradient id="paint14_linear_37001_519" x1="952.89" y1="107.594" x2="269.525" y2="93.9936" gradientUnits="userSpaceOnUse">
<stop stop-color="white"/>
<stop offset="1" stop-color="white" stop-opacity="0"/>
</linearGradient>
<linearGradient id="paint15_linear_37001_519" x1="955.824" y1="109.205" x2="273.649" y2="96.17" gradientUnits="userSpaceOnUse">
<stop stop-color="white"/>
<stop offset="1" stop-color="white" stop-opacity="0"/>
</linearGradient>
<linearGradient id="paint16_linear_37001_519" x1="958.819" y1="110.641" x2="277.826" y2="98.1532" gradientUnits="userSpaceOnUse">
<stop stop-color="white"/>
<stop offset="1" stop-color="white" stop-opacity="0"/>
</linearGradient>
<linearGradient id="paint17_linear_37001_519" x1="961.768" y1="111.92" x2="281.924" y2="99.9563" gradientUnits="userSpaceOnUse">
<stop stop-color="white"/>
<stop offset="1" stop-color="white" stop-opacity="0"/>
</linearGradient>
<linearGradient id="paint18_linear_37001_519" x1="964.781" y1="113.279" x2="286.048" y2="101.792" gradientUnits="userSpaceOnUse">
<stop stop-color="white"/>
<stop offset="1" stop-color="white" stop-opacity="0"/>
</linearGradient>
<linearGradient id="paint19_linear_37001_519" x1="967.796" y1="114.097" x2="290.264" y2="103.111" gradientUnits="userSpaceOnUse">
<stop stop-color="white"/>
<stop offset="1" stop-color="white" stop-opacity="0"/>
</linearGradient>
<linearGradient id="paint20_linear_37001_519" x1="970.751" y1="114.739" x2="294.318" y2="104.229" gradientUnits="userSpaceOnUse">
<stop stop-color="white"/>
<stop offset="1" stop-color="white" stop-opacity="0"/>
</linearGradient>
<linearGradient id="paint21_linear_37001_519" x1="973.736" y1="115.217" x2="298.46" y2="105.162" gradientUnits="userSpaceOnUse">
<stop stop-color="white"/>
<stop offset="1" stop-color="white" stop-opacity="0"/>
</linearGradient>
<linearGradient id="paint22_linear_37001_519" x1="976.762" y1="115.578" x2="302.706" y2="105.955" gradientUnits="userSpaceOnUse">
<stop stop-color="white"/>
<stop offset="1" stop-color="white" stop-opacity="0"/>
</linearGradient>
<linearGradient id="paint23_linear_37001_519" x1="979.638" y1="115.834" x2="306.774" y2="106.622" gradientUnits="userSpaceOnUse">
<stop stop-color="white"/>
<stop offset="1" stop-color="white" stop-opacity="0"/>
</linearGradient>
<linearGradient id="paint24_linear_37001_519" x1="982.615" y1="115.864" x2="310.91" y2="107.038" gradientUnits="userSpaceOnUse">
<stop stop-color="white"/>
<stop offset="1" stop-color="white" stop-opacity="0"/>
</linearGradient>
<linearGradient id="paint25_linear_37001_519" x1="985.618" y1="115.599" x2="314.991" y2="107.151" gradientUnits="userSpaceOnUse">
<stop stop-color="white"/>
<stop offset="1" stop-color="white" stop-opacity="0"/>
</linearGradient>
<linearGradient id="paint26_linear_37001_519" x1="988.611" y1="115.23" x2="319.147" y2="107.139" gradientUnits="userSpaceOnUse">
<stop stop-color="white"/>
<stop offset="1" stop-color="white" stop-opacity="0"/>
</linearGradient>
</defs>
</svg>
