<svg width="1125" height="360" viewBox="0 0 1125 360" fill="none" xmlns="http://www.w3.org/2000/svg">
<g opacity="0.13">
<path d="M1.50123 219.221C30.0408 227.919 58.5336 215.374 83.7272 203.365C97.8105 196.675 112.115 189.917 127.621 186.84C142.223 184.024 157.343 184.924 171.468 189.449C196.999 197.399 218.462 213.702 241.534 226.246C264.606 238.791 289.671 246.139 316.485 245.994C342.308 245.849 368.505 239.46 390.504 226.347C409.74 214.884 424.639 198.269 438 181.019C451.99 163.022 464.476 143.854 480.622 127.495C497.375 110.546 517.731 98.682 541.828 94.2328C556.122 91.6013 571.382 91.3671 585.396 95.504C595.888 98.6039 603.956 104.715 612.548 110.937C628.182 122.266 644.095 133.238 660.347 143.753C697.793 167.917 738.364 192.192 782.386 203.51C798.614 207.68 814.901 209.085 831.479 206.075C845.912 203.421 859.692 198.147 872.726 191.724C899.762 178.343 923.719 160.201 949.671 145.203C974.375 130.952 1002.2 119.344 1031.7 123.359C1073.26 129.001 1106.14 160.937 1131.39 190.553C1141.58 202.495 1151.02 214.973 1160.04 227.718C1160.57 228.465 1161.84 227.718 1161.3 227.016C1145.08 204.112 1127.49 181.8 1106.7 162.453C1092.57 149.284 1076.69 137.252 1058.57 129.514C1031.85 118.073 1003.53 119.355 976.846 130.105C948.96 141.334 924.78 159.409 899.517 174.998C874.253 190.586 845.236 206.153 814.131 206.51C793.939 206.744 773.852 200.41 755.385 193.129C733.153 184.386 711.97 173.236 691.474 161.26C672.157 149.987 653.41 137.843 635.072 125.176C627.727 120.106 620.444 114.951 613.224 109.71C605.53 104.135 598.173 98.4255 588.998 95.2141C565.856 87.0629 537.981 90.8765 515.994 100.566C495.65 109.487 479.748 124.897 466.12 141.557C451.826 159.041 439.574 177.997 424.628 195.013C407.7 214.282 387.321 229.413 362.116 237.442C334.781 246.124 305.375 246.9 277.581 239.672C250.639 232.513 228.232 216.255 204.496 202.874C182.718 190.609 158.83 180.986 133.019 184.431C102.707 188.479 77.8748 207.335 49.207 216.032C33.7714 220.716 17.4964 222.567 1.83932 217.783C0.941635 217.515 0.556911 218.898 1.44294 219.132L1.50123 219.221Z" fill="url(#paint0_linear_37001_205)"/>
<path d="M6.16465 224.629C30.4489 231.978 55.5725 221.931 76.9888 211.249C100.818 199.384 125.056 185.747 152.896 187.118C177.04 188.323 198.608 199.908 219.034 211.282C239.459 222.656 260.176 234.331 283.702 239.259C330.522 249.161 381.632 237.91 416.828 206.231C445.286 180.584 463.275 145.649 494.216 122.355C513.577 107.889 537.276 99.7407 561.834 99.1057C576.022 98.7154 590.689 101.135 602.941 108.294C610.426 112.676 617.456 117.906 624.684 122.656C664.789 148.961 706.397 174.34 751.025 193.073C773.293 202.406 798.183 211.382 822.922 209.866C847.661 208.349 870.791 198.358 892.044 186.728C919.488 171.697 944.903 153.276 973.197 139.605C996.829 128.22 1023 121.329 1049.37 127.25C1086.06 135.479 1114.94 163.401 1137.84 190.441C1146.71 200.912 1154.97 211.851 1162.88 223.001C1163.4 223.749 1164.66 223.001 1164.14 222.299C1140.48 188.947 1112.36 153.61 1074.1 134.665C1050.99 123.028 1024 120.622 999.032 127.975C929.164 148.046 874.288 222.477 795.175 206.03C768.198 200.455 742.713 188.613 718.429 176.28C695.94 164.862 674.127 152.194 652.792 138.925C636.249 128.644 620.511 116.846 603.676 107.067C582.493 94.8015 555.341 95.9166 532.28 102.161C492.642 112.888 468.859 143.842 444.843 173.526C432.299 189.025 419.02 204.291 402.43 215.999C380.932 231.186 354.456 239.203 327.934 240.91C300.261 242.69 272.603 237.236 247.923 225.131C227.346 215.174 208.378 202.239 187.055 193.708C165.732 185.178 143.488 183.171 121.267 189.94C95.5488 197.745 73.7012 213.958 47.9713 221.753C34.4593 225.845 20.3062 227.406 6.60766 223.258C5.70998 222.99 5.32525 224.373 6.22294 224.607L6.16465 224.629Z" fill="url(#paint1_linear_37001_205)"/>
<path d="M10.8163 230.026C34.1329 237.04 58.114 226.135 78.2013 215.531C101.39 203.265 124.974 189.059 152.371 188.836C176.224 188.646 197.99 198.804 218.567 209.286C239.144 219.768 259.884 230.84 283.073 235.724C329.135 245.403 380.361 236.126 416.735 206.733C446.067 183.004 465.012 149.351 496.315 127.674C515.879 114.29 539.126 106.701 563.163 105.852C576.745 105.328 590.63 107.223 602.871 113.1C610.916 116.958 618.389 122.232 626.002 126.838C665.64 150.812 706.281 173.949 749.113 192.426C771.264 202.005 795.35 211.382 820.031 212.085C844.315 212.754 867.83 203.934 889.059 193.441C918.811 178.711 946.045 159.833 975.681 144.946C999.627 132.859 1026.3 123.938 1053.64 128.399C1089.54 134.32 1118.1 160.178 1140.49 186.015C1149.42 196.307 1157.66 207.123 1165.5 218.184C1166.03 218.92 1167.28 218.184 1166.76 217.482C1143.96 185.345 1116.29 151.102 1078.41 134.431C1053.93 123.671 1027.58 123.693 1002.39 132.034C976.287 140.665 953.005 155.606 929.63 169.344C909.811 180.986 889.747 192.761 868.133 201.113C855.965 205.987 843.104 209.091 829.975 210.323C817.279 211.36 804.7 209.509 792.447 206.365C766.472 199.674 741.838 188.155 718.032 176.369C695.881 165.386 674.209 153.477 652.874 141.088C644.099 135.989 635.375 130.815 626.701 125.566C619.345 121.106 612.14 116.077 604.422 112.186C582.516 101.28 555.784 102.83 532.677 109.097C494.041 119.679 470.025 148.47 445.135 176.581C432.311 191.077 418.729 204.993 402.104 215.486C380.07 229.402 353.617 236.394 327.397 237.687C299.913 239.028 272.52 233.72 247.748 222.254C227.334 212.932 208.18 200.957 186.845 193.575C164.927 185.981 142.543 185.613 120.579 193.419C96.0035 202.172 75.0419 218.151 50.2797 226.447C37.6187 230.684 24.2234 232.602 11.201 228.677C10.315 228.41 9.93028 229.792 10.8163 230.015V230.026Z" fill="url(#paint2_linear_37001_205)"/>
<path d="M15.4796 235.446C37.7237 242.136 60.6322 230.428 79.3671 219.924C101.681 207.413 124.24 192.883 150.751 190.843C174.592 188.969 196.894 197.723 217.926 207.424C238.958 217.125 259.523 227.495 282.455 232.245C327.502 241.545 378.286 234.253 415.686 207.613C445.543 186.349 465.432 154.848 496.058 134.487C515.101 122.005 537.235 114.523 560.249 112.788C573.866 111.673 587.786 112.687 600.668 117.304C609.703 120.56 617.922 125.856 626.246 130.473C666.223 152.629 706.759 174.15 748.857 192.382C770.471 201.748 793.158 211.07 816.965 213.568C840.106 216.032 862.98 209.554 883.883 200.555C916.806 186.371 946.523 166.679 978.176 150.265C1002.01 137.899 1028.41 127.239 1056.11 129.525C1092.53 132.536 1121.88 157.279 1144.41 182.915C1152.9 192.677 1160.85 202.849 1168.25 213.389C1168.78 214.125 1170.04 213.389 1169.51 212.687C1147.62 181.844 1120.55 149.072 1083.4 134.52C1058.07 124.607 1031.17 126.86 1006.05 136.137C979.236 146.039 955.139 161.606 930.4 175.377C909.287 187.13 887.579 199.083 864.309 206.443C852.184 210.278 839.442 212.799 826.629 212.732C814.446 212.676 802.38 210.067 790.792 206.643C765.33 199.139 741.034 187.743 717.263 176.347C695.998 166.155 675.06 155.328 654.308 144.177C645.393 139.404 636.494 134.554 627.61 129.625C620.102 125.466 612.688 120.705 604.714 117.359C582.108 107.948 555.749 109.911 532.595 116.244C514.445 121.368 497.659 130.164 483.374 142.036C469.384 153.499 457.434 167.047 444.902 179.893C431.331 193.764 416.7 206.799 399.259 216.088C376.969 227.952 351.25 233.595 325.882 234.386C298.901 235.165 272.092 230.019 247.515 219.344C226.985 210.58 207.399 199.373 185.726 193.24C163.575 186.951 141.424 188.378 120.066 196.987C96.5748 206.465 76.5225 222.344 52.7046 231.097C40.8714 235.457 28.2221 237.72 15.8877 234.018C14.99 233.751 14.6052 235.133 15.5029 235.368L15.4796 235.446Z" fill="url(#paint3_linear_37001_205)"/>
<path d="M20.1313 240.843C42.0023 247.321 64.4328 234.152 82.305 223.403C103.162 210.892 124.275 196.931 149.095 193.151C173.053 189.505 196.125 196.953 217.879 205.919C239.167 214.705 260.024 224.473 282.898 228.956C326.884 237.564 376.456 231.766 414.532 208.138C445.205 189.114 466.294 159.309 496.956 140.341C516.145 128.701 537.958 121.603 560.587 119.634C573.912 118.385 587.459 118.965 600.318 122.712C609.948 125.522 618.645 130.517 627.505 134.978C666.806 154.792 706.374 174.228 746.875 191.724C769.026 201.302 792.086 211.728 816.323 215.33C838.579 218.675 861.324 213.289 881.994 205.573C916.608 192.649 947.794 173.236 980.122 156.119C1004.6 143.106 1031.56 130.618 1060.27 131.198C1095.81 131.922 1124.91 154.023 1147.19 178.666C1155.71 188.224 1163.65 198.247 1170.96 208.684C1171.48 209.42 1172.75 208.684 1172.22 207.981C1151.02 178.142 1124.2 146.396 1087.19 134.387C1061.18 125.912 1034.21 130.584 1009.47 140.598C981.661 151.815 956.503 168.095 930.062 181.844C907.818 193.419 884.757 204.826 860.112 210.836C848.302 213.735 835.862 215.575 823.656 214.672C811.45 213.769 799.547 210.435 788.087 206.532C763.674 198.236 740.113 187.397 716.785 176.67C695.8 167.025 675.001 156.989 654.331 146.742C645.595 142.423 636.883 138.066 628.193 133.673C620.697 129.893 613.294 125.678 605.343 122.834C582.609 114.717 557.019 116.891 534.041 122.924C515.972 127.747 499.1 135.991 484.423 147.165C470.433 157.714 458.274 170.27 445.449 182.078C431.086 195.303 415.627 207.379 397.604 215.653C375.173 225.945 350.05 230.651 325.322 231.142C299.501 231.628 273.848 227.075 249.928 217.761C228.605 209.565 208.121 198.726 185.644 193.586C165.027 188.836 143.347 190.745 123.983 199.016C100.667 208.695 81.0459 224.83 57.9158 234.855C46.1293 239.906 33.2236 243.251 20.516 239.493C19.6183 239.226 19.2336 240.608 20.1313 240.843Z" fill="url(#paint4_linear_37001_205)"/>
<path d="M24.783 246.24C45.9428 252.462 67.6389 238.1 84.3685 227.439C104.013 214.917 123.785 201.224 147.16 195.927C194.644 185.189 237.325 217.058 282.257 225.544C325.497 233.717 374.031 229.246 412.829 208.506C443.992 191.88 466.318 164.337 496.664 146.708C515.492 135.769 536.85 129.313 558.686 126.737C571.709 125.198 585.011 125.154 597.87 127.852C608.071 130.027 617.293 134.32 626.666 138.579C665.815 156.42 705.045 174.117 744.695 190.988C766.251 200.142 788.052 210.156 811.042 215.519C832.528 220.548 854.178 217.984 875.104 211.784C912.189 200.8 945.905 181.353 979.481 163.178C1005.05 149.34 1032.61 134.721 1062.57 132.937C1098.07 130.83 1127.67 150.421 1150.35 174.841C1158.76 184.015 1166.55 193.699 1173.66 203.833C1174.19 204.569 1175.45 203.833 1174.92 203.131C1154.32 174.139 1127.52 143.385 1090.5 134.086C1063.49 127.284 1036.18 134.598 1011.52 145.526C982.722 158.283 956.27 175.343 927.858 188.858C904.74 199.864 880.817 210.669 855.204 215.051C842.823 217.181 830.36 217.749 817.956 215.508C806.064 213.367 794.581 209.498 783.365 205.261C738.994 188.535 695.823 168.374 652.711 148.871C636.622 141.59 620.301 132.279 603.105 127.685C580.511 121.63 555.993 124.206 533.644 130.06C515.594 134.836 498.627 142.776 483.607 153.477C470.013 163.077 457.9 174.384 445.076 184.866C429.792 197.332 413.203 208.283 394.456 215.386C372.049 223.938 347.695 227.651 323.643 227.819C298.093 227.845 272.751 223.409 248.867 214.728C227.964 207.312 207.538 197.756 185.446 193.931C163.925 190.207 143.091 193.664 123.529 202.763C101.541 212.999 82.9929 228.666 61.2035 239.159C50.0582 244.533 37.5721 248.548 25.191 244.901C24.2933 244.634 23.9086 246.017 24.7946 246.24H24.783Z" fill="url(#paint5_linear_37001_205)"/>
<path d="M29.4463 251.648C48.8923 257.335 68.8163 243.374 83.8322 233.316C103.267 220.314 122.398 205.952 145.365 199.083C192.254 185.044 235.798 213.713 280.694 222.065C323.235 229.937 370.65 226.715 410.195 209.007C441.672 194.891 465.245 170.125 495.125 153.655C513.592 143.486 534.087 137.264 555.119 134.208C568.724 132.246 582.656 131.554 596.273 133.662C607.162 135.334 617.095 139.081 627.167 143.196C666.293 159.126 705.383 175.131 744.438 191.211C765.54 199.875 786.548 209.364 808.64 215.542C829.005 221.431 850.655 221.952 871.304 217.047C894.014 211.717 915.605 201.938 936.59 192.248C951.466 185.267 965.829 177.462 980.192 169.712C1006.76 155.328 1034.65 139.271 1065.4 135.145C1100.62 130.428 1130.69 147.099 1153.87 171.362C1162.05 180.082 1169.57 189.346 1176.38 199.083C1176.9 199.819 1178.16 199.083 1177.64 198.381C1157.68 170.325 1131.13 141.033 1094.51 134.309C1066.35 129.124 1038.47 138.947 1013.58 150.789C982.967 165.363 954.124 183.015 923.055 196.708C899.738 206.956 875.442 217.192 849.608 219.01C825.941 220.626 803.336 213.245 781.686 204.87C738.551 188.144 696.138 169.857 653.387 152.384C636.692 145.56 619.659 136.884 601.822 133.238C579.228 128.611 555.189 131.51 533.131 137.197C515.074 141.885 497.976 149.459 482.558 159.598C468.836 168.519 456.327 179.079 442.92 188.479C427.018 199.63 409.798 208.862 391.005 214.761C368.458 221.842 344.512 224.797 320.822 224.485C295.664 224.195 271.449 219.601 247.678 211.907C227.113 205.216 206.734 197.009 185.015 194.478C162.864 191.891 141.774 197.043 122.34 207.223C101.39 218.14 83.669 233.807 62.5908 244.522C52.5414 249.629 41.1745 253.621 29.831 250.299C29.651 250.269 29.466 250.305 29.312 250.398C29.158 250.492 29.046 250.638 28.998 250.806C28.9499 250.975 28.9692 251.154 29.0521 251.31C29.135 251.465 29.2755 251.586 29.4463 251.648Z" fill="url(#paint6_linear_37001_205)"/>
<path d="M34.0979 257.056C52.5764 262.419 71.5094 247.845 85.2895 238.1C104.083 224.719 122.48 210.223 144.63 202.272C190.517 185.725 234.399 210.635 279.097 218.597C322.233 226.28 370.032 223.738 410.836 207.58C441.975 195.259 466.644 173.292 496.385 158.718C515.189 149.496 535.661 143.921 556.518 140.943C569.47 139.092 582.726 138.278 595.772 139.773C606.87 141.033 617.235 144.233 627.645 147.957C666.666 162.052 705.604 176.347 744.228 191.534C766.298 200.221 788.052 210.178 810.879 216.958C830.966 222.924 851.007 224.407 871.689 220.381C894.352 215.921 915.85 206.833 936.882 197.901C952.609 191.211 967.73 183.316 982.734 175.265C1010.34 160.457 1038.69 143.318 1070.17 137.353C1084.41 134.654 1099.13 134.855 1113.02 139.103C1130.28 144.4 1144.97 155.261 1157.32 167.739C1165.35 176.037 1172.68 184.929 1179.25 194.333C1179.77 195.069 1181.03 194.333 1180.51 193.631C1161.36 166.757 1135.55 139.538 1100.06 134.866C1070.81 131.019 1042.31 143.006 1017 155.64C985.159 171.53 954.754 189.271 921.633 202.763C899.365 211.817 876.049 220.47 851.59 221.407C828.017 222.299 805.574 214.427 784.1 205.997C741.838 189.404 699.705 172.689 657.024 157.09C639.245 150.589 621.14 142.438 602.312 139.248C579.602 135.424 555.737 138.524 533.528 143.932C515.929 148.208 499.087 154.949 483.549 163.936C469.559 171.987 456.735 181.521 442.931 189.862C405.974 212.286 363.655 221.842 320.053 221.084C294.906 220.626 270.692 216.211 246.675 209.286C225.924 203.298 205.079 196.106 183.231 195.091C161.383 194.077 140.795 200.611 122.141 211.338C101.903 222.924 84.7416 238.891 64.1997 249.942C55.1762 254.792 44.8469 258.728 34.4943 255.718C34.3123 255.682 34.1229 255.713 33.9641 255.806C33.8054 255.898 33.6892 256.045 33.6389 256.216C33.5887 256.387 33.6081 256.57 33.6932 256.728C33.7784 256.886 33.923 257.007 34.0979 257.067V257.056Z" fill="url(#paint7_linear_37001_205)"/>
<path d="M38.7613 262.453C55.421 267.27 72.3605 253.666 84.5084 244.612C102.812 231.019 120.346 216.188 141.494 206.699C163.645 196.73 187.276 195.76 211.083 200.154C233.455 204.279 255.093 211.427 277.535 215.207C320.414 222.433 367.059 220.604 408.434 207.067C424.527 201.63 440.015 194.679 454.671 186.316C468.37 178.677 481.788 170.56 496.245 164.237C536.582 146.619 585.209 139.315 627.82 152.808C667.039 165.196 706.222 177.874 744.695 192.237C785.499 207.491 826.419 230.472 871.77 223.57C895.017 220.035 917.133 211.249 938.747 202.685C954.558 196.222 969.979 188.918 984.937 180.807C1013.72 165.597 1042.47 147.355 1074.71 139.549C1088.86 136.093 1103.71 135.189 1117.95 138.747C1134.43 142.895 1148.68 152.562 1160.5 164.081C1168.37 171.935 1175.5 180.439 1181.81 189.494C1182.34 190.229 1183.61 189.494 1183.07 188.791C1164.63 162.899 1139.42 137.832 1104.89 135.268C1075.18 133.093 1046.6 146.753 1021.23 159.855C1005.84 167.861 990.766 176.347 975.354 184.264C957.365 193.41 938.809 201.498 919.791 208.483C898.048 216.579 875.256 223.86 851.648 223.715C827.807 223.559 805.131 214.661 783.47 205.985C742.002 189.371 699.962 174.496 657.351 160.747C639.42 154.96 621.268 147.912 602.452 145.415C579.555 142.382 555.97 145.537 533.668 150.633C516.171 154.611 499.28 160.719 483.409 168.809C469.419 175.912 456.257 184.253 442.313 191.378C403.771 211.081 360.705 218.853 317.231 217.604C292.481 216.891 268.605 212.564 244.728 206.554C224.07 201.358 203.062 195.526 181.494 196.061C159.926 196.597 140.014 204.413 122.036 215.642C102.812 227.662 86.432 243.519 66.7878 254.937C58.5454 259.71 48.8923 263.925 39.1576 261.115C39.0658 261.09 38.9698 261.084 38.8753 261.095C38.7808 261.106 38.6895 261.135 38.6067 261.181C38.4394 261.271 38.3168 261.422 38.2658 261.6C38.2148 261.777 38.2395 261.967 38.3346 262.127C38.4297 262.287 38.5874 262.404 38.7729 262.453H38.7613Z" fill="url(#paint8_linear_37001_205)"/>
<path d="M43.4129 267.861C58.9068 272.321 74.5756 258.751 85.5227 250.153C103.407 236.115 120.428 220.861 141.028 210.412C161.92 199.808 184.502 196.675 207.842 199.328C231.182 201.982 253.88 208.684 277.022 212.118C319.983 218.586 365.765 217.225 407.7 205.74C424.17 201.09 440.187 195.079 455.569 187.776C469.827 181.142 483.829 174.039 498.705 168.608C540.103 153.466 587.459 146.764 630.502 158.573C669.266 169.188 707.994 180.049 745.919 193.352C786.618 207.658 827.305 231.666 872.202 226.592C894.247 224.094 915.337 216.679 935.984 209.163C953.274 202.813 970.109 195.386 986.383 186.929C1016.36 171.463 1045.46 152.44 1078.1 142.404C1092.16 138.077 1107.16 135.792 1121.83 138.334C1138.07 141.144 1152.27 149.652 1163.94 160.557C1171.66 167.942 1178.59 176.044 1184.63 184.743C1185.16 185.479 1186.43 184.743 1185.89 184.041C1167.82 158.706 1142.76 135.758 1108.76 135.87C1078.25 135.97 1049.51 151.548 1023.65 165.374C1007.92 173.782 992.364 182.502 976.357 190.43C957.333 199.67 937.652 207.614 917.459 214.204C896.474 221.229 874.405 227.06 851.939 225.878C827.457 224.596 804.222 214.516 781.92 205.506C742.351 189.516 701.477 176.904 660.289 165.363C642.451 160.357 624.416 154.335 605.926 152.061C582.551 149.172 558.721 152.284 535.801 156.911C518.355 160.395 501.349 165.658 485.076 172.611C471.086 178.633 457.551 185.713 443.526 191.735C403.538 208.873 360.262 215.553 316.579 214.248C292.166 213.512 268.453 209.587 244.658 204.569C223.674 200.109 202.281 195.481 180.678 197.411C159.075 199.34 139.629 208.216 122.048 220.091C103.78 232.446 88.2158 248.314 69.4576 259.977C61.9263 264.649 52.9494 269.143 43.8093 266.523C42.9116 266.255 42.5269 267.638 43.4246 267.861H43.4129Z" fill="url(#paint9_linear_37001_205)"/>
<path d="M48.0763 273.269C62.6841 277.417 77.5718 263.323 87.4697 255.104C104.876 240.609 121.442 225.053 141.506 213.847C161.78 202.495 183.93 197.901 207.317 199.206C230.261 200.488 252.726 205.896 275.436 208.974C318.572 214.75 363.632 213.825 406.126 204.38C437.988 197.31 467.041 183.528 497.993 173.961C517.182 168.203 536.858 164.05 556.798 161.55C582.225 158.138 606.742 158.205 631.796 164.014C670.396 173.013 709.02 182.145 746.653 194.445C768.093 201.447 788.623 210.39 809.736 218.229C829.66 225.633 849.841 230.896 871.385 229.502C893.291 228.075 914.451 221.53 935.04 214.616C953.428 208.491 971.321 201.081 988.575 192.449C1019.78 176.748 1049.35 156.945 1082.48 145.013C1096.15 140.096 1110.8 136.706 1125.49 138.044C1141.43 139.494 1155.7 146.82 1167.31 157.156C1174.82 164.02 1181.51 171.664 1187.24 179.949C1187.77 180.685 1189.03 179.949 1188.5 179.246C1170.92 154.636 1146.32 134.297 1113.44 136.55C1082.12 138.702 1053.17 155.963 1026.62 170.504C1010.38 179.424 994.171 188.401 977.394 196.351C957.743 205.443 937.375 213.045 916.48 219.088C895.495 225.365 873.426 230.082 851.298 227.763C827.364 225.254 804.852 214.962 782.922 206.13C743.599 190.285 702.305 179.369 660.988 169.433C642.16 164.917 623.18 159.565 603.781 158.004C580.616 156.131 556.914 159.52 534.192 163.713C516.903 166.895 499.923 171.461 483.432 177.362C469.361 182.413 455.581 188.178 441.462 192.973C400.658 206.766 357.907 212.174 314.748 210.814C290.149 210.022 266.156 206.275 241.977 202.217C221.913 198.871 201.418 195.894 181.074 198.76C159.448 201.804 140.27 211.65 123.027 224.139C105.388 236.906 90.3842 252.952 72.2789 265.073C65.4588 269.634 57.1231 274.395 48.5193 271.953C48.3393 271.924 48.1543 271.959 48.0003 272.053C47.8463 272.147 47.7343 272.292 47.6863 272.461C47.6382 272.629 47.6575 272.809 47.7404 272.964C47.8233 273.12 47.9638 273.241 48.1346 273.302L48.0763 273.269Z" fill="url(#paint10_linear_37001_205)"/>
<path d="M52.7279 278.666C66.9044 282.647 81.5356 267.236 90.6174 259.13C107.802 243.786 124.357 227.64 144.549 215.876C163.884 204.605 186.183 198.853 208.821 199.295C231.03 199.518 252.959 203.644 274.958 206.086C319.47 211.048 365.299 210.245 409.32 201.882C440.961 195.883 471.109 185.044 502.365 177.741C523.048 173.043 544.02 169.598 565.157 167.426C589.189 164.734 613.516 165.736 637.217 170.392C677.123 178.098 717.111 186.003 755.805 198.269C796.749 211.282 835.606 235.49 880.281 231.721C902.047 229.893 923.137 223.526 943.76 216.947C961.998 211.071 979.7 203.772 996.689 195.125C1027.91 179.38 1057.24 159.442 1089.96 146.619C1103.08 141.467 1117.19 137.531 1131.51 138.089C1146.66 138.68 1160.37 144.868 1171.55 154.469C1178.54 160.658 1184.73 167.625 1189.98 175.221C1190.51 175.957 1191.77 175.221 1191.23 174.518C1174.49 151.102 1150.94 133.606 1119.93 137.163C1088.92 140.72 1060.63 158.394 1034.37 173.08C1018.29 182.056 1002.19 191.055 985.485 198.961C966.027 208.182 945.777 215.163 925.002 221.151C903.912 227.239 881.936 232.101 859.715 230.428C835.828 228.633 813.479 218.642 791.608 209.799C751.969 193.764 710.384 183.528 668.344 175.02C649.691 171.24 630.723 166.791 611.685 164.984C587.832 162.698 563.793 165.72 540.22 169.233C522.399 171.829 504.758 175.456 487.396 180.094C472.94 183.996 458.682 188.535 444.202 192.359C402.541 203.496 359.365 208.578 316.124 207.435C292.388 206.833 269.036 203.945 245.533 200.945C225.201 198.358 204.449 196.206 184.07 199.685C163.085 203.276 144.432 212.988 127.633 225.399C109.655 238.791 94.6862 255.294 76.9072 268.786C70.4252 273.693 61.8447 279.77 53.1127 277.328C53.0208 277.304 52.9249 277.297 52.8303 277.308C52.7358 277.32 52.6445 277.349 52.5617 277.394C52.3944 277.485 52.2718 277.635 52.2208 277.813C52.1698 277.99 52.1945 278.18 52.2897 278.34C52.3848 278.5 52.5424 278.617 52.7279 278.666Z" fill="url(#paint11_linear_37001_205)"/>
<path d="M57.3796 284.074C62.9056 285.602 68.1751 283.438 72.8151 280.617C80.7544 275.789 87.4929 269.132 94.1149 262.776C110.716 246.942 126.945 230.629 146.729 218.352C165.714 206.576 187.708 199.997 210.325 199.328C232.779 198.514 255.163 201.681 277.477 203.521C321.895 207.212 366.966 206.454 411.057 199.763C443.024 194.879 474.42 187.219 506.306 181.922C527.291 178.465 548.427 175.767 569.599 173.749C594.419 171.385 618.062 172.689 642.638 176.492C683.232 182.759 724.036 189.204 763.243 201.347C785.254 208.171 805.947 218.073 827.632 225.678C847.801 232.747 868.028 236.003 889.421 233.829C911.676 231.599 933.524 225.287 954.707 218.642C972.178 212.965 989.103 205.854 1005.29 197.388C1036.09 181.666 1064.85 162.018 1096.71 148.269C1109.53 142.694 1123.52 138.066 1137.75 137.933C1151.85 137.869 1165.46 142.817 1175.96 151.815C1182.33 157.301 1187.94 163.539 1192.66 170.381C1193.19 171.117 1194.46 170.381 1193.92 169.668C1185.69 158.171 1175.53 147.366 1162.1 141.434C1151.34 136.65 1139.44 135.647 1127.8 137.342C1097.24 141.802 1069.51 160 1043.51 174.819C1027.39 184.019 1011.22 193.173 994.427 201.213C975.406 210.16 955.576 217.438 935.18 222.957C913.472 229.023 890.878 234.23 868.121 233.059C843.72 231.799 821.15 222.009 798.999 212.988C758.999 196.697 717.263 187.23 674.535 180.127C655.614 176.982 636.529 173.437 617.409 171.686C592.496 169.389 567.617 172.299 542.901 175.332C510.386 179.324 478.582 185.836 446.487 192.058C404.179 200.265 361.871 204.904 318.642 204.179C294.766 203.778 271.134 201.503 247.375 199.429C226.716 197.634 205.696 196.574 185.306 200.99C164.321 205.539 145.854 215.988 129.346 228.867C111.649 242.772 97.0877 259.765 79.7052 273.905C73.946 278.588 65.9134 284.988 57.7759 282.736C57.5904 282.686 57.3916 282.708 57.2233 282.798C57.0549 282.888 56.9308 283.038 56.8782 283.215C56.8257 283.393 56.849 283.583 56.943 283.744C57.037 283.905 57.194 284.024 57.3796 284.074Z" fill="url(#paint12_linear_37001_205)"/>
<path d="M62.0429 289.482C67.2425 290.909 72.1973 288.512 76.3943 285.702C83.669 280.818 89.8479 274.362 95.9219 268.207C112.325 251.592 128.414 234.587 148.116 221.452C166.696 209.017 188.357 201.455 210.943 199.518C233.21 197.544 255.652 199.618 277.896 200.856C323.795 203.421 369.857 202.707 415.464 197.277C447.455 193.463 479.398 189.471 511.459 186.226C532.723 184.074 553.988 181.766 575.288 180.06C599.269 178.109 622.469 179.424 646.299 182.212C688.268 187.13 730.751 192.069 771.182 204.514C793.485 211.394 814.318 221.853 836.387 229.302C856.084 236.089 877.159 238.414 897.955 236.092C938.397 231.632 978.187 218.184 1013.87 199.741C1044.58 183.862 1073.06 164.059 1104.45 149.418C1128.56 138.167 1157.01 130.752 1179.79 148.704C1185.78 153.599 1191.01 159.274 1195.35 165.564C1195.87 166.289 1197.14 165.564 1196.61 164.85C1189.14 154.436 1179.79 144.779 1167.46 139.839C1156.84 135.557 1145.2 135.379 1134.04 137.609C1103.93 143.608 1076.91 162.241 1051.16 177.317C1017.35 197.121 983.258 214.783 944.868 225.087C922.822 231.008 900.018 236.237 876.97 235.646C852.616 234.989 830.336 226.001 808.291 216.936C787.504 208.394 766.706 201.057 744.683 195.994C723.791 191.2 702.573 187.843 681.297 185.044C661.641 182.446 641.833 179.726 622.049 178.176C597.357 176.247 572.933 178.778 548.392 181.153C514.979 184.398 481.59 187.843 448.271 191.835C405.531 196.998 363.247 201.28 320.029 200.823C296.025 200.577 272.149 198.849 248.191 197.767C227.544 196.831 206.559 196.92 186.495 202.228C165.312 207.87 146.857 219.233 130.349 232.97C113.269 247.243 99.2562 264.371 82.5498 278.978C77.4785 283.438 69.9589 290.129 62.381 288.066C62.201 288.036 62.016 288.072 61.862 288.166C61.708 288.26 61.596 288.405 61.548 288.574C61.4999 288.742 61.5192 288.922 61.6021 289.077C61.685 289.233 61.8255 289.353 61.9963 289.415L62.0429 289.482Z" fill="url(#paint13_linear_37001_205)"/>
<path d="M66.6946 294.879C71.5561 296.206 76.1145 293.619 79.8801 290.887C86.9917 285.702 92.9024 278.934 98.8248 272.611C114.855 255.316 130.78 237.799 150.343 223.994C168.427 211.199 189.536 202.876 211.794 199.763C234.131 196.597 256.888 197.656 279.412 198.292C325.832 199.766 372.302 198.735 418.6 195.203C450.882 192.638 483.164 192.46 515.504 191.01C537.655 190.018 559.689 187.966 581.793 186.449C605.704 184.799 629.149 186.238 652.979 188.167C695.928 191.623 739.717 195.08 780.835 208.238C803.406 215.464 824.379 226.592 847.043 233.595C867.014 239.772 887.439 240.921 908.202 238.378C948.902 233.394 987.957 220.537 1023.76 201.581C1053.85 185.658 1081.67 165.977 1112.08 150.633C1133.71 139.728 1161.05 129.625 1183.07 145.247C1188.96 149.623 1194.04 154.897 1198.13 160.859C1198.66 161.594 1199.92 160.859 1199.39 160.156C1192.6 150.678 1183.93 142.125 1172.43 138.1C1162.19 134.532 1151.08 135.19 1140.69 137.799C1111.35 145.169 1085.28 163.925 1059.99 179.168C1027.51 198.738 994.066 217.281 956.759 226.994C934.13 232.87 910.849 238.311 887.264 238.367C862.782 238.423 840.631 230.562 818.398 221.374C797.507 212.743 776.953 204.748 754.709 199.808C733.34 195.069 711.573 192.181 689.761 189.984C669.522 187.944 649.19 186.182 628.881 184.855C603.746 183.205 579.019 185.334 553.977 187.241C520.167 189.817 486.417 190.04 452.549 191.601C433.453 192.482 414.415 194.277 395.342 195.482C371.101 197.02 346.84 197.727 322.559 197.6C298.077 197.522 273.594 196.329 249.112 196.262C228.442 196.206 207.562 197.478 187.801 203.688C167.049 210.2 148.944 222.02 132.937 236.026C116.056 250.811 102.311 268.363 86.1173 283.728C81.5589 288.021 74.3424 295.504 67.0909 293.541C66.9054 293.491 66.7066 293.513 66.5383 293.603C66.3699 293.693 66.2458 293.843 66.1932 294.021C66.1407 294.198 66.164 294.388 66.258 294.549C66.352 294.71 66.509 294.829 66.6946 294.879Z" fill="url(#paint14_linear_37001_205)"/>
<path d="M71.3579 300.287C75.7647 301.469 79.8218 298.882 83.1094 296.318C90.1744 290.82 95.9336 283.695 101.763 277.038C117.012 259.487 132.389 241.913 151.147 227.64C169.262 213.731 190.571 204.135 213.321 199.641C235.822 195.18 258.987 195.18 281.848 195.615C306.995 196.061 332.271 196.073 357.406 195.125C378.507 194.333 399.749 192.181 420.885 193.151C453.284 194.634 485.496 197.611 517.964 196.742C540.768 196.139 563.431 194.322 586.223 192.928C610.03 191.478 633.614 192.582 657.397 193.664C701.291 195.649 746.618 197.377 788.507 211.26C811.345 218.82 832.505 230.45 855.693 237.13C876.165 243.028 897.325 243.396 918.403 240.642C958.61 235.421 997.395 222.869 1032.65 203.666C1062.41 187.565 1089.78 167.783 1119.45 151.592C1139.13 140.865 1165.98 128.176 1187.29 142.393C1192.61 146.138 1197.18 150.764 1200.79 156.053C1201.32 156.788 1202.57 156.053 1202.04 155.35C1195.89 146.775 1187.87 139.215 1177.22 136.16C1167.33 133.327 1156.79 134.788 1147.14 137.754C1118.58 146.563 1093.44 165.441 1068.57 180.908C1036.79 200.678 1003.64 219.601 966.855 229.413C943.702 235.58 919.394 240.709 895.285 240.999C870.802 241.289 848.582 234.141 826.349 224.908C805.178 216.099 784.543 207.513 761.891 202.741C740.463 198.213 718.568 195.894 696.697 194.366C675.713 192.906 654.553 192.025 633.486 191.122C607.989 190.007 582.854 191.88 557.439 193.474C523.038 195.69 488.523 195.764 454.112 193.697C435.26 192.582 416.479 191.133 397.569 191.846C373.378 192.761 349.292 194.077 325.066 194.288C300.362 194.467 275.576 193.474 250.896 194.288C230.156 194.991 209.346 197.556 189.853 204.647C169.253 212.13 151.287 224.407 135.455 238.947C118.644 254.402 105.027 272.567 89.1251 288.858C85.1846 292.905 78.4228 300.722 71.7426 299.005C71.6507 298.981 71.5548 298.974 71.4603 298.985C71.3657 298.997 71.2745 299.026 71.1916 299.071C71.0244 299.162 70.9018 299.313 70.8507 299.49C70.7997 299.667 70.8245 299.857 70.9196 300.017C71.0147 300.177 71.1724 300.294 71.3579 300.343V300.287Z" fill="url(#paint15_linear_37001_205)"/>
<path d="M76.0096 305.695C80.2882 306.81 84.1704 303.766 87.1316 301.235C93.7652 295.448 99.1746 288.256 104.677 281.52C119.588 263.3 134.802 245.203 153.397 230.227C171.185 215.779 192.206 205.433 214.837 199.986C237.186 194.645 260.386 193.575 283.306 192.984C309.222 192.326 335.162 192.571 361.067 191.757C382.623 191.088 404.331 189.527 425.84 191.534C458.682 194.679 491.127 201.124 524.166 201.737C547.483 202.172 570.601 200.499 593.813 199.284C606.637 198.615 619.461 198.949 632.285 199.072C642.906 199.172 653.504 198.247 664.113 197.957C708.158 196.786 754.488 199.462 796.131 214.259C819.448 222.544 841.214 234.676 865.323 240.876C885.399 246.039 906.244 245.894 926.716 243.296C948.33 240.542 970.155 236.126 990.685 229.001C1008.29 222.729 1025.29 214.971 1041.46 205.818C1071.05 189.404 1098.12 169.322 1127.24 152.217C1144.91 141.824 1171.06 126.849 1191.48 139.46C1196.26 142.591 1200.34 146.597 1203.5 151.247C1204.03 151.982 1205.29 151.247 1204.75 150.544C1199.21 142.817 1191.79 136.249 1182 134.13C1172.2 132.012 1162.18 134.364 1153.07 137.776C1125.29 148.214 1101.03 167.237 1076.46 183.026C1044.86 203.32 1011.65 222.466 974.76 232.48C951.839 238.691 927.462 243.218 903.644 243.686C879.383 244.166 857.337 237.999 835.256 228.833C813.887 219.913 793.147 210.591 770.378 205.417C748.635 200.466 726.298 198.002 703.996 196.942C682.789 195.939 661.804 196.942 640.621 197.6C627.797 198.013 615.066 196.987 602.289 197.489C589.954 197.979 577.655 198.905 565.332 199.518C544.941 200.522 524.528 200.923 504.114 199.429C488.375 198.314 472.8 195.861 457.178 193.764C438.816 191.3 420.396 189.036 401.824 189.159C377.447 189.315 353.104 190.698 328.727 190.887C303.416 191.077 277.978 191.066 252.738 193.006C231.974 194.612 211.258 198.013 191.963 205.74C171.421 213.98 153.642 226.927 138.02 241.924C121.372 257.937 108.058 276.492 92.7159 293.53C89.2184 297.355 82.6898 305.996 76.3943 304.357C76.2143 304.328 76.0293 304.363 75.8753 304.457C75.7213 304.551 75.6093 304.696 75.5613 304.865C75.5132 305.033 75.5325 305.213 75.6154 305.368C75.6983 305.524 75.8388 305.645 76.0096 305.706V305.695Z" fill="url(#paint16_linear_37001_205)"/>
<path d="M80.6728 311.092C84.6366 312.107 88.1924 308.862 90.7572 306.409C96.9944 300.454 102.042 293.262 107.23 286.505C122.293 266.913 137.868 247.589 157.128 231.554C174.956 216.624 196.011 205.643 218.789 199.395C241.487 193.184 265.2 191.233 288.739 190.118C314.876 188.88 341.049 188.791 367.211 188.668C388.382 188.579 409.647 188.334 430.783 189.717C463.59 191.869 494.438 203.097 527.034 206.253C550.467 208.483 573.889 207.045 597.334 205.874C610.543 205.216 623.705 205.539 636.914 205.227C647.826 204.971 658.703 203.7 669.557 203.109C714.22 200.722 762.194 201.503 804.304 217.605C827.259 226.369 849.071 238.412 873.204 244.166C893.443 248.994 914.486 248.626 934.993 246.139C956.643 243.474 978.315 239.248 998.811 231.989C1016.28 225.639 1033.11 217.802 1049.12 208.572C1078.75 191.846 1105.66 171.307 1134.28 153.109C1150.03 143.073 1175.35 125.778 1195 136.148C1199.51 138.71 1203.34 142.241 1206.18 146.463C1206.7 147.199 1207.97 146.463 1207.44 145.76C1202.43 138.813 1195.63 133.294 1186.67 132.034C1177.45 130.74 1168.11 133.74 1159.86 137.353C1132.36 149.306 1108.47 169.054 1083.8 185.435C1052.52 206.197 1019.35 225.466 982.512 235.613C959.513 242.073 935.751 245.719 911.793 246.463C887.824 247.031 865.766 241.735 843.86 232.691C822.199 223.771 801.366 213.546 778.282 208.338C755.98 203.309 732.966 201.369 710.104 200.923C688.362 200.499 666.829 201.904 645.168 203.421C632.064 204.346 618.913 203.521 605.786 204.056C593.125 204.569 580.488 205.473 567.815 205.885C547.04 206.543 526.253 205.651 505.816 201.815C491.033 199.039 476.577 194.902 461.783 192.159C443.456 188.746 424.896 187.698 406.266 187.397C381.982 186.973 357.674 187.23 333.401 187.464C287.841 187.921 238.456 187.564 196.078 205.762C174.825 214.895 156.498 228.744 140.527 244.79C124.1 261.349 110.984 280.238 96.225 298.102C93.2754 301.67 86.8983 311.148 81.0692 309.665C80.8837 309.616 80.6855 309.64 80.5182 309.731C80.351 309.822 80.2284 309.973 80.1773 310.15C80.1263 310.327 80.1511 310.517 80.2462 310.677C80.3413 310.837 80.499 310.954 80.6845 311.003L80.6728 311.092Z" fill="url(#paint17_linear_37001_205)"/>
<path d="M85.3245 316.5C89.1601 317.448 92.541 313.679 94.7794 311.271C100.783 304.803 105.668 297.355 110.798 290.263C125.266 270.191 140.538 250.644 159.343 234.108C176.884 218.586 197.636 206.76 220.258 199.395C242.77 192.114 266.518 189.059 290.138 187.364C316.637 185.457 343.229 185.279 369.787 185.435C391.145 185.557 412.701 185.769 433.908 188.278C467.658 192.292 498.227 207.446 531.837 211.806C555.154 214.828 578.471 213.557 601.846 212.431C626.013 211.315 650.181 210.646 674.337 209.308C720.97 206.733 770.156 203.733 814.097 221.652C836.142 230.629 857.384 242.147 880.887 247.366C902.163 252.105 924.233 251.48 945.765 248.782C966.914 246.128 987.735 241.969 1007.73 234.665C1025.11 228.174 1041.83 220.183 1057.7 210.791C1086.84 193.842 1113.26 173.236 1140.89 154.19C1151.09 147.165 1161.62 140.051 1173.18 135.234C1181.18 131.889 1190.8 129.324 1199.12 133.127C1203.12 135.113 1206.51 138.07 1208.94 141.701C1209.46 142.437 1210.72 141.701 1210.2 140.999C1198.84 125.265 1180.97 129.358 1165.63 137.241C1139.23 150.8 1116.27 170.504 1092.05 187.185C1061.22 208.372 1028.28 227.919 991.676 238.479C968.366 245.142 944.239 248.831 919.919 249.451C895.903 250.042 873.531 245.314 851.508 236.282C829.486 227.25 808.734 216.155 785.312 211.26C763.057 206.61 740.066 205.829 717.356 206.175C668.671 206.9 620.067 211.371 571.382 212.319C550.304 212.732 529.238 211.204 508.801 205.997C493.773 202.183 479.305 196.608 464.313 192.616C423.054 181.744 378.333 183.606 335.955 184.108C289.753 184.665 240.193 186.583 198.049 206.666C176.97 216.701 158.842 231.197 143.091 247.823C127.015 264.806 114.109 283.918 100.119 302.462C97.7872 305.606 91.0837 316.5 85.6976 315.185C85.512 315.136 85.3138 315.159 85.1466 315.25C84.9793 315.341 84.8567 315.492 84.8057 315.67C84.7547 315.847 84.7794 316.037 84.8746 316.197C84.9697 316.357 85.1273 316.474 85.3128 316.523L85.3245 316.5Z" fill="url(#paint18_linear_37001_205)"/>
<path d="M89.9762 321.908C93.6719 322.767 96.8546 318.452 98.7782 316.132C104.339 309.442 108.956 301.926 113.841 294.745C128.262 273.559 143.779 252.852 163.015 235.345C180.367 219.454 200.858 207.032 223.289 198.804C245.778 190.631 269.654 186.628 293.53 184.431C320.484 181.945 347.636 181.733 374.695 182.257C396.345 182.669 418.379 183.428 439.667 187.509C472.31 193.764 500.535 212.219 533.4 217.727C556.133 221.541 579.275 220.102 602.184 219.155C627.482 218.106 652.711 216.556 677.963 214.349C725.097 210.234 774.726 205.495 819.366 223.972C841.657 233.204 863.05 244.957 886.891 250.265C907.992 254.948 929.898 254.625 951.303 252.228C972.906 249.808 994.101 245.682 1014.43 238.2C1032.03 231.594 1048.93 223.414 1064.91 213.769C1093.83 196.608 1119.91 175.789 1146.66 155.785C1156.82 148.202 1167.14 140.475 1178.51 134.599C1185.59 130.963 1194.74 127.016 1202.85 129.826C1206.49 131.224 1209.57 133.682 1211.67 136.851C1212.2 137.587 1213.46 136.851 1212.93 136.148C1202.31 121.452 1184.53 129.168 1171.71 136.773C1145.95 152.094 1123.38 172.299 1099.08 189.605C1068.25 211.572 1034.96 231.476 997.866 242.136C974.348 248.767 949.985 252.256 925.468 252.506C902.344 252.775 879.426 248.319 858.247 239.438C835.711 230.183 814.248 218.084 789.999 213.289C767.382 208.829 743.995 208.706 721.017 209.788C698.038 210.869 675.269 213.39 652.373 215.051C625.617 216.98 598.744 218.229 571.93 218.775C551.19 219.199 530.52 217.114 510.818 210.669C496.116 205.852 482.29 198.938 467.752 193.731C427.717 179.369 382.903 180.272 340.781 180.707C293.425 181.186 243.166 185.111 200.788 207.145C179.617 218.151 161.43 233.394 145.726 250.778C130.022 268.162 117.152 287.843 103.756 307.067C101.739 309.955 95.3157 321.674 90.4425 320.526C89.5332 320.314 89.1368 321.641 90.0461 321.875L89.9762 321.908Z" fill="url(#paint19_linear_37001_205)"/>
<path d="M94.6395 327.305C97.8222 328.019 100.469 323.96 102.019 321.998C107.557 314.817 112.045 306.844 116.907 299.239C130.897 277.339 146.227 256.108 165.219 237.91C182.142 221.539 202.124 208.347 224.128 199.016C247.107 189.382 271.927 184.242 296.701 181.476C323.725 178.477 351.076 178.254 378.239 179.168C399.982 179.893 422.144 181.398 443.246 186.706C476.076 195.024 503.123 216.333 536.454 223.18C559.526 227.919 583.355 226.793 606.777 225.778C632.519 224.663 658.073 222.176 683.617 219.155C707.854 216.278 732.22 213.49 756.679 213.579C768.907 213.476 781.118 214.45 793.158 216.49C805.481 218.72 816.906 222.923 828.296 227.886C850.377 237.475 871.724 248.96 895.67 253.811C917.727 258.271 940.508 257.725 962.775 255.116C983.468 252.696 1003.58 248.425 1022.93 241.077C1040.37 234.324 1057.1 226.001 1072.89 216.222C1101.79 198.604 1127.68 177.194 1153.9 156.198C1163.58 148.392 1173.3 140.486 1183.96 133.896C1190.19 130.06 1198.63 124.975 1206.46 126.592C1209.74 127.37 1212.57 129.332 1214.37 132.067C1214.91 132.803 1216.17 132.067 1215.63 131.365C1205.66 117.638 1187.45 129.581 1177.16 136.628C1152.86 153.354 1131.18 173.425 1107.55 190.921C1076.64 213.858 1042.91 234.409 1005.26 245.504C982.489 252.194 958.181 255.283 934.41 255.684C911.787 256.192 889.297 252.237 868.343 244.065C844.781 234.81 822.7 221.229 797.623 215.921C774.61 211.059 750.617 211.527 727.254 213.222C703.576 214.951 680.084 218.341 656.488 220.783C629.539 223.547 602.461 225.01 575.358 225.165C554.175 225.287 533.166 222.533 513.476 214.85C498.32 208.918 484.33 200.544 469.384 194.11C430.224 177.261 385.444 176.904 343.253 177.384C295.034 177.875 244.705 183.985 202.595 208.004C159.635 232.535 132.797 271.987 107.219 311.795C105.552 314.371 99.2445 326.926 94.9892 325.99C94.0799 325.789 93.6835 327.105 94.6045 327.328L94.6395 327.305Z" fill="url(#paint20_linear_37001_205)"/>
<path d="M99.2912 332.714C102.346 333.338 104.875 328.621 106.158 326.726C111.124 319.411 115.298 311.583 119.833 304.023C133.194 281.721 148.093 260.2 166.466 241.378C200.683 206.32 245.311 186.226 294.579 179.09C322.559 175.042 351.04 174.63 379.242 175.923C401.218 176.904 423.543 179.023 444.622 185.323C477.498 195.147 503.543 218.363 536.722 227.339C559.619 233.528 583.542 233.595 607.115 232.524C633.335 231.331 659.181 228.187 685.097 224.317C710.011 220.604 735.053 216.824 760.317 216.211C773.038 215.745 785.776 216.549 798.323 218.608C810.657 220.838 822.036 225.176 833.391 230.216C855.647 240.096 877.121 251.759 901.312 256.788C923.626 261.427 946.686 261.137 969.268 258.684C1009.51 254.335 1046.05 240.319 1079.88 219.221C1108.82 201.191 1134.68 179.279 1160.22 157.168C1169.74 148.927 1179.2 140.497 1189.45 133.082C1195.01 129.068 1202.75 123.046 1210.21 123.448C1211.59 123.522 1212.94 123.909 1214.13 124.576C1215.33 125.242 1216.34 126.17 1217.09 127.284C1217.63 128.008 1218.88 127.284 1218.35 126.581C1209.44 114.382 1191.3 129.737 1183.62 135.702C1159.7 154.291 1137.96 175.321 1113.9 193.775C1083.37 217.192 1049.69 237.955 1012.05 249.094C989.134 255.885 964.733 258.829 940.776 259.007C917.675 259.333 894.748 255.14 873.402 246.686C849.934 237.297 827.935 223.269 802.811 218.017C779.495 213.133 755.222 214.293 731.696 216.69C679.117 222.065 627.296 233.873 574.017 231.431C552.799 230.461 532.176 226.124 513.103 217.058C498.448 210.1 485.006 201.057 470.422 193.954C431.296 174.908 385.619 173.37 342.6 174.027C293.693 174.775 243.679 183.706 202.432 210.089C160.8 236.706 134.429 276.759 110.145 317.571C108.979 319.623 103.033 332.067 99.6526 331.375C98.7316 331.186 98.3468 332.49 99.2562 332.714H99.2912Z" fill="url(#paint21_linear_37001_205)"/>
<path d="M103.954 338.122C106.717 338.601 108.933 333.661 109.947 331.989C114.727 324.083 118.854 315.82 123.4 307.792C136.376 284.855 151.159 262.743 169.346 243.229C203.423 206.666 248.424 183.885 298.823 175.89C326.803 171.429 355.587 171.117 383.929 172.924C405.858 174.329 428.055 177.384 448.667 184.944C481.497 197.02 506.376 222.723 540.103 232.948C562.545 239.761 586.293 240.218 609.61 239.181C636.646 237.988 663.098 233.829 689.656 229.079C715.304 224.485 741.197 219.757 767.358 218.742C779.541 218.098 791.761 218.76 803.791 220.716C816.708 222.946 828.599 227.964 840.398 233.383C862.618 243.597 884.128 255.104 908.447 260.145C931.274 264.861 954.87 264.605 977.977 262.141C1017.71 257.914 1054.11 243.184 1087.19 222.087C1116.2 203.555 1141.99 181.019 1166.95 157.814C1176.12 149.273 1185.16 140.542 1194.75 132.413C1199.94 128.031 1206.78 121.351 1214 120.314C1215.09 120.084 1216.23 120.174 1217.27 120.572C1218.31 120.969 1219.2 121.657 1219.83 122.545C1220.36 123.269 1221.62 122.545 1221.09 121.842C1213.27 111.215 1194.34 130.763 1189.02 135.502C1166.21 155.696 1144.71 177.172 1120.81 196.195C1090.64 220.158 1057 241.233 1019.39 252.607C996.7 259.464 972.754 262.33 948.948 262.486C925.935 262.631 903.352 259.063 881.983 250.8C857.5 241.333 834.883 226.012 808.932 220.314C785.522 215.174 760.83 216.969 737.257 220.002C683.978 226.804 631.924 240.965 577.643 237.843C556.063 236.605 535.277 231.621 516.344 221.53C501.806 213.78 488.748 203.8 474.514 195.593C436.542 173.738 391.821 170.281 348.417 170.615C297.727 171.006 246.815 181.822 205.102 210.457C164.03 238.635 137.181 279.525 114.167 321.685C113.304 323.269 107.091 337.296 104.432 336.772C103.511 336.616 103.127 337.954 104.048 338.122H103.954Z" fill="url(#paint22_linear_37001_205)"/>
<path d="M108.804 343.608C111.299 343.92 113.666 337.519 114.4 336.114C118.912 327.462 123.121 318.675 127.761 310.078C140.48 286.46 155.309 263.769 173.508 243.63C207.725 205.718 253.356 180.696 305.014 172.266C333.203 167.683 362.431 167.582 390.854 170.247C413.319 172.355 435.773 176.837 456.14 186.461C487.804 201.436 511.26 228.532 545.361 239.282C568.27 246.518 592.775 246.942 616.64 245.637C642.789 244.221 668.286 239.148 693.818 233.829C719.956 228.387 746.28 222.678 773.094 221.206C785.165 220.338 797.302 220.881 809.235 222.823C822.059 225.12 833.811 230.294 845.376 235.758C867.282 246.061 888.511 257.546 912.446 262.932C936.38 268.318 961.236 268.307 985.555 265.776C1025.19 261.639 1061.88 246.206 1094.6 224.73C1123.29 205.907 1148.72 183.026 1172.71 159.063C1181.88 149.908 1190.81 140.531 1200.09 131.465C1205.07 126.615 1210.84 119.868 1217.58 117.226C1219.28 116.557 1221.19 116.111 1222.42 117.761C1222.96 118.486 1224.22 117.761 1223.68 117.058C1217.3 108.506 1197.44 132.012 1194.09 135.39C1172.31 157.223 1150.95 179.358 1126.95 199.027C1096.78 223.76 1062.71 245.281 1024.52 256.688C979.236 270.214 927.112 270.336 883.289 252.094C859.879 242.348 837.821 227.35 812.569 222.065C789.579 217.259 765.365 219.667 742.375 223.18C688.502 231.409 636.284 248.102 580.977 244.311C559.269 242.816 538.448 237.286 519.806 226.469C505.128 217.917 492.269 206.922 478.198 197.555C440.891 172.723 396.426 167.136 351.892 167.292C300.012 167.482 249.054 180.294 207.492 210.78C166.291 241.021 139.023 283.818 116.825 328.075C116.102 329.524 110.903 342.426 108.804 342.158C107.872 342.036 107.883 343.429 108.804 343.552V343.608Z" fill="url(#paint23_linear_37001_205)"/>
<path d="M113.456 348.949C115.788 349.038 117.735 342.325 118.376 340.92C122.549 331.81 126.7 322.689 131.2 313.746C143.709 289.215 158.62 265.575 176.924 244.545C210.733 205.673 255.99 178.131 308.313 168.987C337.214 163.936 367.595 164.025 396.683 167.683C418.659 170.448 440.25 176.09 459.579 186.639C490.87 203.766 513.277 232.703 547.809 244.779C596.541 261.817 650.729 249.618 699.146 238.155C725.388 231.933 751.923 225.432 778.97 223.492C790.745 222.656 802.73 222.678 814.365 224.797C827.737 227.228 840.094 233.071 852.137 238.936C873.962 249.563 895.273 260.947 919.266 266.378C943.678 271.886 969.129 272.009 993.949 269.344C1033.13 265.14 1069.62 249.083 1101.64 227.54C1130.41 208.171 1155.8 184.587 1179.21 159.52C1188.12 150.009 1196.7 140.23 1205.37 130.528C1210.34 124.953 1215.35 118.263 1221.62 113.947C1222.31 113.468 1224.36 111.851 1225.12 112.91C1225.67 113.624 1226.94 112.91 1226.38 112.208C1221.92 106.365 1201.54 132.647 1199.41 135.045C1178.8 158.283 1157.6 181.052 1133.72 201.313C1103.9 226.614 1069.88 248.492 1031.65 260.167C986.313 274.005 934.037 273.782 890.12 255.55C866.057 245.571 843.487 229.603 817.676 224.027C794.499 219.032 769.877 222.187 746.84 226.324C692.407 236.126 639.817 255.316 583.519 250.633C561.368 248.804 540.29 242.348 521.8 230.383C506.9 220.76 494.099 208.572 479.9 198.046C464.486 186.491 446.95 177.793 428.195 172.399C404.669 165.709 379.825 163.836 355.389 163.791C302.239 163.68 251.245 178.566 209.847 210.992C168.775 243.307 141.051 287.854 119.996 333.895C119.39 335.2 114.657 347.6 113.456 347.555C112.523 347.555 112.523 348.916 113.456 348.949Z" fill="url(#paint24_linear_37001_205)"/>
<path d="M118.306 354.335C120.183 353.956 121.803 347.098 122.305 345.871C126.21 336.137 130.372 326.503 134.954 317.036C147.207 291.657 162.129 267.281 180.433 245.481C214.242 205.071 259.931 174.797 313.722 165.386C342.635 160.323 373.413 160.669 402.384 165.386C424.08 168.898 444.995 175.812 463.45 187.408C494.391 206.833 515.982 237.587 551.307 250.811C600.889 269.333 655.299 255.573 704.264 242.616C730.623 235.635 757.297 228.309 784.636 225.89C796.76 224.83 809.118 224.774 821.138 227.205C834.463 229.87 846.926 236.226 858.946 242.27C880.7 253.22 902.082 264.505 926.144 270.013C950.557 275.588 976.135 275.956 1000.98 273.213C1040.51 268.865 1077.28 252.328 1109.26 230.171C1138.22 210.1 1163.6 185.635 1186.4 159.387C1194.84 149.674 1202.92 139.694 1210.82 129.57C1215.68 123.325 1220.26 116.735 1225.6 110.836C1226.24 110.123 1228.13 108.383 1228.08 108.316C1228.67 109.019 1229.69 108.026 1229.11 107.335C1227.38 105.25 1222.6 112.163 1221.96 112.91C1216.13 120.147 1210.54 127.629 1204.75 134.933C1184.94 159.955 1163.47 183.851 1139.18 204.993C1109.35 230.985 1074.94 253.131 1036.15 264.638C990.288 278.265 938.222 276.904 894.259 258.037C869.776 247.533 846.658 230.528 820.019 225.51C796.539 221.05 771.753 225.198 748.717 230.105C693.713 241.813 640.155 263.557 582.691 256.721C560.93 254.26 540.245 246.31 522.756 233.684C508.066 223.068 495.568 210.022 481.532 198.682C466.213 186.282 449.087 176.447 429.99 170.37C406.837 162.988 382.191 160.658 357.861 160.524C328.913 160.357 300.222 164.627 273.303 175.02C249.996 184.195 228.527 197.162 209.847 213.345C170.36 247.266 142.823 292.459 123.435 339.27C122.666 341.11 119.017 352.763 117.921 352.986C116.825 353.209 117.396 354.513 118.306 354.335Z" fill="url(#paint25_linear_37001_205)"/>
<path d="M123.47 359.219C128.542 341.679 136.19 324.651 144.455 308.238C162.118 273.001 185.259 239.661 215.233 212.91C252.283 179.815 299.546 159.621 350.644 158.595C378.939 158.026 408.05 160.658 434.584 170.738C453.237 177.863 469.559 188.891 484.248 202.049C496.723 213.278 508.008 225.7 521.007 236.393C534.624 247.611 550.153 256.242 567.477 260.925C622.422 275.756 676.599 255.785 728.898 241.11C757.204 233.171 787.959 224.518 817.769 227.729C841.645 230.35 862.817 244.455 883.592 254.926C906.384 266.456 930.225 274.774 955.99 277.45C986.649 280.762 1017.69 277.688 1046.99 268.441C1095.56 252.74 1136.89 220.827 1170.83 184.81C1193.21 161.187 1212.86 135.323 1229.44 107.669C1230.27 106.253 1231.11 104.826 1231.92 103.388C1232.35 102.596 1231.09 101.882 1230.66 102.685C1219.19 123.481 1204.64 143.073 1189.45 161.494C1158.39 199.172 1120.8 233.617 1075.7 255.405C1022.4 281.152 957.097 285.512 901.988 262.096C881.004 253.175 861.849 240.831 840.677 232.335C815.857 222.366 788.833 225.588 763.22 231.03C732.104 237.676 702.049 248.057 671.247 256.03C644.142 263.055 616.453 266.679 588.38 263.456C568.001 261.115 548.672 254.469 531.977 242.972C517.917 233.294 506.212 220.994 494.041 209.297C481.217 196.898 467.437 185.267 451.349 176.815C430.364 165.765 406.884 160.323 383.194 158.238C355.121 155.774 326.535 157.045 299.348 164.549C276.52 170.948 255.049 181.139 235.915 194.656C201.581 218.72 174.802 251.592 154.307 286.973C141.514 308.676 131.083 331.577 123.179 355.316C122.794 356.498 122.41 357.68 122.013 358.884C121.962 359.062 121.987 359.251 122.082 359.411C122.177 359.571 122.335 359.688 122.52 359.737C122.706 359.786 122.904 359.762 123.071 359.671C123.239 359.58 123.361 359.43 123.412 359.252L123.47 359.219Z" fill="url(#paint26_linear_37001_205)"/>
</g>
<path d="M790.663 312.207C762.159 312.207 734.61 306.777 710.501 295.704C686.391 284.632 665.383 268.173 645.214 252.294L645.098 252.194C595.713 213.412 546.48 178.499 487.279 177.362C443.188 176.514 402.279 195.203 362.687 213.345L357.546 215.698C317.908 233.806 271.671 252.573 225.527 246.161L225.679 245.147C271.531 251.525 317.546 232.814 357.079 214.772L362.209 212.431C401.917 194.277 442.978 175.51 487.303 176.347C546.853 177.462 596.25 212.497 645.786 251.413L645.914 251.514C666.071 267.348 686.928 283.728 711.025 294.79C769.317 321.552 847.964 315.151 911.303 278.465C919.149 273.916 926.844 268.92 934.294 264.081C946.22 256.275 958.555 248.302 971.787 241.98C1015.26 221.206 1072.21 216.969 1141.04 229.357L1140.84 230.361C1072.25 218.006 1015.53 222.232 972.276 242.894C959.114 249.183 946.803 257.178 934.9 264.917C927.45 269.768 919.744 274.774 911.875 279.335C874.347 301.045 831.514 312.207 790.663 312.207Z" fill="url(#paint27_linear_37001_205)"/>
<path d="M825.825 319.277C797.309 319.277 769.76 313.846 745.651 302.774C721.541 291.701 700.533 275.243 680.364 259.364L680.248 259.264C630.863 220.481 581.63 185.568 522.441 184.431C478.349 183.584 437.429 202.272 397.837 220.414L392.614 222.767C352.976 240.876 306.774 259.643 260.63 253.287L260.794 252.272C306.634 258.65 352.649 239.939 392.183 221.898L397.312 219.556C437.032 201.403 478.081 182.636 522.406 183.472C581.956 184.587 631.353 219.623 680.889 258.539L681.017 258.639C701.186 274.473 722.031 290.854 746.129 301.915C804.42 328.677 883.079 322.276 946.418 285.591C954.253 281.041 961.947 276.046 969.397 271.206C981.323 263.401 993.658 255.428 1006.89 249.105C1050.36 228.332 1107.31 224.094 1176.15 236.483L1175.95 237.486C1107.35 225.075 1050.63 229.302 1007.38 249.942C994.217 256.231 981.906 264.226 970.003 271.964C962.553 276.815 954.847 281.822 946.978 286.382C909.496 308.115 866.664 319.277 825.825 319.277Z" fill="url(#paint28_linear_37001_205)"/>
<path d="M1174.19 166.49C1046.18 166.49 1012.88 132.067 974.83 92.7276C950.65 67.7499 925.655 41.9137 873.845 21.4744C824.752 2.10557 776.16 2.10557 725.295 21.4744C682.241 37.8548 646.52 64.6835 617.817 86.2378C602.662 97.6562 589.511 107.513 579.019 112.832C548.707 128.243 516.402 143.04 482.803 143.04C478.563 143.041 474.327 142.799 470.118 142.315C443.468 139.226 419.451 126.637 396.228 114.438C383.59 107.814 370.58 100.957 357.161 95.6825C314.896 79.2945 267.991 77.4577 224.466 90.4863L224.14 89.5161C267.912 76.4325 315.078 78.3008 357.569 94.8016C371.011 100.109 384.092 106.967 396.753 113.602C419.883 125.734 443.817 138.289 470.2 141.345C508.066 145.727 544.452 129.246 578.459 111.974C588.87 106.699 601.95 96.8645 617.106 85.4907C645.902 63.8248 681.74 36.9627 724.876 20.5154C776.021 1.04625 824.88 1.0574 874.253 20.5154C926.273 41.0439 951.361 66.9694 975.611 92.0362C1017.04 134.855 1052.84 171.831 1212.58 164.516V165.542C1198.93 166.181 1186.13 166.497 1174.19 166.49Z" fill="url(#paint29_linear_37001_205)"/>
<path d="M1190.28 169.656C1062.28 169.656 1028.98 133.495 990.918 92.1811C966.75 65.9323 941.743 38.7914 889.934 17.3263C840.852 -3.01268 792.261 -3.01268 741.384 17.3263C698.33 34.5318 662.62 62.7097 633.918 85.3457C618.762 97.3328 605.611 107.647 595.119 113.223C564.749 129.413 532.502 144.958 498.903 144.958C494.658 144.959 490.418 144.706 486.207 144.199C459.568 140.954 435.552 127.718 412.317 114.929C399.691 107.971 386.668 100.778 373.25 95.2364C331.206 77.9922 284.029 76.0099 240.566 89.661L240.228 88.6352C283.935 74.8949 331.382 76.8773 373.669 94.2105C387.1 99.7859 400.192 106.989 412.841 113.958C435.983 126.704 459.906 139.884 486.289 143.095C524.155 147.701 560.529 130.383 594.547 112.252C604.947 106.677 618.039 96.3738 633.183 84.3756C661.944 61.6838 697.723 33.4502 740.918 16.1889C792.074 -4.26157 840.934 -4.25042 890.295 16.1889C942.326 37.7544 967.403 64.9845 991.664 91.3113C1033.09 136.282 1068.88 175.131 1228.62 167.46L1228.68 168.575C1215.02 169.296 1202.22 169.656 1190.28 169.656Z" fill="url(#paint30_linear_37001_205)"/>
<path d="M623.227 164.181V169.768" stroke="white" stroke-miterlimit="10"/>
<path d="M633.335 161.483V173.158" stroke="white" stroke-miterlimit="10"/>
<path d="M643.454 160.669V174.362" stroke="white" stroke-miterlimit="10"/>
<path d="M653.562 160.1V175.31" stroke="white" stroke-miterlimit="10"/>
<path d="M663.681 159.398V176.481" stroke="white" stroke-miterlimit="10"/>
<path d="M673.801 158.238V178.365" stroke="white" stroke-miterlimit="10"/>
<path d="M683.908 156.13V181.878" stroke="white" stroke-miterlimit="10"/>
<path d="M694.028 151.548V192.17" stroke="white" stroke-miterlimit="10"/>
<path d="M704.135 140.531V221.886" stroke="white" stroke-miterlimit="10"/>
<path d="M714.255 119.556V232.613" stroke="white" stroke-miterlimit="10"/>
<path d="M724.374 102.284V211.639" stroke="white" stroke-miterlimit="10"/>
<path d="M734.482 125.767V192.805" stroke="white" stroke-miterlimit="10"/>
<path d="M744.602 146.418V182.993" stroke="white" stroke-miterlimit="10"/>
<path d="M754.709 154.547V179.536" stroke="white" stroke-miterlimit="10"/>
<path d="M764.829 156.32V180.517" stroke="white" stroke-miterlimit="10"/>
<path d="M774.948 147.567V186.059" stroke="white" stroke-miterlimit="10"/>
<path d="M785.056 113.88V200.02" stroke="white" stroke-miterlimit="10"/>
<path d="M795.175 66.0327V231.599" stroke="white" stroke-miterlimit="10"/>
<path d="M805.283 58.439V252.183" stroke="white" stroke-miterlimit="10"/>
<path d="M815.402 82.1119V217.337" stroke="white" stroke-miterlimit="10"/>
<path d="M825.51 126.436V198.782" stroke="white" stroke-miterlimit="10"/>
<path d="M835.629 149.942V192.705" stroke="white" stroke-miterlimit="10"/>
<path d="M845.749 156.933V192.181" stroke="white" stroke-miterlimit="10"/>
<path d="M855.857 155.551V195.348" stroke="white" stroke-miterlimit="10"/>
<path d="M865.976 146.507V203.532" stroke="white" stroke-miterlimit="10"/>
<path d="M876.084 127.495V220.861" stroke="white" stroke-miterlimit="10"/>
<path d="M886.203 105.896V252.529" stroke="white" stroke-miterlimit="10"/>
<path d="M896.323 107.748V257.591" stroke="white" stroke-miterlimit="10"/>
<path d="M906.43 129.235V237.007" stroke="white" stroke-miterlimit="10"/>
<path d="M916.55 149.072V209.531" stroke="white" stroke-miterlimit="10"/>
<path d="M926.657 158.851V193.296" stroke="white" stroke-miterlimit="10"/>
<path d="M936.777 162.888V188.211" stroke="white" stroke-miterlimit="10"/>
<path d="M946.896 165.296V186.65" stroke="white" stroke-miterlimit="10"/>
<path d="M957.004 166.924V185.156" stroke="white" stroke-miterlimit="10"/>
<path d="M967.123 168.207V183.539" stroke="white" stroke-miterlimit="10"/>
<path d="M977.231 169.534V181.409" stroke="white" stroke-miterlimit="10"/>
<path d="M987.351 172.388V176.748" stroke="white" stroke-miterlimit="10"/>
<defs>
<linearGradient id="paint0_linear_37001_205" x1="941.737" y1="156.24" x2="218.803" y2="141.229" gradientUnits="userSpaceOnUse">
<stop stop-color="white"/>
<stop offset="1" stop-color="white" stop-opacity="0"/>
</linearGradient>
<linearGradient id="paint1_linear_37001_205" x1="944.934" y1="158.817" x2="223.253" y2="142.818" gradientUnits="userSpaceOnUse">
<stop stop-color="white"/>
<stop offset="1" stop-color="white" stop-opacity="0"/>
</linearGradient>
<linearGradient id="paint2_linear_37001_205" x1="947.932" y1="161.222" x2="227.535" y2="144.108" gradientUnits="userSpaceOnUse">
<stop stop-color="white"/>
<stop offset="1" stop-color="white" stop-opacity="0"/>
</linearGradient>
<linearGradient id="paint3_linear_37001_205" x1="951.048" y1="164.254" x2="231.908" y2="146.025" gradientUnits="userSpaceOnUse">
<stop stop-color="white"/>
<stop offset="1" stop-color="white" stop-opacity="0"/>
</linearGradient>
<linearGradient id="paint4_linear_37001_205" x1="954.12" y1="170.27" x2="236.185" y2="151.884" gradientUnits="userSpaceOnUse">
<stop stop-color="white"/>
<stop offset="1" stop-color="white" stop-opacity="0"/>
</linearGradient>
<linearGradient id="paint5_linear_37001_205" x1="957.194" y1="176.32" x2="240.497" y2="157.776" gradientUnits="userSpaceOnUse">
<stop stop-color="white"/>
<stop offset="1" stop-color="white" stop-opacity="0"/>
</linearGradient>
<linearGradient id="paint6_linear_37001_205" x1="960.282" y1="182.408" x2="244.817" y2="163.699" gradientUnits="userSpaceOnUse">
<stop stop-color="white"/>
<stop offset="1" stop-color="white" stop-opacity="0"/>
</linearGradient>
<linearGradient id="paint7_linear_37001_205" x1="963.485" y1="186.465" x2="249.107" y2="168.122" gradientUnits="userSpaceOnUse">
<stop stop-color="white"/>
<stop offset="1" stop-color="white" stop-opacity="0"/>
</linearGradient>
<linearGradient id="paint8_linear_37001_205" x1="966.444" y1="189.201" x2="253.315" y2="171.542" gradientUnits="userSpaceOnUse">
<stop stop-color="white"/>
<stop offset="1" stop-color="white" stop-opacity="0"/>
</linearGradient>
<linearGradient id="paint9_linear_37001_205" x1="969.616" y1="191.91" x2="257.611" y2="174.896" gradientUnits="userSpaceOnUse">
<stop stop-color="white"/>
<stop offset="1" stop-color="white" stop-opacity="0"/>
</linearGradient>
<linearGradient id="paint10_linear_37001_205" x1="972.628" y1="194.431" x2="261.927" y2="178.067" gradientUnits="userSpaceOnUse">
<stop stop-color="white"/>
<stop offset="1" stop-color="white" stop-opacity="0"/>
</linearGradient>
<linearGradient id="paint11_linear_37001_205" x1="975.702" y1="196.851" x2="266.096" y2="181.107" gradientUnits="userSpaceOnUse">
<stop stop-color="white"/>
<stop offset="1" stop-color="white" stop-opacity="0"/>
</linearGradient>
<linearGradient id="paint12_linear_37001_205" x1="978.766" y1="198.998" x2="270.357" y2="183.88" gradientUnits="userSpaceOnUse">
<stop stop-color="white"/>
<stop offset="1" stop-color="white" stop-opacity="0"/>
</linearGradient>
<linearGradient id="paint13_linear_37001_205" x1="981.824" y1="201.028" x2="274.63" y2="186.521" gradientUnits="userSpaceOnUse">
<stop stop-color="white"/>
<stop offset="1" stop-color="white" stop-opacity="0"/>
</linearGradient>
<linearGradient id="paint14_linear_37001_205" x1="984.959" y1="202.949" x2="278.902" y2="189.023" gradientUnits="userSpaceOnUse">
<stop stop-color="white"/>
<stop offset="1" stop-color="white" stop-opacity="0"/>
</linearGradient>
<linearGradient id="paint15_linear_37001_205" x1="987.991" y1="204.628" x2="283.163" y2="191.282" gradientUnits="userSpaceOnUse">
<stop stop-color="white"/>
<stop offset="1" stop-color="white" stop-opacity="0"/>
</linearGradient>
<linearGradient id="paint16_linear_37001_205" x1="991.084" y1="206.126" x2="287.479" y2="193.339" gradientUnits="userSpaceOnUse">
<stop stop-color="white"/>
<stop offset="1" stop-color="white" stop-opacity="0"/>
</linearGradient>
<linearGradient id="paint17_linear_37001_205" x1="994.131" y1="207.459" x2="291.714" y2="195.209" gradientUnits="userSpaceOnUse">
<stop stop-color="white"/>
<stop offset="1" stop-color="white" stop-opacity="0"/>
</linearGradient>
<linearGradient id="paint18_linear_37001_205" x1="997.244" y1="208.876" x2="295.975" y2="197.114" gradientUnits="userSpaceOnUse">
<stop stop-color="white"/>
<stop offset="1" stop-color="white" stop-opacity="0"/>
</linearGradient>
<linearGradient id="paint19_linear_37001_205" x1="1000.36" y1="209.729" x2="300.332" y2="198.48" gradientUnits="userSpaceOnUse">
<stop stop-color="white"/>
<stop offset="1" stop-color="white" stop-opacity="0"/>
</linearGradient>
<linearGradient id="paint20_linear_37001_205" x1="1003.41" y1="210.398" x2="304.52" y2="199.636" gradientUnits="userSpaceOnUse">
<stop stop-color="white"/>
<stop offset="1" stop-color="white" stop-opacity="0"/>
</linearGradient>
<linearGradient id="paint21_linear_37001_205" x1="1006.5" y1="210.896" x2="308.8" y2="200.601" gradientUnits="userSpaceOnUse">
<stop stop-color="white"/>
<stop offset="1" stop-color="white" stop-opacity="0"/>
</linearGradient>
<linearGradient id="paint22_linear_37001_205" x1="1009.62" y1="211.273" x2="313.187" y2="201.42" gradientUnits="userSpaceOnUse">
<stop stop-color="white"/>
<stop offset="1" stop-color="white" stop-opacity="0"/>
</linearGradient>
<linearGradient id="paint23_linear_37001_205" x1="1012.59" y1="211.539" x2="317.39" y2="202.108" gradientUnits="userSpaceOnUse">
<stop stop-color="white"/>
<stop offset="1" stop-color="white" stop-opacity="0"/>
</linearGradient>
<linearGradient id="paint24_linear_37001_205" x1="1015.67" y1="211.57" x2="321.664" y2="202.534" gradientUnits="userSpaceOnUse">
<stop stop-color="white"/>
<stop offset="1" stop-color="white" stop-opacity="0"/>
</linearGradient>
<linearGradient id="paint25_linear_37001_205" x1="1018.77" y1="211.294" x2="325.881" y2="202.644" gradientUnits="userSpaceOnUse">
<stop stop-color="white"/>
<stop offset="1" stop-color="white" stop-opacity="0"/>
</linearGradient>
<linearGradient id="paint26_linear_37001_205" x1="1021.87" y1="210.909" x2="330.174" y2="202.625" gradientUnits="userSpaceOnUse">
<stop stop-color="white"/>
<stop offset="1" stop-color="white" stop-opacity="0"/>
</linearGradient>
<linearGradient id="paint27_linear_37001_205" x1="1045.86" y1="244.266" x2="233.968" y2="244.266" gradientUnits="userSpaceOnUse">
<stop offset="0.22" stop-color="#C169FF"/>
<stop offset="1" stop-color="white" stop-opacity="0"/>
</linearGradient>
<linearGradient id="paint28_linear_37001_205" x1="1081.01" y1="251.335" x2="269.118" y2="251.335" gradientUnits="userSpaceOnUse">
<stop offset="0.22" stop-color="#C169FF"/>
<stop offset="1" stop-color="white" stop-opacity="0"/>
</linearGradient>
<linearGradient id="paint29_linear_37001_205" x1="1045.86" y1="86.2044" x2="233.968" y2="86.2044" gradientUnits="userSpaceOnUse">
<stop offset="0.22" stop-color="#C169FF"/>
<stop offset="1" stop-color="white" stop-opacity="0"/>
</linearGradient>
<linearGradient id="paint30_linear_37001_205" x1="1061.96" y1="85.2788" x2="250.056" y2="85.2788" gradientUnits="userSpaceOnUse">
<stop offset="0.22" stop-color="#C169FF"/>
<stop offset="1" stop-color="white" stop-opacity="0"/>
</linearGradient>
</defs>
</svg>
