<svg width="1125" height="360" fill="none" xmlns="http://www.w3.org/2000/svg"><g opacity=".13"><path d="M1.501 219.221c28.54 8.698 57.033-3.847 82.226-15.856 14.084-6.69 28.388-13.448 43.894-16.525a88.803 88.803 0 0 1 43.847 2.609c25.531 7.95 46.994 24.253 70.066 36.797 23.072 12.545 48.137 19.893 74.951 19.748 25.823-.145 52.02-6.534 74.019-19.647 19.236-11.463 34.135-28.078 47.496-45.328 13.99-17.997 26.476-37.165 42.622-53.524 16.753-16.949 37.109-28.813 61.206-33.262 14.294-2.632 29.554-2.866 43.568 1.271 10.492 3.1 18.56 9.211 27.152 15.433 15.634 11.329 31.547 22.301 47.799 32.816 37.446 24.164 78.017 48.439 122.039 59.757 16.228 4.17 32.515 5.575 49.093 2.565 14.433-2.654 28.213-7.928 41.247-14.351 27.036-13.381 50.993-31.523 76.945-46.521 24.704-14.251 52.529-25.859 82.029-21.844 41.56 5.642 74.44 37.578 99.69 67.194 10.19 11.942 19.63 24.42 28.65 37.165.53.747 1.8 0 1.26-.702-16.22-22.904-33.81-45.216-54.6-64.563-14.13-13.169-30.01-25.201-48.13-32.939-26.72-11.441-55.04-10.159-81.724.591-27.886 11.229-52.066 29.304-77.329 44.893-25.264 15.588-54.281 31.155-85.386 31.512-20.192.234-40.279-6.1-58.746-13.381-22.232-8.743-43.415-19.893-63.911-31.869-19.317-11.273-38.064-23.417-56.402-36.084a1127.772 1127.772 0 0 1-21.848-15.466c-7.694-5.575-15.051-11.284-24.226-14.496-23.142-8.151-51.017-4.338-73.004 5.352-20.344 8.921-36.246 24.331-49.874 40.991-14.294 17.484-26.546 36.44-41.492 53.456-16.928 19.269-37.307 34.4-62.512 42.429-27.335 8.682-56.741 9.458-84.535 2.23-26.942-7.159-49.349-23.417-73.085-36.798-21.778-12.265-45.666-21.888-71.477-18.443-30.312 4.048-55.144 22.904-83.812 31.601-15.436 4.684-31.71 6.535-47.368 1.751-.897-.268-1.282 1.115-.396 1.349l.058.089Z" fill="url(#a)"/><path d="M6.165 224.629c24.284 7.349 49.407-2.698 70.824-13.38 23.829-11.865 48.067-25.502 75.907-24.131 24.144 1.205 45.712 12.79 66.138 24.164 20.425 11.374 41.142 23.049 64.668 27.977 46.82 9.902 97.93-1.349 133.126-33.028 28.458-25.647 46.447-60.582 77.388-83.876 19.361-14.466 43.06-22.614 67.618-23.25 14.188-.39 28.855 2.03 41.107 9.189 7.485 4.382 14.515 9.612 21.743 14.362 40.105 26.305 81.713 51.684 126.341 70.417 22.268 9.333 47.158 18.309 71.897 16.793 24.739-1.517 47.869-11.508 69.122-23.138 27.444-15.031 52.859-33.452 81.153-47.123 23.632-11.385 49.803-18.276 76.173-12.355 36.69 8.229 65.57 36.151 88.47 63.191 8.87 10.471 17.13 21.41 25.04 32.56.52.748 1.78 0 1.26-.702-23.66-33.352-51.78-68.689-90.04-87.634-23.11-11.637-50.1-14.043-75.068-6.69-69.868 20.071-124.744 94.502-203.857 78.055-26.977-5.575-52.462-17.417-76.746-29.75-22.489-11.418-44.302-24.086-65.637-37.355-16.543-10.281-32.281-22.079-49.116-31.858-21.183-12.265-48.335-11.15-71.396-4.906-39.638 10.727-63.421 41.681-87.437 71.365-12.544 15.499-25.823 30.765-42.413 42.473-21.498 15.187-47.974 23.204-74.496 24.911-27.673 1.78-55.331-3.674-80.011-15.779-20.577-9.957-39.545-22.892-60.868-31.423-21.323-8.53-43.567-10.537-65.788-3.768-25.718 7.805-47.566 24.018-73.296 31.813-13.512 4.092-27.665 5.653-41.363 1.505-.898-.268-1.283 1.115-.385 1.349l-.058.022Z" fill="url(#b)"/><path d="M10.816 230.026c23.317 7.014 47.298-3.891 67.385-14.495 23.189-12.266 46.773-26.472 74.17-26.695 23.853-.19 45.619 9.968 66.196 20.45 20.577 10.482 41.317 21.554 64.506 26.438 46.062 9.679 97.288.402 133.662-28.991 29.332-23.729 48.277-57.382 79.58-79.059 19.564-13.384 42.811-20.973 66.848-21.822 13.582-.524 27.467 1.371 39.708 7.248 8.045 3.858 15.518 9.132 23.131 13.738 39.638 23.974 80.279 47.111 123.111 65.588 22.151 9.579 46.237 18.956 70.918 19.659 24.284.669 47.799-8.151 69.028-18.644 29.752-14.73 56.986-33.608 86.622-48.495 23.946-12.087 50.619-21.008 77.959-16.547 35.9 5.921 64.46 31.779 86.85 57.616 8.93 10.292 17.17 21.108 25.01 32.169.53.736 1.78 0 1.26-.702-22.8-32.137-50.47-66.38-88.35-83.051-24.48-10.76-50.83-10.738-76.02-2.397-26.103 8.631-49.385 23.572-72.76 37.31-19.819 11.642-39.883 23.417-61.497 31.769a137.096 137.096 0 0 1-38.158 9.21c-12.696 1.037-25.275-.814-37.528-3.958-25.975-6.691-50.609-18.21-74.415-29.996-22.151-10.983-43.823-22.892-65.158-35.281a1709.668 1709.668 0 0 1-26.173-15.522c-7.356-4.46-14.561-9.489-22.279-13.38-21.906-10.906-48.638-9.356-71.745-3.089-38.636 10.582-62.652 39.373-87.542 67.484-12.824 14.496-26.406 28.412-43.031 38.905-22.034 13.916-48.487 20.908-74.707 22.201-27.484 1.341-54.877-3.967-79.649-15.433-20.414-9.322-39.568-21.297-60.903-28.679-21.918-7.594-44.302-7.962-66.266-.156-24.575 8.753-45.537 24.732-70.3 33.028-12.66 4.237-26.056 6.155-39.078 2.23-.886-.267-1.27 1.115-.385 1.338v.011Z" fill="url(#c)"/><path d="M15.48 235.446c22.244 6.69 45.152-5.018 63.887-15.522 22.314-12.511 44.873-27.041 71.384-29.081 23.841-1.874 46.143 6.88 67.175 16.581 21.032 9.701 41.597 20.071 64.529 24.821 45.047 9.3 95.831 2.008 133.231-24.632 29.857-21.264 49.746-52.765 80.372-73.126 19.043-12.482 41.177-19.964 64.191-21.699 13.617-1.115 27.537-.101 40.419 4.516 9.035 3.256 17.254 8.552 25.578 13.169 39.977 22.156 80.513 43.677 122.611 61.909 21.614 9.366 44.301 18.688 68.108 21.186 23.141 2.464 46.015-4.014 66.918-13.013 32.923-14.184 62.64-33.876 94.293-50.29 23.834-12.366 50.234-23.026 77.934-20.74 36.42 3.011 65.77 27.754 88.3 53.39a373.231 373.231 0 0 1 23.84 30.474c.53.736 1.79 0 1.26-.702-21.89-30.843-48.96-63.615-86.11-78.167-25.33-9.913-52.23-7.66-77.35 1.617-26.814 9.902-50.911 25.469-75.65 39.24-21.113 11.753-42.821 23.706-66.091 31.066-12.125 3.835-24.867 6.356-37.68 6.289-12.183-.056-24.249-2.665-35.837-6.089-25.462-7.504-49.758-18.9-73.529-30.296-21.265-10.192-42.203-21.019-62.955-32.17a2030.064 2030.064 0 0 1-26.698-14.552c-7.508-4.159-14.922-8.92-22.896-12.266-22.606-9.411-48.965-7.448-72.119-1.115-18.15 5.124-34.936 13.92-49.221 25.792-13.99 11.463-25.94 25.011-38.472 37.857-13.571 13.871-28.202 26.906-45.643 36.195-22.29 11.864-48.009 17.507-73.377 18.298-26.981.779-53.79-4.367-78.367-15.042-20.53-8.764-40.116-19.971-61.789-26.104-22.151-6.289-44.302-4.862-65.66 3.747-23.491 9.478-43.544 25.357-67.361 34.11-11.834 4.36-24.483 6.623-36.817 2.921-.898-.267-1.283 1.115-.385 1.35l-.023.078Z" fill="url(#d)"/><path d="M20.131 240.843c21.871 6.478 44.302-6.691 62.174-17.44 20.857-12.511 41.97-26.472 66.79-30.252 23.958-3.646 47.03 3.802 68.784 12.768 21.288 8.786 42.145 18.554 65.019 23.037 43.986 8.608 93.558 2.81 131.634-20.818 30.673-19.024 51.762-48.829 82.424-67.797 19.189-11.64 41.002-18.738 63.631-20.707 13.325-1.249 26.872-.669 39.731 3.078 9.63 2.81 18.327 7.805 27.187 12.266 39.301 19.814 78.869 39.25 119.37 56.746 22.151 9.578 45.211 20.004 69.448 23.606 22.256 3.345 45.001-2.041 65.671-9.757 34.614-12.924 65.8-32.337 98.128-49.454 24.478-13.013 51.438-25.501 80.148-24.921 35.54.724 64.64 22.825 86.92 47.468a327.324 327.324 0 0 1 23.77 30.018c.52.736 1.79 0 1.26-.703-21.2-29.839-48.02-61.585-85.03-73.594-26.01-8.475-52.98-3.803-77.72 6.211-27.809 11.217-52.967 27.497-79.408 41.246-22.244 11.575-45.305 22.982-69.95 28.992-11.81 2.899-24.25 4.739-36.456 3.836-12.206-.903-24.109-4.237-35.569-8.14-24.413-8.296-47.974-19.135-71.302-29.862-20.985-9.645-41.784-19.681-62.454-29.928a3281.096 3281.096 0 0 1-26.138-13.069c-7.496-3.78-14.899-7.995-22.85-10.839-22.734-8.117-48.324-5.943-71.302.09-18.069 4.823-34.941 13.067-49.618 24.241-13.99 10.549-26.149 23.105-38.974 34.913-14.363 13.225-29.822 25.301-47.845 33.575-22.431 10.292-47.554 14.998-72.282 15.489-25.821.486-51.474-4.067-75.394-13.381-21.323-8.196-41.807-19.035-64.284-24.175-20.617-4.75-42.297-2.841-61.661 5.43-23.316 9.679-42.937 25.814-66.067 35.839-11.787 5.051-24.692 8.396-37.4 4.638-.898-.267-1.282 1.115-.385 1.35Z" fill="url(#e)"/><path d="M24.783 246.24c21.16 6.222 42.856-8.14 59.585-18.801 19.645-12.522 39.417-26.215 62.792-31.512 47.484-10.738 90.165 21.131 135.097 29.617 43.24 8.173 91.774 3.702 130.572-17.038 31.163-16.626 53.489-44.169 83.835-61.798 18.828-10.939 40.186-17.395 62.022-19.971 13.023-1.539 26.325-1.583 39.184 1.115 10.201 2.175 19.423 6.468 28.796 10.727 39.149 17.841 78.379 35.538 118.029 52.409 21.556 9.154 43.357 19.168 66.347 24.531 21.486 5.029 43.136 2.465 64.062-3.735 37.085-10.984 70.801-30.431 104.377-48.606 25.569-13.838 53.129-28.457 83.089-30.241 35.5-2.107 65.1 17.484 87.78 41.904a285.992 285.992 0 0 1 23.31 28.992c.53.736 1.79 0 1.26-.702-20.6-28.992-47.4-59.746-84.42-69.045-27.01-6.802-54.32.512-78.98 11.44-28.798 12.757-55.25 29.817-83.662 43.332-23.118 11.006-47.041 21.811-72.654 26.193-12.381 2.13-24.844 2.698-37.248.457-11.892-2.141-23.375-6.01-34.591-10.247-44.371-16.726-87.542-36.887-130.654-56.39-16.089-7.281-32.41-16.592-49.606-21.186-22.594-6.055-47.112-3.479-69.461 2.375-18.05 4.776-35.017 12.716-50.037 23.417-13.594 9.6-25.707 20.907-38.531 31.389-15.284 12.466-31.873 23.417-50.62 30.52-22.407 8.552-46.761 12.265-70.813 12.433-25.55.026-50.892-4.41-74.776-13.091-20.903-7.416-41.329-16.972-63.421-20.797-21.521-3.724-42.355-.267-61.917 8.832-21.988 10.236-40.536 25.903-62.325 36.396-11.146 5.374-23.632 9.389-36.013 5.742-.898-.267-1.282 1.116-.396 1.339h-.012Z" fill="url(#f)"/><path d="M29.446 251.648c19.446 5.687 39.37-8.274 54.386-18.332 19.435-13.002 38.566-27.364 61.533-34.233 46.889-14.039 90.433 14.63 135.329 22.982 42.541 7.872 89.956 4.65 129.501-13.058 31.477-14.116 55.05-38.882 84.93-55.352 18.467-10.169 38.962-16.391 59.994-19.447 13.605-1.962 27.537-2.654 41.154-.546 10.889 1.672 20.822 5.419 30.894 9.534a32299.813 32299.813 0 0 1 117.271 48.015c21.102 8.664 42.11 18.153 64.202 24.331a123.317 123.317 0 0 0 62.664 1.505c22.71-5.33 44.301-15.109 65.286-24.799 14.876-6.981 29.239-14.786 43.602-22.536 26.568-14.384 54.458-30.441 85.208-34.567 35.22-4.717 65.29 11.954 88.47 36.217 8.18 8.72 15.7 17.984 22.51 27.721.52.736 1.78 0 1.26-.702-19.96-28.056-46.51-57.348-83.13-64.072-28.16-5.185-56.04 4.638-80.93 16.48-30.613 14.574-59.456 32.226-90.525 45.919-23.317 10.248-47.613 20.484-73.447 22.302-23.667 1.616-46.272-5.765-67.922-14.14-43.135-16.726-85.548-35.013-128.299-52.486-16.695-6.824-33.728-15.5-51.565-19.146-22.594-4.627-46.633-1.728-68.691 3.959-18.057 4.688-35.155 12.262-50.573 22.401-13.722 8.921-26.231 19.481-39.638 28.881-15.902 11.151-33.122 20.383-51.915 26.282-22.547 7.081-46.493 10.036-70.183 9.724-25.158-.29-49.373-4.884-73.144-12.578-20.565-6.691-40.944-14.898-62.663-17.429-22.151-2.587-43.241 2.565-62.675 12.745-20.95 10.917-38.671 26.584-59.75 37.299-10.049 5.107-21.416 9.099-32.759 5.777a.764.764 0 0 0-.519.099.708.708 0 0 0-.314.408.675.675 0 0 0 .054.504.727.727 0 0 0 .394.338Z" fill="url(#g)"/><path d="M34.098 257.056c18.478 5.363 37.411-9.211 51.192-18.956 18.793-13.381 37.19-27.877 59.34-35.828 45.887-16.547 89.769 8.363 134.467 16.325 43.136 7.683 90.935 5.141 131.739-11.017 31.139-12.321 55.808-34.288 85.549-48.862 18.804-9.222 39.276-14.797 60.133-17.775 12.952-1.851 26.208-2.665 39.254-1.17 11.098 1.26 21.463 4.46 31.873 8.184 39.021 14.095 77.959 28.39 116.583 43.577 22.07 8.687 43.824 18.644 66.651 25.424 20.087 5.966 40.128 7.449 60.81 3.423 22.663-4.46 44.161-13.548 65.193-22.48 15.727-6.69 30.848-14.585 45.852-22.636 27.606-14.808 55.956-31.947 87.436-37.912 14.24-2.699 28.96-2.498 42.85 1.75 17.26 5.297 31.95 16.158 44.3 28.636a216.759 216.759 0 0 1 21.93 26.594c.52.736 1.78 0 1.26-.702-19.15-26.874-44.96-54.093-80.45-58.765-29.25-3.847-57.75 8.14-83.06 20.774-31.841 15.89-62.246 33.631-95.367 47.123-22.268 9.054-45.584 17.707-70.043 18.644-23.573.892-46.016-6.98-67.49-15.41-42.262-16.593-84.395-33.308-127.076-48.907-17.779-6.501-35.884-14.652-54.712-17.842-22.71-3.824-46.575-.724-68.784 4.684-17.599 4.276-34.441 11.017-49.979 20.004-13.99 8.051-26.814 17.585-40.618 25.926-36.957 22.424-79.276 31.98-122.878 31.222-25.147-.458-49.361-4.873-73.378-11.798-20.751-5.988-41.596-13.18-63.444-14.195-21.848-1.014-42.436 5.52-61.09 16.247-20.238 11.586-37.4 27.553-57.941 38.604-9.024 4.85-19.353 8.786-29.706 5.776a.76.76 0 0 0-.53.088.706.706 0 0 0-.325.41.676.676 0 0 0 .054.512c.085.158.23.279.405.339v-.011Z" fill="url(#h)"/><path d="M38.761 262.453c16.66 4.817 33.6-8.787 45.747-17.841 18.304-13.593 35.838-28.424 56.986-37.913 22.151-9.969 45.782-10.939 69.589-6.545 22.372 4.125 44.01 11.273 66.452 15.053 42.879 7.226 89.524 5.397 130.899-8.14a263.406 263.406 0 0 0 46.237-20.751c13.699-7.639 27.117-15.756 41.574-22.079 40.337-17.618 88.964-24.922 131.575-11.429 39.219 12.388 78.402 25.066 116.875 39.429 40.804 15.254 81.724 38.235 127.075 31.333 23.247-3.535 45.363-12.321 66.977-20.885a469.861 469.861 0 0 0 46.19-21.878c28.783-15.21 57.533-33.452 89.773-41.258 14.15-3.456 29-4.36 43.24-.802 16.48 4.148 30.73 13.815 42.55 25.334 7.87 7.854 15 16.358 21.31 25.413.53.735 1.8 0 1.26-.703-18.44-25.892-43.65-50.959-78.18-53.523-29.71-2.175-58.29 11.485-83.66 24.587-15.39 8.006-30.464 16.492-45.876 24.409a512.373 512.373 0 0 1-55.563 24.219c-21.743 8.096-44.535 15.377-68.143 15.232-23.841-.156-46.517-9.054-68.178-17.73-41.468-16.614-83.508-31.489-126.119-45.238-17.931-5.787-36.083-12.835-54.899-15.332-22.897-3.033-46.482.122-68.784 5.218a216.244 216.244 0 0 0-50.259 18.176c-13.99 7.103-27.152 15.444-41.096 22.569-38.542 19.703-81.608 27.475-125.082 26.226-24.75-.713-48.626-5.04-72.503-11.05-20.658-5.196-41.666-11.028-63.234-10.493-21.568.536-41.48 8.352-59.458 19.581-19.224 12.02-35.604 27.877-55.248 39.295-8.243 4.773-17.896 8.988-27.63 6.178a.746.746 0 0 0-.551.066.695.695 0 0 0-.341.419.668.668 0 0 0 .069.527c.095.16.252.277.438.326h-.012Z" fill="url(#i)"/><path d="M43.413 267.861c15.494 4.46 31.163-9.11 42.11-17.708 17.884-14.038 34.905-29.292 55.505-39.741 20.892-10.604 43.474-13.737 66.814-11.084 23.34 2.654 46.038 9.356 69.18 12.79 42.961 6.468 88.743 5.107 130.678-6.378a304.565 304.565 0 0 0 47.869-17.964c14.258-6.634 28.26-13.737 43.136-19.168 41.398-15.142 88.754-21.844 131.797-10.035 38.764 10.615 77.492 21.476 115.417 34.779 40.699 14.306 81.386 38.314 126.283 33.24 22.045-2.498 43.135-9.913 63.782-17.429a433.091 433.091 0 0 0 50.399-22.234c29.977-15.466 59.077-34.489 91.717-44.525 14.06-4.327 29.06-6.612 43.73-4.07 16.24 2.81 30.44 11.318 42.11 22.223a158.875 158.875 0 0 1 20.69 24.186c.53.736 1.8 0 1.26-.702-18.07-25.335-43.13-48.283-77.13-48.171-30.51.1-59.25 15.678-85.11 29.504-15.73 8.408-31.286 17.128-47.293 25.056a465.054 465.054 0 0 1-58.898 23.774c-20.985 7.025-43.054 12.856-65.52 11.674-24.482-1.282-47.717-11.362-70.019-20.372-39.569-15.99-80.443-28.602-121.631-40.143-17.838-5.006-35.873-11.028-54.363-13.302-23.375-2.889-47.205.223-70.125 4.85a257.422 257.422 0 0 0-50.725 15.7c-13.99 6.022-27.525 13.102-41.55 19.124-39.988 17.138-83.264 23.818-126.947 22.513-24.413-.736-48.126-4.661-71.921-9.679-20.984-4.46-42.377-9.088-63.98-7.158-21.603 1.929-41.049 10.805-58.63 22.68-18.268 12.355-33.832 28.223-52.59 39.886-7.532 4.672-16.509 9.166-25.649 6.546-.897-.268-1.282 1.115-.384 1.338h-.012Z" fill="url(#j)"/><path d="M48.076 273.269c14.608 4.148 29.496-9.946 39.394-18.165 17.406-14.495 33.972-30.051 54.036-41.257 20.274-11.352 42.424-15.946 65.811-14.641 22.944 1.282 45.409 6.69 68.119 9.768 43.136 5.776 88.196 4.851 130.69-4.594 31.862-7.07 60.915-20.852 91.867-30.419a360.803 360.803 0 0 1 58.805-12.411c25.427-3.412 49.944-3.345 74.998 2.464 38.6 8.999 77.224 18.131 114.857 30.431 21.44 7.002 41.97 15.945 63.083 23.784 19.924 7.404 40.105 12.667 61.649 11.273 21.906-1.427 43.066-7.972 63.655-14.886a407.452 407.452 0 0 0 53.535-22.167c31.205-15.701 60.775-35.504 93.905-47.436 13.67-4.917 28.32-8.307 43.01-6.969 15.94 1.45 30.21 8.776 41.82 19.112a134.724 134.724 0 0 1 19.93 22.793c.53.736 1.79 0 1.26-.703-17.58-24.61-42.18-44.949-75.06-42.696-31.32 2.152-60.27 19.413-86.82 33.954-16.24 8.92-32.449 17.897-49.226 25.847a428.736 428.736 0 0 1-60.914 22.737c-20.985 6.277-43.054 10.994-65.182 8.675-23.934-2.509-46.446-12.801-68.376-21.633-39.323-15.845-80.617-26.761-121.934-36.697-18.828-4.516-37.808-9.868-57.207-11.429-23.165-1.873-46.867 1.516-69.589 5.709a325.619 325.619 0 0 0-50.76 13.649c-14.071 5.051-27.851 10.816-41.97 15.611-40.804 13.793-83.555 19.201-126.714 17.841-24.599-.792-48.592-4.539-72.771-8.597-20.064-3.346-40.559-6.323-60.903-3.457-21.626 3.044-40.804 12.89-58.047 25.379-17.639 12.767-32.643 28.813-50.748 40.934-6.82 4.561-15.156 9.322-23.76 6.88a.764.764 0 0 0-.519.1.705.705 0 0 0-.314.408.673.673 0 0 0 .054.503.72.72 0 0 0 .395.338l-.059-.033Z" fill="url(#k)"/><path d="M52.728 278.666c14.176 3.981 28.808-11.43 37.89-19.536 17.184-15.344 33.739-31.49 53.931-43.254 19.335-11.271 41.634-17.023 64.272-16.581 22.209.223 44.138 4.349 66.137 6.791 44.512 4.962 90.341 4.159 134.362-4.204 31.641-5.999 61.789-16.838 93.045-24.141a526.454 526.454 0 0 1 62.792-10.315 237.1 237.1 0 0 1 72.06 2.966c39.906 7.706 79.894 15.611 118.588 27.877 40.944 13.013 79.801 37.221 124.476 33.452 21.766-1.828 42.856-8.195 63.479-14.774a360.214 360.214 0 0 0 52.929-21.822c31.221-15.745 60.551-35.683 93.271-48.506 13.12-5.152 27.23-9.088 41.55-8.53 15.15.591 28.86 6.779 40.04 16.38a115.289 115.289 0 0 1 18.43 20.752c.53.736 1.79 0 1.25-.703-16.74-23.416-40.29-40.912-71.3-37.355-31.01 3.557-59.3 21.231-85.56 35.917-16.08 8.976-32.18 17.975-48.885 25.881-19.458 9.221-39.708 16.202-60.483 22.19-21.09 6.088-43.066 10.95-65.287 9.277-23.887-1.795-46.236-11.786-68.107-20.629-39.639-16.035-81.224-26.271-123.264-34.779-18.653-3.78-37.621-8.229-56.659-10.036-23.853-2.286-47.892.736-71.465 4.249a463.665 463.665 0 0 0-52.824 10.861c-14.456 3.902-28.714 8.441-43.194 12.265-41.661 11.137-84.837 16.219-128.078 15.076-23.736-.602-47.088-3.49-70.591-6.49-20.332-2.587-41.084-4.739-61.463-1.26-20.985 3.591-39.638 13.303-56.437 25.714-17.978 13.392-32.947 29.895-50.726 43.387-6.482 4.907-15.062 10.984-23.794 8.542a.764.764 0 0 0-.551.066.697.697 0 0 0-.341.419.667.667 0 0 0 .069.527c.095.16.252.277.438.326Z" fill="url(#l)"/><path d="M57.38 284.074c5.526 1.528 10.795-.636 15.435-3.457 7.94-4.828 14.678-11.485 21.3-17.841 16.601-15.834 32.83-32.147 52.614-44.424 18.985-11.776 40.979-18.355 63.596-19.024 22.454-.814 44.838 2.353 67.152 4.193 44.418 3.691 89.489 2.933 133.58-3.758 31.967-4.884 63.363-12.544 95.249-17.841 20.985-3.457 42.121-6.155 63.293-8.173 24.82-2.364 48.463-1.06 73.039 2.743 40.594 6.267 81.398 12.712 120.605 24.855 22.011 6.824 42.704 16.726 64.389 24.331 20.169 7.069 40.396 10.325 61.789 8.151 22.255-2.23 44.103-8.542 65.286-15.187a327.58 327.58 0 0 0 50.583-21.254c30.8-15.722 59.56-35.37 91.42-49.119 12.82-5.575 26.81-10.203 41.04-10.336 14.1-.064 27.71 4.884 38.21 13.882a97.823 97.823 0 0 1 16.7 18.566c.53.736 1.8 0 1.26-.713-8.23-11.497-18.39-22.302-31.82-28.234-10.76-4.784-22.66-5.787-34.3-4.092-30.56 4.46-58.29 22.658-84.29 37.477-16.12 9.2-32.29 18.354-49.083 26.394a360.313 360.313 0 0 1-59.247 21.744c-21.708 6.066-44.302 11.273-67.059 10.102-24.401-1.26-46.971-11.05-69.122-20.071-40-16.291-81.736-25.758-124.464-32.861-18.921-3.145-38.006-6.69-57.126-8.441-24.913-2.297-49.792.613-74.508 3.646-32.515 3.992-64.319 10.504-96.414 16.726-42.308 8.207-84.616 12.846-127.845 12.121-23.876-.401-47.508-2.676-71.267-4.75-20.659-1.795-41.679-2.855-62.069 1.561-20.985 4.549-39.452 14.998-55.96 27.877-17.697 13.905-32.258 30.898-49.64 45.038-5.76 4.683-13.793 11.083-21.93 8.831a.757.757 0 0 0-.553.062.702.702 0 0 0-.345.417.67.67 0 0 0 .065.529c.094.161.251.28.437.33Z" fill="url(#m)"/><path d="M62.043 289.482c5.2 1.427 10.154-.97 14.351-3.78 7.275-4.884 13.454-11.34 19.528-17.495 16.403-16.615 32.492-33.62 52.194-46.755 18.58-12.435 40.241-19.997 62.827-21.934 22.267-1.974 44.709.1 66.953 1.338 45.899 2.565 91.961 1.851 137.568-3.579 31.991-3.814 63.934-7.806 95.995-11.051 21.264-2.152 42.529-4.46 63.829-6.166 23.981-1.951 47.181-.636 71.011 2.152 41.969 4.918 84.452 9.857 124.883 22.302 22.303 6.88 43.136 17.339 65.205 24.788 19.697 6.787 40.772 9.112 61.568 6.79 40.442-4.46 80.232-17.908 115.915-36.351 30.71-15.879 59.19-35.682 90.58-50.323 24.11-11.251 52.56-18.666 75.34-.714a81.686 81.686 0 0 1 15.56 16.86c.52.725 1.79 0 1.26-.714-7.47-10.414-16.82-20.071-29.15-25.011-10.62-4.282-22.26-4.46-33.42-2.23-30.11 5.999-57.13 24.632-82.88 39.708-33.81 19.804-67.902 37.466-106.292 47.77-22.046 5.921-44.85 11.15-67.898 10.559-24.354-.657-46.634-9.645-68.679-18.71-20.787-8.542-41.585-15.879-63.608-20.942-20.892-4.794-42.11-8.151-63.386-10.95-19.656-2.598-39.464-5.318-59.248-6.868-24.692-1.929-49.116.602-73.657 2.977-33.413 3.245-66.802 6.69-100.121 10.682-42.74 5.163-85.024 9.445-128.242 8.988-24.004-.246-47.88-1.974-71.838-3.056-20.647-.936-41.632-.847-61.696 4.461-21.183 5.642-39.638 17.005-56.146 30.742-17.08 14.273-31.093 31.401-47.8 46.008-5.07 4.46-12.59 11.151-20.168 9.088a.759.759 0 0 0-.519.1.705.705 0 0 0-.314.408.673.673 0 0 0 .054.503.723.723 0 0 0 .394.338l.047.067Z" fill="url(#n)"/><path d="M66.695 294.879c4.861 1.327 9.42-1.26 13.185-3.992 7.112-5.185 13.022-11.953 18.945-18.276 16.03-17.295 31.955-34.812 51.518-48.617 18.084-12.795 39.193-21.118 61.451-24.231 22.337-3.166 45.094-2.107 67.618-1.471a1291.2 1291.2 0 0 0 139.188-3.089c32.282-2.565 64.564-2.743 96.904-4.193 22.151-.992 44.185-3.044 66.289-4.561 23.911-1.65 47.356-.211 71.186 1.718 42.949 3.456 86.738 6.913 127.856 20.071 22.571 7.226 43.544 18.354 66.208 25.357 19.971 6.177 40.396 7.326 61.159 4.783 40.7-4.984 79.755-17.841 115.558-36.797 30.09-15.923 57.91-35.604 88.32-50.948 21.63-10.905 48.97-21.008 70.99-5.386a65.894 65.894 0 0 1 15.06 15.612c.53.735 1.79 0 1.26-.703-6.79-9.478-15.46-18.031-26.96-22.056-10.24-3.568-21.35-2.91-31.74-.301-29.34 7.37-55.41 26.126-80.7 41.369-32.48 19.57-65.924 38.113-103.231 47.826-22.629 5.876-45.91 11.317-69.495 11.373-24.482.056-46.633-7.805-68.866-16.993-20.891-8.631-41.445-16.626-63.689-21.566-21.369-4.739-43.136-7.627-64.948-9.824-20.239-2.04-40.571-3.802-60.88-5.129-25.135-1.65-49.862.479-74.904 2.386-33.81 2.576-67.56 2.799-101.428 4.36-19.096.881-38.134 2.676-57.207 3.881a1061.451 1061.451 0 0 1-72.783 2.118c-24.482-.078-48.965-1.271-73.447-1.338-20.67-.056-41.55 1.216-61.311 7.426-20.752 6.512-38.857 18.332-54.864 32.338-16.881 14.785-30.626 32.337-46.82 47.702-4.558 4.293-11.775 11.776-19.026 9.813a.757.757 0 0 0-.553.062.701.701 0 0 0-.345.418.668.668 0 0 0 .065.528c.094.161.251.28.437.33Z" fill="url(#o)"/><path d="M71.358 300.287c4.407 1.182 8.464-1.405 11.751-3.969 7.065-5.498 12.825-12.623 18.654-19.28 15.249-17.551 30.626-35.125 49.384-49.398 18.115-13.909 39.424-23.505 62.174-27.999 22.501-4.461 45.666-4.461 68.527-4.026 25.147.446 50.423.458 75.558-.49 21.101-.792 42.343-2.944 63.479-1.974 32.399 1.483 64.611 4.46 97.079 3.591 22.804-.603 45.467-2.42 68.259-3.814 23.807-1.45 47.391-.346 71.174.736 43.894 1.985 89.221 3.713 131.11 17.596 22.838 7.56 43.998 19.19 67.186 25.87 20.472 5.898 41.632 6.266 62.71 3.512 40.207-5.221 78.992-17.773 114.247-36.976 29.76-16.101 57.13-35.883 86.8-52.074 19.68-10.727 46.53-23.416 67.84-9.199a53.85 53.85 0 0 1 13.5 13.66c.53.735 1.78 0 1.25-.703-6.15-8.575-14.17-16.135-24.82-19.19-9.89-2.833-20.43-1.372-30.08 1.594-28.56 8.809-53.7 27.687-78.57 43.154-31.78 19.77-64.93 38.693-101.715 48.505-23.153 6.167-47.461 11.296-71.57 11.586-24.483.29-46.703-6.858-68.936-16.091-21.171-8.809-41.806-17.395-64.458-22.167-21.428-4.528-43.323-6.847-65.194-8.375-20.984-1.46-42.144-2.341-63.211-3.244-25.497-1.115-50.632.758-76.047 2.352a831.723 831.723 0 0 1-103.327.223c-18.852-1.115-37.633-2.564-56.543-1.851-24.191.915-48.277 2.231-72.503 2.442-24.704.179-49.49-.814-74.17 0-20.74.703-41.55 3.268-61.043 10.359-20.6 7.483-38.566 19.76-54.398 34.3-16.811 15.455-30.428 33.62-46.33 49.911-3.94 4.047-10.702 11.864-17.382 10.147a.765.765 0 0 0-.551.066.7.7 0 0 0-.341.419.668.668 0 0 0 .069.527c.095.16.252.277.438.326v-.056Z" fill="url(#p)"/><path d="M76.01 305.695c4.278 1.115 8.16-1.929 11.122-4.46 6.633-5.787 12.043-12.979 17.545-19.715 14.911-18.22 30.125-36.317 48.72-51.293 17.788-14.448 38.809-24.794 61.44-30.241 22.349-5.341 45.549-6.411 68.469-7.002 25.916-.658 51.856-.413 77.761-1.227 21.556-.669 43.264-2.23 64.773-.223 32.842 3.145 65.287 9.59 98.326 10.203 23.317.435 46.435-1.238 69.647-2.453 12.824-.669 25.648-.335 38.472-.212 10.621.1 21.219-.825 31.828-1.115 44.045-1.171 90.375 1.505 132.018 16.302 23.317 8.285 45.083 20.417 69.192 26.617 20.076 5.163 40.921 5.018 61.393 2.42 21.614-2.754 43.439-7.17 63.969-14.295a323.448 323.448 0 0 0 50.775-23.183c29.59-16.414 56.66-36.496 85.78-53.601 17.67-10.393 43.82-25.368 64.24-12.757a42.993 42.993 0 0 1 12.02 11.787c.53.735 1.79 0 1.25-.703-5.54-7.727-12.96-14.295-22.75-16.414-9.8-2.118-19.82.234-28.93 3.646-27.78 10.438-52.04 29.461-76.61 45.25-31.6 20.294-64.81 39.44-101.7 49.454-22.921 6.211-47.298 10.738-71.116 11.206-24.261.48-46.307-5.687-68.388-14.853-21.369-8.92-42.109-18.242-64.878-23.416-21.743-4.951-44.08-7.415-66.382-8.475-21.207-1.003-42.192 0-63.375.658-12.824.413-25.555-.613-38.332-.111-12.335.49-24.634 1.416-36.957 2.029-20.391 1.004-40.804 1.405-61.218-.089-15.739-1.115-31.314-3.568-46.936-5.665-18.362-2.464-36.782-4.728-55.354-4.605-24.377.156-48.72 1.539-73.097 1.728-25.311.19-50.749.179-75.989 2.119-20.764 1.606-41.48 5.007-60.775 12.734-20.542 8.24-38.321 21.187-53.943 36.184-16.648 16.013-29.962 34.568-45.304 51.606-3.498 3.825-10.026 12.466-16.322 10.827a.764.764 0 0 0-.519.1.705.705 0 0 0-.314.408.673.673 0 0 0 .054.503.72.72 0 0 0 .395.338v-.011Z" fill="url(#q)"/><path d="M80.673 311.092c3.964 1.015 7.52-2.23 10.084-4.683 6.237-5.955 11.285-13.147 16.473-19.904 15.063-19.592 30.638-38.916 49.898-54.951 17.828-14.93 38.883-25.911 61.661-32.159 22.698-6.211 46.411-8.162 69.95-9.277 26.137-1.238 52.31-1.327 78.472-1.45 21.171-.089 42.436-.334 63.572 1.049 32.807 2.152 63.655 13.38 96.251 16.536 23.433 2.23 46.855.792 70.3-.379 13.209-.658 26.371-.335 39.58-.647 10.912-.256 21.789-1.527 32.643-2.118 44.663-2.387 92.637-1.606 134.747 14.496 22.955 8.764 44.767 20.807 68.9 26.561 20.239 4.828 41.282 4.46 61.789 1.973 21.65-2.665 43.322-6.891 63.818-14.15a318.717 318.717 0 0 0 50.309-23.417c29.63-16.726 56.54-37.265 85.16-55.463 15.75-10.036 41.07-27.331 60.72-16.961 4.51 2.562 8.34 6.093 11.18 10.315.52.736 1.79 0 1.26-.703-5.01-6.947-11.81-12.466-20.77-13.726-9.22-1.294-18.56 1.706-26.81 5.319-27.5 11.953-51.39 31.701-76.06 48.082-31.28 20.762-64.45 40.031-101.288 50.178a295.513 295.513 0 0 1-70.719 10.85c-23.969.568-46.027-4.728-67.933-13.772-21.661-8.92-42.494-19.145-65.578-24.353-22.302-5.029-45.316-6.969-68.178-7.415-21.742-.424-43.275.981-64.936 2.498-13.104.925-26.255.1-39.382.635-12.661.513-25.298 1.417-37.971 1.829-20.775.658-41.562-.234-61.999-4.07-14.783-2.776-29.239-6.913-44.033-9.656-18.327-3.413-36.887-4.461-55.517-4.762-24.284-.424-48.592-.167-72.865.067-45.56.457-94.945.1-137.323 18.298-21.253 9.133-39.58 22.982-55.551 39.028-16.427 16.559-29.543 35.448-44.302 53.312-2.95 3.568-9.327 13.046-15.156 11.563a.754.754 0 0 0-.55.066.7.7 0 0 0-.342.419.668.668 0 0 0 .07.527c.094.16.252.277.438.326l-.012.089Z" fill="url(#r)"/><path d="M85.325 316.5c3.835.948 7.216-2.821 9.454-5.229 6.004-6.468 10.889-13.916 16.019-21.008 14.468-20.072 29.74-39.619 48.545-56.155 17.541-15.522 38.293-27.348 60.915-34.713 22.512-7.281 46.26-10.336 69.88-12.031 26.499-1.907 53.091-2.085 79.649-1.929 21.358.122 42.914.334 64.121 2.843 33.75 4.014 64.319 19.168 97.929 23.528 23.317 3.022 46.634 1.751 70.009.625 24.167-1.116 48.335-1.785 72.491-3.123 46.633-2.575 95.819-5.575 139.76 12.344 22.045 8.977 43.287 20.495 66.79 25.714 21.276 4.739 43.346 4.114 64.878 1.416 21.149-2.654 41.97-6.813 61.965-14.117a313.388 313.388 0 0 0 49.97-23.874c29.14-16.949 55.56-37.555 83.19-56.601 10.2-7.025 20.73-14.139 32.29-18.956 8-3.345 17.62-5.91 25.94-2.107 4 1.986 7.39 4.943 9.82 8.574.52.736 1.78 0 1.26-.702-11.36-15.734-29.23-11.641-44.57-3.758-26.4 13.559-49.36 33.263-73.58 49.944-30.83 21.187-63.77 40.734-100.374 51.294a287.864 287.864 0 0 1-71.757 10.972c-24.016.591-46.388-4.137-68.411-13.169-22.022-9.032-42.774-20.127-66.196-25.022-22.255-4.65-45.246-5.431-67.956-5.085-48.685.725-97.289 5.196-145.974 6.144-21.078.413-42.144-1.115-62.581-6.322-15.028-3.814-29.496-9.389-44.488-13.381-41.259-10.872-85.98-9.01-128.358-8.508-46.202.557-95.762 2.475-137.906 22.558-21.079 10.035-39.207 24.531-54.958 41.157-16.076 16.983-28.982 36.095-42.972 54.639-2.332 3.144-9.035 14.038-14.421 12.723a.753.753 0 0 0-.551.065.7.7 0 0 0-.341.42.667.667 0 0 0 .069.527c.095.16.252.277.438.326l.011-.023Z" fill="url(#s)"/><path d="M89.976 321.908c3.696.859 6.879-3.456 8.802-5.776 5.561-6.69 10.178-14.206 15.063-21.387 14.421-21.186 29.938-41.893 49.174-59.4 17.352-15.891 37.843-28.313 60.274-36.541 22.489-8.173 46.365-12.176 70.241-14.373 26.954-2.486 54.106-2.698 81.165-2.174 21.65.412 43.684 1.171 64.972 5.252 32.643 6.255 60.868 24.71 93.733 30.218 22.733 3.814 45.875 2.375 68.784 1.428 25.298-1.049 50.527-2.599 75.779-4.806 47.134-4.115 96.763-8.854 141.403 9.623 22.291 9.232 43.684 20.985 67.525 26.293 21.101 4.683 43.007 4.36 64.412 1.963 21.603-2.42 42.798-6.546 63.127-14.028a305.296 305.296 0 0 0 50.48-24.431c28.92-17.161 55-37.98 81.75-57.984 10.16-7.583 20.48-15.31 31.85-21.186 7.08-3.636 16.23-7.583 24.34-4.773 3.64 1.398 6.72 3.856 8.82 7.025.53.736 1.79 0 1.26-.703-10.62-14.696-28.4-6.98-41.22.625-25.76 15.321-48.33 35.526-72.63 52.832-30.83 21.967-64.12 41.871-101.214 52.531a277.295 277.295 0 0 1-72.398 10.37c-23.124.269-46.042-4.187-67.221-13.068-22.536-9.255-43.999-21.354-68.248-26.149-22.617-4.46-46.004-4.583-68.982-3.501-22.979 1.081-45.748 3.602-68.644 5.263a1561.915 1561.915 0 0 1-80.443 3.724c-20.74.424-41.41-1.661-61.112-8.106-14.702-4.817-28.528-11.731-43.066-16.938-40.035-14.362-84.849-13.459-126.971-13.024-47.356.479-97.615 4.404-139.993 26.438-21.171 11.006-39.358 26.249-55.062 43.633-15.704 17.384-28.574 37.065-41.97 56.289-2.017 2.888-8.44 14.607-13.314 13.459-.909-.212-1.305 1.115-.396 1.349l-.07.033Z" fill="url(#t)"/><path d="M94.64 327.305c3.182.714 5.829-3.345 7.379-5.307 5.538-7.181 10.026-15.154 14.888-22.759 13.99-21.9 29.32-43.131 48.312-61.329 16.923-16.371 36.905-29.563 58.909-38.894 22.979-9.634 47.799-14.774 72.573-17.54 27.024-2.999 54.375-3.222 81.538-2.308 21.743.725 43.905 2.23 65.007 7.538 32.83 8.318 59.877 29.627 93.208 36.474 23.072 4.739 46.901 3.613 70.323 2.598 25.742-1.115 51.296-3.602 76.84-6.623 24.237-2.877 48.603-5.665 73.062-5.576a207.918 207.918 0 0 1 36.479 2.911c12.323 2.23 23.748 6.433 35.138 11.396 22.081 9.589 43.428 21.074 67.374 25.925 22.057 4.46 44.838 3.914 67.105 1.305 20.693-2.42 40.805-6.691 60.155-14.039a302 302 0 0 0 49.96-24.855c28.9-17.618 54.79-39.028 81.01-60.024 9.68-7.806 19.4-15.712 30.06-22.302 6.23-3.836 14.67-8.921 22.5-7.304 3.28.778 6.11 2.74 7.91 5.475.54.736 1.8 0 1.26-.702-9.97-13.727-28.18-1.784-38.47 5.263-24.3 16.726-45.98 36.797-69.61 54.293-30.91 22.937-64.64 43.488-102.29 54.583-22.771 6.69-47.079 9.779-70.85 10.18-22.623.508-45.113-3.447-66.067-11.619-23.562-9.255-45.643-22.836-70.72-28.144-23.013-4.862-47.006-4.394-70.369-2.699-23.678 1.729-47.17 5.119-70.766 7.561a842.433 842.433 0 0 1-81.13 4.382c-21.183.122-42.192-2.632-61.882-10.315-15.156-5.932-29.146-14.306-44.092-20.74-39.16-16.849-83.94-17.206-126.131-16.726-48.219.491-98.548 6.601-140.658 30.62-42.96 24.531-69.798 63.983-95.376 103.791-1.667 2.576-7.974 15.131-12.23 14.195-.91-.201-1.306 1.115-.385 1.338l.035-.023Z" fill="url(#u)"/><path d="M99.291 332.714c3.055.624 5.584-4.093 6.867-5.988 4.966-7.315 9.14-15.143 13.675-22.703 13.361-22.302 28.26-43.823 46.633-62.645 34.217-35.058 78.845-55.152 128.113-62.288 27.98-4.048 56.461-4.46 84.663-3.167 21.976.981 44.301 3.1 65.38 9.4 32.876 9.824 58.921 33.04 92.1 42.016 22.897 6.189 46.82 6.256 70.393 5.185 26.22-1.193 52.066-4.337 77.982-8.207 24.914-3.713 49.956-7.493 75.22-8.106a191.47 191.47 0 0 1 38.006 2.397c12.334 2.23 23.713 6.568 35.068 11.608 22.256 9.88 43.73 21.543 67.921 26.572 22.314 4.639 45.374 4.349 67.956 1.896 40.242-4.349 76.782-18.365 110.612-39.463 28.94-18.03 54.8-39.942 80.34-62.053 9.52-8.241 18.98-16.671 29.23-24.086 5.56-4.014 13.3-10.036 20.76-9.634 1.38.074 2.73.461 3.92 1.128a8.577 8.577 0 0 1 2.96 2.708c.54.724 1.79 0 1.26-.703-8.91-12.199-27.05 3.156-34.73 9.121-23.92 18.589-45.66 39.619-69.72 58.073-30.53 23.417-64.21 44.18-101.85 55.319-22.916 6.791-47.317 9.735-71.274 9.913-23.101.326-46.028-3.867-67.374-12.321-23.468-9.389-45.467-23.417-70.591-28.669-23.316-4.884-47.589-3.724-71.115-1.327-52.579 5.375-104.4 17.183-157.679 14.741-21.218-.97-41.841-5.307-60.914-14.373-14.655-6.958-28.097-16.001-42.681-23.104-39.126-19.046-84.803-20.584-127.822-19.927-48.907.748-98.921 9.679-140.168 36.062-41.632 26.617-68.003 66.67-92.287 107.482-1.166 2.052-7.112 14.496-10.492 13.804-.921-.189-1.306 1.115-.397 1.339h.035Z" fill="url(#v)"/><path d="M103.954 338.122c2.763.479 4.979-4.461 5.993-6.133 4.78-7.906 8.907-16.169 13.453-24.197 12.976-22.937 27.759-45.049 45.946-64.563 34.077-36.563 79.078-59.344 129.477-67.339 27.98-4.461 56.764-4.773 85.106-2.966 21.929 1.405 44.126 4.46 64.738 12.02 32.83 12.076 57.709 37.779 91.436 48.004 22.442 6.813 46.19 7.27 69.507 6.233 27.036-1.193 53.488-5.352 80.046-10.102 25.648-4.594 51.541-9.322 77.702-10.337a170.87 170.87 0 0 1 36.433 1.974c12.917 2.23 24.808 7.248 36.607 12.667 22.22 10.214 43.73 21.721 68.049 26.762 22.827 4.716 46.423 4.46 69.53 1.996 39.733-4.227 76.133-18.957 109.213-40.054 29.01-18.532 54.8-41.068 79.76-64.273 9.17-8.541 18.21-17.272 27.8-25.401 5.19-4.382 12.03-11.062 19.25-12.099 1.09-.23 2.23-.14 3.27.258a5.567 5.567 0 0 1 2.56 1.973c.53.724 1.79 0 1.26-.703-7.82-10.627-26.75 8.921-32.07 13.66-22.81 20.194-44.31 41.67-68.21 60.693-30.17 23.963-63.81 45.038-101.42 56.412-22.69 6.857-46.636 9.723-70.442 9.879-23.013.145-45.596-3.423-66.965-11.686-24.483-9.467-47.1-24.788-73.051-30.486-23.41-5.14-48.102-3.345-71.675-.312-53.279 6.802-105.333 20.963-159.614 17.841-21.58-1.238-42.366-6.222-61.299-16.313-14.538-7.75-27.596-17.73-41.83-25.937-37.972-21.855-82.693-25.312-126.097-24.978-50.69.391-101.602 11.207-143.315 39.842-41.072 28.178-67.921 69.068-90.935 111.228-.863 1.584-7.076 15.611-9.735 15.087-.921-.156-1.305 1.182-.384 1.35h-.094Z" fill="url(#w)"/><path d="M108.804 343.608c2.495.312 4.862-6.089 5.596-7.494 4.512-8.652 8.721-17.439 13.361-26.036 12.719-23.618 27.548-46.309 45.747-66.448 34.217-37.912 79.848-62.934 131.506-71.364 28.189-4.583 57.417-4.684 85.84-2.019 22.465 2.108 44.919 6.59 65.286 16.214 31.664 14.975 55.12 42.071 89.221 52.821 22.909 7.236 47.414 7.66 71.279 6.355 26.149-1.416 51.646-6.489 77.178-11.808 26.138-5.442 52.462-11.151 79.276-12.623a155.596 155.596 0 0 1 36.141 1.617c12.824 2.297 24.576 7.471 36.141 12.935 21.906 10.303 43.135 21.788 67.07 27.174 23.934 5.386 48.79 5.375 73.109 2.844 39.635-4.137 76.325-19.57 109.045-41.046 28.69-18.823 54.12-41.704 78.11-65.667 9.17-9.155 18.1-18.532 27.38-27.598 4.98-4.85 10.75-11.597 17.49-14.239 1.7-.669 3.61-1.115 4.84.535.54.725 1.8 0 1.26-.703-6.38-8.552-26.24 14.954-29.59 18.332-21.78 21.833-43.14 43.968-67.14 63.637-30.17 24.733-64.24 46.254-102.43 57.661-45.284 13.526-97.408 13.648-141.231-4.594-23.41-9.746-45.468-24.744-70.72-30.029-22.99-4.806-47.204-2.398-70.194 1.115-53.873 8.229-106.091 24.922-161.398 21.131-21.708-1.495-42.529-7.025-61.171-17.842-14.678-8.552-27.537-19.547-41.608-28.914-37.307-24.832-81.772-30.419-126.306-30.263-51.88.19-102.838 13.002-144.4 43.488-41.201 30.241-68.469 73.038-90.667 117.295-.723 1.449-5.922 14.351-8.021 14.083-.932-.122-.921 1.271 0 1.394v.056Z" fill="url(#x)"/><path d="M113.456 348.949c2.332.089 4.279-6.624 4.92-8.029 4.173-9.11 8.324-18.231 12.824-27.174 12.509-24.531 27.42-48.171 45.724-69.201 33.809-38.872 79.066-66.414 131.389-75.558 28.901-5.051 59.282-4.962 88.37-1.304 21.976 2.765 43.567 8.407 62.896 18.956 31.291 17.127 53.698 46.064 88.23 58.14 48.732 17.038 102.92 4.839 151.337-6.624 26.242-6.222 52.777-12.723 79.824-14.663 11.775-.836 23.76-.814 35.395 1.305 13.372 2.431 25.729 8.274 37.772 14.139 21.825 10.627 43.136 22.011 67.129 27.442 24.412 5.508 49.863 5.631 74.683 2.966 39.181-4.204 75.671-20.261 107.691-41.804 28.77-19.369 54.16-42.953 77.57-68.02 8.91-9.511 17.49-19.29 26.16-28.992 4.97-5.575 9.98-12.265 16.25-16.581.69-.479 2.74-2.096 3.5-1.037.55.714 1.82 0 1.26-.702-4.46-5.843-24.84 20.439-26.97 22.837-20.61 23.238-41.81 46.007-65.69 66.268-29.82 25.301-63.84 47.179-102.07 58.854-45.337 13.838-97.613 13.615-141.53-4.617-24.063-9.979-46.633-25.947-72.444-31.523-23.177-4.995-47.799-1.84-70.836 2.297-54.433 9.802-107.023 28.992-163.321 24.309-22.151-1.829-43.229-8.285-61.719-20.25-14.9-9.623-27.701-21.811-41.9-32.337-15.414-11.555-32.95-20.253-51.705-25.647-23.526-6.69-48.37-8.563-72.806-8.608-53.15-.111-104.144 14.775-145.542 47.201-41.072 32.315-68.796 76.862-89.851 122.903-.606 1.305-5.339 13.705-6.54 13.66-.933 0-.933 1.361 0 1.394Z" fill="url(#y)"/><path d="M118.306 354.335c1.877-.379 3.497-7.237 3.999-8.464 3.905-9.734 8.067-19.368 12.649-28.835 12.253-25.379 27.175-49.755 45.479-71.555 33.809-40.41 79.498-70.684 133.289-80.095 28.913-5.063 59.691-4.717 88.662 0 21.696 3.512 42.611 10.426 61.066 22.022 30.941 19.425 52.532 50.179 87.857 63.403 49.582 18.522 103.992 4.762 152.957-8.195 26.359-6.981 53.033-14.307 80.372-16.726 12.124-1.06 24.482-1.116 36.502 1.315 13.325 2.665 25.788 9.021 37.808 15.065 21.754 10.95 43.136 22.235 67.198 27.743 24.413 5.575 49.991 5.943 74.836 3.2 39.53-4.348 76.3-20.885 108.28-43.042 28.96-20.071 54.34-44.536 77.14-70.784 8.44-9.713 16.52-19.693 24.42-29.817 4.86-6.245 9.44-12.835 14.78-18.734.64-.713 2.53-2.453 2.48-2.52.59.703 1.61-.29 1.03-.981-1.73-2.085-6.51 4.828-7.15 5.575-5.83 7.237-11.42 14.719-17.21 22.023-19.81 25.022-41.28 48.918-65.57 70.06-29.83 25.992-64.24 48.138-103.03 59.645-45.862 13.627-97.928 12.266-141.891-6.601-24.483-10.504-47.601-27.509-74.24-32.527-23.48-4.46-48.266-.312-71.302 4.595-55.004 11.708-108.562 33.452-166.026 26.616-21.761-2.461-42.446-10.411-59.935-23.037-14.69-10.616-27.188-23.662-41.224-35.002-15.319-12.4-32.445-22.235-51.542-28.312-23.153-7.382-47.799-9.712-72.129-9.846-28.948-.167-57.639 4.103-84.558 14.496-23.307 9.175-44.776 22.142-63.456 38.325-39.487 33.921-67.024 79.114-86.412 125.925-.769 1.84-4.418 13.493-5.514 13.716-1.096.223-.525 1.527.385 1.349Z" fill="url(#z)"/><path d="M123.47 359.219c5.072-17.54 12.72-34.568 20.985-50.981 17.663-35.237 40.804-68.577 70.778-95.328 37.05-33.095 84.313-53.289 135.411-54.315 28.295-.569 57.406 2.063 83.94 12.143 18.653 7.125 34.975 18.153 49.664 31.311 12.475 11.229 23.76 23.651 36.759 34.344 13.617 11.218 29.146 19.849 46.47 24.532 54.945 14.831 109.122-5.14 161.421-19.815 28.306-7.939 59.061-16.592 88.871-13.381 23.876 2.621 45.048 16.726 65.823 27.197 22.792 11.53 46.633 19.848 72.398 22.524 30.659 3.312 61.7.238 91-9.009 48.57-15.701 89.9-47.614 123.84-83.631 22.38-23.623 42.03-49.487 58.61-77.141.83-1.416 1.67-2.843 2.48-4.281.43-.792-.83-1.506-1.26-.703-11.47 20.796-26.02 40.388-41.21 58.809-31.06 37.678-68.65 72.123-113.75 93.911-53.3 25.747-118.603 30.107-173.712 6.691-20.984-8.921-40.139-21.265-61.311-29.761-24.82-9.969-51.844-6.747-77.457-1.305-31.116 6.646-61.171 17.027-91.973 25-27.105 7.025-54.794 10.649-82.867 7.426-20.379-2.341-39.708-8.987-56.403-20.484-14.06-9.678-25.765-21.978-37.936-33.675-12.824-12.399-26.604-24.03-42.692-32.482-20.985-11.05-44.465-16.492-68.155-18.577-28.073-2.464-56.659-1.193-83.846 6.311-22.828 6.399-44.299 16.59-63.433 30.107-34.334 24.064-61.113 56.936-81.608 92.317-12.793 21.703-23.224 44.604-31.128 68.343-.385 1.182-.769 2.364-1.166 3.568a.668.668 0 0 0 .069.527c.095.16.253.277.438.326a.753.753 0 0 0 .551-.066.695.695 0 0 0 .341-.419l.058-.033Z" fill="url(#A)"/></g><path d="M790.663 312.207c-28.504 0-56.053-5.43-80.162-16.503-24.11-11.072-45.118-27.531-65.287-43.41l-.116-.1c-49.385-38.782-98.618-73.695-157.819-74.832-44.091-.848-85 17.841-124.592 35.983l-5.141 2.353c-39.638 18.108-85.875 36.875-132.019 30.463l.152-1.014c45.852 6.378 91.867-12.333 131.4-30.375l5.13-2.341c39.708-18.154 80.769-36.921 125.094-36.084 59.55 1.115 108.947 36.15 158.483 75.066l.128.101c20.157 15.834 41.014 32.214 65.111 43.276 58.292 26.762 136.939 20.361 200.278-16.325 7.846-4.549 15.541-9.545 22.991-14.384 11.926-7.806 24.261-15.779 37.493-22.101 43.473-20.774 100.423-25.011 169.253-12.623l-.2 1.004c-68.59-12.355-125.31-8.129-168.564 12.533-13.162 6.289-25.473 14.284-37.376 22.023-7.45 4.851-15.156 9.857-23.025 14.418-37.528 21.71-80.361 32.872-121.212 32.872Z" fill="url(#B)"/><path d="M825.825 319.277c-28.516 0-56.065-5.431-80.174-16.503-24.11-11.073-45.118-27.531-65.287-43.41l-.116-.1c-49.385-38.783-98.618-73.696-157.807-74.833-44.092-.847-85.012 17.841-124.604 35.983l-5.223 2.353c-39.638 18.109-85.84 36.876-131.984 30.52l.164-1.015c45.84 6.378 91.855-12.333 131.389-30.374l5.129-2.342c39.72-18.153 80.769-36.92 125.094-36.084 59.55 1.115 108.947 36.151 158.483 75.067l.128.1c20.169 15.834 41.014 32.215 65.112 43.276 58.291 26.762 136.95 20.361 200.289-16.324 7.835-4.55 15.529-9.545 22.979-14.385 11.926-7.805 24.261-15.778 37.493-22.101 43.47-20.773 100.42-25.011 169.26-12.622l-.2 1.003c-68.6-12.411-125.32-8.184-168.57 12.456-13.163 6.289-25.474 14.284-37.377 22.022-7.45 4.851-15.156 9.858-23.025 14.418-37.482 21.733-80.314 32.895-121.153 32.895Z" fill="url(#C)"/><path d="M1174.19 166.49c-128.01 0-161.31-34.423-199.36-73.762-24.18-24.978-49.175-50.814-100.985-71.254-49.093-19.368-97.685-19.368-148.55 0-43.054 16.38-78.775 43.21-107.478 64.764-15.155 11.418-28.306 21.275-38.798 26.594-30.312 15.411-62.617 30.208-96.216 30.208a110.82 110.82 0 0 1-12.685-.725c-26.65-3.089-50.667-15.678-73.89-27.877-12.638-6.624-25.648-13.481-39.067-18.755-42.265-16.389-89.17-18.225-132.695-5.197l-.326-.97c43.772-13.084 90.938-11.215 133.429 5.286 13.442 5.307 26.523 12.165 39.184 18.8 23.13 12.132 47.064 24.687 73.447 27.743 37.866 4.382 74.252-12.099 108.259-29.371 10.411-5.275 23.491-15.11 38.647-26.483 28.796-21.666 64.634-48.528 107.77-64.976 51.145-19.469 100.004-19.458 149.377 0 52.02 20.529 77.108 46.454 101.358 71.521 41.429 42.819 77.229 79.795 236.969 72.48v1.026c-13.65.639-26.45.955-38.39.948Z" fill="url(#D)"/><path d="M1190.28 169.656c-128 0-161.3-36.161-199.362-77.475-24.168-26.249-49.175-53.39-100.984-74.855-49.082-20.339-97.673-20.339-148.55 0-43.054 17.206-78.764 45.384-107.466 68.02-15.156 11.987-28.307 22.301-38.799 27.877-30.37 16.19-62.617 31.735-96.216 31.735-4.245.001-8.485-.252-12.696-.759-26.639-3.245-50.655-16.481-73.89-29.27-12.626-6.958-25.649-14.151-39.067-19.693-42.044-17.244-89.221-19.226-132.684-5.575l-.338-1.026c43.707-13.74 91.154-11.758 133.441 5.575 13.431 5.576 26.523 12.779 39.172 19.748 23.142 12.746 47.065 25.926 73.448 29.137 37.866 4.606 74.24-12.712 108.258-30.843 10.4-5.575 23.492-15.878 38.636-27.876 28.761-22.692 64.54-50.926 107.735-68.187 51.156-20.45 100.016-20.44 149.377 0 52.031 21.565 77.108 48.795 101.369 75.122 41.426 44.971 77.216 83.82 236.956 76.149l.06 1.115c-13.66.721-26.46 1.081-38.4 1.081Z" fill="url(#E)"/><path d="M623.227 164.181v5.587M633.335 161.483v11.675M643.454 160.669v13.693M653.562 160.1v15.21M663.681 159.398v17.083M673.801 158.238v20.127M683.908 156.13v25.748M694.028 151.548v40.622M704.135 140.531v81.355M714.255 119.556v113.057M724.374 102.284v109.355M734.482 125.767v67.038M744.602 146.418v36.575M754.709 154.547v24.989M764.829 156.32v24.197M774.948 147.567v38.492M785.056 113.88v86.14M795.175 66.033v165.566M805.283 58.439v193.744M815.402 82.112v135.225M825.51 126.436v72.346M835.629 149.942v42.763M845.749 156.933v35.248M855.857 155.551v39.797M865.976 146.507v57.025M876.084 127.495v93.366M886.203 105.896v146.633M896.323 107.748v149.843M906.43 129.235v107.772M916.55 149.072v60.459M926.657 158.851v34.445M936.777 162.888v25.323M946.896 165.296v21.354M957.004 166.924v18.232M967.123 168.207v15.332M977.231 169.534v11.875M987.351 172.388v4.36" stroke="#fff" stroke-miterlimit="10"/><defs><linearGradient id="p" x1="987.991" y1="204.628" x2="283.163" y2="191.282" gradientUnits="userSpaceOnUse"><stop stop-color="#fff"/><stop offset="1" stop-color="#fff" stop-opacity="0"/></linearGradient><linearGradient id="a" x1="941.737" y1="156.24" x2="218.803" y2="141.229" gradientUnits="userSpaceOnUse"><stop stop-color="#fff"/><stop offset="1" stop-color="#fff" stop-opacity="0"/></linearGradient><linearGradient id="c" x1="947.932" y1="161.222" x2="227.535" y2="144.108" gradientUnits="userSpaceOnUse"><stop stop-color="#fff"/><stop offset="1" stop-color="#fff" stop-opacity="0"/></linearGradient><linearGradient id="d" x1="951.048" y1="164.254" x2="231.908" y2="146.025" gradientUnits="userSpaceOnUse"><stop stop-color="#fff"/><stop offset="1" stop-color="#fff" stop-opacity="0"/></linearGradient><linearGradient id="e" x1="954.12" y1="170.27" x2="236.185" y2="151.884" gradientUnits="userSpaceOnUse"><stop stop-color="#fff"/><stop offset="1" stop-color="#fff" stop-opacity="0"/></linearGradient><linearGradient id="f" x1="957.194" y1="176.32" x2="240.497" y2="157.776" gradientUnits="userSpaceOnUse"><stop stop-color="#fff"/><stop offset="1" stop-color="#fff" stop-opacity="0"/></linearGradient><linearGradient id="g" x1="960.282" y1="182.408" x2="244.817" y2="163.699" gradientUnits="userSpaceOnUse"><stop stop-color="#fff"/><stop offset="1" stop-color="#fff" stop-opacity="0"/></linearGradient><linearGradient id="h" x1="963.485" y1="186.465" x2="249.107" y2="168.122" gradientUnits="userSpaceOnUse"><stop stop-color="#fff"/><stop offset="1" stop-color="#fff" stop-opacity="0"/></linearGradient><linearGradient id="i" x1="966.444" y1="189.201" x2="253.315" y2="171.542" gradientUnits="userSpaceOnUse"><stop stop-color="#fff"/><stop offset="1" stop-color="#fff" stop-opacity="0"/></linearGradient><linearGradient id="j" x1="969.616" y1="191.91" x2="257.611" y2="174.896" gradientUnits="userSpaceOnUse"><stop stop-color="#fff"/><stop offset="1" stop-color="#fff" stop-opacity="0"/></linearGradient><linearGradient id="k" x1="972.628" y1="194.431" x2="261.927" y2="178.067" gradientUnits="userSpaceOnUse"><stop stop-color="#fff"/><stop offset="1" stop-color="#fff" stop-opacity="0"/></linearGradient><linearGradient id="l" x1="975.702" y1="196.851" x2="266.096" y2="181.107" gradientUnits="userSpaceOnUse"><stop stop-color="#fff"/><stop offset="1" stop-color="#fff" stop-opacity="0"/></linearGradient><linearGradient id="m" x1="978.766" y1="198.998" x2="270.357" y2="183.88" gradientUnits="userSpaceOnUse"><stop stop-color="#fff"/><stop offset="1" stop-color="#fff" stop-opacity="0"/></linearGradient><linearGradient id="n" x1="981.824" y1="201.028" x2="274.63" y2="186.521" gradientUnits="userSpaceOnUse"><stop stop-color="#fff"/><stop offset="1" stop-color="#fff" stop-opacity="0"/></linearGradient><linearGradient id="o" x1="984.959" y1="202.949" x2="278.902" y2="189.023" gradientUnits="userSpaceOnUse"><stop stop-color="#fff"/><stop offset="1" stop-color="#fff" stop-opacity="0"/></linearGradient><linearGradient id="b" x1="944.934" y1="158.817" x2="223.253" y2="142.818" gradientUnits="userSpaceOnUse"><stop stop-color="#fff"/><stop offset="1" stop-color="#fff" stop-opacity="0"/></linearGradient><linearGradient id="q" x1="991.084" y1="206.126" x2="287.479" y2="193.339" gradientUnits="userSpaceOnUse"><stop stop-color="#fff"/><stop offset="1" stop-color="#fff" stop-opacity="0"/></linearGradient><linearGradient id="r" x1="994.131" y1="207.459" x2="291.714" y2="195.209" gradientUnits="userSpaceOnUse"><stop stop-color="#fff"/><stop offset="1" stop-color="#fff" stop-opacity="0"/></linearGradient><linearGradient id="s" x1="997.244" y1="208.876" x2="295.975" y2="197.114" gradientUnits="userSpaceOnUse"><stop stop-color="#fff"/><stop offset="1" stop-color="#fff" stop-opacity="0"/></linearGradient><linearGradient id="t" x1="1000.36" y1="209.729" x2="300.332" y2="198.48" gradientUnits="userSpaceOnUse"><stop stop-color="#fff"/><stop offset="1" stop-color="#fff" stop-opacity="0"/></linearGradient><linearGradient id="u" x1="1003.41" y1="210.398" x2="304.52" y2="199.636" gradientUnits="userSpaceOnUse"><stop stop-color="#fff"/><stop offset="1" stop-color="#fff" stop-opacity="0"/></linearGradient><linearGradient id="v" x1="1006.5" y1="210.896" x2="308.8" y2="200.601" gradientUnits="userSpaceOnUse"><stop stop-color="#fff"/><stop offset="1" stop-color="#fff" stop-opacity="0"/></linearGradient><linearGradient id="w" x1="1009.62" y1="211.273" x2="313.187" y2="201.42" gradientUnits="userSpaceOnUse"><stop stop-color="#fff"/><stop offset="1" stop-color="#fff" stop-opacity="0"/></linearGradient><linearGradient id="x" x1="1012.59" y1="211.539" x2="317.39" y2="202.108" gradientUnits="userSpaceOnUse"><stop stop-color="#fff"/><stop offset="1" stop-color="#fff" stop-opacity="0"/></linearGradient><linearGradient id="y" x1="1015.67" y1="211.57" x2="321.664" y2="202.534" gradientUnits="userSpaceOnUse"><stop stop-color="#fff"/><stop offset="1" stop-color="#fff" stop-opacity="0"/></linearGradient><linearGradient id="z" x1="1018.77" y1="211.294" x2="325.881" y2="202.644" gradientUnits="userSpaceOnUse"><stop stop-color="#fff"/><stop offset="1" stop-color="#fff" stop-opacity="0"/></linearGradient><linearGradient id="A" x1="1021.87" y1="210.909" x2="330.174" y2="202.625" gradientUnits="userSpaceOnUse"><stop stop-color="#fff"/><stop offset="1" stop-color="#fff" stop-opacity="0"/></linearGradient><linearGradient id="B" x1="1045.86" y1="244.266" x2="233.968" y2="244.266" gradientUnits="userSpaceOnUse"><stop offset=".22" stop-color="#C169FF"/><stop offset="1" stop-color="#fff" stop-opacity="0"/></linearGradient><linearGradient id="C" x1="1081.01" y1="251.335" x2="269.118" y2="251.335" gradientUnits="userSpaceOnUse"><stop offset=".22" stop-color="#C169FF"/><stop offset="1" stop-color="#fff" stop-opacity="0"/></linearGradient><linearGradient id="D" x1="1045.86" y1="86.204" x2="233.968" y2="86.204" gradientUnits="userSpaceOnUse"><stop offset=".22" stop-color="#C169FF"/><stop offset="1" stop-color="#fff" stop-opacity="0"/></linearGradient><linearGradient id="E" x1="1061.96" y1="85.279" x2="250.056" y2="85.279" gradientUnits="userSpaceOnUse"><stop offset=".22" stop-color="#C169FF"/><stop offset="1" stop-color="#fff" stop-opacity="0"/></linearGradient></defs></svg>