<svg xmlns="http://www.w3.org/2000/svg" width="250" height="98" fill="none"><path fill="#fff" fill-opacity=".6" d="M86.98 54.731h-7.483l-1.239 3.585h-3.956l6.756-18.838h4.387l6.757 18.838h-3.984l-1.239-3.585Zm-1.023-3.018-2.719-7.869-2.719 7.87h5.438ZM107.728 43.386v14.93h-3.795V56.43c-.485.647-1.122 1.158-1.911 1.536a5.921 5.921 0 0 1-2.53.539c-1.167 0-2.199-.243-3.096-.728-.897-.503-1.606-1.23-2.127-2.183-.502-.97-.753-2.12-.753-3.45v-8.758h3.768v8.22c0 1.185.296 2.102.888 2.749.593.628 1.4.943 2.423.943 1.041 0 1.857-.315 2.449-.943.593-.647.889-1.563.889-2.75v-8.219h3.795ZM114.757 46.485v7.223c0 .503.117.871.35 1.105.251.215.664.323 1.238.323h1.75v3.18h-2.369c-3.176 0-4.764-1.545-4.764-4.635v-7.196h-1.777v-3.099h1.777v-3.692h3.795v3.692h3.338v3.1h-3.338ZM126.35 58.559c-1.435 0-2.727-.315-3.876-.944a7.062 7.062 0 0 1-2.718-2.722c-.646-1.167-.969-2.515-.969-4.042 0-1.527.331-2.875.995-4.042a7.02 7.02 0 0 1 2.773-2.695c1.166-.647 2.467-.97 3.903-.97s2.737.323 3.903.97a6.839 6.839 0 0 1 2.746 2.695c.681 1.167 1.022 2.515 1.022 4.042 0 1.527-.349 2.875-1.049 4.042a7.156 7.156 0 0 1-2.8 2.722c-1.166.63-2.476.944-3.93.944Zm0-3.288c.682 0 1.319-.162 1.911-.486.611-.34 1.095-.844 1.454-1.508.359-.666.538-1.474.538-2.426 0-1.42-.377-2.506-1.13-3.26-.736-.773-1.642-1.16-2.719-1.16s-1.983.387-2.719 1.16c-.717.754-1.076 1.84-1.076 3.26 0 1.42.35 2.515 1.05 3.288.717.754 1.614 1.131 2.691 1.131ZM154.336 43.17c1.831 0 3.302.566 4.414 1.698 1.131 1.114 1.697 2.677 1.697 4.69v8.758h-3.769V50.07c0-1.169-.296-2.058-.888-2.668-.592-.63-1.4-.944-2.423-.944-1.023 0-1.839.315-2.449.944-.593.61-.888 1.5-.888 2.668v8.246h-3.769V50.07c0-1.169-.296-2.058-.888-2.668-.593-.63-1.4-.944-2.423-.944-1.041 0-1.866.315-2.476.944-.592.61-.888 1.5-.888 2.668v8.246h-3.769v-14.93h3.769v1.806a5.035 5.035 0 0 1 1.857-1.483 5.917 5.917 0 0 1 2.53-.539c1.167 0 2.207.252 3.123.755a5.103 5.103 0 0 1 2.126 2.102c.484-.862 1.184-1.554 2.1-2.075a6.08 6.08 0 0 1 3.014-.782ZM161.977 50.797c0-1.51.296-2.847.888-4.015.61-1.168 1.427-2.066 2.45-2.695 1.04-.63 2.198-.943 3.472-.943 1.112 0 2.081.224 2.907.673.843.45 1.516 1.015 2.019 1.698v-2.129h3.795v14.93h-3.795v-2.183c-.485.7-1.158 1.285-2.019 1.752-.843.45-1.821.674-2.934.674a6.396 6.396 0 0 1-3.445-.97c-1.023-.648-1.84-1.555-2.45-2.722-.592-1.186-.888-2.543-.888-4.07Zm11.736.054c0-.916-.18-1.698-.538-2.344-.359-.665-.844-1.169-1.454-1.51a3.807 3.807 0 0 0-1.965-.539c-.7 0-1.346.171-1.938.513-.592.34-1.077.844-1.454 1.508-.358.647-.538 1.42-.538 2.318 0 .899.18 1.689.538 2.372.377.665.862 1.176 1.454 1.536.61.36 1.256.539 1.938.539.7 0 1.355-.17 1.965-.513a3.918 3.918 0 0 0 1.454-1.508c.358-.665.538-1.456.538-2.372ZM184.5 46.485v7.223c0 .503.116.871.349 1.105.252.215.665.323 1.239.323h1.749v3.18h-2.368c-3.177 0-4.765-1.545-4.765-4.635v-7.196h-1.777v-3.099h1.777v-3.692h3.796v3.692h3.337v3.1H184.5ZM191.382 41.607c-.664 0-1.22-.206-1.669-.62a2.165 2.165 0 0 1-.646-1.59c0-.628.216-1.15.646-1.563.449-.43 1.005-.646 1.669-.646.664 0 1.212.215 1.642.646.449.414.673.935.673 1.564 0 .628-.224 1.158-.673 1.59-.43.413-.978.62-1.642.62Zm1.857 1.779v14.93h-3.768v-14.93h3.768ZM202.507 58.559c-1.435 0-2.727-.315-3.875-.944a7.065 7.065 0 0 1-2.719-2.722c-.646-1.167-.969-2.515-.969-4.042 0-1.527.332-2.875.996-4.042a7.018 7.018 0 0 1 2.772-2.695c1.167-.647 2.468-.97 3.903-.97 1.436 0 2.737.323 3.903.97a6.833 6.833 0 0 1 2.746 2.695c.682 1.167 1.023 2.515 1.023 4.042 0 1.527-.35 2.875-1.05 4.042a7.154 7.154 0 0 1-2.799 2.722c-1.167.63-2.477.944-3.931.944Zm0-3.288c.683 0 1.32-.162 1.912-.486.61-.34 1.095-.844 1.453-1.508.359-.666.539-1.474.539-2.426 0-1.42-.377-2.506-1.131-3.26-.736-.773-1.642-1.16-2.719-1.16-1.076 0-1.982.387-2.718 1.16-.718.754-1.077 1.84-1.077 3.26 0 1.42.35 2.515 1.05 3.288.718.754 1.615 1.131 2.691 1.131ZM220.238 43.17c1.777 0 3.212.566 4.307 1.698 1.094 1.114 1.642 2.677 1.642 4.69v8.758h-3.768V50.07c0-1.186-.297-2.094-.889-2.722-.592-.647-1.4-.97-2.422-.97-1.042 0-1.867.323-2.477.97-.592.628-.888 1.536-.888 2.722v8.246h-3.769v-14.93h3.769v1.86a5.103 5.103 0 0 1 1.911-1.51 5.914 5.914 0 0 1 2.584-.566ZM43.423 42.995v-4.54c-5.529.191-9.953 4.739-9.953 10.32v.723h-9.686v-.722c0-10.938 8.76-19.828 19.639-20.02v-4.91l16.6 9.755-16.6 9.394ZM51.933 48.776v.722c0 5.582-4.424 10.13-9.953 10.32v-4.539l-16.6 9.394 16.6 9.755v-4.91c10.88-.192 19.639-9.082 19.639-20.02v-.722h-9.686Z"/></svg>