<svg xmlns="http://www.w3.org/2000/svg" width="251" height="132" fill="none"><path fill="#fff" fill-opacity=".3" fill-rule="evenodd" d="M41.398 66.097H62.07l20.674-30.309H62.07L41.398 66.097Zm41.345 30.309H62.07L41.396 66.097h20.673l20.674 30.309Z" clip-rule="evenodd" opacity=".7"/><path fill="#fff" fill-opacity=".6" d="M57.061 65.808h20.673L57.061 35.5H36.388L57.06 65.808ZM57.06 96.406H36.386L57.06 66.097h20.673L57.06 96.406ZM92.977 65.813c0-2.736.632-5.18 1.895-7.333 1.29-2.178 3.034-3.865 5.231-5.06 2.224-1.223 4.708-1.834 7.454-1.834 3.213 0 6.027.797 8.443 2.391 2.416 1.594 4.105 3.8 5.066 6.615h-6.631c-.659-1.328-1.592-2.324-2.8-2.989-1.181-.664-2.554-.996-4.119-.996-1.675 0-3.171.386-4.489 1.156-1.291.744-2.307 1.807-3.048 3.188-.714 1.382-1.071 3.002-1.071 4.862 0 1.833.357 3.454 1.07 4.862.742 1.382 1.758 2.457 3.049 3.228 1.318.744 2.814 1.116 4.489 1.116 1.565 0 2.938-.333 4.119-.997 1.208-.69 2.141-1.7 2.8-3.028h6.631c-.961 2.843-2.65 5.06-5.066 6.655-2.389 1.567-5.203 2.351-8.443 2.351-2.746 0-5.23-.598-7.454-1.793a13.835 13.835 0 0 1-5.23-5.062c-1.264-2.151-1.896-4.596-1.896-7.332ZM134.475 80.12c-2.196 0-4.173-.466-5.93-1.395a10.651 10.651 0 0 1-4.16-4.025c-.989-1.727-1.483-3.72-1.483-5.978 0-2.258.508-4.25 1.524-5.978a10.58 10.58 0 0 1 4.242-3.985c1.785-.956 3.776-1.434 5.972-1.434 2.197 0 4.188.478 5.972 1.434a10.294 10.294 0 0 1 4.201 3.985c1.043 1.727 1.566 3.72 1.566 5.978 0 2.258-.536 4.25-1.607 5.978-1.043 1.727-2.471 3.069-4.283 4.025-1.785.93-3.79 1.395-6.014 1.395Zm0-4.862c1.044 0 2.019-.24 2.925-.717.933-.506 1.675-1.25 2.224-2.232.549-.983.823-2.179.823-3.587 0-2.099-.576-3.706-1.73-4.822-1.125-1.142-2.512-1.714-4.159-1.714-1.647 0-3.034.572-4.16 1.714-1.098 1.116-1.648 2.723-1.648 4.822s.536 3.72 1.607 4.862c1.098 1.116 2.471 1.674 4.118 1.674ZM154.727 75.338h6.293v4.423h-12.06v-29.49h5.767v25.067ZM162.557 68.642c0-2.231.453-4.21 1.359-5.938.934-1.727 2.183-3.055 3.748-3.985 1.593-.93 3.364-1.395 5.313-1.395 1.702 0 3.185.333 4.448.997 1.291.664 2.32 1.5 3.089 2.51v-3.148h5.807V79.76h-5.807v-3.227c-.742 1.036-1.771 1.9-3.089 2.59-1.29.665-2.786.997-4.489.997-1.922 0-3.679-.479-5.272-1.435-1.565-.957-2.814-2.299-3.748-4.025-.906-1.754-1.359-3.76-1.359-6.018Zm17.957.08c0-1.355-.274-2.51-.824-3.467-.549-.983-1.29-1.727-2.223-2.232a5.985 5.985 0 0 0-3.008-.797 5.99 5.99 0 0 0-2.964.757c-.907.505-1.648 1.249-2.225 2.232-.549.956-.823 2.099-.823 3.427 0 1.329.274 2.498.823 3.507.577.983 1.318 1.74 2.225 2.272a5.895 5.895 0 0 0 2.964.797 6.225 6.225 0 0 0 3.008-.758 5.883 5.883 0 0 0 2.223-2.23c.55-.984.824-2.153.824-3.508ZM196.071 60.911c.742-1.063 1.757-1.926 3.048-2.59 1.318-.664 2.815-.997 4.489-.997 1.95 0 3.707.465 5.272 1.395 1.593.93 2.842 2.258 3.749 3.985.933 1.7 1.399 3.68 1.399 5.938 0 2.258-.466 4.264-1.399 6.018-.907 1.726-2.156 3.068-3.749 4.025-1.565.956-3.322 1.435-5.272 1.435-1.702 0-3.199-.32-4.489-.957-1.263-.664-2.278-1.514-3.048-2.55v3.147h-5.766V50.27h5.766v10.641Zm12.068 7.731c0-1.328-.288-2.47-.865-3.427-.55-.983-1.29-1.727-2.224-2.232a5.99 5.99 0 0 0-2.965-.757 5.905 5.905 0 0 0-2.966.797c-.906.505-1.647 1.249-2.224 2.232-.549.983-.824 2.139-.824 3.467 0 1.329.275 2.484.824 3.467.577.983 1.318 1.74 2.224 2.271a6.141 6.141 0 0 0 2.966.758 5.753 5.753 0 0 0 2.965-.797c.934-.532 1.674-1.289 2.224-2.272.577-.983.865-2.152.865-3.507Z"/></svg>