<svg xmlns="http://www.w3.org/2000/svg" width="250" height="98" fill="none"><path fill="#fff" fill-opacity=".6" d="m27.374 55.967 13.88-6.182 7.99 4.636 1.613 15.211-9.845-.08 1.453-10.575L40.77 58l-8.312 6.508-5.084-8.541ZM50.132 53.77l12.266 9.03 4.842-8.705-9.846-3.985v-1.953l9.846-4.067-4.842-8.622-12.266 9.029v9.273ZM49.243 43.765l1.614-15.21-9.845.162 1.453 10.574-1.695.977-8.393-6.508-5.003 8.46 13.88 6.182 7.99-4.637ZM100.086 47.27v14.251h5.299V43.36h-7.717v3.91h2.418ZM99.92 40.808c.486.508 1.226.762 2.219.762.994 0 1.723-.254 2.186-.762.486-.53.729-1.193.729-1.988 0-.818-.243-1.48-.729-1.989-.463-.53-1.192-.795-2.186-.795-.993 0-1.733.265-2.218.795-.464.508-.696 1.171-.696 1.989 0 .795.232 1.458.696 1.988ZM81.64 61.123c1.501.685 3.345 1.028 5.53 1.028 2.054 0 3.82-.32 5.3-.962 1.479-.64 2.615-1.535 3.41-2.684.818-1.171 1.226-2.53 1.226-4.076 0-1.503-.386-2.773-1.16-3.812-.75-1.06-1.798-1.889-3.146-2.485-1.346-.619-2.903-1.005-4.67-1.16l-1.854-.166c-1.104-.088-1.898-.386-2.384-.894a2.506 2.506 0 0 1-.729-1.79c0-.53.133-1.016.397-1.458.266-.464.663-.829 1.193-1.094.552-.265 1.225-.397 2.02-.397.839 0 1.534.154 2.086.464.122.065.237.135.346.21l.026.017.12.087a3 3 0 0 1 .8.912c.287.486.431 1.027.431 1.624h5.298c0-1.591-.364-2.972-1.092-4.143-.729-1.193-1.778-2.11-3.146-2.75-1.348-.664-2.97-.995-4.869-.995-1.81 0-3.378.31-4.703.928-1.324.597-2.362 1.458-3.113 2.585-.729 1.127-1.093 2.464-1.093 4.01 0 2.143.718 3.866 2.153 5.17 1.435 1.304 3.356 2.055 5.763 2.253l1.821.166c1.479.133 2.55.431 3.212.895.662.442.994 1.05.994 1.823a2.756 2.756 0 0 1-.53 1.657c-.354.464-.872.828-1.557 1.093-.684.265-1.534.398-2.55.398-1.126 0-2.042-.154-2.748-.464-.707-.331-1.237-.762-1.59-1.292a3.195 3.195 0 0 1-.497-1.724H77.07c0 1.569.386 2.961 1.158 4.176.773 1.193 1.91 2.143 3.412 2.85ZM117.208 61.753c-1.833 0-3.312-.221-4.438-.663-1.126-.464-1.954-1.226-2.484-2.286-.508-1.083-.761-2.541-.761-4.375v-7.192h-2.749V43.36h2.749v-4.905h4.934v4.905h5.299v3.877h-5.299v7.39c0 .862.221 1.525.662 1.989.464.442 1.115.663 1.954.663h2.683v4.474h-2.55Z"/><path fill="#fff" fill-opacity=".6" fill-rule="evenodd" d="M126.138 61.355c1.192.53 2.561.796 4.107.796 1.522 0 2.87-.265 4.04-.796 1.17-.53 2.142-1.27 2.914-2.22a7.646 7.646 0 0 0 1.556-3.248h-4.868c-.22.552-.64 1.016-1.258 1.392-.618.376-1.413.563-2.384.563-.602 0-1.14-.07-1.614-.214a3.606 3.606 0 0 1-.97-.449c-.662-.441-1.148-1.06-1.457-1.855a6.378 6.378 0 0 1-.221-.71 7.405 7.405 0 0 1-.152-.782h13.256v-1.79c0-1.656-.353-3.18-1.06-4.573a8.487 8.487 0 0 0-3.08-3.413c-1.324-.884-2.958-1.326-4.902-1.326-1.479 0-2.804.265-3.974.796-1.147.508-2.108 1.203-2.881 2.087a9.682 9.682 0 0 0-1.788 3.016 10.184 10.184 0 0 0-.596 3.48v.663c0 1.17.198 2.32.596 3.446a10.215 10.215 0 0 0 1.788 3.016c.795.884 1.777 1.59 2.948 2.121Zm-.216-10.8a6.237 6.237 0 0 1 .207-.745 4.82 4.82 0 0 1 .108-.286c.331-.818.817-1.436 1.457-1.856.24-.157.499-.284.778-.383a4.722 4.722 0 0 1 1.573-.247c.906 0 1.656.21 2.253.63.618.398 1.082.983 1.391 1.757a5.736 5.736 0 0 1 .297 1.004c.027.125.049.255.069.388h-8.184a9.24 9.24 0 0 1 .051-.262Z" clip-rule="evenodd"/><path fill="#fff" fill-opacity=".6" d="M141.273 61.521V43.36h4.207v4.574a9.543 9.543 0 0 1 .397-1.393c.464-1.237 1.159-2.165 2.086-2.784.928-.64 2.064-.96 3.412-.96h.231c1.369 0 2.506.32 3.411.96.928.62 1.624 1.547 2.087 2.784l.037.094.031.085.064-.179c.486-1.237 1.193-2.165 2.12-2.784.927-.64 2.065-.96 3.411-.96h.232c1.369 0 2.517.32 3.444.96.95.62 1.667 1.547 2.153 2.784.485 1.238.729 2.784.729 4.64v10.34h-5.299V50.883c0-.995-.265-1.8-.795-2.42-.508-.618-1.236-.928-2.186-.928-.949 0-1.7.321-2.252.962-.552.618-.828 1.447-.828 2.485v10.54h-5.332v-10.64c0-.994-.265-1.8-.795-2.418-.508-.62-1.225-.928-2.152-.928-.972 0-1.734.32-2.286.96-.552.62-.828 1.448-.828 2.486v10.54h-5.299Z"/><path fill="#fff" fill-opacity=".6" fill-rule="evenodd" d="M183.479 58.021v3.5h4.206V50.386c0-1.68-.331-3.05-.994-4.11-.662-1.083-1.633-1.889-2.914-2.42-1.258-.53-2.815-.794-4.669-.794a62.79 62.79 0 0 0-2.054.033c-.729.022-1.435.055-2.119.1l-.523.034a81.883 81.883 0 0 0-1.265.098V47.8a188.419 188.419 0 0 1 2.983-.167 92.852 92.852 0 0 1 3.673-.099c.972 0 1.678.232 2.12.696.441.465.662 1.16.662 2.088v.067h-3.279c-1.611 0-3.035.21-4.272.63-1.236.397-2.197 1.027-2.881 1.888-.685.84-1.027 1.922-1.027 3.248 0 1.215.276 2.265.828 3.149.552.861 1.314 1.524 2.285 1.988.994.464 2.142.696 3.444.696 1.259 0 2.319-.232 3.18-.696a4.946 4.946 0 0 0 2.053-1.988c.086-.146.166-.296.24-.453a6.51 6.51 0 0 0 .281-.698l.042-.129Zm-.894-3.228v-1.458h-3.312c-.927 0-1.644.232-2.152.696-.486.442-.729 1.05-.729 1.823 0 .364.06.695.181.993.122.299.304.564.548.797.508.442 1.225.662 2.152.662.177 0 .347-.009.512-.026.135-.014.265-.034.392-.06.243-.05.472-.12.686-.212.486-.22.883-.585 1.192-1.094.309-.508.486-1.215.53-2.12Z" clip-rule="evenodd"/><path fill="#fff" fill-opacity=".6" d="M190.856 61.521V43.36h4.206v5.994c.202-1.71.71-3.09 1.524-4.138 1.104-1.392 2.693-2.088 4.769-2.088h.695v4.573h-1.325c-1.456 0-2.583.398-3.378 1.193-.794.773-1.192 1.9-1.192 3.38v9.247h-5.299ZM208.77 53.037h1.755l5.729 8.484h5.962l-7.265-10.42 5.973-7.741h-5.564l-6.59 8.635V37.328h-5.299v24.193h5.299v-8.484Z"/></svg>