<svg xmlns="http://www.w3.org/2000/svg" width="250" height="98" fill="none"><path fill="#fff" fill-opacity=".6" fill-rule="evenodd" d="M63.136 31.73h-22.3V22.42h31.76v31.26h-9.46V31.73ZM45.717 50.258a8.885 8.885 0 0 0-4.88-1.457V39.49c3.608 0 7.136 1.053 10.136 3.026 3 1.973 5.339 4.778 6.72 8.06A17.695 17.695 0 0 1 58.73 60.95a17.87 17.87 0 0 1-4.993 9.194 18.335 18.335 0 0 1-9.342 4.915c-3.539.693-7.207.337-10.541-1.022a18.185 18.185 0 0 1-8.188-6.614 17.758 17.758 0 0 1-3.075-9.977h9.46a8.55 8.55 0 0 0 1.48 4.804 8.752 8.752 0 0 0 3.943 3.184 8.916 8.916 0 0 0 5.075.492 8.825 8.825 0 0 0 4.498-2.366 8.605 8.605 0 0 0 2.404-4.427 8.52 8.52 0 0 0-.5-4.995 8.677 8.677 0 0 0-3.235-3.88Z" clip-rule="evenodd"/><path fill="#fff" fill-opacity=".6" d="M87.462 68.11V29.044h14.686c3.175 0 5.802.521 7.881 1.563 2.079 1.042 3.629 2.474 4.65 4.297 1.02 1.823 1.53 3.87 1.53 6.14 0 2.157-.491 4.148-1.474 5.97-.983 1.786-2.514 3.238-4.593 4.354-2.079 1.079-4.744 1.618-7.994 1.618H94.72v15.125h-7.258Zm7.258-20.928h6.974c2.533 0 4.347-.54 5.443-1.618 1.134-1.117 1.701-2.623 1.701-4.52 0-1.935-.567-3.442-1.701-4.521-1.096-1.117-2.91-1.675-5.443-1.675H94.72v12.334ZM131.123 68.78c-2.835 0-5.348-.595-7.541-1.786a13.034 13.034 0 0 1-5.159-5.023c-1.248-2.157-1.872-4.65-1.872-7.478 0-2.865.605-5.413 1.815-7.646 1.247-2.232 2.948-3.962 5.103-5.19 2.192-1.265 4.763-1.897 7.711-1.897 2.76 0 5.198.595 7.315 1.785 2.116 1.191 3.761 2.828 4.932 4.912 1.21 2.046 1.815 4.334 1.815 6.864 0 .41-.019.837-.056 1.284 0 .446-.019.911-.057 1.395h-21.377c.152 2.158.908 3.85 2.269 5.078 1.398 1.228 3.08 1.842 5.046 1.842 1.474 0 2.702-.316 3.685-.949 1.021-.67 1.777-1.525 2.269-2.567h7.371c-.529 1.75-1.418 3.348-2.665 4.8-1.21 1.413-2.722 2.53-4.537 3.348-1.776.819-3.798 1.228-6.067 1.228Zm.057-23.216c-1.776 0-3.345.502-4.706 1.507-1.361.967-2.23 2.455-2.608 4.464h14.005c-.113-1.823-.794-3.274-2.041-4.353-1.248-1.079-2.798-1.618-4.65-1.618ZM148.511 68.11V40.43h6.407l.567 4.687c.87-1.637 2.117-2.94 3.743-3.906 1.663-.968 3.61-1.451 5.84-1.451 3.477 0 6.18 1.079 8.108 3.236 1.928 2.158 2.892 5.32 2.892 9.488V68.11h-7.258V53.154c0-2.382-.491-4.205-1.474-5.47-.983-1.265-2.514-1.897-4.593-1.897-2.041 0-3.723.707-5.046 2.12-1.285 1.415-1.928 3.386-1.928 5.916v14.288h-7.258ZM192.704 68.11c-2.949 0-5.311-.707-7.088-2.12-1.776-1.414-2.665-3.926-2.665-7.535V46.401h-4.82v-5.972h4.82l.851-7.422h6.407v7.422h7.598v5.972h-7.598v12.11c0 1.34.283 2.27.85 2.79.605.484 1.626.726 3.062.726h3.516v6.084h-4.933ZM210.899 68.78c-2.419 0-4.404-.372-5.954-1.116-1.549-.782-2.702-1.805-3.459-3.07-.756-1.265-1.133-2.66-1.133-4.185 0-2.568 1.02-4.65 3.061-6.25 2.042-1.6 5.104-2.4 9.186-2.4h7.145v-.67c0-1.898-.549-3.293-1.645-4.186-1.096-.893-2.457-1.34-4.082-1.34-1.475 0-2.76.354-3.856 1.061-1.096.67-1.777 1.674-2.041 3.014h-7.088c.189-2.01.87-3.758 2.041-5.246 1.21-1.489 2.76-2.623 4.65-3.405 1.89-.818 4.006-1.227 6.35-1.227 4.007 0 7.164.986 9.469 2.957 2.306 1.972 3.459 4.763 3.459 8.372V68.11h-6.18l-.681-4.465c-.832 1.488-2.003 2.716-3.515 3.683-1.475.967-3.383 1.451-5.727 1.451Zm1.644-5.58c2.079 0 3.686-.67 4.82-2.01 1.172-1.34 1.909-2.995 2.211-4.967h-6.18c-1.928 0-3.307.353-4.139 1.06-.832.67-1.247 1.507-1.247 2.512 0 1.079.415 1.916 1.247 2.511.832.596 1.927.893 3.288.893Z"/></svg>