<svg xmlns="http://www.w3.org/2000/svg" width="250" height="108" fill="none"><path fill="#fff" fill-opacity=".6" d="M49.907 21.61a6.36 6.36 0 0 1 6.039 0l24.739 13.463-17.107 9.44c-2.647-2.505-6.312-4.056-10.36-4.056-4.211 0-8.006 1.677-10.674 4.362L25.025 35.15l24.882-13.54ZM39.21 50.271l-17.523-9.67v27.031l17.457-9.634a13.056 13.056 0 0 1-.55-3.758c0-1.38.215-2.712.615-3.969ZM42.387 63.501 25.3 72.931l24.607 13.39a6.36 6.36 0 0 0 6.039 0l24.463-13.313-16.668-9.198c-2.659 2.597-6.391 4.213-10.524 4.213-4.293 0-8.155-1.744-10.83-4.522ZM67.162 58.405l17.002 9.383.001-.11V40.446L67.09 49.868c.487 1.374.751 2.844.751 4.372 0 1.452-.238 2.85-.68 4.165Z"/><path fill="#fff" fill-opacity=".6" fill-rule="evenodd" d="M104.404 69.751c2.45 1.41 5.395 2.115 8.832 2.115 3.437 0 6.381-.705 8.832-2.115 2.467-1.425 4.352-3.404 5.657-5.94 1.321-2.534 1.982-5.474 1.982-8.819 0-3.344-.661-6.284-1.982-8.819-1.305-2.535-3.19-4.507-5.657-5.917-2.451-1.425-5.395-2.137-8.832-2.137-3.437 0-6.382.712-8.832 2.137-2.451 1.41-4.336 3.382-5.657 5.917-1.305 2.535-1.958 5.475-1.958 8.82 0 3.344.653 6.284 1.958 8.819 1.321 2.535 3.206 4.514 5.657 5.94Zm14.585-4.432c-1.528.975-3.446 1.455-5.753 1.44-2.307-.03-4.233-.532-5.776-1.508-1.528-.975-2.674-2.332-3.438-4.072-.764-1.754-1.146-3.817-1.146-6.187s.382-4.44 1.146-6.209c.78-1.77 1.933-3.142 3.461-4.117 1.528-.975 3.446-1.455 5.753-1.44 2.307.03 4.225.532 5.753 1.507 1.544.975 2.697 2.34 3.461 4.095.78 1.74 1.17 3.795 1.17 6.164 0 2.37-.39 4.44-1.17 6.21-.764 1.77-1.917 3.142-3.461 4.117Z" clip-rule="evenodd"/><path fill="#fff" fill-opacity=".6" d="M132.548 70.053c0 .628.541 1.138 1.208 1.138h3.361c.667 0 1.208-.51 1.208-1.138V58.84c0-.93.119-1.793.358-2.588.239-.81.604-1.53 1.098-2.16.509-.63 1.162-1.147 1.958-1.552.795-.45 1.686-.712 2.673-.787.37-.028.724-.036 1.061-.025.805.026 1.589-.532 1.589-1.29v-2.58c0-.557-.427-1.04-1.017-1.07-.441-.024-.89-.019-1.347.015a9.95 9.95 0 0 0-2.386.428 8.207 8.207 0 0 0-2.101.944 6.907 6.907 0 0 0-1.934 1.665c-.235.296-.45.608-.644.934v-2.743c0-.628-.541-1.138-1.208-1.138h-2.669c-.667 0-1.208.51-1.208 1.138v22.022Z"/><path fill="#fff" fill-opacity=".6" fill-rule="evenodd" d="M162.096 71.866c-2.514 0-4.623-.563-6.326-1.687a10.558 10.558 0 0 1-1.026-.77v.644c0 .628-.541 1.138-1.208 1.138h-2.669c-.667 0-1.208-.51-1.208-1.138v-30.12c0-.63.541-1.14 1.208-1.14h3.385c.667 0 1.208.51 1.208 1.14v8.137a10.1 10.1 0 0 1 .239-.164c1.671-1.125 3.731-1.688 6.182-1.688 2.435 0 4.544.563 6.326 1.688 1.798 1.11 3.19 2.632 4.177 4.567.987 1.92 1.48 4.11 1.48 6.57 0 2.429-.485 4.611-1.456 6.546-.971 1.935-2.34 3.465-4.106 4.59-1.766 1.124-3.835 1.687-6.206 1.687Zm-6.708-16.986c-.43 1.185-.644 2.572-.644 4.162 0 1.575.214 2.962.644 4.162.446 1.2 1.138 2.137 2.077 2.812.955.66 2.204.99 3.748.99 1.495 0 2.729-.352 3.699-1.057.971-.705 1.687-1.657 2.149-2.857.477-1.215.716-2.565.716-4.05 0-1.47-.239-2.805-.716-4.005-.478-1.215-1.217-2.174-2.22-2.88-1.003-.72-2.276-1.08-3.819-1.08-1.465 0-2.658.338-3.581 1.013-.923.66-1.607 1.59-2.053 2.79Z" clip-rule="evenodd"/><path fill="#fff" fill-opacity=".6" d="M177.693 70.053c0 .628.541 1.138 1.208 1.138h3.338c.666 0 1.207-.51 1.207-1.138V48.03c0-.628-.541-1.138-1.207-1.138h-3.338c-.667 0-1.208.51-1.208 1.138v22.022ZM203.797 70.246c0 .548-.414 1.021-.99 1.1a24.463 24.463 0 0 1-4.023.228c-1.623-.03-3.079-.308-4.368-.833-1.289-.54-2.268-1.387-2.936-2.542-.589-1.05-.9-2.122-.932-3.217a132.34 132.34 0 0 1-.047-3.713V51.145h-3.471c-.667 0-1.207-.51-1.207-1.138v-1.976c0-.628.54-1.138 1.207-1.138h3.471v-5.611c0-.629.541-1.138 1.207-1.138h3.314c.667 0 1.208.51 1.208 1.138v5.611h6.359c.667 0 1.208.51 1.208 1.138v1.976c0 .629-.541 1.138-1.208 1.138h-6.359v9.81c0 .974.008 1.83.024 2.564.032.735.198 1.335.501 1.8.573.9 1.488 1.403 2.745 1.507.882.074 1.852.066 2.906-.022.735-.063 1.391.467 1.391 1.162v2.28ZM210.518 70.201c1.877 1.11 4.144 1.665 6.802 1.665 2.88 0 5.315-.66 7.304-1.98 1.668-1.119 2.916-2.638 3.745-4.558.264-.614-.151-1.28-.836-1.424l-3.543-.746c-.602-.127-1.199.201-1.471.724-.413.792-.945 1.428-1.594 1.91-.875.66-2.077.99-3.605.99-2.164 0-3.795-.713-4.893-2.138-1.098-1.425-1.647-3.292-1.647-5.602 0-1.485.23-2.812.692-3.982.462-1.17 1.178-2.085 2.148-2.745.971-.675 2.204-1.012 3.7-1.012 1.321 0 2.499.367 3.533 1.102a5.674 5.674 0 0 1 1.788 2.032c.288.543.922.88 1.544.721l3.48-.888c.633-.161 1.02-.771.803-1.354-.709-1.901-1.926-3.436-3.652-4.605-2.021-1.395-4.496-2.093-7.424-2.093-2.61 0-4.862.555-6.756 1.665a11.305 11.305 0 0 0-4.391 4.545c-1.019 1.92-1.536 4.124-1.552 6.614.016 2.445.517 4.635 1.504 6.57a11.323 11.323 0 0 0 4.321 4.59ZM177.556 40.346l1.62-1.527a1.89 1.89 0 0 1 2.562 0l1.62 1.527a1.638 1.638 0 0 1 0 2.415l-1.62 1.527a1.89 1.89 0 0 1-2.562 0l-1.62-1.527a1.638 1.638 0 0 1 0-2.415Z"/></svg>