<svg xmlns="http://www.w3.org/2000/svg" width="250" height="108" fill="none"><path fill="#fff" fill-opacity=".6" d="M100.671 39.168h5.821v29.49h-5.821v-29.49ZM125.763 45.909c3.015 0 5.434.828 7.254 2.485 1.821 1.657 2.732 4.115 2.732 7.373v12.89h-5.598V56.441c0-1.966-.492-3.44-1.478-4.424-.984-1.01-2.388-1.516-4.208-1.516-2.061 0-3.688.59-4.882 1.769-1.194 1.151-1.791 2.823-1.791 5.013v11.374h-5.598V46.162h5.329v2.906c.926-1.039 2.09-1.825 3.493-2.359 1.404-.534 2.986-.8 4.747-.8ZM162.564 46.161l-10.255 22.496h-5.776l-10.255-22.495h5.821l7.434 16.682 7.657-16.683h5.374ZM185.648 57.536c0 .365-.03.884-.09 1.559h-18.764c.329 1.657 1.18 2.977 2.553 3.96 1.404.955 3.135 1.432 5.195 1.432 2.627 0 4.791-.815 6.493-2.443l3 3.243c-1.074 1.208-2.433 2.12-4.075 2.738-1.642.619-3.493.927-5.552.927-2.628 0-4.941-.491-6.942-1.474-2-.983-3.552-2.345-4.657-4.086-1.075-1.77-1.612-3.764-1.612-5.982 0-2.191.523-4.157 1.568-5.898 1.074-1.77 2.552-3.146 4.433-4.129 1.88-.983 4-1.474 6.358-1.474 2.329 0 4.404.491 6.225 1.474 1.851.955 3.284 2.317 4.299 4.086 1.045 1.742 1.568 3.764 1.568 6.067Zm-12.092-7.415c-1.791 0-3.313.506-4.567 1.517-1.224.983-1.97 2.303-2.239 3.96h13.569c-.24-1.629-.971-2.949-2.195-3.96-1.224-1.011-2.746-1.517-4.568-1.517ZM194.114 49.447c1.612-2.359 4.448-3.117 8.508-3.117v4.213a7.522 7.522 0 0 0-1.298-.127c-2.179 0-3.881.983-5.105 2.191-1.224 1.18-1.836 2.893-1.836 5.14v10.91h-5.598V46.162h5.329v3.285ZM221.507 67.436c-.657.505-1.463.884-2.418 1.137-.925.253-1.911.38-2.956.38-2.627 0-4.657-.646-6.09-1.938-1.433-1.292-2.149-3.174-2.149-5.645V50.543h-3.941V46.33h3.941v-5.14h5.598v5.14h6.403v4.213h-6.403v10.7c0 1.096.283 1.938.85 2.528.567.561 1.388.843 2.463.843 1.254 0 2.299-.31 3.135-.927l1.567 3.749Z"/><path fill="#fff" fill-opacity=".6" fill-rule="evenodd" d="M86.03 54c0 14.92-12.856 27.015-28.715 27.015-15.86 0-28.716-12.095-28.716-27.015s12.856-27.015 28.716-27.015C73.175 26.985 86.03 39.08 86.03 54Zm-9.024 0c0 10.23-8.816 18.524-19.69 18.524-.755 0-1.499-.04-2.23-.117 9.895-.978 17.608-8.853 17.608-18.422 0-9.522-7.636-17.365-17.46-18.407a21.143 21.143 0 0 1 2.081-.103c10.875 0 19.691 8.294 19.691 18.525Zm-26.05 13.048c6.49-1.078 11.426-6.51 11.426-13.048s-4.936-11.97-11.426-13.048a15.042 15.042 0 0 1 2.417-.195c7.775 0 14.077 5.93 14.077 13.243 0 7.314-6.303 13.243-14.077 13.243-.824 0-1.632-.067-2.417-.195Z" clip-rule="evenodd"/></svg>