<svg xmlns="http://www.w3.org/2000/svg" width="251" height="116" fill="none"><path fill="#fff" fill-opacity=".6" d="M131.348 57.206c-1.14 1.109-1.709 2.724-1.709 4.846v13.255h-7.596V49.272h6.029v8.592c.289-2.453 1.017-4.43 2.184-5.931 1.583-1.996 3.862-2.993 6.837-2.993h.997v6.556h-1.899c-2.089 0-3.704.57-4.843 1.71Z"/><path fill="#fff" fill-opacity=".6" fill-rule="evenodd" d="M154.374 72.124a8.96 8.96 0 0 0 .808-1.833v5.016h6.029V59.344c0-2.407-.475-4.37-1.424-5.891-.95-1.552-2.343-2.708-4.178-3.468-1.804-.76-4.036-1.14-6.694-1.14a97.588 97.588 0 0 0-5.983.19c-.981.063-1.835.126-2.564.19v6.413c.981-.063 2.074-.126 3.276-.19 1.203-.063 2.374-.11 3.514-.142 1.139-.032 2.057-.048 2.753-.048 1.393 0 2.406.333 3.039.998s.949 1.663.949 2.993v.095h-4.7c-2.311 0-4.352.301-6.125.903-1.772.57-3.149 1.472-4.13 2.708-.981 1.203-1.471 2.755-1.471 4.656 0 1.742.395 3.246 1.186 4.513.791 1.235 1.884 2.185 3.276 2.85 1.424.666 3.071.998 4.938.998 1.804 0 3.323-.332 4.558-.998a7.09 7.09 0 0 0 2.943-2.85Zm-1.234-3.42c.443-.73.697-1.743.759-3.041v-2.09h-4.747c-1.33 0-2.359.332-3.086.997-.696.634-1.045 1.505-1.045 2.613 0 1.045.349 1.9 1.045 2.565.727.634 1.756.95 3.086.95.854 0 1.614-.142 2.279-.427.696-.316 1.266-.839 1.709-1.568Z" clip-rule="evenodd"/><path fill="#fff" fill-opacity=".6" d="M176.962 76.21c-2.248 0-4.21-.365-5.888-1.093-1.645-.76-3.023-1.774-4.13-3.04a12.59 12.59 0 0 1-2.469-4.276 15.687 15.687 0 0 1-.807-4.989v-.902c0-1.774.285-3.469.854-5.084a13.067 13.067 0 0 1 2.517-4.37c1.107-1.268 2.485-2.265 4.13-2.994 1.678-.728 3.593-1.093 5.745-1.093 2.342 0 4.416.46 6.22 1.378 1.804.887 3.244 2.138 4.32 3.754 1.077 1.615 1.678 3.468 1.804 5.558h-7.454c-.127-1.172-.601-2.154-1.424-2.946-.792-.823-1.947-1.235-3.466-1.235-1.266 0-2.326.317-3.181.95-.823.634-1.44 1.505-1.851 2.613-.412 1.109-.618 2.423-.618 3.944 0 1.393.19 2.66.57 3.8.38 1.109.982 1.98 1.804 2.613.855.602 1.963.903 3.324.903 1.013 0 1.867-.175 2.563-.522.729-.38 1.298-.887 1.71-1.521a5.065 5.065 0 0 0 .807-2.28h7.406c-.095 2.153-.696 4.054-1.804 5.7-1.108 1.616-2.58 2.883-4.415 3.802-1.836.886-3.925 1.33-6.267 1.33Z"/><path fill="#fff" fill-opacity=".6" fill-rule="evenodd" d="M197.963 75.07c1.708.76 3.671 1.14 5.886 1.14 2.184 0 4.115-.38 5.793-1.14 1.677-.76 3.07-1.821 4.178-3.183a10.995 10.995 0 0 0 2.232-4.656h-6.98c-.316.791-.918 1.457-1.804 1.995s-2.026.808-3.419.808c-1.518 0-2.753-.317-3.702-.95-.951-.634-1.647-1.521-2.089-2.661a9.921 9.921 0 0 1-.535-2.138h19.003v-2.566c0-2.375-.506-4.56-1.52-6.556-1.012-2.027-2.484-3.658-4.415-4.893-1.899-1.267-4.241-1.9-7.027-1.9-2.12 0-4.019.38-5.696 1.14-1.647.728-3.023 1.726-4.131 2.993a13.854 13.854 0 0 0-2.564 4.323 14.616 14.616 0 0 0-.855 4.989v.95c0 1.678.285 3.325.855 4.94a14.618 14.618 0 0 0 2.564 4.324c1.139 1.267 2.548 2.28 4.226 3.04Zm-.383-15.108a8.698 8.698 0 0 1 .525-1.853c.475-1.172 1.171-2.059 2.089-2.66.917-.602 2.041-.903 3.37-.903 1.298 0 2.374.3 3.229.902.887.57 1.551 1.41 1.994 2.518.24.6.415 1.265.525 1.996H197.58Z" clip-rule="evenodd"/><path fill="#fff" fill-opacity=".6" d="M103.956 75.307V47.42h-9.733v-6.793h27.299v6.793h-9.781v27.888h-7.785Z"/><path fill="#fff" fill-opacity=".6" fill-rule="evenodd" d="M58.748 38.242c-10.828 0-19.605 8.783-19.605 19.617 0 10.835 8.777 19.618 19.605 19.618 10.827 0 19.604-8.783 19.604-19.618 0-10.834-8.777-19.617-19.604-19.617ZM34.786 57.86c0-13.242 10.728-23.976 23.962-23.976 13.233 0 23.96 10.734 23.96 23.976 0 13.243-10.727 23.977-23.96 23.977-13.234 0-23.962-10.734-23.962-23.977Z" clip-rule="evenodd"/><path fill="#fff" fill-opacity=".6" fill-rule="evenodd" d="M70.701 49.73c.639-2.012-1.269-3.903-3.274-3.244L53.768 50.97a2.59 2.59 0 0 0-1.66 1.677l-4.232 13.34c-.639 2.013 1.269 3.904 3.274 3.245l13.659-4.484a2.59 2.59 0 0 0 1.66-1.678l4.232-13.34ZM59.286 60.974a3.113 3.113 0 0 0 3.112-3.114 3.113 3.113 0 1 0-3.112 3.114Z" clip-rule="evenodd"/></svg>