<svg xmlns="http://www.w3.org/2000/svg" width="250" height="116" fill="none"><path fill="#fff" fill-opacity=".6" d="M136.735 71.558V40.243h5.518v31.315h-5.518ZM90.028 41.109l11.667 30.45h4.549l11.794-30.45h-6.107l-7.893 21.378-7.819-21.378h-6.19Z"/><path fill="#fff" fill-opacity=".6" fill-rule="evenodd" d="M118.862 70.562c1.656.953 3.51 1.43 5.56 1.43 2.049 0 3.889-.477 5.518-1.43a10.84 10.84 0 0 0 3.917-3.942c.955-1.674 1.432-3.537 1.432-5.587s-.477-3.884-1.432-5.5a10.512 10.512 0 0 0-3.917-3.899c-1.629-.982-3.483-1.473-5.56-1.473-2.022 0-3.862.491-5.518 1.473a10.497 10.497 0 0 0-3.917 3.898c-.955 1.617-1.432 3.451-1.432 5.501 0 2.05.477 3.913 1.432 5.587a11.272 11.272 0 0 0 3.917 3.942Zm8.256-4.548c-.787.462-1.7.694-2.738.694-1.011 0-1.91-.232-2.696-.694a5.204 5.204 0 0 1-1.853-1.992c-.45-.867-.674-1.848-.674-2.946 0-1.097.224-2.064.674-2.901a4.888 4.888 0 0 1 1.853-1.95c.786-.49 1.685-.736 2.696-.736 1.038 0 1.951.245 2.738.736a4.894 4.894 0 0 1 1.853 1.95c.449.837.674 1.804.674 2.901 0 1.098-.225 2.08-.674 2.946a4.818 4.818 0 0 1-1.853 1.992Z" clip-rule="evenodd"/><path fill="#fff" fill-opacity=".6" d="M148.911 70.822c1.404.78 3.004 1.17 4.802 1.17 1.797 0 3.383-.376 4.759-1.127a8.093 8.093 0 0 0 3.243-3.248c.787-1.386 1.18-3.003 1.18-4.852V50.638h-5.518v11.998c0 1.3-.323 2.31-.969 3.032-.646.722-1.544 1.083-2.695 1.083-.759 0-1.419-.16-1.98-.477a2.987 2.987 0 0 1-1.263-1.386c-.282-.635-.422-1.386-.422-2.252V50.638h-5.56v12.127c0 1.82.393 3.423 1.18 4.808a8.462 8.462 0 0 0 3.243 3.25ZM165.183 71.558v-20.92h5.518v1.815a7.123 7.123 0 0 1 1.684-1.252c1.18-.664 2.514-.996 4.002-.996 1.404 0 2.681.332 3.832.996a6.916 6.916 0 0 1 2.393 2.175 7.659 7.659 0 0 1 2.493-2.132c1.236-.693 2.612-1.04 4.128-1.04 1.517 0 2.879.333 4.086.997 1.208.635 2.162 1.56 2.864 2.772.702 1.213 1.054 2.657 1.054 4.331v13.254h-5.518V59.214c0-1.213-.379-2.151-1.138-2.815-.73-.693-1.643-1.04-2.738-1.04-.702 0-1.361.159-1.979.477a3.217 3.217 0 0 0-1.39 1.299c-.337.577-.506 1.27-.506 2.079v12.344h-5.517V59.214c0-1.213-.38-2.151-1.138-2.815-.73-.693-1.642-1.04-2.737-1.04-.73 0-1.391.159-1.98.477a3.217 3.217 0 0 0-1.39 1.299c-.337.577-.505 1.27-.505 2.079v12.344h-5.518Z"/><path fill="#fff" fill-opacity=".6" fill-rule="evenodd" d="M203.646 70.605c1.657.924 3.553 1.386 5.687 1.386 1.657 0 3.187-.303 4.591-.91a9.403 9.403 0 0 0 3.622-2.684l-3.243-3.335a6.16 6.16 0 0 1-2.19 1.645c-.843.347-1.783.52-2.822.52-1.151 0-2.162-.246-3.033-.736a5.3 5.3 0 0 1-2.022-2.166 6.651 6.651 0 0 1-.431-1.219l14.879-.037a8.92 8.92 0 0 0 .21-1.3c.057-.404.085-.794.085-1.169 0-1.992-.436-3.768-1.306-5.328-.843-1.588-2.022-2.83-3.538-3.724-1.489-.925-3.215-1.387-5.181-1.387-1.994 0-3.805.491-5.434 1.473a10.6 10.6 0 0 0-3.875 3.898c-.927 1.617-1.39 3.465-1.39 5.544 0 2.108.477 3.986 1.432 5.631a10.832 10.832 0 0 0 3.959 3.898Zm.164-11.744a6.15 6.15 0 0 1 .384-1.076c.449-.924 1.081-1.632 1.896-2.123.814-.52 1.769-.78 2.864-.78 1.039 0 1.909.232 2.611.694.73.433 1.278 1.068 1.643 1.905.189.404.34.854.451 1.35l-9.849.03ZM56.116 84.138c14.155 0 25.629-11.8 25.629-26.355S70.27 31.428 56.115 31.428c-14.154 0-25.628 11.8-25.628 26.355s11.474 26.355 25.628 26.355Zm10.615-42.486c.304.264.479.653.479 1.063v23.409c0 3.079-2.428 5.573-5.421 5.573-2.993 0-5.42-2.495-5.42-5.573 0-3.078 2.427-5.574 5.42-5.574a5.28 5.28 0 0 1 2.71.746V50.003l-13.55 2.323V68.91c0 3.078-2.427 5.573-5.42 5.573-2.994 0-5.42-2.495-5.42-5.573 0-3.078 2.426-5.574 5.42-5.574.987 0 1.913.272 2.71.746V45.502c0-.681.479-1.263 1.133-1.375l16.26-2.786a1.33 1.33 0 0 1 1.099.311Z" clip-rule="evenodd"/></svg>